<svg xmlns="http://www.w3.org/2000/svg" xmlns:xlink="http://www.w3.org/1999/xlink" width="548.717" height="284.43" viewBox="0 0 548.717 284.43">
  <defs>
    <filter id="Union_6" x="0" y="0" width="548.717" height="151.611" filterUnits="userSpaceOnUse">
      <feOffset dy="3" input="SourceAlpha"/>
      <feGaussianBlur stdDeviation="3" result="blur"/>
      <feFlood flood-opacity="0.161"/>
      <feComposite operator="in" in2="blur"/>
      <feComposite in="SourceGraphic"/>
    </filter>
    <filter id="Path_8149" x="105.48" y="172.684" width="337.812" height="80.205" filterUnits="userSpaceOnUse">
      <feOffset dy="3" input="SourceAlpha"/>
      <feGaussianBlur stdDeviation="3" result="blur-2"/>
      <feFlood flood-opacity="0.161"/>
      <feComposite operator="in" in2="blur-2"/>
      <feComposite in="SourceGraphic"/>
    </filter>
    <filter id="Path_8150" x="73.972" y="254.36" width="401.418" height="30.07" filterUnits="userSpaceOnUse">
      <feOffset dy="3" input="SourceAlpha"/>
      <feGaussianBlur stdDeviation="3" result="blur-3"/>
      <feFlood flood-opacity="0.161"/>
      <feComposite operator="in" in2="blur-3"/>
      <feComposite in="SourceGraphic"/>
    </filter>
  </defs>
  <g id="logo" transform="translate(-724 -5013.647)">
    <g id="Group_4119" data-name="Group 4119" transform="translate(733 5019.647)">
      <g transform="matrix(1, 0, 0, 1, -9, -6)" filter="url(#Union_6)">
        <path id="Union_6-2" data-name="Union 6" d="M334.853,120.449c0-6.521,4.274-11.934,10.241-12.981l.14-.725c-4.134.571-8.243,1.163-12.289,1.779l-.387,3.37a2.44,2.44,0,0,1-2.45,1.909,2.592,2.592,0,0,1-2.429-1.824l-.5-2.522c-12.488,2.1-23.864,4.239-33.608,7.62q-.482.154-.925.256c.671,2.166.373,8.4-6.538,8.4H244.606c-6.8,0-7.2-6.025-6.572-8.287a6.575,6.575,0,0,1-.894-.373c-9.737-3.38-21.113-5.515-33.6-7.62l-.5,2.522a2.583,2.583,0,0,1-2.428,1.824,2.446,2.446,0,0,1-2.454-1.909l-.38-3.37c-4.033-.612-8.125-1.2-12.241-1.772l.14.729c5.936,1.064,10.189,6.466,10.189,12.97,0,7.271-5.314,13.162-12.356,13.162s-12.355-5.892-12.355-13.162c0-6.555,4.325-11.992,10.337-13l.219-1.221q-4.83-.647-9.648-1.256l-.5,2.549a2.59,2.59,0,0,1-2.426,1.82,2.457,2.457,0,0,1-2.46-1.913l-.356-3.165c-8.129-.989-16.1-1.882-23.611-2.679l-.452,3.028a2.546,2.546,0,0,1-2.428,1.817,2.45,2.45,0,0,1-2.454-1.909L137.06,101c-9.333-.958-17.76-1.748-24.6-2.361L112,101.819a2.552,2.552,0,0,1-2.43,1.82,2.451,2.451,0,0,1-2.454-1.913l-.314-3.585c-9.054-.777-13.846-1.112-11.9-.958C42.314,93.111,9.782,90.439,9.782,90.439a2.175,2.175,0,0,1-1.749-1.167L.22,74.262c-.23-.462-.349-.582,0-.811s.7.465.7.465S7.8,84.151,8.615,85.2a3.362,3.362,0,0,0,2.566,1.632L238.971,101.3a26.411,26.411,0,0,1-.137-2.692,25.862,25.862,0,0,1,3.952-13.8l-61.609-8.339c-1.4-.387-.616-1.8.546-2.015a11.689,11.689,0,0,1,3.186-.233l61.71,5.827a25.823,25.823,0,0,1,14.442-7.195L263.8,2.48S263.8,0,265.361,0s1.557,2.48,1.557,2.48l2.734,70.531A25.831,25.831,0,0,1,283.2,80.13l62.6-5.912A11.726,11.726,0,0,1,349,74.45c1.163.216,1.943,1.629.54,2.015l-62.513,8.462A25.87,25.87,0,0,1,290.9,98.61a26.4,26.4,0,0,1-.143,2.755L519.536,86.829A3.362,3.362,0,0,0,522.1,85.2c.814-1.047,7.694-11.281,7.694-11.281s.352-.7.7-.465.233.349,0,.811l-7.811,15.01a2.182,2.182,0,0,1-1.749,1.167s-32.528,2.672-85.115,6.743c1.943-.153-2.847.181-11.9.958l-.317,3.585a2.446,2.446,0,0,1-2.45,1.913,2.556,2.556,0,0,1-2.433-1.82l-.454-3.182c-6.847.613-15.273,1.4-24.61,2.361l-.309,3.524a2.454,2.454,0,0,1-2.457,1.909,2.551,2.551,0,0,1-2.425-1.817l-.456-3.028c-7.505.8-15.478,1.69-23.607,2.679l-.356,3.165a2.453,2.453,0,0,1-2.457,1.913,2.6,2.6,0,0,1-2.429-1.82l-.5-2.549q-4.839.61-9.686,1.262l.212,1.208c6.039.986,10.381,6.433,10.381,13,0,7.271-5.311,13.162-12.355,13.162S334.853,127.719,334.853,120.449Zm-75.661,1.293a23.132,23.132,0,0,0,5.461.65,23.8,23.8,0,0,0,5.46-.636V117.12a19.081,19.081,0,0,1-10.917,0Zm-18.1-21.894h2.279c-.031-.459-.045-.931-.045-1.406a20.948,20.948,0,0,1,7.121-15.786l-3.151-.017A22.943,22.943,0,0,0,241.089,99.848ZM279.3,82.655a20.97,20.97,0,0,1,7.117,15.786c0,.466-.014.938-.045,1.4h2.282a22.934,22.934,0,0,0-6.206-17.207ZM260.19,87.4l-1.07,4.3,6.385.876,6.38-.876-1.071-4.3-5.309-.024Zm11.907-.985-.321.482,1.044,4.078,2.241,1.359-1.841-6Zm-16.019,5.919,2.245-1.359,1.044-4.078-.321-.482-1.123-.079Zm19.9-.226,2.218,0-.965-3.2L275.3,85.782l-1.284-.075Zm-20.135-6.323L253.913,88.9l-.958,3.2,2.21,0,1.953-6.4Z" transform="translate(9 6)" fill="#fefefe"/>
      </g>
    </g>
    <g transform="matrix(1, 0, 0, 1, 724, 5013.65)" filter="url(#Path_8149)">
      <path id="Path_8149-2" data-name="Path 8149" d="M16.791-60.9H3.48V0h6.786V-24.012h6c9.657,0,14.181-5.046,14.181-14.7v-7.308C30.45-55.245,26.361-60.9,16.791-60.9Zm-.522,30.8h-6V-54.723h6.525c4.959,0,6.96,2.784,6.96,8.352v8.091C23.751-32.451,21.315-30.1,16.269-30.1ZM51.243-60.9H44.457V0h6.786ZM66.9,0H91.089V-6.177h-17.4V-60.9H66.9Zm37.062-46.2V-14.7c0,9.222,4.611,15.312,13.92,15.312,9.4,0,14.007-6.09,14.007-15.312V-46.2c0-9.309-4.611-15.312-14.007-15.312C108.576-61.509,103.965-55.506,103.965-46.2Zm6.7,31.842v-32.19c0-5.481,2.349-8.787,7.221-8.787,4.959,0,7.221,3.306,7.221,8.787v32.19c0,5.568-2.262,8.787-7.221,8.787C113.013-5.568,110.664-8.787,110.664-14.355ZM155.469,0h6.7V-54.723h11.223V-60.9H144.246v6.177h11.223Zm60.2-27.405h14.964V0h6.786V-60.9h-6.786v27.4H215.673V-60.9h-6.786V0h6.786Zm43.848,13.05V-60.9h-6.7v46.2c0,9.222,4.263,15.4,13.572,15.4,9.4,0,13.659-6.177,13.659-15.4V-60.9H273.7v46.545c0,5.481-2.175,8.787-7.047,8.787C261.7-5.568,259.521-8.874,259.521-14.355Zm49.5-46.545H295.365V0h14.007c9.483,0,13.92-5.133,13.92-14.268V-19.4c0-6.7-2.262-11.4-8.178-13.05,5.307-1.653,7.134-5.655,7.134-12.093v-2.871C322.248-56.376,318.507-60.9,309.024-60.9Zm-1.653,25.839h-5.22V-54.723h6.7c4.872,0,6.7,2.61,6.7,8v3.567C315.549-36.8,312.765-35.061,307.371-35.061Zm2,28.884h-7.221V-28.884h5.916c5.829,0,8.526,2.262,8.526,9.048v5.394C316.593-8.787,314.331-6.177,309.372-6.177Z" transform="translate(111 240.19)" fill="#fff"/>
    </g>
    <g transform="matrix(1, 0, 0, 1, 724, 5013.65)" filter="url(#Path_8150)">
      <path id="Path_8150-2" data-name="Path 8150" d="M6.732.085a4.622,4.622,0,0,1-3.51-1.309,5.334,5.334,0,0,1-1.25-3.825V-11.9h.867v6.817a4.7,4.7,0,0,0,1,3.281A3.758,3.758,0,0,0,6.749-.714,3.735,3.735,0,0,0,9.639-1.8a4.7,4.7,0,0,0,1-3.281V-11.9h.867v6.851a5.311,5.311,0,0,1-1.258,3.825A4.651,4.651,0,0,1,6.732.085ZM32.045-11.9V0h-.714L23.222-10.336V0h-.867V-11.9h.731L31.178-1.564V-11.9ZM62.356-.782V0H54.145V-11.9H62.1v.782H55.012v4.692h6.341v.765H55.012V-.782Zm13.09.867a6.931,6.931,0,0,1-2.49-.451A4.8,4.8,0,0,1,71.111-1.53l.391-.646A4.605,4.605,0,0,0,73.194-1.1a6.07,6.07,0,0,0,2.235.416A4.265,4.265,0,0,0,78-1.326a2.005,2.005,0,0,0,.867-1.683A1.759,1.759,0,0,0,78.4-4.284a3.036,3.036,0,0,0-1.139-.731,15.648,15.648,0,0,0-1.836-.527,17.9,17.9,0,0,1-2.1-.629,3.352,3.352,0,0,1-1.343-.944,2.518,2.518,0,0,1-.552-1.708,2.9,2.9,0,0,1,.459-1.59,3.117,3.117,0,0,1,1.4-1.148,5.736,5.736,0,0,1,2.354-.425,6.637,6.637,0,0,1,1.938.289,5.7,5.7,0,0,1,1.649.782l-.323.7a5.508,5.508,0,0,0-1.572-.748,5.92,5.92,0,0,0-1.692-.255,4.007,4.007,0,0,0-2.5.663A2.079,2.079,0,0,0,72.3-8.84a1.759,1.759,0,0,0,.459,1.275,3.036,3.036,0,0,0,1.139.731,17.29,17.29,0,0,0,1.853.544,17.368,17.368,0,0,1,2.091.629,3.439,3.439,0,0,1,1.335.927A2.426,2.426,0,0,1,79.73-3.06a2.825,2.825,0,0,1-.467,1.581A3.18,3.18,0,0,1,77.826-.34,5.921,5.921,0,0,1,75.446.085ZM93.738-11.9a5.335,5.335,0,0,1,3.519,1.063,3.63,3.63,0,0,1,1.275,2.95,3.611,3.611,0,0,1-1.275,2.932,5.335,5.335,0,0,1-3.519,1.062h-3.4V0h-.867V-11.9Zm0,7.225a4.444,4.444,0,0,0,2.907-.833,2.919,2.919,0,0,0,1-2.38,2.944,2.944,0,0,0-1-2.389,4.413,4.413,0,0,0-2.907-.842h-3.4v6.443Zm20.519,1.326h-6.9L105.842,0h-.935l5.474-11.9h.867L116.722,0h-.935Zm-.323-.731-3.128-6.868L107.695-4.08ZM130.373.085A6.364,6.364,0,0,1,127.219-.7a5.778,5.778,0,0,1-2.21-2.159A6,6,0,0,1,124.2-5.95a6,6,0,0,1,.808-3.094,5.778,5.778,0,0,1,2.21-2.159,6.364,6.364,0,0,1,3.154-.782,6.6,6.6,0,0,1,2.38.417,4.9,4.9,0,0,1,1.853,1.233l-.544.561a4.981,4.981,0,0,0-3.655-1.411,5.505,5.505,0,0,0-2.72.68,4.976,4.976,0,0,0-1.921,1.878,5.228,5.228,0,0,0-.7,2.677,5.228,5.228,0,0,0,.7,2.677,4.976,4.976,0,0,0,1.921,1.878,5.505,5.505,0,0,0,2.72.68,4.985,4.985,0,0,0,3.655-1.428l.544.561A4.977,4.977,0,0,1,132.744-.34,6.506,6.506,0,0,1,130.373.085ZM144.313-11.9h.867V0h-.867ZM161.16.085A6.357,6.357,0,0,1,158-.705a5.823,5.823,0,0,1-2.219-2.167,5.969,5.969,0,0,1-.807-3.077,5.969,5.969,0,0,1,.807-3.077A5.823,5.823,0,0,1,158-11.194a6.357,6.357,0,0,1,3.162-.79,6.412,6.412,0,0,1,3.162.782,5.761,5.761,0,0,1,2.218,2.159,6,6,0,0,1,.808,3.094,6,6,0,0,1-.808,3.094A5.761,5.761,0,0,1,164.322-.7,6.412,6.412,0,0,1,161.16.085Zm0-.8a5.41,5.41,0,0,0,2.7-.68,5.009,5.009,0,0,0,1.9-1.878,5.228,5.228,0,0,0,.7-2.677,5.228,5.228,0,0,0-.7-2.677,5.009,5.009,0,0,0-1.9-1.878,5.41,5.41,0,0,0-2.7-.68,5.458,5.458,0,0,0-2.712.68,4.992,4.992,0,0,0-1.913,1.878,5.228,5.228,0,0,0-.7,2.677,5.228,5.228,0,0,0,.7,2.677,4.992,4.992,0,0,0,1.913,1.878A5.458,5.458,0,0,0,161.16-.714ZM192.593-11.9a5.335,5.335,0,0,1,3.519,1.063,3.63,3.63,0,0,1,1.275,2.95,3.611,3.611,0,0,1-1.275,2.932,5.335,5.335,0,0,1-3.519,1.062h-3.4V0h-.867V-11.9Zm0,7.225a4.445,4.445,0,0,0,2.907-.833,2.919,2.919,0,0,0,1-2.38,2.944,2.944,0,0,0-1-2.389,4.413,4.413,0,0,0-2.907-.842h-3.4v6.443Zm20.519,1.326h-6.9L204.7,0h-.935l5.474-11.9h.867L215.577,0h-.935Zm-.323-.731-3.128-6.868L206.55-4.08ZM232.8,0l-2.839-3.978a8.682,8.682,0,0,1-1.156.085h-3.4V0h-.867V-11.9H228.8a5.335,5.335,0,0,1,3.519,1.063,3.63,3.63,0,0,1,1.275,2.95,3.832,3.832,0,0,1-.722,2.371,3.828,3.828,0,0,1-2.066,1.352L233.784,0ZM228.8-4.658A4.413,4.413,0,0,0,231.71-5.5a2.944,2.944,0,0,0,1-2.388,2.944,2.944,0,0,0-1-2.389,4.413,4.413,0,0,0-2.907-.842h-3.4v6.46Zm22.134,1.309h-6.9L242.522,0h-.935l5.474-11.9h.867L253.4,0h-.935Zm-.323-.731-3.128-6.868L244.375-4.08ZM277.8-11.9a5.335,5.335,0,0,1,3.519,1.063,3.63,3.63,0,0,1,1.275,2.95,3.611,3.611,0,0,1-1.275,2.932A5.335,5.335,0,0,1,277.8-3.893h-3.4V0h-.867V-11.9Zm0,7.225a4.444,4.444,0,0,0,2.907-.833,2.919,2.919,0,0,0,1-2.38,2.944,2.944,0,0,0-1-2.389,4.413,4.413,0,0,0-2.907-.842h-3.4v6.443ZM292.145-11.9h.867V0h-.867Zm11.8,0h.867V-.782h6.851V0h-7.718ZM325.261.085a6.357,6.357,0,0,1-3.162-.79,5.823,5.823,0,0,1-2.219-2.167,5.969,5.969,0,0,1-.807-3.077,5.969,5.969,0,0,1,.807-3.077,5.823,5.823,0,0,1,2.219-2.167,6.357,6.357,0,0,1,3.162-.79,6.412,6.412,0,0,1,3.162.782,5.761,5.761,0,0,1,2.219,2.159,6,6,0,0,1,.807,3.094,6,6,0,0,1-.807,3.094A5.761,5.761,0,0,1,328.423-.7,6.412,6.412,0,0,1,325.261.085Zm0-.8a5.41,5.41,0,0,0,2.7-.68,5.009,5.009,0,0,0,1.9-1.878,5.228,5.228,0,0,0,.7-2.677,5.228,5.228,0,0,0-.7-2.677,5.009,5.009,0,0,0-1.9-1.878,5.41,5.41,0,0,0-2.7-.68,5.458,5.458,0,0,0-2.711.68,4.992,4.992,0,0,0-1.913,1.878,5.228,5.228,0,0,0-.7,2.677,5.228,5.228,0,0,0,.7,2.677,4.992,4.992,0,0,0,1.913,1.878A5.458,5.458,0,0,0,325.261-.714Zm17.918-10.4h-4.284V-11.9h9.435v.782h-4.284V0h-.867Zm18.8,11.2a6.357,6.357,0,0,1-3.162-.79A5.823,5.823,0,0,1,356.6-2.873a5.969,5.969,0,0,1-.807-3.077,5.969,5.969,0,0,1,.807-3.077,5.823,5.823,0,0,1,2.219-2.167,6.357,6.357,0,0,1,3.162-.79,6.412,6.412,0,0,1,3.162.782,5.761,5.761,0,0,1,2.219,2.159,6,6,0,0,1,.807,3.094,6,6,0,0,1-.807,3.094A5.761,5.761,0,0,1,365.143-.7,6.412,6.412,0,0,1,361.981.085Zm0-.8a5.41,5.41,0,0,0,2.7-.68,5.009,5.009,0,0,0,1.9-1.878,5.228,5.228,0,0,0,.7-2.677,5.228,5.228,0,0,0-.7-2.677,5.009,5.009,0,0,0-1.9-1.878,5.41,5.41,0,0,0-2.7-.68,5.458,5.458,0,0,0-2.711.68,4.992,4.992,0,0,0-1.913,1.878,5.228,5.228,0,0,0-.7,2.677,5.228,5.228,0,0,0,.7,2.677,4.992,4.992,0,0,0,1.913,1.878A5.458,5.458,0,0,0,361.981-.714Zm19.125.8a6.931,6.931,0,0,1-2.491-.451,4.8,4.8,0,0,1-1.844-1.165l.391-.646a4.605,4.605,0,0,0,1.691,1.08,6.07,6.07,0,0,0,2.236.416,4.265,4.265,0,0,0,2.567-.646,2.005,2.005,0,0,0,.867-1.683,1.759,1.759,0,0,0-.459-1.275,3.036,3.036,0,0,0-1.139-.731,15.649,15.649,0,0,0-1.836-.527,17.9,17.9,0,0,1-2.1-.629,3.352,3.352,0,0,1-1.343-.944,2.518,2.518,0,0,1-.552-1.708,2.9,2.9,0,0,1,.459-1.59,3.117,3.117,0,0,1,1.4-1.148,5.736,5.736,0,0,1,2.354-.425,6.637,6.637,0,0,1,1.938.289,5.7,5.7,0,0,1,1.649.782l-.323.7A5.508,5.508,0,0,0,383-10.965a5.92,5.92,0,0,0-1.691-.255,4.007,4.007,0,0,0-2.5.663,2.079,2.079,0,0,0-.85,1.717,1.759,1.759,0,0,0,.459,1.275,3.036,3.036,0,0,0,1.139.731,17.29,17.29,0,0,0,1.853.544,17.369,17.369,0,0,1,2.091.629,3.439,3.439,0,0,1,1.335.927,2.426,2.426,0,0,1,.552,1.674,2.825,2.825,0,0,1-.467,1.581A3.18,3.18,0,0,1,383.486-.34,5.921,5.921,0,0,1,381.106.085Z" transform="translate(81 272.35)" fill="#fff"/>
    </g>
  </g>
</svg>
