<svg xmlns="http://www.w3.org/2000/svg" width="213" height="213" viewBox="0 0 213 213">
  <g id="ico-modal-section-1-2" transform="translate(-1439 -230)">
    <g id="Group_3739" data-name="Group 3739" transform="translate(1439 230)">
      <path id="Path_7495" data-name="Path 7495" d="M1283.019,703.38a106.5,106.5,0,1,1,106.5-106.5A106.5,106.5,0,0,1,1283.019,703.38Z" transform="translate(-1176.519 -490.38)" fill="#fff"/>
    </g>
    <g id="Group_3740" data-name="Group 3740" transform="translate(1473 264)">
      <path id="Path_7495-2" data-name="Path 7495" d="M1249.019,635.38a72.5,72.5,0,1,1,72.5-72.5A72.5,72.5,0,0,1,1249.019,635.38Z" transform="translate(-1176.519 -490.38)" fill="#1c39aa"/>
    </g>
    <g id="ico-escuela-2" transform="translate(1507 290)">
      <path id="Path_7470" data-name="Path 7470" d="M70.5,120.125H5.875A5.873,5.873,0,0,1,0,114.25V37.875A5.873,5.873,0,0,1,5.875,32H70.5a5.873,5.873,0,0,1,5.875,5.875V114.25A5.873,5.873,0,0,1,70.5,120.125Zm0,0" transform="translate(0 -26.125)" fill="none"/>
      <path id="Path_7471" data-name="Path 7471" d="M48,80h58.751v70.494H48Zm0,0" transform="translate(-39.188 -65.306)" fill="#fff"/>
      <path id="Path_7472" data-name="Path 7472" d="M151.5,17.624H133.875A5.873,5.873,0,0,1,128,11.749V0h29.373V11.749A5.873,5.873,0,0,1,151.5,17.624Zm0,0" transform="translate(-104.499)" fill="#103c6a"/>
      <path id="Path_7907" data-name="Path 7907" d="M317.738,357.875h-25.49c-2.345,0-4.248-1.316-4.248-2.937S289.9,352,292.248,352h25.49c2.345,0,4.248,1.316,4.248,2.937S320.083,357.875,317.738,357.875Zm0,0" transform="translate(-267.126 -315.377)" fill="#48c8ef"/>
      <path id="Path_7908" data-name="Path 7908" d="M317.738,293.875h-25.49c-2.345,0-4.248-1.316-4.248-2.937S289.9,288,292.248,288h25.49c2.345,0,4.248,1.316,4.248,2.937S320.083,293.875,317.738,293.875Zm0,0" transform="translate(-267.126 -263.127)" fill="#48c8ef"/>
      <path id="Path_7909" data-name="Path 7909" d="M317.738,421.875h-25.49c-2.345,0-4.248-1.316-4.248-2.937S289.9,416,292.248,416h25.49c2.345,0,4.248,1.316,4.248,2.937S320.083,421.875,317.738,421.875Zm0,0" transform="translate(-267.126 -367.627)" fill="#48c8ef"/>
      <path id="Path_7910" data-name="Path 7910" d="M317.738,357.875h-25.49c-2.345,0-4.248-1.316-4.248-2.937S289.9,352,292.248,352h25.49c2.345,0,4.248,1.316,4.248,2.937S320.083,357.875,317.738,357.875Zm0,0" transform="translate(-267.126 -292.375)" fill="#48c8ef"/>
      <path id="Path_7911" data-name="Path 7911" d="M317.738,421.875h-25.49c-2.345,0-4.248-1.316-4.248-2.937S289.9,416,292.248,416h25.49c2.345,0,4.248,1.316,4.248,2.937S320.083,421.875,317.738,421.875Zm0,0" transform="translate(-267.126 -344.625)" fill="#48c8ef"/>
    </g>
  </g>
</svg>
