<svg xmlns="http://www.w3.org/2000/svg" width="213" height="213" viewBox="0 0 213 213">
  <g id="ico-modal-cma1" transform="translate(-1439 -230)">
    <g id="Group_3739" data-name="Group 3739" transform="translate(1439 230)">
      <path id="Path_7495" data-name="Path 7495" d="M1283.019,703.38a106.5,106.5,0,1,1,106.5-106.5A106.5,106.5,0,0,1,1283.019,703.38Z" transform="translate(-1176.519 -490.38)" fill="#fff"/>
    </g>
    <g id="Group_3740" data-name="Group 3740" transform="translate(1473 264)">
      <path id="Path_7495-2" data-name="Path 7495" d="M1249.019,635.38a72.5,72.5,0,1,1,72.5-72.5A72.5,72.5,0,0,1,1249.019,635.38Z" transform="translate(-1176.519 -490.38)" fill="#1c39aa"/>
    </g>
    <g id="ico-medico" transform="translate(1384 291.494)">
      <path id="Path_7479" data-name="Path 7479" d="M88.535,36.077h-26.9v-6.3a7.26,7.26,0,0,0-7.238-7.266H38.553a7.26,7.26,0,0,0-7.238,7.266v6.3H4.413A4.421,4.421,0,0,0,0,40.506V97.334a4.421,4.421,0,0,0,4.413,4.43H88.535a4.422,4.422,0,0,0,4.413-4.43V40.506A4.421,4.421,0,0,0,88.535,36.077ZM38.775,29.995h15.4v6.081h-15.4V29.995Zm7.7,65.762A26.837,26.837,0,1,1,73.208,68.92,26.785,26.785,0,0,1,46.474,95.757Z" transform="translate(115 -17)" fill="#fff"/>
      <path id="Path_7480" data-name="Path 7480" d="M125.291,127.232h-7.18v-7.18a3.514,3.514,0,0,0-3.514-3.514H109a3.514,3.514,0,0,0-3.514,3.514v7.18h-7.18a3.514,3.514,0,0,0-3.514,3.514v5.6a3.514,3.514,0,0,0,3.514,3.514h7.18v7.18A3.514,3.514,0,0,0,109,150.55h5.6a3.514,3.514,0,0,0,3.514-3.514v-7.18h7.18a3.514,3.514,0,0,0,3.514-3.514v-5.6A3.514,3.514,0,0,0,125.291,127.232Z" transform="translate(49.675 -81.604)" fill="#fff"/>
    </g>
  </g>
</svg>
