<svg xmlns="http://www.w3.org/2000/svg" width="213" height="213" viewBox="0 0 213 213">
  <g id="ico-modal-requisitos" transform="translate(-1439 -230)">
    <g id="Group_3739" data-name="Group 3739" transform="translate(1439 230)">
      <path id="Path_7495" data-name="Path 7495" d="M1283.019,703.38a106.5,106.5,0,1,1,106.5-106.5A106.5,106.5,0,0,1,1283.019,703.38Z" transform="translate(-1176.519 -490.38)" fill="#fff"/>
    </g>
    <g id="Group_3740" data-name="Group 3740" transform="translate(1473 264)">
      <path id="Path_7495-2" data-name="Path 7495" d="M1249.019,635.38a72.5,72.5,0,1,1,72.5-72.5A72.5,72.5,0,0,1,1249.019,635.38Z" transform="translate(-1176.519 -490.38)" fill="#1c39aa"/>
    </g>
    <g id="list" transform="translate(1510.588 301.5)">
      <g id="Group_3267" data-name="Group 3267">
        <g id="Group_3266" data-name="Group 3266">
          <path id="Path_7556" data-name="Path 7556" d="M8.864,0H62.048a8.875,8.875,0,0,1,8.864,8.864V62.048a8.875,8.875,0,0,1-8.864,8.864H8.864A8.875,8.875,0,0,1,0,62.048V8.864A8.875,8.875,0,0,1,8.864,0ZM5.909,62.048A2.958,2.958,0,0,0,8.864,65H62.048A2.958,2.958,0,0,0,65,62.048V8.864a2.959,2.959,0,0,0-2.955-2.955H8.864A2.959,2.959,0,0,0,5.909,8.864Z" fill="#fff"/>
        </g>
      </g>
      <g id="Group_3269" data-name="Group 3269" transform="translate(50.229 14.773)">
        <g id="Group_3268" data-name="Group 3268">
          <path id="Path_7557" data-name="Path 7557" d="M106.9,108.5a3.051,3.051,0,0,1,.62-.975l.443-.355a2.239,2.239,0,0,1,.532-.266,1.876,1.876,0,0,1,.532-.177,2.825,2.825,0,0,1,1.714.177,3.411,3.411,0,0,1,.975.62,3.051,3.051,0,0,1,.62.975,2.784,2.784,0,0,1,0,2.246,3.051,3.051,0,0,1-.62.975,3.107,3.107,0,0,1-2.1.857,4.429,4.429,0,0,1-.591-.059,1.876,1.876,0,0,1-.532-.177,2.241,2.241,0,0,1-.532-.266l-.443-.355a3.107,3.107,0,0,1-.857-2.1A2.948,2.948,0,0,1,106.9,108.5Z" transform="translate(-106.667 -106.666)" fill="#fff"/>
        </g>
      </g>
      <g id="Group_3271" data-name="Group 3271" transform="translate(14.773 14.773)">
        <g id="Group_3270" data-name="Group 3270">
          <path id="Path_7558" data-name="Path 7558" d="M194.955,106.667h23.637a2.955,2.955,0,0,1,0,5.909H194.955a2.955,2.955,0,0,1,0-5.909Z" transform="translate(-192 -106.667)" fill="#fff"/>
        </g>
      </g>
      <g id="Group_3273" data-name="Group 3273" transform="translate(50.229 32.516)">
        <g id="Group_3272" data-name="Group 3272">
          <path id="Path_7559" data-name="Path 7559" d="M106.726,237.122a1.876,1.876,0,0,1,.177-.532,2.241,2.241,0,0,1,.266-.532l.355-.443a3.412,3.412,0,0,1,.975-.621,2.955,2.955,0,0,1,2.245,0,3.412,3.412,0,0,1,.975.621l.355.443a2.241,2.241,0,0,1,.266.532,1.876,1.876,0,0,1,.177.532,4.449,4.449,0,0,1,.059.591,2.955,2.955,0,1,1-5.91,0A4.5,4.5,0,0,1,106.726,237.122Z" transform="translate(-106.667 -234.773)" fill="#fff"/>
        </g>
      </g>
      <g id="Group_3275" data-name="Group 3275" transform="translate(14.773 32.501)">
        <g id="Group_3274" data-name="Group 3274">
          <path id="Path_7560" data-name="Path 7560" d="M194.955,234.667h23.637a2.955,2.955,0,0,1,0,5.909H194.955a2.955,2.955,0,0,1,0-5.909Z" transform="translate(-192 -234.667)" fill="#fff"/>
        </g>
      </g>
      <g id="Group_3277" data-name="Group 3277" transform="translate(50.229 50.252)">
        <g id="Group_3276" data-name="Group 3276">
          <path id="Path_7561" data-name="Path 7561" d="M106.9,364.637a2.861,2.861,0,0,1,3.841-1.6,2.664,2.664,0,0,1,1.6,1.6,2.951,2.951,0,1,1-5.673,1.123A2.481,2.481,0,0,1,106.9,364.637Z" transform="translate(-106.667 -362.827)" fill="#fff"/>
        </g>
      </g>
      <g id="Group_3279" data-name="Group 3279" transform="translate(14.773 50.229)">
        <g id="Group_3278" data-name="Group 3278">
          <path id="Path_7562" data-name="Path 7562" d="M194.955,362.667h23.637a2.955,2.955,0,1,1,0,5.909H194.955a2.955,2.955,0,1,1,0-5.909Z" transform="translate(-192 -362.667)" fill="#fff"/>
        </g>
      </g>
    </g>
  </g>
</svg>
