<svg xmlns="http://www.w3.org/2000/svg" width="213" height="213" viewBox="0 0 213 213">
  <g id="ico-modal-simulador" transform="translate(-1094 -5486)">
    <g id="ico-modal-curso" transform="translate(-345 5256)">
      <g id="Group_3739" data-name="Group 3739" transform="translate(1439 230)">
        <path id="Path_7495" data-name="Path 7495" d="M1283.019,703.38a106.5,106.5,0,1,1,106.5-106.5A106.5,106.5,0,0,1,1283.019,703.38Z" transform="translate(-1176.519 -490.38)" fill="#fff"/>
      </g>
      <g id="Group_3740" data-name="Group 3740" transform="translate(1473 264)">
        <path id="Path_7495-2" data-name="Path 7495" d="M1249.019,635.38a72.5,72.5,0,1,1,72.5-72.5A72.5,72.5,0,0,1,1249.019,635.38Z" transform="translate(-1176.519 -490.38)" fill="#1c39aa"/>
      </g>
    </g>
    <g id="ico-simulador-2" transform="translate(1155 5546.99)">
      <path id="Path_1899" data-name="Path 1899" d="M.158,9.547,5.494,29.591V39.877A29.269,29.269,0,0,0,34.729,69.112h2.658V90.729H53.334V69.112h2.658A29.358,29.358,0,0,0,85.4,39.877V29.583L90.565,9.547A7.973,7.973,0,0,0,82.747.01H66.8a8.119,8.119,0,0,0-8.151,7.973,8.121,8.121,0,0,0,8.1,7.973l2.71,13.552V39.877a13.258,13.258,0,0,1-5.493,10.662v-.031a18.6,18.6,0,1,0-37.209,0A13.318,13.318,0,0,1,21.44,39.877V29.509l2.71-13.552A7.973,7.973,0,0,0,24.1.01H7.976A7.973,7.973,0,0,0,.158,9.547ZM48.018,85.414H42.7v-16.3h5.316ZM66.8,10.641a2.823,2.823,0,0,1-2.835-2.658A2.823,2.823,0,0,1,66.8,5.326H82.747a2.658,2.658,0,0,1,2.617,3.119L80.687,26.588H74.294L72.168,15.957H75.3V10.641H66.8ZM63.965,56.691A18.681,18.681,0,0,0,74.774,39.877V31.9h5.316v7.973A23.973,23.973,0,0,1,63.965,62.449ZM32.072,50.508a13.289,13.289,0,1,1,26.578,0V63.651a24.428,24.428,0,0,1-2.658.146H34.729a24.071,24.071,0,0,1-2.658-.148Zm-5.316,6.179v5.742A23.96,23.96,0,0,1,10.809,39.877V31.9h5.316v7.973A18.641,18.641,0,0,0,26.756,56.687ZM7.976,5.326H24.1a2.658,2.658,0,1,1,0,5.316h-8.5v5.316H18.73L16.6,26.588h-6.41L5.357,8.436A2.658,2.658,0,0,1,7.976,5.326Z" transform="translate(0 0)" fill="#fff"/>
      <path id="Path_1900" data-name="Path 1900" d="M217.232,252.464a6.227,6.227,0,1,0-6.227-6.227A6.234,6.234,0,0,0,217.232,252.464Zm0-8.3a2.076,2.076,0,1,1-2.076,2.076A2.078,2.078,0,0,1,217.232,244.161Z" transform="translate(-171.871 -195.489)" fill="#fff"/>
    </g>
  </g>
</svg>
