<svg xmlns="http://www.w3.org/2000/svg" width="213" height="213" viewBox="0 0 213 213">
  <g id="ico-modal-atribuciones" transform="translate(-1439 -230)">
    <g id="Group_3739" data-name="Group 3739" transform="translate(1439 230)">
      <path id="Path_7495" data-name="Path 7495" d="M1283.019,703.38a106.5,106.5,0,1,1,106.5-106.5A106.5,106.5,0,0,1,1283.019,703.38Z" transform="translate(-1176.519 -490.38)" fill="#fff"/>
    </g>
    <g id="Group_3740" data-name="Group 3740" transform="translate(1473 264)">
      <path id="Path_7495-2" data-name="Path 7495" d="M1249.019,635.38a72.5,72.5,0,1,1,72.5-72.5A72.5,72.5,0,0,1,1249.019,635.38Z" transform="translate(-1176.519 -490.38)" fill="#1c39aa"/>
    </g>
    <path id="id-card" d="M9.98,41.154H33.172a9.981,9.981,0,0,1,18.82,0H75.185a9.992,9.992,0,0,1,9.98,9.98V98.207a9.992,9.992,0,0,1-9.98,9.98H9.97A9.994,9.994,0,0,1,0,98.207V51.134A9.992,9.992,0,0,1,9.98,41.154Zm32.6,0a3.327,3.327,0,1,0,3.327,3.327A3.331,3.331,0,0,0,42.583,41.154ZM6.654,98.207a3.33,3.33,0,0,0,3.32,3.327H75.185a3.331,3.331,0,0,0,3.327-3.327V51.134a3.331,3.331,0,0,0-3.327-3.327H51.991a9.978,9.978,0,0,1-18.816,0H9.98a3.331,3.331,0,0,0-3.327,3.327ZM32.769,66.77H13.141v6.654H32.769Zm0,13.473H13.141V86.9H32.769Zm14.1-2.234a10.478,10.478,0,1,1,16.951.139,16.64,16.64,0,0,1,8.041,14.238H65.2a9.98,9.98,0,1,0-19.961,0H38.591A16.642,16.642,0,0,1,46.866,78.009ZM55.391,68.1a3.826,3.826,0,1,0,3.826,3.826A3.83,3.83,0,0,0,55.391,68.1Z" transform="translate(1503 265.5)" fill="#fff"/>
  </g>
</svg>
