<svg xmlns="http://www.w3.org/2000/svg" width="213" height="213" viewBox="0 0 213 213">
  <g id="ico-modal-s-1-anac" transform="translate(-60 -4417)">
    <g id="ico-modal-section-1-1" transform="translate(-1379 4187)">
      <g id="Group_3739" data-name="Group 3739" transform="translate(1439 230)">
        <path id="Path_7495" data-name="Path 7495" d="M1283.019,703.38a106.5,106.5,0,1,1,106.5-106.5A106.5,106.5,0,0,1,1283.019,703.38Z" transform="translate(-1176.519 -490.38)" fill="#fff"/>
      </g>
      <g id="Group_3740" data-name="Group 3740" transform="translate(1473 264)">
        <path id="Path_7495-2" data-name="Path 7495" d="M1249.019,635.38a72.5,72.5,0,1,1,72.5-72.5A72.5,72.5,0,0,1,1249.019,635.38Z" transform="translate(-1176.519 -490.38)" fill="#1c39aa"/>
      </g>
    </g>
    <g id="logo-anac" transform="translate(-147.799 -2263.323)">
      <path id="Path_8191" data-name="Path 8191" d="M14.938,31.014H21.09L33.351,60.693h-6.3L24.556,54.58h-13l-2.6,6.113h-6.3Zm3.119,7.869L13.812,49.072h8.47Zm20.016-7.869h5.805L57.547,50.545V31.014h6.065V60.693H57.786L44.138,41.223v19.47H38.073Zm42.5,0h6.152L98.987,60.693h-6.3L90.192,54.58h-13l-2.6,6.113h-6.3Zm3.119,7.869L79.448,49.072h8.47Zm49.281-2.643-4.246,3.773a13.579,13.579,0,0,0-9.748-4.257,10.9,10.9,0,0,0-7.7,2.905,9.386,9.386,0,0,0-3.13,7.163,10,10,0,0,0,1.386,5.266,9.626,9.626,0,0,0,3.921,3.612,12.071,12.071,0,0,0,5.632,1.311,12.364,12.364,0,0,0,4.831-.918,17.294,17.294,0,0,0,4.809-3.339l4.116,3.995a22.641,22.641,0,0,1-6.672,4.449A19.4,19.4,0,0,1,119,61.44a17.182,17.182,0,0,1-12.163-4.388A14.654,14.654,0,0,1,102.106,45.8a14.577,14.577,0,0,1,2.155-7.889,15.575,15.575,0,0,1,6.174-5.548,18.42,18.42,0,0,1,8.654-2.1,19.2,19.2,0,0,1,7.593,1.554A18.1,18.1,0,0,1,132.974,36.24Z" transform="translate(246.143 6741.056)" fill="#fff"/>
    </g>
  </g>
</svg>
