<svg xmlns="http://www.w3.org/2000/svg" width="213" height="213" viewBox="0 0 213 213">
  <g id="ico-modal-conocimientos" transform="translate(-1439 -230)">
    <g id="Group_3739" data-name="Group 3739" transform="translate(1439 230)">
      <path id="Path_7495" data-name="Path 7495" d="M1283.019,703.38a106.5,106.5,0,1,1,106.5-106.5A106.5,106.5,0,0,1,1283.019,703.38Z" transform="translate(-1176.519 -490.38)" fill="#fff"/>
    </g>
    <g id="Group_3740" data-name="Group 3740" transform="translate(1473 264)">
      <path id="Path_7495-2" data-name="Path 7495" d="M1249.019,635.38a72.5,72.5,0,1,1,72.5-72.5A72.5,72.5,0,0,1,1249.019,635.38Z" transform="translate(-1176.519 -490.38)" fill="#1c39aa"/>
    </g>
    <g id="verified-text-paper" transform="translate(1502 303)">
      <g id="Group_3265" data-name="Group 3265" transform="translate(-3)">
        <path id="Path_7549" data-name="Path 7549" d="M32.33,62.509h14.6a5.034,5.034,0,0,0,5.1-4.982V12.267A5.02,5.02,0,0,0,46.93,7.3H11.593a4.992,4.992,0,0,0-5.067,4.965V50.193L0,42.434V7.421A6.58,6.58,0,0,1,6.564.778H52.22a6.341,6.341,0,0,1,6.334,6.376v55.4A6.618,6.618,0,0,1,51.947,69.2H26.31l3.03-2.631A11.572,11.572,0,0,0,32.33,62.509Z" transform="translate(19.929 -0.778)" fill="#fff"/>
        <path id="Path_7550" data-name="Path 7550" d="M7.965,6.794H37.272a3.261,3.261,0,0,1,0,6.522H7.967a3.261,3.261,0,0,1,0-6.522Z" transform="translate(26.275 8.096)" fill="#fff"/>
        <path id="Path_7551" data-name="Path 7551" d="M7.965,11.187H37.272a3.262,3.262,0,0,1,0,6.524H7.967a3.262,3.262,0,0,1,0-6.524Z" transform="translate(26.275 14.576)" fill="#fff"/>
        <path id="Path_7552" data-name="Path 7552" d="M7.965,15.581H37.272a3.179,3.179,0,1,1,0,6.356H7.967a3.179,3.179,0,1,1,0-6.356Z" transform="translate(26.275 21.058)" fill="#fff"/>
        <path id="Path_7553" data-name="Path 7553" d="M24.522,22.956a3.184,3.184,0,0,1-3.252,3.176H10.335a13.191,13.191,0,0,0-2.121-3.661,11.566,11.566,0,0,0-3.495-2.7H21.268A3.2,3.2,0,0,1,24.522,22.956Z" transform="translate(42.28 27.234)" fill="#fff"/>
        <path id="Path_7554" data-name="Path 7554" d="M20.144,19.771H22.59a8.933,8.933,0,0,0-2.267,1.512l-3.247,2.78a3.084,3.084,0,0,1-.188-1.082A3.229,3.229,0,0,1,20.144,19.771Z" transform="translate(14.096 27.239)" fill="#fff"/>
        <path id="Path_7555" data-name="Path 7555" d="M14.51,17.063a5.688,5.688,0,0,1,8.034.644L41.266,39.653l9.358-8.039a5.7,5.7,0,1,1,7.425,8.648L44.355,52.024A5.738,5.738,0,0,1,40.642,53.4c-.153,0-.295,0-.45-.02A5.7,5.7,0,0,1,36.3,51.4L13.862,25.1A5.7,5.7,0,0,1,14.51,17.063Z" transform="translate(-12.503 21.229)" fill="#fff"/>
      </g>
    </g>
  </g>
</svg>
