<svg xmlns="http://www.w3.org/2000/svg" width="213" height="213" viewBox="0 0 213 213">
  <g id="ico-modal-examen" transform="translate(-1439 -230)">
    <g id="Group_3739" data-name="Group 3739" transform="translate(1439 230)">
      <path id="Path_7495" data-name="Path 7495" d="M1283.019,703.38a106.5,106.5,0,1,1,106.5-106.5A106.5,106.5,0,0,1,1283.019,703.38Z" transform="translate(-1176.519 -490.38)" fill="#fff"/>
    </g>
    <g id="Group_3740" data-name="Group 3740" transform="translate(1473 264)">
      <path id="Path_7495-2" data-name="Path 7495" d="M1249.019,635.38a72.5,72.5,0,1,1,72.5-72.5A72.5,72.5,0,0,1,1249.019,635.38Z" transform="translate(-1176.519 -490.38)" fill="#1c39aa"/>
      <g id="ico-examen" transform="translate(16.61 36)">
        <g id="Group_4134" data-name="Group 4134" transform="translate(15.39 -5)">
          <g id="Group_4133" data-name="Group 4133" transform="translate(0)">
            <path id="Path_8171" data-name="Path 8171" d="M147.829,203.363A3.363,3.363,0,0,0,144.466,200H109.822a3.363,3.363,0,0,0,0,6.727h34.643A3.363,3.363,0,0,0,147.829,203.363Z" transform="translate(-90.367 -167.903)" fill="#fff"/>
            <path id="Path_8172" data-name="Path 8172" d="M109.822,280a3.363,3.363,0,1,0,0,6.727h21.04a3.363,3.363,0,1,0,0-6.727Z" transform="translate(-84.331 -235.064)" fill="#fff"/>
            <path id="Path_8173" data-name="Path 8173" d="M53.131,76.032H36.383a6.432,6.432,0,0,1-6.406-6.443v-56.7a6.432,6.432,0,0,1,6.406-6.443H81.8a6.432,6.432,0,0,1,6.406,6.443V32.7a3.2,3.2,0,1,0,6.406,0V12.887A12.865,12.865,0,0,0,81.8,0H36.383A12.865,12.865,0,0,0,23.57,12.887v56.7A12.865,12.865,0,0,0,36.383,82.476H53.131a3.222,3.222,0,0,0,0-6.443Z" transform="translate(-23.57 0)" fill="#fff"/>
            <path id="Path_8174" data-name="Path 8174" d="M281.2,274.975a10.1,10.1,0,0,0-14.267,0L248.466,293.4a3.363,3.363,0,0,0-.843,1.4L243.6,308.04a3.363,3.363,0,0,0,4.116,4.219l13.576-3.76a3.362,3.362,0,0,0,1.478-.861L281.2,289.245A10.1,10.1,0,0,0,281.2,274.975Zm-22.553,27.277-6.83,1.892,2-6.58,12.46-12.432,4.758,4.758Zm17.8-17.765-.652.65-4.757-4.757.65-.648a3.364,3.364,0,0,1,4.759,4.755Z" transform="translate(-203.838 -229.905)" fill="#fff"/>
            <path id="Path_8175" data-name="Path 8175" d="M144.466,120H109.822a3.363,3.363,0,0,0,0,6.727h34.643a3.363,3.363,0,1,0,0-6.727Z" transform="translate(-90.367 -100.742)" fill="#fff"/>
          </g>
        </g>
      </g>
    </g>
  </g>
</svg>
