<svg xmlns="http://www.w3.org/2000/svg" width="213" height="213" viewBox="0 0 213 213">
  <g id="ico-modal-section-2-2" transform="translate(-1439 -230)">
    <g id="Group_3739" data-name="Group 3739" transform="translate(1439 230)">
      <path id="Path_7495" data-name="Path 7495" d="M1283.019,703.38a106.5,106.5,0,1,1,106.5-106.5A106.5,106.5,0,0,1,1283.019,703.38Z" transform="translate(-1176.519 -490.38)" fill="#fff"/>
    </g>
    <g id="Group_3740" data-name="Group 3740" transform="translate(1473 264)">
      <path id="Path_7495-2" data-name="Path 7495" d="M1249.019,635.38a72.5,72.5,0,1,1,72.5-72.5A72.5,72.5,0,0,1,1249.019,635.38Z" transform="translate(-1176.519 -490.38)" fill="#1c39aa"/>
    </g>
    <g id="ico-afip" transform="translate(1486 320)">
      <path id="Path_7466" data-name="Path 7466" d="M47.68,39.866l-6.1-13.51-3.6-8.264a2.111,2.111,0,0,0-1.8-1.267H29.475a2.165,2.165,0,0,0-1.982,1.367L14.332,47.066a1.611,1.611,0,0,0,.052,1.5,1.391,1.391,0,0,0,1.218.628H31.054A1.924,1.924,0,0,0,32.891,48.1l1.881-4.246,10.526-.01a2.5,2.5,0,0,0,2.128-1.1,3.1,3.1,0,0,0,.254-2.883M31.643,47.527c-.105.242-.443.266-.589.266H15.6a.437.437,0,0,1-.066,0,.493.493,0,0,1,.041-.153L28.717,18.8a.737.737,0,0,1,.759-.471H36.17a.642.642,0,0,1,.569.357l3.6,8.255.074.167a.894.894,0,0,1,.083.343.972.972,0,0,1-.1.386l-.02.039c-.4.923-8.644,19.454-8.732,19.652m14.677-5.6a1.2,1.2,0,0,1-.95.52h-.042l-9.933,0,5.926-13.336c1.669,3.687,5.049,11.173,5.08,11.242a2.309,2.309,0,0,1,.149.788,1.291,1.291,0,0,1-.23.781" transform="translate(-14.173 -16.824)" fill="#fff"/>
      <path id="Path_7467" data-name="Path 7467" d="M77.334,43.7H64.683a2.365,2.365,0,0,1-2.05-2.516V19.293a2.585,2.585,0,0,1,.614-1.765,2.114,2.114,0,0,1,1.533-.7H77.5a1.92,1.92,0,0,1,1.374.639,2.645,2.645,0,0,1,.691,1.919l-.01,21.851A2.351,2.351,0,0,1,77.334,43.7m.178-25.612v.194l-12.726.014a.733.733,0,0,0-.551.2,1.253,1.253,0,0,0-.24.882V41.182c0,.618.374,1.117.687,1.117H77.334a.976.976,0,0,0,.86-1.065L78.2,19.383a1.329,1.329,0,0,0-.285-.929.535.535,0,0,0-.4-.174Z" transform="translate(5.449 -16.824)" fill="#fff"/>
      <path id="Path_7468" data-name="Path 7468" d="M108.019,18.011a2.445,2.445,0,0,0-2.012-1.186H91.224c-.018,0-.035,0-.053,0H79.22a2.543,2.543,0,0,0-2.654,2.69V41.177a2.739,2.739,0,0,0,.7,1.888,2.063,2.063,0,0,0,1.522.628H91.077a2.477,2.477,0,0,0,2.407-2.461l0-5.021h.61l4.414-.006a3.977,3.977,0,0,0,3.753-2.249l5.815-13.174a3.029,3.029,0,0,0-.06-2.771M91.077,42.282H78.791a.754.754,0,0,1-.565-.211,1.326,1.326,0,0,1-.3-.895V19.516a1.167,1.167,0,0,1,1.3-1.252l11.9.007h0a1.575,1.575,0,0,0,.164-.007h.847l-.006,22.968a1.12,1.12,0,0,1-1.049,1.051M106.835,20.2l-5.808,13.168A2.608,2.608,0,0,1,98.508,34.8l-5.02.011L93.5,18.264h12.494a1.13,1.13,0,0,1,.87.48,1.249,1.249,0,0,1,.162.635,2.024,2.024,0,0,1-.19.82" transform="translate(11.091 -16.825)" fill="#fff"/>
      <path id="Path_7469" data-name="Path 7469" d="M68.853,17.681a1.8,1.8,0,0,0-1.516-.856H54.966c-.022,0-.044,0-.062,0H42.645a2.338,2.338,0,0,0-2.544,2.49V41.429a2.173,2.173,0,0,0,2.053,2.313H54.808a2.35,2.35,0,0,0,2.218-2.461l.006-5.114h2.324A5.289,5.289,0,0,0,61.185,36a1.486,1.486,0,0,0,.707-.754l2.367-5.367c.084-.233.357-.725.646-1.391.181-.416.406-.9.631-1.4.239-.535.469-1.075.728-1.623.176-.371.346-.8.516-1.142l2.189-4.9a1.87,1.87,0,0,0-.115-1.739M55.666,41.28a.966.966,0,0,1-.858,1.051H42.154c-.392,0-.68-.384-.68-.9V19.315c0-.78.325-1.087,1.172-1.087l12.212.044c.034,0,.072-.006.11-.007h.7Zm7.818-13.274c-.034.081-1.562,3.924-2.515,5.873-.45.92-.45.92-1.422.92H57.029l0-7.61H63.06a.479.479,0,0,1,.4.228.526.526,0,0,1,.084.3.864.864,0,0,1-.058.294m4.1-9.107-2.429,5.371c-.66,1.574-.788,1.545-2.338,1.545H57.033l.007-7.551H67.2a.383.383,0,0,1,.36.192.483.483,0,0,1,.06.249.478.478,0,0,1-.035.194" transform="translate(-3.675 -16.824)" fill="#fff"/>
    </g>
  </g>
</svg>
