<svg xmlns="http://www.w3.org/2000/svg" width="213" height="213" viewBox="0 0 213 213">
  <g id="ico-modal-tramites" transform="translate(-1439 -230)">
    <g id="Group_3739" data-name="Group 3739" transform="translate(1439 230)">
      <path id="Path_7495" data-name="Path 7495" d="M1283.019,703.38a106.5,106.5,0,1,1,106.5-106.5A106.5,106.5,0,0,1,1283.019,703.38Z" transform="translate(-1176.519 -490.38)" fill="#fff"/>
    </g>
    <g id="Group_3740" data-name="Group 3740" transform="translate(1473 264)">
      <path id="Path_7495-2" data-name="Path 7495" d="M1249.019,635.38a72.5,72.5,0,1,1,72.5-72.5A72.5,72.5,0,0,1,1249.019,635.38Z" transform="translate(-1176.519 -490.38)" fill="#f39d00"/>
    </g>
    <path id="search_1_" data-name="search (1)" d="M27.726,49.906h9.427v5.545H27.726Zm-10.4-.693a3.466,3.466,0,1,0,3.466,3.466A3.465,3.465,0,0,0,17.329,49.214ZM55.73,32.3h-28v5.545h28Zm-38.4-.693a3.466,3.466,0,1,0,3.466,3.466A3.465,3.465,0,0,0,17.329,31.607Zm38.4-15.943h-28v5.545h28Zm-38.4-.693a3.466,3.466,0,1,0,3.466,3.466,3.466,3.466,0,0,0-3.466-3.466ZM5.545,62.661V8.317A2.776,2.776,0,0,1,8.318,5.544H62.662a2.776,2.776,0,0,1,2.772,2.773V39.648H70.98V8.317A8.327,8.327,0,0,0,62.662,0H8.318A8.328,8.328,0,0,0,0,8.317V62.661a8.327,8.327,0,0,0,8.318,8.318H40.342V65.433H8.318a2.776,2.776,0,0,1-2.773-2.772ZM67.078,71l-5.522-5.522a12.491,12.491,0,1,1,4.016-3.827L71,67.077Zm-11.9-9.308a6.932,6.932,0,1,0-6.932-6.931A6.939,6.939,0,0,0,55.176,61.69Zm0,0" transform="translate(1510 301.001)" fill="#fafafa"/>
  </g>
</svg>
