<svg xmlns="http://www.w3.org/2000/svg" width="213" height="213" viewBox="0 0 213 213">
  <g id="ico-modal-costumbres" transform="translate(-1439 -230)">
    <g id="Group_3739" data-name="Group 3739" transform="translate(1439 230)">
      <path id="Path_7495" data-name="Path 7495" d="M1283.019,703.38a106.5,106.5,0,1,1,106.5-106.5A106.5,106.5,0,0,1,1283.019,703.38Z" transform="translate(-1176.519 -490.38)" fill="#fff"/>
    </g>
    <g id="Group_3740" data-name="Group 3740" transform="translate(1473 264)">
      <path id="Path_7495-2" data-name="Path 7495" d="M1249.019,635.38a72.5,72.5,0,1,1,72.5-72.5A72.5,72.5,0,0,1,1249.019,635.38Z" transform="translate(-1176.519 -490.38)" fill="#1c39aa"/>
    </g>
    <path id="gdpr_1_" data-name="gdpr (1)" d="M66.8,63.61H57.834V3.212A3.211,3.211,0,0,0,54.622,0H3.212A3.211,3.211,0,0,0,0,3.212v63.61A15.409,15.409,0,0,0,15.389,82.215H54.622A15.409,15.409,0,0,0,70.011,66.822,3.212,3.212,0,0,0,66.8,63.61ZM24.355,66.822a8.966,8.966,0,1,1-17.932,0V6.423H51.411V63.61H27.566a3.212,3.212,0,0,0-3.212,3.212Zm30.267,8.97H27.888a15.328,15.328,0,0,0,2.553-5.759H62.994a8.982,8.982,0,0,1-8.372,5.759ZM43.369,20.017c-6.721,0-11.994-5.7-12.066-5.784a3.213,3.213,0,0,0-4.778.008c-.051.058-5.361,5.776-12.059,5.776a3.211,3.211,0,0,0-3.212,3.212c0,14.443,3.05,27.04,16.285,33.326a3.209,3.209,0,0,0,2.756,0C43.547,50.26,46.58,37.641,46.58,23.229a3.211,3.211,0,0,0-3.212-3.212ZM28.917,50.042c-8.691-4.865-10.9-13.884-11.2-23.887a24.951,24.951,0,0,0,11.2-5.4,24.947,24.947,0,0,0,11.2,5.4C39.812,36.158,37.607,45.177,28.917,50.042Zm0,0" transform="translate(1515 297)" fill="#fff"/>
  </g>
</svg>
