<svg xmlns="http://www.w3.org/2000/svg" width="213" height="213" viewBox="0 0 213 213">
  <g id="ico-modal-abonar" transform="translate(-1439 -230)">
    <g id="Group_3739" data-name="Group 3739" transform="translate(1439 230)">
      <path id="Path_7495" data-name="Path 7495" d="M1283.019,703.38a106.5,106.5,0,1,1,106.5-106.5A106.5,106.5,0,0,1,1283.019,703.38Z" transform="translate(-1176.519 -490.38)" fill="#fff"/>
    </g>
    <g id="Group_3740" data-name="Group 3740" transform="translate(1473 264)">
      <path id="Path_7495-2" data-name="Path 7495" d="M1249.019,635.38a72.5,72.5,0,1,1,72.5-72.5A72.5,72.5,0,0,1,1249.019,635.38Z" transform="translate(-1176.519 -490.38)" fill="#1c39aa"/>
    </g>
    <g id="money" transform="translate(1502 208.15)">
      <g id="Group_3503" data-name="Group 3503" transform="translate(0 101.85)">
        <g id="Group_3502" data-name="Group 3502">
          <path id="Path_7712" data-name="Path 7712" d="M80.571,101.85H6.558A6.565,6.565,0,0,0,0,108.408v39.349a6.566,6.566,0,0,0,6.558,6.558H80.571a6.567,6.567,0,0,0,6.558-6.558V108.408A6.566,6.566,0,0,0,80.571,101.85Zm.937,45.907a.949.949,0,0,1-.937.937H6.558a.949.949,0,0,1-.937-.937V108.408a.949.949,0,0,1,.937-.937H80.571a.949.949,0,0,1,.937.937Z" transform="translate(0 -101.85)" fill="#fff"/>
        </g>
      </g>
      <g id="Group_3505" data-name="Group 3505" transform="translate(2.061 103.724)">
        <g id="Group_3504" data-name="Group 3504">
          <path id="Path_7713" data-name="Path 7713" d="M19.982,112.86v4.216a3.707,3.707,0,0,1-3.747,3.747H12.112v5.621h4.122a9.379,9.379,0,0,0,9.369-9.369V112.86Z" transform="translate(-12.112 -112.86)" fill="#fff"/>
        </g>
      </g>
      <g id="Group_3507" data-name="Group 3507" transform="translate(71.671 103.724)">
        <g id="Group_3506" data-name="Group 3506">
          <path id="Path_7714" data-name="Path 7714" d="M430.531,120.823a3.707,3.707,0,0,1-3.747-3.747V112.86h-5.621v4.216a9.379,9.379,0,0,0,9.369,9.369h4.216v-5.621Z" transform="translate(-421.162 -112.86)" fill="#fff"/>
        </g>
      </g>
      <g id="Group_3509" data-name="Group 3509" transform="translate(2.061 138.857)">
        <g id="Group_3508" data-name="Group 3508">
          <path id="Path_7715" data-name="Path 7715" d="M16.328,319.312H12.112v5.621h4.216a3.708,3.708,0,0,1,3.747,3.748V332.9H25.7v-4.216A9.379,9.379,0,0,0,16.328,319.312Z" transform="translate(-12.112 -319.312)" fill="#fff"/>
        </g>
      </g>
      <g id="Group_3511" data-name="Group 3511" transform="translate(71.671 138.857)">
        <g id="Group_3510" data-name="Group 3510">
          <path id="Path_7716" data-name="Path 7716" d="M430.53,319.312a9.379,9.379,0,0,0-9.369,9.369V332.9h5.621v-4.216a3.708,3.708,0,0,1,3.747-3.748h4.216v-5.621Z" transform="translate(-421.161 -319.312)" fill="#fff"/>
        </g>
      </g>
      <g id="Group_3513" data-name="Group 3513" transform="translate(28.247 112.296)">
        <g id="Group_3512" data-name="Group 3512" transform="translate(0 0)">
          <path id="Path_7717" data-name="Path 7717" d="M192.941,167.852a15.812,15.812,0,1,0,4.619,11.169A15.682,15.682,0,0,0,192.941,167.852Zm-3.974,18.363a10.193,10.193,0,1,1,2.972-7.194A10.1,10.1,0,0,1,188.967,186.215Z" transform="translate(-165.986 -163.234)" fill="#fff"/>
        </g>
      </g>
    </g>
  </g>
</svg>
