<svg xmlns="http://www.w3.org/2000/svg" width="81.863" height="81.616" viewBox="0 0 81.863 81.616">
  <g id="dot-arrow" transform="translate(81.863 -0.448) rotate(90)">
    <circle id="Ellipse_1" data-name="Ellipse 1" cx="4.079" cy="4.079" r="4.079" transform="translate(0.448 0)" fill="#f59312"/>
    <circle id="Ellipse_2" data-name="Ellipse 2" cx="4.079" cy="4.079" r="4.079" transform="translate(12.562 12.361)" fill="#f59312"/>
    <circle id="Ellipse_3" data-name="Ellipse 3" cx="4.079" cy="4.079" r="4.079" transform="translate(12.562 0)" fill="#f59312"/>
    <circle id="Ellipse_4" data-name="Ellipse 4" cx="4.079" cy="4.079" r="4.079" transform="translate(24.924 12.361)" fill="#f59312"/>
    <circle id="Ellipse_5" data-name="Ellipse 5" cx="4.079" cy="4.079" r="4.079" transform="translate(24.924 24.475)" fill="#f59312"/>
    <circle id="Ellipse_6" data-name="Ellipse 6" cx="4.079" cy="4.079" r="4.079" transform="translate(24.924 0)" fill="#f59312"/>
    <circle id="Ellipse_7" data-name="Ellipse 7" cx="4.079" cy="4.079" r="4.079" transform="translate(37.038 12.361)" fill="#f59312"/>
    <circle id="Ellipse_8" data-name="Ellipse 8" cx="4.079" cy="4.079" r="4.079" transform="translate(37.038 24.475)" fill="#f59312"/>
    <circle id="Ellipse_9" data-name="Ellipse 9" cx="4.079" cy="4.079" r="4.079" transform="translate(37.038 0)" fill="#f59312"/>
    <circle id="Ellipse_10" data-name="Ellipse 10" cx="4.079" cy="4.079" r="4.079" transform="translate(49.152 12.361)" fill="#f59312"/>
    <circle id="Ellipse_11" data-name="Ellipse 11" cx="4.079" cy="4.079" r="4.079" transform="translate(49.152 24.475)" fill="#f59312"/>
    <circle id="Ellipse_12" data-name="Ellipse 12" cx="4.079" cy="4.079" r="4.079" transform="translate(37.038 36.59)" fill="#f59312"/>
    <circle id="Ellipse_13" data-name="Ellipse 13" cx="4.079" cy="4.079" r="4.079" transform="translate(49.152 36.59)" fill="#f59312"/>
    <circle id="Ellipse_14" data-name="Ellipse 14" cx="4.079" cy="4.079" r="4.079" transform="translate(24.924 48.95)" fill="#f59312"/>
    <circle id="Ellipse_15" data-name="Ellipse 15" cx="4.079" cy="4.079" r="4.079" transform="translate(37.038 48.95)" fill="#f59312"/>
    <circle id="Ellipse_16" data-name="Ellipse 16" cx="4.079" cy="4.079" r="4.079" transform="translate(49.152 48.95)" fill="#f59312"/>
    <circle id="Ellipse_17" data-name="Ellipse 17" cx="4.079" cy="4.079" r="4.079" transform="translate(12.562 61.08)" fill="#f59312"/>
    <circle id="Ellipse_18" data-name="Ellipse 18" cx="4.079" cy="4.079" r="4.079" transform="translate(24.924 61.08)" fill="#f59312"/>
    <circle id="Ellipse_19" data-name="Ellipse 19" cx="4.079" cy="4.079" r="4.079" transform="translate(37.038 61.08)" fill="#f59312"/>
    <circle id="Ellipse_20" data-name="Ellipse 20" cx="4.079" cy="4.079" r="4.079" transform="translate(49.152 61.08)" fill="#f59312"/>
    <circle id="Ellipse_21" data-name="Ellipse 21" cx="4.079" cy="4.079" r="4.079" transform="translate(61.777 24.475)" fill="#f59312"/>
    <circle id="Ellipse_22" data-name="Ellipse 22" cx="4.079" cy="4.079" r="4.079" transform="translate(61.777 36.59)" fill="#f59312"/>
    <circle id="Ellipse_23" data-name="Ellipse 23" cx="4.079" cy="4.079" r="4.079" transform="translate(61.776 48.95)" fill="#f59312"/>
    <circle id="Ellipse_24" data-name="Ellipse 24" cx="4.079" cy="4.079" r="4.079" transform="translate(0.448 73.704)" fill="#f59312"/>
    <circle id="Ellipse_25" data-name="Ellipse 25" cx="4.079" cy="4.079" r="4.079" transform="translate(12.562 73.704)" fill="#f59312"/>
    <circle id="Ellipse_26" data-name="Ellipse 26" cx="4.079" cy="4.079" r="4.079" transform="translate(24.924 73.704)" fill="#f59312"/>
    <circle id="Ellipse_27" data-name="Ellipse 27" cx="4.079" cy="4.079" r="4.079" transform="translate(37.038 73.704)" fill="#f59312"/>
    <circle id="Ellipse_28" data-name="Ellipse 28" cx="4.079" cy="4.079" r="4.079" transform="translate(73.906 36.59)" fill="#f59312"/>
  </g>
</svg>
