<svg id="avion-bienvenidos" xmlns="http://www.w3.org/2000/svg" xmlns:xlink="http://www.w3.org/1999/xlink" width="581.102" height="356.937" viewBox="0 0 581.102 356.937">
  <defs>
    <linearGradient id="linear-gradient" x1="0.668" y1="0.576" x2="0.315" y2="0.131" gradientUnits="objectBoundingBox">
      <stop offset="0.004" stop-color="#ff855f"/>
      <stop offset="1" stop-color="#fcc770"/>
    </linearGradient>
    <linearGradient id="linear-gradient-2" x1="1.01" y1="0.324" x2="0.13" y2="0.627" gradientUnits="objectBoundingBox">
      <stop offset="0.004" stop-color="#d6dce8"/>
      <stop offset="1" stop-color="#f2f4f9"/>
    </linearGradient>
    <linearGradient id="linear-gradient-3" x1="0.739" y1="0.851" x2="0.183" y2="0.033" xlink:href="#linear-gradient"/>
    <linearGradient id="linear-gradient-4" x1="0" y1="0.5" x2="1" y2="0.5" xlink:href="#linear-gradient-2"/>
    <linearGradient id="linear-gradient-5" x1="0.843" y1="0.81" x2="0.294" y2="0.175" gradientUnits="objectBoundingBox">
      <stop offset="0.004" stop-color="#c4cdde"/>
      <stop offset="1" stop-color="#e3e7f2"/>
    </linearGradient>
    <linearGradient id="linear-gradient-6" x1="0" y1="0.5" x2="1" y2="0.5" xlink:href="#linear-gradient"/>
    <linearGradient id="linear-gradient-7" x1="0.347" y1="0.666" x2="0.488" y2="0.482" xlink:href="#linear-gradient-2"/>
    <linearGradient id="linear-gradient-8" x1="0.407" y1="0.857" x2="0.488" y2="0.539" xlink:href="#linear-gradient-2"/>
    <linearGradient id="linear-gradient-9" x1="0" y1="0.5" x2="1" y2="0.5" xlink:href="#linear-gradient"/>
    <linearGradient id="linear-gradient-10" x1="0.585" y1="0.912" x2="0.427" y2="0.212" gradientUnits="objectBoundingBox">
      <stop offset="0.004" stop-color="#c3cbd8"/>
      <stop offset="1" stop-color="#c3cbd8" stop-opacity="0.102"/>
    </linearGradient>
    <linearGradient id="linear-gradient-12" x1="0.74" y1="1.01" x2="0.187" y2="0.021" xlink:href="#linear-gradient"/>
    <linearGradient id="linear-gradient-13" x1="3.188" y1="-1.877" x2="0.065" y2="0.885" xlink:href="#linear-gradient"/>
    <linearGradient id="linear-gradient-14" x1="1.022" y1="0.074" x2="-4.148" y2="4.29" xlink:href="#linear-gradient"/>
    <linearGradient id="linear-gradient-15" x1="1.621" y1="-0.519" x2="-1.016" y2="1.878" xlink:href="#linear-gradient"/>
    <linearGradient id="linear-gradient-18" x1="0.387" y1="0.206" x2="0.791" y2="0.753" xlink:href="#linear-gradient"/>
    <linearGradient id="linear-gradient-19" x1="1.031" y1="0.286" x2="-0.118" y2="0.749" xlink:href="#linear-gradient-2"/>
    <linearGradient id="linear-gradient-22" x1="0.766" y1="-0.521" x2="0.382" y2="0.778" xlink:href="#linear-gradient-5"/>
    <linearGradient id="linear-gradient-23" x1="0.484" y1="1.279" x2="0.503" y2="0.439" xlink:href="#linear-gradient-2"/>
  </defs>
  <g id="Group_419" data-name="Group 419" transform="translate(56.417 176.721)">
    <path id="Path_1730" data-name="Path 1730" d="M469.044,314.44s13.657,1.44,29.028-18.714a168.951,168.951,0,0,0,10.64-17.127c6.264-11.164,5.341-25.208-2.922-34.986-5.767-6.82-10.956-7.939-21.609-6.3,0,0-28.262,5.01-42.384,16.556Z" transform="translate(-428.862 -225.104)" fill="url(#linear-gradient)"/>
    <path id="Path_1731" data-name="Path 1731" d="M492.541,271.312c2.476,18.405-7.973,35-23.345,37.073s-29.839-11.176-32.317-29.579,7.976-35,23.345-37.07S490.063,252.907,492.541,271.312Z" transform="translate(-436.516 -218.038)" fill="url(#linear-gradient-2)"/>
    <path id="Path_1732" data-name="Path 1732" d="M476.973,269.518c2.025,15.046-5.084,28.416-15.876,29.871s-21.18-9.565-23.205-24.608,5.081-28.416,15.873-29.868S474.946,254.477,476.973,269.518Z" transform="translate(-435.021 -213.312)" fill="url(#linear-gradient-3)"/>
    <path id="Path_1733" data-name="Path 1733" d="M460.389,262.44c.97,7.192-2.221,13.562-7.126,14.22s-9.668-4.636-10.638-11.83,2.226-13.564,7.131-14.223S459.422,255.243,460.389,262.44Z" transform="translate(-427.914 -204.956)" fill="url(#linear-gradient-4)"/>
    <path id="Path_1734" data-name="Path 1734" d="M478.486,234.094s-26.122,11.958-24.459,15.349,16.9.14,23.844-2,12.6,6.117,12.6,6.117l13.038-21.626Z" transform="translate(-411.255 -231.932)" fill="url(#linear-gradient-5)"/>
  </g>
  <g id="Group_420" data-name="Group 420" transform="translate(0 14.858)">
    <path id="Path_1735" data-name="Path 1735" d="M559.255,354.12s-58.73-54.3-97.081-97.363-45.867-54.112-48.169-62.242,3.441-28.2,6.994-28.673,5.395,22.182,9.906,28.81S562.13,309.615,621.389,337.808Z" transform="translate(-413.477 -165.834)" fill="url(#linear-gradient-6)"/>
    <path id="Path_1736" data-name="Path 1736" d="M564.908,353.255s-62.685-53.911-101.036-96.978S418,202.167,415.7,194.037s-.113-27.718,3.441-28.2,8.948,21.7,13.459,28.33S572.565,308.334,631.824,336.527Z" transform="translate(-411.622 -165.834)" fill="url(#linear-gradient-7)"/>
  </g>
  <g id="Group_421" data-name="Group 421" transform="translate(17.139)">
    <path id="Path_1737" data-name="Path 1737" d="M751.262,293.064a33.173,33.173,0,0,1-7.951,5.642,17.27,17.27,0,0,1-7.141,1.944c-7.684.154-97.187-18.109-97.187-18.109l-41.273-34.585s-37.144-46.084-37.751-50.989a3.518,3.518,0,0,1,.576-2.334c2.17-3.262,9.338-4.756,9.338-4.756l81.291,69Z" transform="translate(-218.422 -116.14)" fill="url(#linear-gradient-8)"/>
    <path id="Path_1738" data-name="Path 1738" d="M743.308,295.043a17.256,17.256,0,0,1-7.141,1.942c-7.684.154-97.187-18.107-97.187-18.107l-41.272-34.587s-37.144-46.082-37.751-50.989c-.1-.857.135-1.633,1.771.056l47.211,54.695L662.2,277.227Z" transform="translate(-218.422 -112.55)" fill="url(#linear-gradient-9)"/>
    <path id="Path_1739" data-name="Path 1739" d="M862.374,253.619c-4.315,7.623-10.9,17.72-19.192,25.931a68.027,68.027,0,0,1-7.109,6.152c-19.718,14.71-216.31,103.877-292.938,134.681-60.513,24.331-96.636,27.055-112.791,16.253a23.031,23.031,0,0,1-4.3-3.693,21.472,21.472,0,0,1-3.8-5.926c-5.054-11.818,1.291-35.371,12.092-57.513a187.421,187.421,0,0,1,13.527-23.43v-.012A112.965,112.965,0,0,1,462.6,328.146c23.5-22.463,190.21-73.835,287.931-100.255,35.919-9.727,60.153-14.267,76.428-16.143,3.2-.372,6.083-.634,8.7-.813a28.595,28.595,0,0,1,26.719,42.683Z" transform="translate(-420.476 -85.728)" fill="#e4e8f0"/>
    <path id="Path_1740" data-name="Path 1740" d="M856.535,253.619c-4.315,7.623-10.9,17.72-19.191,25.931a68.052,68.052,0,0,1-7.109,6.152c-19.718,14.71-216.31,103.877-292.939,134.681-60.513,24.331-96.635,27.055-112.79,16.253,5.089-15.486,24.425-60.261,84.658-90.827,73.884-37.484,259.1-88.868,298.531-103.206,21.055-7.66,22.013-22.13,13.42-30.853,3.2-.372,6.083-.634,8.7-.813a28.594,28.594,0,0,1,26.719,42.683Z" transform="translate(-414.638 -85.728)" fill="url(#linear-gradient-10)"/>
    <path id="Path_1741" data-name="Path 1741" d="M839.884,238.914a68.392,68.392,0,0,1-7.1,6.154C813.057,259.78,616.468,348.94,539.837,379.753c-66.637,26.793-103.7,27.38-117.086,12.555,6.991,3.3,20.24,5.248,45.323.725,52.973-9.543,206.47-78.436,245.14-95.7C745.938,282.729,818.364,248.962,839.884,238.914Z" transform="translate(-417.18 -45.095)" fill="url(#linear-gradient-6)"/>
    <path id="Path_1742" data-name="Path 1742" d="M516.675,283.807s-7.951,21.569-16.081,23.869-52.425,4.646-64.039-1.026c-9.81-4.792-11.446-6.379-10.2-17.134a189.312,189.312,0,0,1,13.518-23.438c-.051.419-1.325,10.212,1.308,12.22,2.689,2.05,11.936,8.037,37.283,8.243S516.675,283.807,516.675,283.807Z" transform="translate(-412.488 -5.741)" fill="url(#linear-gradient-12)"/>
    <path id="Path_1743" data-name="Path 1743" d="M489.575,295.381a3.584,3.584,0,0,1-1.817-6.876l73.751-29.824a3.585,3.585,0,0,1,2.689,6.646l-73.756,29.824A3.69,3.69,0,0,1,489.575,295.381Z" transform="translate(-326.248 -16.836)" fill="url(#linear-gradient-13)"/>
    <path id="Path_1744" data-name="Path 1744" d="M574.594,253.739a3.585,3.585,0,0,1-1.832-6.871L614.473,229.8a3.585,3.585,0,0,1,2.716,6.636L575.477,253.5A3.579,3.579,0,0,1,574.594,253.739Z" transform="translate(-203.068 -58.686)" fill="url(#linear-gradient-14)"/>
    <path id="Path_1745" data-name="Path 1745" d="M531.667,282.21a3.585,3.585,0,0,1-1.807-6.881l88.67-35.449a3.585,3.585,0,1,1,2.662,6.658l-88.67,35.447A3.5,3.5,0,0,1,531.667,282.21Z" transform="translate(-265.264 -44.068)" fill="url(#linear-gradient-15)"/>
    <path id="Path_1746" data-name="Path 1746" d="M653.369,163.14,614.007,290.072s-4.628.624-21.814,1.682c-2.258.147-4.724.287-7.44.448,0,0,49.988-121.273,56.458-126.967a28.8,28.8,0,0,1,2.277-1.79,29.181,29.181,0,0,1,6.487-3.5A2.592,2.592,0,0,1,653.369,163.14Z" transform="translate(-182.467 -159.767)" fill="url(#linear-gradient-4)"/>
    <path id="Path_1747" data-name="Path 1747" d="M643.488,161.269l-51.3,128.309c-2.258.147-4.724.287-7.44.448,0,0,49.988-121.273,56.458-126.967A28.8,28.8,0,0,1,643.488,161.269Z" transform="translate(-182.467 -157.59)" fill="url(#linear-gradient-6)"/>
  </g>
  <g id="Group_422" data-name="Group 422" transform="translate(367.598 257.816)">
    <path id="Path_1748" data-name="Path 1748" d="M596.1,348.627s13.66,1.442,29.031-18.714a168.8,168.8,0,0,0,10.638-17.13c6.262-11.164,5.338-25.206-2.924-34.984-5.764-6.822-13.64-9.991-24.295-8.351,0,0-25.894,4.692-39.693,18.606Z" transform="translate(-555.958 -259.289)" fill="url(#linear-gradient-18)"/>
    <path id="Path_1749" data-name="Path 1749" d="M626.215,303.832c2.478,18.405-9.46,35.2-26.665,37.516s-33.159-10.726-35.635-29.129,9.46-35.2,26.663-37.518S623.737,285.427,626.215,303.832Z" transform="translate(-563.589 -251.449)" fill="url(#linear-gradient-19)"/>
    <path id="Path_1750" data-name="Path 1750" d="M615.825,301.566c2.025,15.043-7.731,28.774-21.792,30.667s-27.106-8.767-29.131-23.81,7.733-28.774,21.8-30.667S613.8,286.525,615.825,301.566Z" transform="translate(-562.073 -246.952)" fill="url(#linear-gradient-6)"/>
    <path id="Path_1751" data-name="Path 1751" d="M594.6,294.881c.967,7.192-3.7,13.76-10.425,14.666s-12.961-4.195-13.931-11.387,3.7-13.762,10.424-14.668S593.631,287.684,594.6,294.881Z" transform="translate(-554.132 -238.477)" fill="url(#linear-gradient-4)"/>
    <path id="Path_1752" data-name="Path 1752" d="M588.286,268.636s-8.787,10.535-7.124,13.929,16.9.135,23.844-2.006,12.609,6.115,12.609,6.115l13.035-21.626Z" transform="translate(-538.433 -265.048)" fill="url(#linear-gradient-22)"/>
  </g>
  <path id="Path_1753" data-name="Path 1753" d="M818.543,263.805a6.476,6.476,0,0,1-1.239,1.011c-9.837,6.377-55.98,11.274-120.739,15.411-68.139,4.349-163.45,3.918-163.45,3.918a28.844,28.844,0,0,1,4.1-8.076c14.972-20.8,54.773-20.347,54.773-20.347s56.96,3.744,88.231,3.152,126.553-1.922,132.636-1.538S824.851,256.926,818.543,263.805Z" transform="translate(-240.143 -20.746)" fill="url(#linear-gradient-23)"/>
  <path id="Path_1754" data-name="Path 1754" d="M817.3,259.435c-9.837,6.377-55.98,11.274-120.739,15.41-68.139,4.349-163.45,3.918-163.45,3.918a28.842,28.842,0,0,1,4.1-8.076c23.354.894,121.286,3.869,214.853-4.521C779.288,263.72,800.627,261.463,817.3,259.435Z" transform="translate(-240.143 -15.364)" fill="url(#linear-gradient-6)"/>
</svg>
