<svg id="Group_4112" data-name="Group 4112" xmlns="http://www.w3.org/2000/svg" xmlns:xlink="http://www.w3.org/1999/xlink" width="2560.773" height="1263" viewBox="0 0 2560.773 1263">
  <defs>
    <linearGradient id="linear-gradient" x1="0.333" y1="0.156" x2="0.683" y2="1.367" gradientUnits="objectBoundingBox">
      <stop offset="0.004" stop-color="#4c7fb6"/>
      <stop offset="1" stop-color="#5994e1" stop-opacity="0.102"/>
    </linearGradient>
  </defs>
  <g id="Group_4111" data-name="Group 4111">
    <g id="Group_4110" data-name="Group 4110">
      <rect id="fondo" width="2560" height="1263" fill="#2073de"/>
      <path id="curva" d="M410.325,54.31s659.167,542.375-149.929,937l1410-173.333-.946-763.045Z" transform="translate(889.604 -53.644)" fill="#123b6e" opacity="0.14"/>
      <path id="casas" d="M1881-3989.5v-224.564l244.507-39.382v39.382h28.145v-185.679h59.115v-17.827h59.1V-4522.6l82.547-35.633h40.343v49.708h9.387v-76.9h9.386v121.916h34.706V-4637H2570.2v160.354h42.224v-103.147h61.908v104.222h26.172v39.413h28.146v-185.816h59.115v-17.841h59.1v-105.108l82.549-35.66h40.342v49.746h9.387v-76.957h9.387v122.006h34.705v-173.619H3145.2v160.475h42.224v-103.223h61.908v103.586h77.173v39.411h28.145v-185.818h59.116v-17.838h59.1v-105.11l82.549-35.659h38.419l.773,1013.511Z" transform="translate(-1034.334 5152)" fill="#093261" stroke="rgba(0,0,0,0)" stroke-width="1"/>
      <path id="Path_8124" data-name="Path 8124" d="M622.877,527.91h0C624.371,520.063,649.152,535.291,622.877,527.91Zm-17.4,1.394c.538,3.117,15.213-10.246,5.356-6.262C611.856,523.516,598.3,524.489,605.473,529.3Zm34.795-121.737c25.638-2.056-6.921-24.395-15.4-5.583C626.637,406.853,627.365,407.854,640.268,407.567ZM1651.162,942.5c-1.079,5.7-5.825,15.228.987,21.932C1665.246,972.345,1659.846,948.29,1651.162,942.5Zm412.1,353.39c2.507,31.69,39.847,8.757,16.152.343C2073.556,1302.218,2068.373,1284.863,2063.266,1295.9ZM2084,1285.808c-.895.481,5.369,12.457,5.693,3.92C2088.7,1288.713,2087.016,1282.362,2084,1285.808Zm-24.413-1.73c.837.339,1.337.339,0,0C2054.807,1281.662,2061.245,1300.074,2059.591,1284.078Zm160.238,57.04c12.916-6.428,53.424-63.5,16.384-40.362C2237.074,1317.166,2176.987,1333.78,2219.829,1341.118Zm-8.367,3.471c-3.5,1.61-2.776,5.4,3.011,1.051C2213.943,1344.37,2214.95,1344.143,2211.462,1344.589Zm42.485-77.653c-3.175,17.779,4.529,48.436,25.761,5.64C2266.125,1278.739,2229.956,1217.913,2253.947,1266.936Zm-66.238-123.392c-.3,10.158,35.475,25.233,10.715,7.3C2198.311,1148.737,2194.388,1142.012,2187.709,1143.544Zm-215.761-61.9c-7.772,8.806,18.217-1.175-1.32.333Zm75.6,3.474c-3.886-1.6-3.334,84.446-38.14,11.484,11.817-13.4-8.758-7.77-25.077-16.01-33.522,62.56-10.657-23.945-73.588,59.835-42.8,11.124-59.566,14.219-36.458,72.342,14.519,5.7-18.408,56.623,33.774,29.217,22.539,5.466,78.375-48.977,96.348,6.605,5.771,2.526,9.395-14.41,15.716-12.864-.749,2.7,3.8,30.112,27.1,40.351,39.4,16.112,89.947-46.171,66.9-100.172C2089.663,1153.645,2062.661,1102.134,2047.543,1085.116Zm112.408-13.561c.96,4.964,12.529-.524,1.589-2.792C2160.58,1069.245,2158.875,1068.038,2159.95,1071.555Zm-32.784-23.316c1.851,5.385,15.356,10.593,3.355-1.38C2128.711,1044.9,2126.6,1039.207,2127.167,1048.239Zm-38.469-4.164c-1.6,10.926,34.233-.651,20.4-9.047C2105.329,1044.981,2097.942,1038.927,2088.7,1044.075Zm-112.067,17.386c.173-2.767.337-3.8,0,0C1977.045,1070.023,1991.853,1049.318,1976.63,1061.461Zm-34.458-4.157c-.02.778.082,4.95,3.362,1.73C1949.021,1060.59,1952.921,1055.814,1942.172,1057.3Zm56.537-13.926c-6.261,2.243-2.477,18.136,2.685.7C2001.553,1043.859,2001.1,1041.089,1998.709,1043.378Zm-9.357-11.131c39.313-8.371,29.126,60.837,74.254,25.063,14.243,3.506,9.33,16.99,38.133,21.547C2106.9,1092.868,2058.935,986.921,1989.352,1032.247Zm-53.186-14.962c-6.016,1.613,6.169,3.725,6.683,2.438C1942.532,1017.8,1943.57,1014.681,1936.166,1017.285Zm69.242-5.378c.306,4.15.48,11.927,7.353,5.725C2007.563,1019.521,2014,1009.961,2005.409,1011.907Zm-28.112.506c-5.733,23.125,45.629-11.513-1,2.095Zm-1.661-2.42c-1.936.173-2.354,0,0,0C1982.683,1004.413,1965.03,1001.523,1975.636,1009.993Zm-6.693,8.7c.83,10.717,8.156-5.537.674,1.394Zm-12.042,7.992c11.991,12.185,28.269-6.719,0,1.391Zm-5.352,1.044c-3.358-3.736-11.385,3.439.657,3.821A6.493,6.493,0,0,0,1951.549,1027.726Zm8.36-37.9c-6.938,5.562-17.193,39.382,4.348,13.636C1962.706,996.807,1956.466,999.184,1959.909,989.826Zm-62.883,37.2c25.952,42.725-10.637-18.985,28.092,12.62C1910.81,1030.521,1943.094,982.35,1897.026,1027.029Zm38.8-29.56c1.426,4.975-29.239-3.888-33.791,8.778C1901.712,1004.743,1945.1,1004.682,1935.829,997.468Zm-7.033,74.795c19.463,8.035,30.222-28.849,1.011,1.726Zm-2.678,5.9c-4.859-.329-.384,8.453,2.011,1.04C1927.895,1079.792,1928.378,1076.99,1926.118,1078.167ZM1905.05,1063.9c25.414,7.271,43.05-7.218-1.007-.687Zm-2.351,4.521c-6.829,1.419,6.172,12.238,9.377,5.222C1908.439,1072.871,1908.326,1070.324,1902.7,1068.424Zm-16.72-5.9c-6.608,5.958,11.882,1.557,14.723,1.38C1899.691,1059.519,1891.7,1061.836,1885.978,1062.522Zm-72.591-11.842c8.149,8.159,54.56,16.226,64.571,11.852C1877.179,1057.35,1845.613,1045.848,1813.387,1050.681Zm-20.4-10.073c-1.592-.127-.592,6.093.334,2.42C1793.247,1042.147,1792.822,1042.586,1792.985,1040.608Zm47.507-47.311c-16.533,12.118,20.8,74.78,56.527,10.069C1886.945,923.559,1893.579,980.878,1840.492,993.3Zm-70.58,20.514c-2.565-1.344,14.975,29.833,12.032,11.5C1774.149,1026.555,1774.462,1009.3,1769.912,1013.811ZM1759.2,998.505c.085,1.815,4.461,3.389,6.359,7.667,2.538-2.225-5.3-13.154-6.026-6.266Zm-5.012-9.132c-.817-5.608-4.563,3.853,2.008,3.584C1756.2,991.461,1756.921,991.588,1754.186,989.373Zm2.344-15.9c-21.96-19.739,35.666,71.652,56.521,70.959C1831.363,1024.892,1789.117,996.106,1756.53,973.47Zm172.94-24.006c-25.274,2.19,3.168,16.586,14.039,17.839C1940.171,961.324,1961.444,937.527,1929.47,949.464Zm-19.735-32.345c3.838,7,8.718,19.3,13.046,27.48C1938.514,949.556,1922.655,922.727,1909.735,917.119Zm9.7-1.04c5.376,2.717,34.475,39.792,16.734,5.208C1927.684,920.42,1941.365,907.747,1919.439,916.079Zm-12.719,6.255c-3.11,11-16.533,21.15-19.163,28.51C1896.41,944.794,1906.336,939.3,1906.72,922.335Zm5.138-40.695c-5.332,4.621-9.82,23.415.925,30.261C1915.826,909.912,1930.048,884.69,1911.858,881.64Zm6.563-43.911c-2.048-6.28-21.848,9.822-7.349,20.609C1909.092,850.53,1920.47,845.927,1918.422,837.729Zm170.612-155.737c-31.576,32.136-45.486-37.121-56.214,50.778-12.188,26.281-37.986,14.655-65.895,47.307,21.341,37.188-4.512-13.544,36.135-12.521-59.106,16.36,66.14,18.179,37.476-58.084C2032.8,704.522,2082.293,704.922,2089.034,681.992Zm12.368-6.606c-.061-.262-10.64,3.775-4.178,4.861C2099.214,679.851,2099.15,680.6,2101.4,675.386Zm32.791-37.22c.3.357-6.468,12.058-1.67,6.262C2132.951,643.912,2138.984,637.851,2134.193,638.166Zm79.947-36.527c-.082,1.136,0,1.911,0,0C2214.181,596.424,2203.228,604,2214.14,601.639Zm-9.037,1.051c.5,1.04.674,1.564,0,0C2204.98,587.685,2193.612,600.019,2205.1,602.69Zm-17.476-37.733c10.228-2.088-1.94-12.769-4.267,0A13.331,13.331,0,0,0,2187.627,564.957Zm154.62-48.528c3.052-1.872,17.8,7.331,19.072,0C2356.426,516.114,2344.292,508.129,2342.248,516.429Zm-59.2-85.221c.8.754,42.321-2.1,14.72-6.945C2295.425,422.441,2279.232,421.238,2283.046,431.208ZM2073.974,378c5.261,8.367,51.771,1.638,15.39-1.744C2088.925,376.808,2069.809,363.561,2073.974,378Zm-40.143,22.261c5.206-2.317,20.089,6.064,23.42-.34C2050.129,393.079,2044.555,391.887,2033.831,400.261Zm6.7-8.7c4.859-.563-4.386-7.1-6.7-2.084C2034.467,390.776,2036.488,392.343,2040.534,391.565Zm-25.087-15.645c10.916,26.9,77.644-22.8,36.115-.2C2047.7,369.99,2023.721,355.027,2015.446,375.92Zm-7.043-2.792c2.123-5.247-8.129-6.782-3,.343C2006.4,373.747,2006.695,375.736,2008.4,373.128Zm-3.678,14.962c1.15,3.7,3.661,12.634,8.034,6.606C2008.791,395.747,2009.839,389.067,2004.725,388.09Zm-177.951-51.125c1.32-2.317-15.24-6.91-9.7-1.047C1818.689,335.133,1824.323,342.665,1826.773,336.966ZM1748.83,353.3c.63-2.8,8.442,3.956,6.7-2.431C1756.275,347.941,1749.892,348.418,1748.83,353.3Zm29.1-12.525c4.066-10.161,33.216.743,34.451-13.894C1802.428,318.044,1774.833,312.472,1777.932,340.773Zm-21.4-34.422c-47.541,8.07,14.291,31.595,19.072,14.6C1777.089,301.741,1777.051,311.28,1756.53,306.351Zm-20.078,1.383c39.586-.042,30.576-31.276-10.364-6.613C1724.747,306.125,1732.634,302.824,1736.452,307.734Zm-2.678,3.138c-4.863-5.194-22.178,1.256-5.363,2.788C1729.568,319.127,1740.882,314.152,1733.774,310.873Zm-13.709-22.6c-7.435-1.9-8.564,8.442,2.338,5.208C1722.113,292.316,1723.821,289.34,1720.065,288.268ZM1459.141,451.386c-1.569-.623-7.714-8.523-11.368-.347C1444.38,456.874,1456.912,460.256,1459.141,451.386Zm25.771-50.424c-28.476,10.26-11.776,41.929,19.065,31.651-38.014-46.872,53.6-55.314,74.588-78.247C1548.758,354.585,1489.835,372.827,1484.912,400.962Zm100.672,3.121c5.073,1.751,18.5-7.345,2.355-4.875C1588.5,400.053,1582.114,401.659,1585.584,404.082Zm-47.83-110.267c2.154,5.314,10.514,8.332,15.72,1.051C1567,287.982,1545.7,291.576,1537.754,293.816Zm-16.39,0c-10.456,10.179,7.789,10.129,12.716,5.576C1530.769,290.363,1532.273,291.286,1521.364,293.816Zm-2.344,12.535c-4.73-.262-10.061,6.517,2.344,2.431C1521.068,308.5,1522.208,305.389,1519.02,306.351ZM1495.6,304.26c-4.645,3.623,13.011,7.883,19.082-2.777C1516.988,299.434,1497.74,304.564,1495.6,304.26Zm-19.058.7c10.334-11.279,29.143-4.978,38.47-11.821C1507.424,281.564,1491.87,291.406,1476.538,304.961Zm-26.754-9.39c-28.327,5.746-26.67-1.889,2.674,14.6C1459.338,302.229,1477.127,288.371,1449.784,295.571ZM1258.109,307.4c12.249,2.013,19.582,24.229,49.5,3.814C1323.827,310.452,1274.455,293.253,1258.109,307.4Zm-13.382,26.426c-10.715,1.451-37.3,9.454-.337,6.616-11.27,7.1-34.6,3.184.337,15.3,32.3-62.174,15.921,13.137,48.5-15.288-19.943-17.241-83.915-51.057-81.945-10.108C1194.95,332.862,1238.33,328.825,1244.727,333.828ZM2072.3,558.861c39.235-15.019,35.462,25.23,71.59-26.079,29.987-11.548,1.177,34.333,43.563-9.737,17.364,28.492-86.637,40.56-43.907,108.858,25.012-29.543,32.28-26.744,40.134-81.049,28.374-1.567,47.456-1.713,85.313-27.812,46.915,14.845-12.317-25.432,2-24.345,15.658,15.107,20.946-22.735,27.095-7.66,8.7,1.819,33.791,23.786,43.475,1.394,28.18-9.917-19.833-17.81-18.364-12.072-48.854-52.409-69.324-33.339-150.214-30.371-1.364,15.96-9.772-18.281-18.061-20.17-14.253-4.469-27.384,8.24-46.166-.694,9.837-.364-94.874-42.644-74.261-5.127-21.542-4.419-43.2,11.318-68.239-.41-5.72-23.362,8.659-17.531-22.756-26.443-35.666-10.989,12.8,18.868-36.452,9.376-1.766-10.72-70.052-5.583-45.163-15.988,3.209-15.373-19.762,15.507-43.155,12.507,13.988-8.371,115.456-52.4-31.093-51.836,6.577,18.974-106.586,9.323-92.006,43.49-5.689-1.2-70.43,2.077-31.1,19.838,12.552,18.918-43.982-19.247-33.121,10.083,15.6,2.7-2.46,16.526-15.053-18.1-17.421,50.98-4.6,26.663,26.768,65.383-29.419-12.829-6.513-34.22-40.8,9.418-.163,6.347-38.2,2.625-4.369-3.835,10.49,1.458,10.021-103.042-19.728-62.273-31.491,27,11.2,39.233-2.668,47.311,6.859,4.932-67.075-37.45-62.907-21.575,2.627,9.316,26.013,5.7,6.026,20.874-.592-4.214-56.929-12.079-76.936,15.992-29.12,2.155,8.761-13.066-15.373-19.8-15.247-6.188-2.365,13.169-3.525,29.2-30.991-17.1-18.085,31.644-47.32,9.737,14.594,39-19.4-4.989-29.783-21.55-5.533-.927,57.8,26.606,55.867-3.492-65.843-35.961-77.718-39.548-113.064-39.3-7.037-8.222-6.823,21.6-31.444,6.262,4.958,1.058-17.047,30.25-16.4,11.131-44.918,43,31.392-28.234-22.736,44.537-10.259,6.5-21.964,23.574-47.177,36.849-1.7,15.638,2.354,60.483,35.465,23.655,11.355,8.053,5.359,45.343,24.747,36.88,27.782-11.828,0-5.19,28.1-40-33-12.567,11.746-34.224,14.744-49.731,54.455-37-19.572,28.715,8.316,44.845,81.414-.379,17.819,4.9,1.708,16.714-27,7.915,28.439-1.391,8.023,14.6-45.891-10.055,29.14,20.966-81.2,29.568-19.966-14.747,7.152.92,6.955-15.3-8.224,1.589-12.906-29.621-23.434-9.068-8.547,52.264,24.318-5.261-70.838,73.053-37.745-4.476,6.778,3.489,6.6,29.571,3.641,47.42-60.661-36.778-49.5,53.562-6.781,13.735,12.848,4.49,22.09,14.969,44.179-3.234,54.744-106.534,128.1-32,32.8,23.185-21.225,10.282-7.7,24.689,73.874-12.988-28.255-56.662.987-65.047,39.565,29.932,28.81,24.646,54.21,68.539,20.147-13.363,24.4-4.67,3.345-26.093,8.717.3,7.36-5.512,20.4-4.539,21.943,21.667-11.889,44.65,60.045,30.091,16.428.655,3.025,52.805-24.243,40.019,29.405,31.722,59.382,74.522,81.941,130.932,44.431-5.618,150.83-79.185,71.26-80.352-17.874-4.7-26.636,3.648-43.148-36.675,33.5,16.487,91.808,27.271,139.162,49.211-13.627-1.613-7.016,14.018,17.047,9.05-3.971-.976,16.611,91.5,33.777,86.611,17.19-37.163,44.635-100.335,88.331-91.133,19.031,29.415,2.446,36.014,37.119,41.735-7.268,9.6,46.524,160.295,34.138,72.7-13.2-5.976-38.667-60.529-10.378-48.372,26.268,3.821,8.765,52.434,49.5,2.8,7.452-22.258-20.538-30.413-20.749-50.774,7.727-14.92,35.7-29.861,17.074,6.248,12.508-15.111,59.5-29.168,79.6-66.062,18.952-26-31.154-49.529,9.037-69.742,9.65.35-67.848-2.88-1.674-25.226-17.625,26.875-.007.676,18.734,8.328,7.22,7.034-.84,56.025,28.755,33.059-24.839-81.686,36.731-23.666,76.623-133.565,10.514,6.652-4.866,40.022,3,49.041,1.34-10.03,18.663,6.931,5.018-9.747-9.166-13.31,9.868-14.86,9.7-20.156-3.083,1.833-11.868-72.282-12.385-33.059-6.169-3.156-.347,17.262-6.686,5.919-.272-21.632-21.242-8.689-29.78-12.525C2001.761,603.557,2039.489,548.845,2072.3,558.861Zm-975.092,6.613c-1.5-1.316-12.314,12.854-3.352,6.6C1094.55,572.253,1103.033,564.632,1097.211,565.474Zm7.019,77.922c96.235-21.989,8.537-18.419,21.069-69.222-23.774,5.834,4.134-18.73-19.395-6.97-29.5,31.913,30.773,27.929,3.766,52.519C1094.918,644.849,1139.213,611.882,1104.231,643.4Zm-5.686-35.837c12.181,3.892-13.58-39.145-25.758,18.43C1067.724,632.657,1102.652,632.633,1098.545,607.559Zm357.922,529.733c.517-22.392,13.828-90.365-36.809-.7C1409.052,1181.34,1427.63,1210.306,1456.467,1137.292Zm-111.06-331.815c-48.191-52.575-101.989,33.5-151.184-57.737-105.242-7.225-214.217,105.175-139.179,205.213,77.388,75.951,114.3-79.415,167.264,114.081,17.438,36.792-28.663-3.149,14.06,124.514,21.239,105.1,131.568,38.671,122.442-48.7,9.313-19.647,42.8-17.492,38.119-48.673-24.5-72.958,10.541-66.558,62.9-144C1468.406,881.208,1436.711,1030.97,1345.406,805.477ZM665.018,1337.984c-11.487-32.387-17.408,105.26,53.523,73.39-51.6-20.28,12.981-50.226-13.372-76.5,32.525-17.524,4.5-27.487,34.393-45.061-16.564-18.016,62.5-3.828,25.111-43.843,24.386,9.789,61.053-26.075,61.539-59.821,11.579-38.267,65.153,7.448,62.553-92.863,73.07-58.572-20.875-63.158-73.264-86.969.633.205-1.511-42.485-50.372-44.233,5.356-11.4-89.593-53.552-81.948-16.017-7.077,3.62-5.648-16.367.674-22.6-9.367,5.031-27.939,7.808-36.8,25.024-18.493,19.742,15.849,7.869-21.5,59.39-19.306,18.281,9.578,54.457,23.757,93.578,14.536,20.415,47.173,13.363,37.129,57.744C679.99,1261.229,665.1,1242.184,665.018,1337.984Zm16.73-449.031c2.065-8.141,38.8.782,37.469-6.255C721.28,877.851,641.782,867.962,681.749,888.953Zm-31.443-2.1c-.575-8.049-22.185-4.575-6.019,0C644.906,887.52,645.273,893.475,650.305,886.855Zm12.049-15.645c6.393-.679-72.461-38.957-64.237-12.185C622.9,853.279,627.416,873.311,662.354,871.21Zm323.13-377.392c2.406-5.144,16,5.141,7.37,4.879-42.182-.368,63.22,36.41,51.5-10.961C1047.88,486.3,970.257,482.585,985.484,493.818ZM779.427,632.944c-5.72,12.1-37.653,40.631,16.05,32.012C800.659,645.943,783.118,660.473,779.427,632.944ZM743.3,648.257c-.337.57-19.909-10.2-13.386-2.781C732.5,648.405,739.106,658.082,743.3,648.257ZM932.05,461.215c20.075,10.494,39.365-7.1,60.124-18.861-3.477,4.118-46.724-2.9-10.375-12.178,17.928,27.876,8.632-19.986,7.013-15.645,18.837.927-2.147-11.806-3.672-11.474-12.011-6.959,44.24,1.04,13.4-9.415-11.276-6.7,27.506-.828,16.387-9.033-18.486-6.945,18.864-12.181-13.049-25.382-3.961-6.064,21.188-10.14,14.049,1.38,2.038,12.266,5.2-3.322,4.689-11.831-4.662-1.447-22.672-1.2-4.025-6.255-3.869-10.713-22.1,6.4-16.72-6.949-2.552-15.132,56.66-39.651,18.731-36.53,58.742-9.991,43.165-31.075-16.727-9.036-4.233-3.927-21.634,12.121-17.067,6.262,13.753-10.246,12.3-33.173-7.033-11.845-9.476.138-21.235.41-1.657-4.851,7.108-8.948-55.506,9.075-46.5-1.044-13.433-2.413,91.094-6.952,63.9-12.528-34.965-10.069-93.452-4.122-18.735-10.43-15.56-11.552-175.063,2.692-127.781,18.26,13.022,11.952-8.571,5.671-16.57-.867-30.058-9.984-3.454,6.358-12.858,9.74-29.926-30.059-14.781,18.168-24.6-1.56,7.387-17.45-20.531-7.058-33.114-3.849-.657.771,25.465,11.166,12.382,9.581-37.411-17.258-4.6-4.437-49.344,8.169-35.877,17.86,7.863,3.552-1.671,24.519-24.2,2.3-90.883,21.151-9.027,23.309,8.251,11.378-52.842.74-13.886,15.479-3.995,16.65,37.765-6.284,61.876,11.824,43.1,31.488,2.188,55.827,33.944,55.126-4.76-10.094,33.253,14.761,10.725,10.43-57.476,12.146,49.338-3.754-13.046,35.126,10.79,14.435,60.348,150.812,85.97,28.885C877.094,485.146,920.835,496.729,932.05,461.215ZM567.01,353.655c36.248,28.633,121.738-24.26,74.612-32.709-15.026-4.744,56.963-.8,35.782-15.985-4.172,1.744,40.987-6.085,46.5-21.575.037,3.181-36.707,4.4-15.063-2.087-5.631,3.754,67.092-7.805,25.758-12.167-6.39-4.663-31.076-23.747-176.611,12.16-12.658-5.251,4.5,26.726,36.122,8.714-26.04,22.222,24.822,5.127,53.849-3.131-.473.761-1.541-2.689-14.713,6.942,39.834,1.114-56.973,7.575-6.359,19.495-33.709-9.514-51.872-10.593-15.387,13.558-.381-3.938-56.847,6.241-12.375,8.346-5.274-.98-8.758,17.538,11.7,1.751C605.919,358.187,583.676,325.605,567.01,353.655Zm3.011-22.619c73.72-28.435-97.967-57.713-28.776-14.927C572.369,311.669,501.483,333.725,570.021,331.036Zm-17.394,11.831h0C540.7,342.506,568,359.447,552.627,342.867Zm5.356,42.092c30.47,9.535,123.888-18.808,18.058-13.576C562.468,362.075,527.976,345.51,557.983,384.959Zm-46.5,1.391h4.689C515.662,388.419,515.968,378.764,511.48,386.35Zm10.374-8.7c-1.429,4.822,31.11,10.812,15.056-3.135C537.023,373.645,529.313,364.764,521.854,377.653Zm16.387-14.969c11.358-2.056-10.858-23.217-18.071-6.949C521.643,354.214,519.864,360.575,538.241,362.684ZM524.529,346c-3.215,1.334,35.258-3.471,10.378-5.916C537,342.482,527.282,334.132,524.529,346Zm1.337-8.693c8.649,1.086,8.769-11.52-16.4-10.437C513.5,328.2,509.551,342.156,525.866,337.309Zm-18.735-26.093c2.477,1.443-8.983-15.384-10.368-2.087C498.969,306.1,500.285,314.46,507.131,311.216Zm-4.338,29.918c13.076-13.742-47.235-31.9-34.468-17.743C470.925,335.929,474.657,329.812,502.793,341.134Zm-12.719.693c2.14,3.011-8.34-10.879-9.708,1.033C480.87,341.9,480.663,345.082,490.074,341.827Zm-3.015,30.254c61.243,23.033-.289-37.567,14.376-6.606C506.8,371.533,436.048,338.753,487.06,372.081Zm-19.395,2.8c2.668,0,2.337-1.408,0,0C463.286,379.136,483.946,379.422,467.665,374.879Zm2.337-26.1c2.042,4.582-8.057-16.423-9.367-4.522C462.639,343.278,459.016,351.129,470,348.783Zm174.28,124.861h0C658.4,482.259,664.484,448.078,644.283,473.644ZM536.234,414.859c33.073-6.789,10.276-50.923-8.374-8C531.327,402.837,520.789,416.964,536.234,414.859ZM506.8,425.654c17.363,2.4,15.39-43.217-6.033-30.608C499.081,398.468,464.664,407.284,506.8,425.654Zm-37.469-21.922c11.878-2.71-23.423-18.1-8.714-2.42C462.908,397.933,459.186,409.814,469.336,403.732Zm-22.079-7.989h0C443.939,395.3,446.249,404.068,447.256,395.743ZM414.809,332.43c-2.783-3.078,21.256,6.266,22.413-3.818C434.636,330.466,430.883,319.3,414.809,332.43Zm6.689,15.309c3.406.531,29.762-14.262,2.678-11.127C420.981,335.805,407.218,343.232,421.5,347.739Zm-11.7-6.266c4.083,1.433-9.711-14.679-7.7-2.777C403.826,339.531,403.1,342.078,409.8,341.473Zm-6.7,17.4c-58.593,14.566,47.412,46.546,52.876,6.276C405.918,337.588,474.239,392.9,403.1,358.87Zm2-6.609c1.242,2.891-1.739,3.071,8.034,3.474C412.155,352.685,415.69,351.362,405.1,352.261Zm-26.751,14.962c.687.98-9.126,5.576,3.008,5.2C376.282,376.118,393.363,362.7,378.354,367.223Zm10.7-8.711c26.979-15.122-18.663-20.312-33.464,7.32C367.19,372.965,376.316,354.8,389.055,358.512Zm4.679,90.786c35.727,1.344,136.991,33.661,67.228-43.794-16.986-14.492-6.4,18.139-16.707,12.16,16.332,3.273-61.672-38.469-63.24,3.81C382.607,442.031,440.254,419.717,393.734,449.3Zm55.87,13.565c-2.253-2.431,8.762,2.321,11.038-8.336C468.509,453.94,434.524,457.408,449.6,462.863ZM356.264,425.3c27.826-15.054,80.148-48.542-14.046-35.476C346.547,400,322.524,431.127,356.264,425.3ZM77.623,551.2c2.9-.481-11.28-12.719-8.364,1.051C68.729,551.268,71.59,554.509,77.623,551.2Zm112.391-7.649c60.76-3.1,124.606,58.519,164.916,121.043,4.706-3.089-51.532-47.049-29.783-20.86,36.275,14.014.861,67.6,30.106,99.819,24.71,22.41,54.506,95.605,82.285,104.019,8.187,6.995-60.865-79.068-21.4-52.876,27.629,40.489,40.651,95.58,143.174,116.851,25.057,4.157,24.955,45.3,81.611,41.052-41.6-12.192-14.138-29.988-66.857-58.466,9.272-47.8,15.458-35.929-40.167-9-68.555-54.454,47.163-135.51,85.633-54.284,23.733,17.793-28.051-39.828,23.733-63.632,20.929,1.773-17.6-31.747,44.489-53.934,6.584-41.975-2.531-5.626,60.882-34.761-11.082,11.393-26.652-57.674-67.9-5.572-7.486.8,22.147-12.868,3.018-15.656,19.177-21.961,88.188-5.144,97.015-44.852,7.952-7.115-49.964,6.836-21.093-6.269,18.568,20.91-36.956-81.506-40.12-44.9-31.583,23.376-12.43-28.333-57.538-34.411-47.473-20.131,7.227,56.545-38.463,106.088-10.824,4.964,15.778-42.4-74.932-53.569-47.8-31.658,34.805-57.585-12.732-71.3,1.058,3.641,84.231,1.939,20.745-19.824,81.335-9.16-24.856,20.163,66.221,26.447-63.023-44.668,31.065-11.357-21.4-71.659,36.261-2.109,108.719,4.324,44.819,62.938C643.6,484.8,748.062,564.1,697.475,510.864c32.573,19.084,35.547,15.065,7.343-27.133,23.444,17.991,79.723,2.859,2.358-25.031,5.815-13.257-34.237-59.729-85.977-42.446,15.785-18.242-37.476-33.272-26.1-2.431-14.842,32.1,11.259-32.447-17.683-18.079-52.679,30.654,54.326,38.972-.347,75.813,3.586,8.725-24.25-51.011-49.855-47.311-7.421-9.019-7.431,42.934,12.362,28.888-3.457,2.6-7.55,26.9-18.04,16.71,3.651-11.845-13.107-47.88-15.4-1.758-21.987,12.949-37.255-31.1-59.705,8.159-50.882-20.414-94.146-50.852-158.4-21.72-7.693-.492,25.564-10.1,19.085-15.3C246.98,475.5,173.981,405.88,108.4,438.511c-90.679,38.4,49.651,27.7-43.135,53.569,123.561,25.513-84.238,31.184,69.226,68.164-26.231,35.724-80.621,63.671,13.219,8.2C178.04,518.669,156.488,569.9,190.014,543.555Zm-27.421,28.517c6.509-2.413-13.6-12.171-11.055,9.4C152.385,579.07,150.963,585.962,162.593,572.072Z" transform="translate(66.766 -174.757)" fill="#1b3088" opacity="0.141"/>
    </g>
  </g>
  <path id="Path_8128" data-name="Path 8128" d="M3572.542-5184.112c-.086,268.469-.207,781.138-.207,781.138L1830-4400.276C2232.458-4827.883,2759.9-5184.112,3572.542-5184.112Z" transform="translate(-1012.335 5562.776)" stroke="rgba(0,0,0,0)" stroke-width="1" opacity="0.26" fill="url(#linear-gradient)"/>
</svg>
