<svg xmlns="http://www.w3.org/2000/svg" xmlns:xlink="http://www.w3.org/1999/xlink" width="172" height="87" viewBox="0 0 172 87">
  <defs>
    <linearGradient id="linear-gradient" x1="0.74" y1="1.01" x2="0.187" y2="0.021" gradientUnits="objectBoundingBox">
      <stop offset="0.004" stop-color="#ff855f"/>
      <stop offset="1" stop-color="#fcc770"/>
    </linearGradient>
  </defs>
  <g id="btn-tramites" transform="translate(-243 -7665)">
    <text id="_" data-name=" " transform="translate(243 7707)" fill="#fff" font-size="20" font-family="SegoeUI, Segoe UI"><tspan x="0" y="0"> </tspan></text>
    <g id="Group_3719" data-name="Group 3719" transform="translate(248 7665)">
      <g id="Group_3717" data-name="Group 3717" opacity="0.34">
        <g id="Group_3709" data-name="Group 3709" transform="translate(0 0)">
          <path id="Path_7935" data-name="Path 7935" d="M1220.019,577.38c-24.025,0-43.5-18.86-43.5-43.1a43.5,43.5,0,1,1,87,0C1263.519,558.52,1244.043,577.38,1220.019,577.38Z" transform="translate(-1176.519 -490.38)" fill="#e2e6ef"/>
        </g>
      </g>
      <g id="Group_3718" data-name="Group 3718" transform="translate(13.405 13.29)">
        <g id="Group_3713" data-name="Group 3713" transform="translate(0 0)">
          <g id="Group_3709-2" data-name="Group 3709">
            <path id="Path_7935-2" data-name="Path 7935" d="M1207.32,551.982a30.464,30.464,0,0,1-30.8-30.52,30.8,30.8,0,1,1,61.6,0A30.465,30.465,0,0,1,1207.32,551.982Z" transform="translate(-1176.519 -490.38)" fill="url(#linear-gradient)"/>
          </g>
        </g>
        <path id="search_1_" data-name="search (1)" d="M12.965,23.337h4.408V25.93H12.965ZM8.1,23.013a1.621,1.621,0,1,0,1.621,1.621A1.621,1.621,0,0,0,8.1,23.013ZM26.061,15.1h-13.1V17.7h13.1ZM8.1,14.78A1.621,1.621,0,1,0,9.724,16.4,1.621,1.621,0,0,0,8.1,14.78ZM26.061,7.324h-13.1V9.917h13.1ZM8.1,7A1.621,1.621,0,1,0,9.724,8.621,1.621,1.621,0,0,0,8.1,7ZM2.593,29.3V3.888a1.3,1.3,0,0,1,1.3-1.3H29.3a1.3,1.3,0,0,1,1.3,1.3V18.54h2.593V3.888A3.894,3.894,0,0,0,29.3,0H3.889A3.894,3.894,0,0,0,0,3.888V29.3a3.894,3.894,0,0,0,3.89,3.89H18.865V30.6H3.889a1.3,1.3,0,0,1-1.3-1.3Zm28.775,3.9-2.582-2.582a5.841,5.841,0,1,1,1.878-1.79L33.2,31.366ZM25.8,28.847a3.241,3.241,0,1,0-3.242-3.241A3.245,3.245,0,0,0,25.8,28.847Zm0,0" transform="translate(13.909 14.473)" fill="#fafafa"/>
      </g>
    </g>
    <path id="Path_9510" data-name="Path 9510" d="M7.954-7.522H5.18V0H2.952V-7.522H.229v-1.72H7.954Zm5.024,4.259H11.771V0H9.543V-9.242H13.18a4.057,4.057,0,0,1,2.571.73,2.475,2.475,0,0,1,.927,2.063,3.006,3.006,0,0,1-.39,1.6,2.771,2.771,0,0,1-1.222,1.028L17-.1V0H14.608Zm-1.206-1.72H13.18a1.267,1.267,0,0,0,.955-.333,1.286,1.286,0,0,0,.321-.93,1.3,1.3,0,0,0-.324-.936,1.255,1.255,0,0,0-.952-.34H11.771ZM23.923-1.727H20.87L20.337,0h-2.38l3.39-9.242h2.095L26.856,0H24.463ZM21.4-3.447H23.39l-1-3.206Zm1.282-8.271h2.26L23.18-9.725H21.435ZM31.1-9.242l2.063,6.43,2.057-6.43h2.933V0H35.923V-2.158l.216-4.418L33.9,0H32.431L30.191-6.583l.216,4.424V0H28.179V-9.242ZM42.6,0H40.375V-9.242H42.6Zm9.27-7.522H49.093V0H46.865V-7.522H44.142v-1.72h7.725Zm7.321,3.605h-3.5v2.2h4.139V0H53.456V-9.242h6.379v1.72H55.684v1.949h3.5Zm6.96,1.46a.915.915,0,0,0-.346-.762,4.3,4.3,0,0,0-1.216-.565,11.662,11.662,0,0,1-1.422-.565,2.693,2.693,0,0,1-1.8-2.425,2.174,2.174,0,0,1,.448-1.355,2.894,2.894,0,0,1,1.266-.914,4.928,4.928,0,0,1,1.841-.327,4.311,4.311,0,0,1,1.787.355A2.829,2.829,0,0,1,67.938-8a2.644,2.644,0,0,1,.438,1.5H66.154a1.117,1.117,0,0,0-.346-.876,1.348,1.348,0,0,0-.936-.311,1.521,1.521,0,0,0-.943.263.808.808,0,0,0-.346.67.814.814,0,0,0,.381.644,4.8,4.8,0,0,0,1.339.6,8.2,8.2,0,0,1,1.574.663,2.645,2.645,0,0,1,1.5,2.38,2.257,2.257,0,0,1-.914,1.9,4.066,4.066,0,0,1-2.507.692,4.974,4.974,0,0,1-2.034-.4,3.067,3.067,0,0,1-1.371-1.1A2.878,2.878,0,0,1,61.089-3h2.234A1.417,1.417,0,0,0,63.707-1.9a1.815,1.815,0,0,0,1.247.352,1.434,1.434,0,0,0,.873-.238A.786.786,0,0,0,66.148-2.457Z" transform="translate(346.624 7713)" fill="#fff"/>
  </g>
</svg>
