<svg xmlns="http://www.w3.org/2000/svg" xmlns:xlink="http://www.w3.org/1999/xlink" width="153" height="60" viewBox="0 0 153 60">
  <defs>
    <linearGradient id="linear-gradient" x1="0.122" y1="0.154" x2="0.834" y2="0.814" gradientUnits="objectBoundingBox">
      <stop offset="0" stop-color="#7867ff"/>
      <stop offset="1" stop-color="#4e3eca"/>
    </linearGradient>
  </defs>
  <g id="btn-tips" transform="translate(-262 -7522)">
    <g id="Group_5377" data-name="Group 5377" transform="translate(262 7522)">
      <g id="btn-tips-2" data-name="btn-tips">
        <g id="Group_3718" data-name="Group 3718">
          <g id="Group_3713" data-name="Group 3713" transform="translate(0 0)">
            <g id="Group_3709" data-name="Group 3709">
              <path id="Path_7935" data-name="Path 7935" d="M1206.519,490.38a29.672,29.672,0,0,0-30,29.726,30,30,0,1,0,60,0A29.672,29.672,0,0,0,1206.519,490.38Z" transform="translate(-1176.519 -490.38)" fill="url(#linear-gradient)"/>
            </g>
          </g>
        </g>
      </g>
      <g id="add" transform="translate(16 13)">
        <path id="Path_9500" data-name="Path 9500" d="M14.241,29.982H3.748A3.752,3.752,0,0,1,0,26.235V6.748A3.752,3.752,0,0,1,3.748,3h3a.75.75,0,0,1,0,1.5h-3A2.251,2.251,0,0,0,1.5,6.748V26.235a2.251,2.251,0,0,0,2.249,2.249H14.241a.75.75,0,0,1,0,1.5Z" transform="translate(0 1.497)" fill="#fff"/>
        <path id="Path_9501" data-name="Path 9501" d="M18.746,11.994a.75.75,0,0,1-.75-.75v-4.5A2.251,2.251,0,0,0,15.748,4.5h-3a.75.75,0,0,1,0-1.5h3A3.752,3.752,0,0,1,19.5,6.748v4.5A.75.75,0,0,1,18.746,11.994Z" transform="translate(5.988 1.497)" fill="#fff"/>
        <path id="Path_9502" data-name="Path 9502" d="M15.243,8.994H6.249A2.251,2.251,0,0,1,4,6.746v-3A.75.75,0,0,1,4.75,3H7.073a3.748,3.748,0,0,1,7.345,0h2.323a.75.75,0,0,1,.75.75v3A2.251,2.251,0,0,1,15.243,8.994ZM5.5,4.5V6.746a.751.751,0,0,0,.75.75h8.994a.751.751,0,0,0,.75-.75V4.5H13.744a.75.75,0,0,1-.75-.75,2.249,2.249,0,0,0-4.5,0,.75.75,0,0,1-.75.75Z" transform="translate(1.996)" fill="#fff"/>
        <path id="Path_9506" data-name="Path 9506" d="M18.74,9.5H3.75a.75.75,0,0,1,0-1.5H18.74a.75.75,0,0,1,0,1.5Z" transform="translate(1.497 3.992)" fill="#fff"/>
        <path id="Path_9507" data-name="Path 9507" d="M14.243,12.5H3.75a.75.75,0,0,1,0-1.5H14.243a.75.75,0,0,1,0,1.5Z" transform="translate(1.497 5.489)" fill="#fff"/>
        <path id="Path_9508" data-name="Path 9508" d="M11.245,15.5H3.75a.75.75,0,0,1,0-1.5h7.5a.75.75,0,0,1,0,1.5Z" transform="translate(1.497 6.986)" fill="#fff"/>
      </g>
      <g id="Group_5376" data-name="Group 5376" transform="translate(33.087 30.739)">
        <path id="Path_9464" data-name="Path 9464" d="M153.99,112.261Zm2.514-8a7.939,7.939,0,0,0-2.4,4.042l-.045.182H150.6l-.045-.182a8.224,8.224,0,0,0-2.462-4.1A6.449,6.449,0,0,1,152.393,93a6.382,6.382,0,0,1,6.27,6.429A6.455,6.455,0,0,1,156.5,104.264Z" transform="translate(-146 -93)" fill="none" stroke="#fff" stroke-width="2"/>
        <rect id="Rectangle_4666" data-name="Rectangle 4666" width="5" height="2" transform="translate(3.913 17.261)" fill="#fff"/>
      </g>
    </g>
    <path id="Path_9509" data-name="Path 9509" d="M2.926,8.864V12H.7V2.758H4.386a4.3,4.3,0,0,1,1.876.39A2.942,2.942,0,0,1,7.525,4.259a3.034,3.034,0,0,1,.448,1.635A2.674,2.674,0,0,1,7,8.055a4.017,4.017,0,0,1-2.656.809Zm0-1.72h1.46a1.377,1.377,0,0,0,.987-.324,1.2,1.2,0,0,0,.34-.914,1.487,1.487,0,0,0-.349-1.035,1.236,1.236,0,0,0-.952-.394H2.926ZM12.834,12H10.612V2.758h2.222Zm5.077-1.714h3.878V12H15.683V2.758h2.228ZM31.449,7.569a5.45,5.45,0,0,1-.5,2.393,3.706,3.706,0,0,1-1.425,1.6,3.968,3.968,0,0,1-2.1.562,4.024,4.024,0,0,1-2.095-.543A3.7,3.7,0,0,1,23.9,10.032a5.293,5.293,0,0,1-.536-2.317V7.195a5.474,5.474,0,0,1,.5-2.4,3.7,3.7,0,0,1,1.428-1.6A4.228,4.228,0,0,1,29.5,3.189a3.764,3.764,0,0,1,1.431,1.59,5.317,5.317,0,0,1,.517,2.365Zm-2.266-.387a3.886,3.886,0,0,0-.46-2.092,1.476,1.476,0,0,0-1.317-.714q-1.676,0-1.771,2.514l-.006.679a4,4,0,0,0,.451,2.088,1.474,1.474,0,0,0,1.339.73,1.456,1.456,0,0,0,1.3-.717,3.888,3.888,0,0,0,.463-2.063Zm11.431-2.7H37.84V12H35.612V4.478H32.888V2.758h7.725Zm13.27,0H51.11V12H48.882V4.478H46.159V2.758h7.725ZM58.5,12H56.276V2.758H58.5Zm5.077-3.136V12H61.346V2.758h3.688a4.3,4.3,0,0,1,1.876.39,2.942,2.942,0,0,1,1.263,1.111,3.034,3.034,0,0,1,.448,1.635,2.674,2.674,0,0,1-.968,2.161A4.017,4.017,0,0,1,65,8.864Zm0-1.72h1.46a1.377,1.377,0,0,0,.987-.324,1.2,1.2,0,0,0,.34-.914,1.487,1.487,0,0,0-.349-1.035,1.236,1.236,0,0,0-.952-.394H63.574Zm12.3,2.4a.915.915,0,0,0-.346-.762,4.3,4.3,0,0,0-1.216-.565,11.662,11.662,0,0,1-1.422-.565,2.693,2.693,0,0,1-1.8-2.425,2.174,2.174,0,0,1,.448-1.355,2.894,2.894,0,0,1,1.266-.914,4.928,4.928,0,0,1,1.841-.327,4.311,4.311,0,0,1,1.787.355A2.829,2.829,0,0,1,77.665,4,2.644,2.644,0,0,1,78.1,5.5H75.881a1.117,1.117,0,0,0-.346-.876,1.348,1.348,0,0,0-.936-.311,1.521,1.521,0,0,0-.943.263.776.776,0,0,0,.035,1.314,4.8,4.8,0,0,0,1.339.6A8.2,8.2,0,0,1,76.6,7.15a2.645,2.645,0,0,1,1.5,2.38,2.257,2.257,0,0,1-.914,1.9,4.066,4.066,0,0,1-2.507.692,4.974,4.974,0,0,1-2.034-.4,3.067,3.067,0,0,1-1.371-1.1A2.878,2.878,0,0,1,70.816,9H73.05a1.417,1.417,0,0,0,.384,1.095,1.815,1.815,0,0,0,1.247.352,1.434,1.434,0,0,0,.873-.238A.786.786,0,0,0,75.875,9.543Z" transform="translate(336.897 7545)" fill="#fff"/>
  </g>
</svg>
