<svg xmlns="http://www.w3.org/2000/svg" xmlns:xlink="http://www.w3.org/1999/xlink" width="1002" height="648" viewBox="0 0 1002 648">
  <defs>
    <clipPath id="clip-path">
      <rect id="Rectangle_2950" data-name="Rectangle 2950" width="1002" height="648" fill="#f6f6f6"/>
    </clipPath>
  </defs>
  <g id="fondo-bienvenidos-mobile" clip-path="url(#clip-path)">
    <g id="fondo-bienvenidos-mobile-2" data-name="fondo-bienvenidos-mobile" transform="translate(-171.1)">
      <rect id="fondo" width="1344" height="648" transform="translate(0.1)" fill="#3688f2"/>
      <path id="Path_8124" data-name="Path 8124" d="M358,396.544h0C358.787,392.424,371.8,400.419,358,396.544Zm-9.137.732c.282,1.636,7.987-5.379,2.812-3.288C352.217,394.237,345.1,394.748,348.866,397.276Zm18.267-63.91c13.46-1.079-3.633-12.807-8.083-2.931C359.977,332.991,360.359,333.516,367.133,333.366ZM897.837,614.2c-.566,2.99-3.058,7.994.518,11.514C905.23,629.865,902.4,617.237,897.837,614.2Zm216.348,185.524c1.316,16.637,20.919,4.6,8.479.18C1119.587,803.043,1116.866,793.933,1114.185,799.724Zm10.887-5.3c-.47.253,2.819,6.54,2.989,2.058C1127.539,795.954,1126.653,792.62,1125.072,794.429Zm-12.817-.908c.439.178.7.178,0,0C1109.744,792.252,1113.124,801.918,1112.255,793.521Zm84.122,29.945c6.781-3.375,28.047-33.335,8.6-21.189C1205.431,810.891,1173.887,819.613,1196.378,823.466Zm-4.393,1.822c-1.836.845-1.458,2.833,1.581.552C1193.288,825.173,1193.816,825.054,1191.985,825.288Zm22.3-40.767c-1.667,9.334,2.377,25.428,13.524,2.961C1220.682,790.718,1201.694,758.785,1214.289,784.521Zm-34.774-64.779c-.159,5.333,18.624,13.247,5.625,3.834C1185.081,722.469,1183.022,718.938,1179.515,719.742Zm-113.271-32.5c-4.08,4.623,9.564-.617-.693.175Zm39.686,1.824c-2.04-.838-1.751,44.333-20.023,6.029,6.2-7.036-4.6-4.079-13.165-8.4-17.6,32.843-5.595-12.571-38.632,31.413-22.47,5.84-31.271,7.465-19.14,37.979,7.622,2.992-9.664,29.726,17.731,15.339,11.833,2.87,41.146-25.712,50.581,3.468,3.029,1.326,4.932-7.565,8.251-6.754-.393,1.417,1.994,15.809,14.228,21.184,20.682,8.459,47.221-24.239,35.124-52.589C1128.043,725.045,1113.867,698,1105.93,689.069Zm59.012-7.12c.5,2.606,6.577-.275.834-1.466C1165.273,680.736,1164.378,680.1,1164.943,681.949Zm-17.211-12.241c.972,2.827,8.062,5.561,1.761-.724C1148.542,667.955,1147.435,664.967,1147.732,669.709Zm-20.2-2.186c-.84,5.736,17.972-.342,10.711-4.75C1136.267,668,1132.389,664.82,1127.536,667.523ZM1068.7,676.65c.091-1.453.177-2,0,0C1068.92,681.145,1076.694,670.275,1068.7,676.65Zm-18.09-2.183c-.011.409.043,2.6,1.765.908C1054.208,676.193,1056.255,673.686,1050.612,674.467Zm29.681-7.311c-3.287,1.178-1.3,9.521,1.409.368C1081.786,667.409,1081.551,665.955,1080.293,667.157Zm-4.912-5.843c20.639-4.395,15.291,31.938,38.983,13.158,7.477,1.841,4.9,8.919,20.019,11.312C1137.091,693.138,1111.911,637.518,1075.381,661.313Zm-27.922-7.855c-3.158.847,3.239,1.956,3.508,1.28C1050.8,653.731,1051.346,652.091,1047.459,653.458Zm36.351-2.823c.161,2.179.252,6.261,3.86,3.005C1084.941,654.632,1088.319,649.613,1083.811,650.635Zm-14.759.266c-3.01,12.14,23.954-6.044-.527,1.1Zm-.872-1.27c-1.017.091-1.236,0,0,0C1071.88,646.7,1062.612,645.184,1068.18,649.63Zm-3.514,4.565c.436,5.626,4.282-2.907.354.732Zm-6.322,4.2c6.295,6.4,14.841-3.527,0,.73Zm-2.81.548c-1.763-1.962-5.977,1.805.345,2.006A3.41,3.41,0,0,0,1055.535,658.94Zm4.389-19.9c-3.642,2.92-9.026,20.675,2.283,7.159C1061.392,642.707,1058.116,643.956,1059.924,639.043Zm-33.013,19.531c13.624,22.43-5.584-9.967,14.748,6.626C1034.148,660.407,1051.1,635.118,1026.911,658.573Zm20.371-15.519c.748,2.612-15.35-2.041-17.74,4.608C1029.371,646.874,1052.15,646.842,1047.282,643.055Zm-3.692,39.266c10.218,4.218,15.866-15.145.531.906Zm-1.406,3.1c-2.551-.173-.2,4.437,1.056.546C1043.117,686.273,1043.37,684.8,1042.184,685.421Zm-11.061-7.489c13.342,3.817,22.6-3.789-.529-.36Zm-1.234,2.374c-3.585.745,3.24,6.425,4.923,2.742C1032.9,682.64,1032.844,681.3,1029.889,680.305Zm-8.778-3.1c-3.469,3.128,6.238.817,7.73.724C1028.31,675.63,1024.116,676.847,1021.111,677.207ZM983,670.99c4.278,4.283,28.643,8.518,33.9,6.222C1016.492,674.492,999.92,668.453,983,670.99ZM972.291,665.7c-.836-.067-.311,3.2.175,1.271C972.429,666.51,972.206,666.741,972.291,665.7Zm24.94-24.837c-8.68,6.362,10.92,39.258,29.676,5.286C1021.619,604.253,1025.1,634.345,997.232,640.865Zm-37.053,10.769c-1.347-.706,7.862,15.662,6.316,6.035C962.4,658.325,962.567,649.264,960.179,651.634Zm-5.625-8.035c.045.953,2.342,1.78,3.339,4.025,1.333-1.168-2.785-6.906-3.164-3.289Zm-2.631-4.794c-.429-2.944-2.4,2.023,1.054,1.882C952.982,639.9,953.358,639.968,951.922,638.8Zm1.231-8.349c-11.529-10.363,18.724,37.616,29.672,37.252C992.439,657.452,970.26,642.34,953.153,630.456Zm90.791-12.6c-13.269,1.15,1.663,8.708,7.37,9.365C1049.562,624.079,1060.73,611.586,1043.944,617.853Zm-10.361-16.98c2.015,3.676,4.577,10.13,6.849,14.427C1048.692,617.9,1040.366,603.817,1033.583,600.873Zm5.095-.546c2.822,1.427,18.1,20.89,8.785,2.734C1043.006,602.606,1050.189,595.953,1038.678,600.327ZM1032,603.611c-1.633,5.773-8.68,11.1-10.06,14.967C1026.588,615.4,1031.8,612.519,1032,603.611Zm2.7-21.364c-2.8,2.426-5.155,12.293.486,15.887C1036.781,597.089,1044.248,583.848,1034.7,582.247Zm3.446-23.052c-1.075-3.3-11.47,5.156-3.858,10.82C1033.246,565.914,1039.219,563.5,1038.144,559.194Zm89.569-81.76c-16.577,16.871-23.879-19.488-29.511,26.658-6.4,13.8-19.942,7.693-34.594,24.836,11.2,19.523-2.369-7.11,18.97-6.573-31.03,8.589,34.722,9.543,19.675-30.493C1098.192,489.263,1124.174,489.472,1127.712,477.435Zm6.493-3.468c-.032-.138-5.586,1.982-2.194,2.552C1133.057,476.311,1133.023,476.7,1134.206,473.967Zm17.214-19.54c.156.188-3.4,6.33-.877,3.288C1150.768,457.443,1153.935,454.261,1151.42,454.427Zm41.971-19.176c-.043.6,0,1,0,0C1193.413,432.513,1187.662,436.49,1193.391,435.251Zm-4.744.552c.264.546.354.821,0,0C1188.582,427.925,1182.615,434.4,1188.647,435.8Zm-9.174-19.809c5.369-1.1-1.018-6.7-2.24,0A7,7,0,0,0,1179.473,415.993Zm81.173-25.476c1.6-.983,9.343,3.849,10.012,0C1268.089,390.351,1261.719,386.159,1260.646,390.517Zm-31.08-44.74c.42.4,22.218-1.1,7.728-3.646C1236.064,341.174,1227.563,340.543,1229.566,345.777Zm-109.76-27.934c2.762,4.393,27.179.86,8.079-.916C1127.655,317.218,1117.62,310.263,1119.806,317.844Zm-21.075,11.687c2.733-1.217,10.546,3.184,12.3-.178C1107.288,325.76,1104.362,325.134,1098.731,329.53Zm3.519-4.566c2.551-.3-2.3-3.728-3.519-1.094C1099.066,324.551,1100.127,325.373,1102.25,324.965Zm-13.171-8.214c5.73,14.12,40.762-11.969,18.96-.106C1106.014,313.638,1093.424,305.783,1089.08,316.751Zm-3.7-1.466c1.115-2.754-4.267-3.561-1.574.18C1084.328,315.611,1084.486,316.655,1085.382,315.286Zm-1.931,7.855c.6,1.941,1.922,6.633,4.217,3.468C1085.586,327.16,1086.136,323.654,1083.451,323.141ZM990.03,296.3c.693-1.217-8-3.628-5.095-.55C985.785,295.339,988.743,299.293,990.03,296.3Zm-40.919,8.574c.33-1.469,4.432,2.077,3.515-1.276C953.019,302.063,949.668,302.314,949.111,304.875Zm15.278-6.575c2.135-5.334,17.438.39,18.086-7.294C977.249,286.368,962.762,283.442,964.389,298.3Zm-11.236-18.071c-24.958,4.237,7.5,16.587,10.012,7.666C963.946,277.809,963.926,282.816,953.153,280.229Zm-10.541.726c20.782-.022,16.052-16.42-5.441-3.471C936.467,280.11,940.608,278.377,942.612,280.955Zm-1.406,1.647c-2.553-2.727-11.643.659-2.815,1.464C939,286.936,944.938,284.325,941.206,282.6Zm-7.2-11.867c-3.9-1-4.5,4.432,1.227,2.734C935.085,272.861,935.981,271.3,934.009,270.736ZM797.028,356.37c-.823-.327-4.05-4.475-5.968-.182C789.279,359.251,795.858,361.027,797.028,356.37ZM810.558,329.9c-14.95,5.387-6.182,22.012,10.009,16.616-19.957-24.607,28.138-29.039,39.158-41.079C844.076,305.551,813.142,315.128,810.558,329.9Zm52.851,1.638c2.663.919,9.71-3.856,1.236-2.56C864.942,329.421,861.587,330.264,863.409,331.536ZM838.3,273.648c1.131,2.79,5.52,4.374,8.253.552C853.654,270.585,842.472,272.472,838.3,273.648Zm-8.6,0c-5.489,5.344,4.089,5.318,6.675,2.927C834.632,271.835,835.421,272.32,829.694,273.648Zm-1.231,6.581c-2.483-.137-5.282,3.421,1.231,1.276C829.539,281.356,830.137,279.724,828.464,280.229Zm-12.3-1.1c-2.438,1.9,6.831,4.138,10.018-1.458C827.4,276.6,817.292,279.291,816.167,279.131Zm-10.005.368c5.425-5.921,15.3-2.613,20.2-6.206C822.376,267.216,814.211,272.383,806.162,279.5Zm-14.046-4.93c-14.871,3.016-14-.992,1.4,7.664C797.132,278.065,806.471,270.79,792.116,274.569ZM691.49,280.781c6.43,1.057,10.28,12.72,25.989,2C725.99,282.382,700.071,273.353,691.49,280.781Zm-7.026,13.873c-5.625.762-19.582,4.963-.177,3.473-5.916,3.726-18.165,1.672.177,8.031,16.956-32.64,8.358,6.9,25.462-8.026-10.47-9.051-44.054-26.8-43.02-5.307C658.332,294.147,681.106,292.027,684.464,294.654Zm434.465,118.139c20.6-7.885,18.617,13.245,37.584-13.691,15.743-6.063.618,18.024,22.87-5.112,9.115,14.958-45.483,21.293-23.051,57.149,13.131-15.509,16.947-14.04,21.07-42.55,14.9-.823,24.914-.9,44.788-14.6,24.63,7.794-6.466-13.351,1.052-12.781,8.22,7.931,11-11.936,14.224-4.021,4.569.955,17.74,12.487,22.823.732,14.794-5.206-10.412-9.35-9.641-6.337-25.648-27.514-36.394-17.5-78.86-15.944-.716,8.379-5.13-9.6-9.482-10.589-7.483-2.346-14.376,4.326-24.237-.364,5.164-.191-49.807-22.387-38.986-2.691-11.309-2.32-22.679,5.942-35.824-.215-3-12.264,4.546-9.2-11.947-13.882-18.724-5.769,6.722,9.906-19.137,4.922-.927-5.628-36.776-2.931-23.71-8.394,1.684-8.071-10.375,8.141-22.656,6.566,7.343-4.395,60.613-27.51-16.323-27.213,3.453,9.961-55.956,4.894-48.3,22.831-2.987-.628-36.975,1.09-16.327,10.415,6.59,9.932-23.09-10.1-17.388,5.294,8.192,1.417-1.291,8.676-7.9-9.5-9.146,26.764-2.413,14,14.053,34.325-15.445-6.735-3.419-17.965-21.421,4.944-.086,3.332-20.053,1.378-2.294-2.013,5.507.765,5.261-54.1-10.357-32.692-16.532,14.176,5.882,20.6-1.4,24.837,3.6,2.589-35.213-19.661-33.025-11.327,1.379,4.891,13.656,2.994,3.164,10.959-.311-2.212-29.887-6.341-40.39,8.4-15.287,1.131,4.6-6.859-8.071-10.4-8-3.249-1.241,6.913-1.851,15.331-16.27-8.975-9.494,16.613-24.842,5.112,7.662,20.476-10.184-2.619-15.635-11.314-2.9-.487,30.342,13.968,29.329-1.833-34.567-18.879-40.8-20.762-59.357-20.634-3.694-4.317-3.582,11.34-16.507,3.288,2.6.555-8.949,15.881-8.612,5.844-23.581,22.577,16.48-14.822-11.936,23.381-5.386,3.414-11.531,12.376-24.767,19.345-.893,8.21,1.236,31.753,18.619,12.419,5.961,4.228,2.814,23.8,12.992,19.362,14.585-6.209,0-2.725,14.751-21-17.324-6.6,6.166-17.967,7.74-26.108,28.588-19.427-10.275,15.075,4.366,23.543,42.741-.2,9.355,2.571.9,8.774-14.176,4.155,14.93-.73,4.212,7.665-24.092-5.279,15.3,11.007-42.628,15.522-10.482-7.742,3.755.483,3.651-8.033-4.317.834-6.776-15.55-12.3-4.761-4.487,27.438,12.767-2.762-37.189,38.352-19.815-2.35,3.558,1.831,3.467,15.524,1.911,24.9-31.846-19.308-25.987,28.119-3.56,7.211,6.745,2.357,11.6,7.859,23.193-1.7,28.74-55.929,67.252-16.8,17.218,12.172-11.143,5.4-4.041,12.961,38.783-6.819-14.833-29.747.518-34.149,20.771,15.714,15.125,12.939,28.459,35.982,10.577-7.016,12.808-2.452,1.756-13.7,4.576.156,3.864-2.894,10.711-2.383,11.52,11.375-6.241,23.441,31.523,15.8,8.624.344,1.588,27.722-12.727,21.009A221.219,221.219,0,0,1,776.3,603.059c23.326-2.95,79.183-41.571,37.411-42.184-9.383-2.469-13.983,1.915-22.652-19.254,17.588,8.656,48.2,14.317,73.058,25.835-7.154-.847-3.683,7.359,8.949,4.751-2.085-.513,8.721,48.037,17.733,45.47,9.024-19.51,23.433-52.674,46.372-47.843,9.991,15.443,1.284,18.907,19.487,21.91-3.816,5.037,24.424,84.152,17.922,38.166-6.931-3.137-20.3-31.777-5.448-25.395,13.79,2.006,4.6,27.527,25.987,1.471,3.912-11.685-10.782-15.966-10.893-26.656,4.057-7.833,18.742-15.677,8.964,3.28,6.567-7.933,31.239-15.313,41.791-34.682,9.95-13.65-16.355-26,4.744-36.613,5.066.184-35.619-1.512-.879-13.243-9.253,14.109,0,.355,9.835,4.372,3.791,3.693-.441,29.412,15.1,17.356-13.04-42.884,19.283-12.424,40.226-70.119,5.52,3.492-2.554,21.011,1.577,25.746.7-5.266,9.8,3.639,2.635-5.117-4.812-6.988,5.18-7.8,5.095-10.582-1.618.962-6.231-37.947-6.5-17.356-3.239-1.657-.182,9.062-3.51,3.107-.143-11.356-11.152-4.562-15.634-6.575C1081.9,436.257,1101.7,407.534,1118.929,412.793Zm-511.908,3.471c-.79-.691-6.465,6.748-1.76,3.466C605.624,419.823,610.077,415.822,607.021,416.264Zm3.685,40.908c50.522-11.544,4.482-9.67,11.061-36.34-12.481,3.063,2.17-9.833-10.182-3.659-15.487,16.754,16.155,14.662,1.977,27.571C605.817,457.935,629.071,440.628,610.706,457.172Zm-2.985-18.814c6.395,2.043-7.129-20.551-13.522,9.675C591.541,451.535,609.877,451.522,607.721,438.358Zm187.9,278.1c.271-11.756,7.259-47.44-19.324-.368C770.732,739.585,780.485,754.791,795.624,716.46Zm-58.3-174.2c-25.3-27.6-53.543,17.586-79.369-30.311-55.25-3.793-112.46,55.215-73.067,107.734,40.628,39.873,60-41.692,87.811,59.891,9.155,19.315-15.048-1.653,7.381,65.368,11.15,55.177,69.071,20.3,64.28-25.567,4.889-10.314,22.468-9.183,20.012-25.552-12.863-38.3,5.534-34.942,33.021-75.6C801.892,582.02,785.253,660.643,737.319,542.262ZM380.126,821.82c-6.031-17-9.139,55.26,28.1,38.528-27.091-10.647,6.815-26.368-7.02-40.159,17.075-9.2,2.361-14.43,18.056-23.656-8.7-9.458,32.811-2.009,13.183-23.017,12.8,5.139,32.052-13.689,32.307-31.405,6.079-20.09,34.2,3.91,32.839-48.752,38.361-30.749-10.959-33.157-38.463-45.657.332.108-.793-22.3-26.444-23.221,2.812-5.984-47.035-28.114-43.021-8.409-3.715,1.9-2.965-8.592.354-11.863-4.918,2.641-14.667,4.1-19.321,13.137-9.709,10.364,8.321,4.131-11.288,31.179-10.135,9.6,5.028,28.589,12.472,49.127,7.631,10.717,24.765,7.016,19.492,30.315C387.986,781.525,380.171,771.527,380.126,821.82Zm8.783-235.734c1.084-4.274,20.367.41,19.671-3.284C409.663,580.257,367.927,575.066,388.909,586.086Zm-16.507-1.1c-.3-4.226-11.647-2.4-3.16,0C369.567,585.334,369.76,588.46,372.4,584.985Zm6.325-8.214c3.356-.357-38.041-20.452-33.724-6.4C358.014,567.358,360.386,577.874,378.728,576.771ZM548.366,378.646c1.263-2.7,8.4,2.7,3.869,2.561-22.145-.193,33.19,19.115,27.038-5.754C581.123,374.7,540.372,372.749,548.366,378.646ZM440.189,451.685c-3,6.354-19.767,21.331,8.426,16.806C451.336,458.509,442.127,466.138,440.189,451.685Zm-18.967,8.039c-.177.3-10.452-5.357-7.027-1.46C415.554,459.8,419.021,464.882,421.222,459.724Zm99.092-98.194c10.539,5.509,20.666-3.726,31.564-9.9-1.826,2.162-24.53-1.525-5.446-6.393,9.412,14.635,4.532-10.493,3.682-8.214,9.889.487-1.127-6.2-1.927-6.024-6.306-3.654,23.226.546,7.033-4.943-5.92-3.518,14.44-.435,8.6-4.742-9.705-3.646,9.9-6.4-6.851-13.325-2.079-3.184,11.123-5.323,7.376.724,1.07,6.44,2.728-1.744,2.462-6.211-2.447-.76-11.9-.63-2.113-3.284-2.031-5.624-11.6,3.36-8.778-3.648-1.34-7.944,29.746-20.816,9.834-19.178,30.839-5.245,22.661-16.314-8.781-4.744-2.222-2.062-11.357,6.363-8.96,3.288,7.22-5.379,6.457-17.415-3.692-6.219-4.975.072-11.148.215-.87-2.547,3.732-4.7-29.14,4.764-24.412-.548-7.052-1.267,47.823-3.65,33.547-6.577-18.356-5.286-49.061-2.164-9.835-5.476-8.169-6.064-91.905,1.414-67.083,9.586,6.836,6.274-4.5,2.977-8.7-.455-15.78-5.242-1.813,3.338-6.75,5.113-15.711-15.781-7.76,9.538-12.915-.819,3.878-9.161-10.779-3.705-17.384-2.021-.345.4,13.369,5.862,6.5,5.03-19.641-9.06-2.417-2.329-25.905,4.289-18.835,9.376,4.128,1.865-.877,12.872-12.7,1.206-47.712,11.1-4.739,12.237,4.332,5.974-27.741.388-7.29,8.126-2.1,8.741,19.826-3.3,32.484,6.207,22.625,16.531,1.149,29.308,17.82,28.94-2.5-5.3,17.458,7.749,5.63,5.476-30.174,6.376,25.9-1.971-6.849,18.44,5.664,7.578,31.682,79.174,45.133,15.164C491.463,374.094,514.426,380.175,520.314,361.53Zm-191.64-56.467c19.029,15.032,63.91-12.736,39.17-17.172-7.888-2.491,29.9-.42,18.785-8.392-2.19.916,21.518-3.195,24.413-11.327.02,1.67-19.271,2.312-7.908-1.1-2.956,1.971,35.222-4.1,13.522-6.388-3.355-2.448-16.314-12.467-92.718,6.384-6.645-2.756,2.361,14.031,18.963,4.575-13.671,11.666,13.031,2.691,28.27-1.644-.248.4-.809-1.412-7.724,3.644,20.912.585-29.91,3.977-3.339,10.234-17.7-4.995-27.232-5.561-8.078,7.118-.2-2.067-29.844,3.276-6.5,4.382-2.769-.514-4.6,9.207,6.143.919C349.1,307.442,337.423,290.337,328.673,305.063Zm1.581-11.874c38.7-14.928-51.431-30.3-15.107-7.836C331.487,283.021,294.273,294.6,330.254,293.188Zm-9.132,6.211h0C314.864,299.21,329.193,308.1,321.123,299.4Zm2.812,22.1c16,5.006,65.039-9.874,9.48-7.127C326.289,309.483,308.181,300.787,323.934,321.5Zm-24.413.73h2.461C301.716,323.314,301.877,318.245,299.521,322.227Zm5.446-4.566c-.75,2.532,16.332,5.676,7.9-1.646C312.931,315.557,308.883,310.895,304.967,317.661Zm8.6-7.859c5.963-1.079-5.7-12.188-9.487-3.648C304.857,305.356,303.922,308.7,313.57,309.8Zm-7.2-8.758c-1.688.7,18.51-1.822,5.448-3.106C312.917,299.2,307.817,294.813,306.371,301.045Zm.7-4.564c4.541.57,4.6-6.048-8.608-5.479C300.584,291.7,298.508,299.026,307.073,296.481Zm-9.835-13.7c1.3.758-4.716-8.076-5.443-1.1C292.953,280.1,293.644,284.486,297.238,282.783Zm-2.277,15.706c6.865-7.214-24.8-16.748-18.1-9.315C278.23,295.757,280.19,292.546,294.961,298.489Zm-6.677.364c1.124,1.581-4.378-5.711-5.1.543C283.451,298.892,283.342,300.562,288.283,298.853ZM286.7,314.736c32.152,12.092-.152-19.722,7.547-3.468C297.063,314.448,259.92,297.239,286.7,314.736Zm-10.182,1.469c1.4,0,1.227-.739,0,0C274.22,318.44,285.066,318.59,276.519,316.205Zm1.227-13.7c1.072,2.405-4.23-8.622-4.918-2.374C273.88,299.615,271.978,303.736,277.746,302.5Zm91.495,65.55h0C376.654,372.578,379.846,354.633,369.24,368.055Zm-56.724-30.861c17.363-3.564,5.395-26.734-4.4-4.2C309.941,330.883,304.408,338.3,312.516,337.194Zm-15.45,5.667c9.116,1.258,8.079-22.688-3.167-16.069C293.012,328.589,274.943,333.217,297.067,342.861ZM277.4,331.353c6.236-1.423-12.3-9.5-4.575-1.27C274.022,328.308,272.067,334.545,277.4,331.353ZM265.8,327.158h0C264.063,326.926,265.276,331.529,265.8,327.158ZM248.77,293.92c-1.461-1.616,11.159,3.289,11.766-2C259.179,292.889,257.209,287.025,248.77,293.92Zm3.512,8.037c1.788.279,15.625-7.487,1.406-5.842C252.011,295.692,244.785,299.591,252.282,301.957Zm-6.143-3.289c2.144.752-5.1-7.706-4.044-1.458C243,297.648,242.622,298.985,246.139,298.668Zm-3.515,9.133c-30.76,7.647,24.89,24.436,27.759,3.3C244.1,296.628,279.97,325.667,242.624,307.8Zm1.052-3.47c.652,1.518-.913,1.612,4.217,1.824C247.377,304.554,249.233,303.859,243.676,304.331Zm-14.044,7.855c.361.514-4.791,2.927,1.579,2.732C228.544,316.855,237.511,309.81,229.632,312.186Zm5.618-4.573c14.164-7.939-9.8-10.663-17.568,3.843C223.771,315.2,228.562,305.663,235.25,307.613Zm2.456,47.661c18.756.706,71.918,17.671,35.294-22.991-8.917-7.608-3.358,9.523-8.771,6.384,8.574,1.718-32.377-20.2-33.2,2C231.865,351.459,262.128,339.744,237.706,355.274Zm29.331,7.121c-1.183-1.276,4.6,1.218,5.795-4.376C276.962,357.711,259.12,359.531,267.037,362.4Zm-49-19.722c14.608-7.9,42.076-25.484-7.374-18.624C212.933,329.393,200.322,345.735,218.035,342.673Zm-146.282,66.1c1.52-.253-5.922-6.677-4.391.552C67.083,408.807,68.586,410.508,71.753,408.773Zm59-4.016c31.9-1.627,65.416,30.722,86.579,63.546,2.47-1.622-27.054-24.7-15.635-10.951,19.044,7.357.452,35.488,15.805,52.4,12.972,11.765,28.615,50.191,43.2,54.608,4.3,3.672-31.953-41.51-11.234-27.759,14.5,21.256,21.341,50.178,75.164,61.345,13.154,2.183,13.1,23.781,42.845,21.552-21.841-6.4-7.422-15.743-35.1-30.694,4.868-25.092,8.115-18.862-21.087-4.723-35.99-28.588,24.76-71.141,44.956-28.5,12.459,9.341-14.726-20.909,12.459-33.406,10.988.931-9.239-16.667,23.356-28.314,3.457-22.036-1.329-2.953,31.962-18.249-5.818,5.981-13.992-30.278-35.646-2.925-3.93.42,11.627-6.755,1.584-8.219,10.068-11.529,46.3-2.7,50.931-23.547,4.175-3.735-26.23,3.589-11.073-3.291,9.748,10.977-19.4-42.789-21.062-23.574-16.58,12.272-6.525-14.874-30.206-18.065-24.923-10.569,3.794,29.685-20.192,55.695-5.682,2.606,8.283-22.259-39.338-28.123-25.1-16.62,18.272-30.231-6.684-37.432.556,1.911,44.22,1.018,10.891-10.407,42.7-4.809-13.049,10.585,34.765,13.884-33.086-23.45,16.309-5.962-11.232-37.62,19.037-1.107,57.076,2.27,23.529,33.042-1.408-11.12,53.432,30.514,26.875,2.563,17.1,10.019,18.661,7.909,3.855-14.245,12.308,9.445,41.853,1.5,1.238-13.141,3.053-6.96-17.974-31.357-45.136-22.284,8.287-9.577-19.674-17.467-13.7-1.276-7.792,16.85,5.911-17.034-9.283-9.491-27.656,16.093,28.52,20.46-.182,39.8,1.883,4.58-12.731-26.78-26.173-24.837-3.9-4.735-3.9,22.54,6.49,15.166-1.815,1.367-3.964,14.122-9.471,8.773,1.917-6.219-6.881-25.136-8.085-.923-11.543,6.8-19.558-16.327-31.344,4.283-26.712-10.717-49.425-26.7-83.156-11.4-4.039-.258,13.421-5.3,10.019-8.031-31.571,19.042-69.895-17.506-104.324-.375-47.605,20.159,26.066,14.54-22.645,28.123,64.868,13.394-44.224,16.371,36.342,35.785-13.771,18.754-42.325,33.426,6.94,4.306C124.47,391.692,113.156,418.588,130.756,404.758Zm-14.4,14.971c3.417-1.267-7.138-6.39-5.8,4.933C111,423.4,110.255,427.021,116.36,419.728Z" transform="translate(4.049 -232.171)" fill="#1b3088" opacity="0.141"/>
    </g>
  </g>
</svg>
