<svg id="ico-conocimiento" xmlns="http://www.w3.org/2000/svg" width="43" height="41" viewBox="0 0 43 41">
  <g id="Group_3265" data-name="Group 3265" transform="translate(0)">
    <path id="Path_7549" data-name="Path 7549" d="M18.3,34.6h8.262a2.807,2.807,0,0,0,2.885-2.73V7.073a2.8,2.8,0,0,0-2.885-2.72h-20a2.783,2.783,0,0,0-2.867,2.72V27.851L0,23.6V4.418A3.664,3.664,0,0,1,3.714.778H29.55a3.532,3.532,0,0,1,3.584,3.493V34.622A3.686,3.686,0,0,1,29.4,38.267H14.889L16.6,36.825A6.356,6.356,0,0,0,18.3,34.6Z" transform="translate(9.865 -0.778)" fill="#fff"/>
    <path id="Path_7550" data-name="Path 7550" d="M6.556,6.794H23.141a1.845,1.845,0,0,1,0,3.691H6.558a1.845,1.845,0,0,1,0-3.691Z" transform="translate(11.441 1.363)" fill="#fff"/>
    <path id="Path_7551" data-name="Path 7551" d="M6.556,11.187H23.141a1.846,1.846,0,0,1,0,3.692H6.558a1.846,1.846,0,0,1,0-3.692Z" transform="translate(11.441 2.926)" fill="#fff"/>
    <path id="Path_7552" data-name="Path 7552" d="M6.556,15.581H23.141a1.8,1.8,0,1,1,0,3.6H6.558a1.8,1.8,0,1,1,0-3.6Z" transform="translate(11.441 4.491)" fill="#fff"/>
    <path id="Path_7553" data-name="Path 7553" d="M15.925,21.572a1.8,1.8,0,0,1-1.84,1.8H7.9A7.465,7.465,0,0,0,6.7,21.3a6.545,6.545,0,0,0-1.978-1.529h9.365A1.812,1.812,0,0,1,15.925,21.572Z" transform="translate(20.489 5.981)" fill="#fff"/>
    <path id="Path_7554" data-name="Path 7554" d="M18.73,19.771h1.384a5.055,5.055,0,0,0-1.283.856L16.993,22.2a1.745,1.745,0,0,1-.106-.612A1.827,1.827,0,0,1,18.73,19.771Z" transform="translate(0.045 6.007)" fill="#fff"/>
    <path id="Path_7555" data-name="Path 7555" d="M13.639,16.47a3.219,3.219,0,0,1,4.546.364L28.78,29.254l5.3-4.549a3.225,3.225,0,1,1,4.2,4.894l-7.75,6.656a3.247,3.247,0,0,1-2.1.78c-.087,0-.167,0-.255-.011a3.227,3.227,0,0,1-2.2-1.122l-12.7-14.884A3.225,3.225,0,0,1,13.639,16.47Z" transform="translate(-12.503 3.966)" fill="#fff"/>
  </g>
</svg>
