<svg xmlns="http://www.w3.org/2000/svg" width="27" height="27" viewBox="0 0 27 27">
  <path id="ico-mundo-2" d="M23.6,22.448a13.464,13.464,0,0,0-.261-18.181h0l-.006-.006A13.462,13.462,0,0,0,13.968.012h0L13.7,0c-.068,0-.136,0-.2,0s-.136,0-.2,0l-.262.007h0A13.462,13.462,0,0,0,3.672,4.26s0,0-.006.006h0A13.463,13.463,0,0,0,3.4,22.448s0,.009.006.013.02.017.029.028a13.469,13.469,0,0,0,9.593,4.5h0L13.3,27c.068,0,.136,0,.2,0s.136,0,.2,0l.262-.007h0a13.469,13.469,0,0,0,9.6-4.509c.006-.008.016-.01.021-.019S23.593,22.452,23.6,22.448ZM.943,13.966H6.53a17.2,17.2,0,0,0,1.124,5.687,17.165,17.165,0,0,0-3.776,1.923A12.511,12.511,0,0,1,.943,13.966Zm3.19-8.834A17.123,17.123,0,0,0,7.81,6.939a17.19,17.19,0,0,0-1.28,6.1H.943A12.514,12.514,0,0,1,4.133,5.131Zm21.924,7.9H20.47a17.19,17.19,0,0,0-1.28-6.1,17.123,17.123,0,0,0,3.678-1.807A12.514,12.514,0,0,1,26.057,13.034ZM13.034,6.966a16.274,16.274,0,0,1-3.943-.6,16.287,16.287,0,0,1,3.943-5.137Zm0,.931v5.138H7.461A16.259,16.259,0,0,1,8.7,7.227,17.2,17.2,0,0,0,13.034,7.9Zm.931,0A17.186,17.186,0,0,0,18.3,7.227a16.259,16.259,0,0,1,1.241,5.807H13.966Zm0-.931V1.231a16.287,16.287,0,0,1,3.943,5.137A16.274,16.274,0,0,1,13.966,6.966Zm4.846-.88a17.191,17.191,0,0,0-3.672-5.044,12.533,12.533,0,0,1,7.068,3.407A16.192,16.192,0,0,1,18.811,6.085Zm-10.622,0a16.177,16.177,0,0,1-3.4-1.637,12.531,12.531,0,0,1,7.068-3.407A17.185,17.185,0,0,0,8.189,6.085Zm-.728,7.88h5.573v4.673a17.17,17.17,0,0,0-4.5.717A16.258,16.258,0,0,1,7.461,13.966Zm5.573,5.6v6.2A16.279,16.279,0,0,1,8.9,20.222,16.231,16.231,0,0,1,13.034,19.569Zm.931,6.2v-6.2a16.231,16.231,0,0,1,4.136.652A16.277,16.277,0,0,1,13.966,25.769Zm0-7.131V13.966h5.573a16.252,16.252,0,0,1-1.076,5.391A17.144,17.144,0,0,0,13.966,18.638Zm6.5-4.673h5.588a12.508,12.508,0,0,1-2.936,7.61,17.165,17.165,0,0,0-3.776-1.923A17.192,17.192,0,0,0,20.47,13.966ZM4.511,22.273a16.224,16.224,0,0,1,3.5-1.76,17.178,17.178,0,0,0,3.85,5.446A12.542,12.542,0,0,1,4.511,22.273Zm10.628,3.686a17.167,17.167,0,0,0,3.85-5.446,16.234,16.234,0,0,1,3.5,1.76A12.542,12.542,0,0,1,15.139,25.959Z" fill="#fff"/>
</svg>
