<svg xmlns="http://www.w3.org/2000/svg" width="42" height="24" viewBox="0 0 42 24">
  <g id="ico-comando-doble" transform="translate(-703 -2216)">
    <rect id="Rectangle_2967" data-name="Rectangle 2967" width="42" height="24" transform="translate(703 2216)" fill="none"/>
    <g id="user" transform="translate(724.589 2216.284)">
      <path id="Path_8182" data-name="Path 8182" d="M92.635,11.208A5.422,5.422,0,0,0,96.6,9.566,5.423,5.423,0,0,0,98.239,5.6,5.423,5.423,0,0,0,96.6,1.641a5.6,5.6,0,0,0-7.924,0A5.422,5.422,0,0,0,87.031,5.6a5.423,5.423,0,0,0,1.642,3.962A5.424,5.424,0,0,0,92.635,11.208Zm-3-8.6a4.239,4.239,0,0,1,6,0,4.051,4.051,0,0,1,1.242,3,4.051,4.051,0,0,1-1.242,3,4.238,4.238,0,0,1-6,0,4.05,4.05,0,0,1-1.243-3A4.051,4.051,0,0,1,89.637,2.606Zm0,0" transform="translate(-83.076)" fill="#01affc"/>
      <path id="Path_8183" data-name="Path 8183" d="M19.364,253.969a13.842,13.842,0,0,0-.189-1.47,11.583,11.583,0,0,0-.362-1.478,7.3,7.3,0,0,0-.608-1.379,5.2,5.2,0,0,0-.916-1.194,4.04,4.04,0,0,0-1.316-.827,4.549,4.549,0,0,0-1.68-.3,1.705,1.705,0,0,0-.911.386c-.273.178-.592.384-.949.612a5.437,5.437,0,0,1-1.228.541,4.767,4.767,0,0,1-3,0,5.422,5.422,0,0,1-1.227-.541c-.353-.226-.673-.432-.95-.612a1.7,1.7,0,0,0-.91-.386,4.543,4.543,0,0,0-1.68.3,4.036,4.036,0,0,0-1.316.827,5.2,5.2,0,0,0-.916,1.194A7.316,7.316,0,0,0,.6,251.02,11.61,11.61,0,0,0,.235,252.5a13.747,13.747,0,0,0-.189,1.471c-.031.444-.047.907-.047,1.374a3.863,3.863,0,0,0,1.147,2.923A4.13,4.13,0,0,0,4.1,259.344h11.2a4.131,4.131,0,0,0,2.957-1.078,3.862,3.862,0,0,0,1.148-2.923C19.411,254.874,19.4,254.412,19.364,253.969Zm-2.041,3.309a2.781,2.781,0,0,1-2.017.7H4.1a2.781,2.781,0,0,1-2.017-.7,2.523,2.523,0,0,1-.724-1.935c0-.436.014-.866.043-1.28a12.4,12.4,0,0,1,.17-1.324,10.241,10.241,0,0,1,.318-1.3,5.955,5.955,0,0,1,.495-1.121,3.852,3.852,0,0,1,.673-.882,2.68,2.68,0,0,1,.876-.544,3.136,3.136,0,0,1,1.074-.207c.048.025.133.074.271.164.28.183.6.391.961.619a6.755,6.755,0,0,0,1.541.689,6.13,6.13,0,0,0,3.842,0,6.762,6.762,0,0,0,1.542-.689c.365-.234.68-.436.96-.619.138-.09.223-.138.271-.164a3.139,3.139,0,0,1,1.074.207,2.684,2.684,0,0,1,.875.544,3.842,3.842,0,0,1,.673.883,5.934,5.934,0,0,1,.495,1.121,10.216,10.216,0,0,1,.318,1.3,12.505,12.505,0,0,1,.17,1.324h0c.029.412.043.842.044,1.279A2.523,2.523,0,0,1,17.324,257.278Zm0,0" transform="translate(0 -236.078)" fill="#01affc"/>
    </g>
    <g id="Group_4139" data-name="Group 4139">
      <g id="user-2" data-name="user" transform="translate(704 2216.284)">
        <path id="Path_8182-2" data-name="Path 8182" d="M92.635,11.208A5.422,5.422,0,0,0,96.6,9.566,5.423,5.423,0,0,0,98.239,5.6,5.423,5.423,0,0,0,96.6,1.641a5.6,5.6,0,0,0-7.924,0A5.422,5.422,0,0,0,87.031,5.6a5.423,5.423,0,0,0,1.642,3.962A5.424,5.424,0,0,0,92.635,11.208Zm-3-8.6a4.239,4.239,0,0,1,6,0,4.051,4.051,0,0,1,1.242,3,4.051,4.051,0,0,1-1.242,3,4.238,4.238,0,0,1-6,0,4.05,4.05,0,0,1-1.243-3A4.051,4.051,0,0,1,89.637,2.606Zm0,0" transform="translate(-83.076)" fill="#01affc"/>
        <path id="Path_8183-2" data-name="Path 8183" d="M19.364,253.969a13.842,13.842,0,0,0-.189-1.47,11.583,11.583,0,0,0-.362-1.478,7.3,7.3,0,0,0-.608-1.379,5.2,5.2,0,0,0-.916-1.194,4.04,4.04,0,0,0-1.316-.827,4.549,4.549,0,0,0-1.68-.3,1.705,1.705,0,0,0-.911.386c-.273.178-.592.384-.949.612a5.437,5.437,0,0,1-1.228.541,4.767,4.767,0,0,1-3,0,5.422,5.422,0,0,1-1.227-.541c-.353-.226-.673-.432-.95-.612a1.7,1.7,0,0,0-.91-.386,4.543,4.543,0,0,0-1.68.3,4.036,4.036,0,0,0-1.316.827,5.2,5.2,0,0,0-.916,1.194A7.316,7.316,0,0,0,.6,251.02,11.61,11.61,0,0,0,.235,252.5a13.747,13.747,0,0,0-.189,1.471c-.031.444-.047.907-.047,1.374a3.863,3.863,0,0,0,1.147,2.923A4.13,4.13,0,0,0,4.1,259.344h11.2a4.131,4.131,0,0,0,2.957-1.078,3.862,3.862,0,0,0,1.148-2.923C19.411,254.874,19.4,254.412,19.364,253.969Zm-2.041,3.309a2.781,2.781,0,0,1-2.017.7H4.1a2.781,2.781,0,0,1-2.017-.7,2.523,2.523,0,0,1-.724-1.935c0-.436.014-.866.043-1.28a12.4,12.4,0,0,1,.17-1.324,10.241,10.241,0,0,1,.318-1.3,5.955,5.955,0,0,1,.495-1.121,3.852,3.852,0,0,1,.673-.882,2.68,2.68,0,0,1,.876-.544,3.136,3.136,0,0,1,1.074-.207c.048.025.133.074.271.164.28.183.6.391.961.619a6.755,6.755,0,0,0,1.541.689,6.13,6.13,0,0,0,3.842,0,6.762,6.762,0,0,0,1.542-.689c.365-.234.68-.436.96-.619.138-.09.223-.138.271-.164a3.139,3.139,0,0,1,1.074.207,2.684,2.684,0,0,1,.875.544,3.842,3.842,0,0,1,.673.883,5.934,5.934,0,0,1,.495,1.121,10.216,10.216,0,0,1,.318,1.3,12.505,12.505,0,0,1,.17,1.324h0c.029.412.043.842.044,1.279A2.523,2.523,0,0,1,17.324,257.278Zm0,0" transform="translate(0 -236.078)" fill="#01affc"/>
      </g>
    </g>
  </g>
</svg>
