<svg xmlns="http://www.w3.org/2000/svg" width="35.69" height="18.366" viewBox="0 0 35.69 18.366">
  <g id="icono-hat" transform="translate(0 -148.531)">
    <path id="Path_8180" data-name="Path 8180" d="M35.652,151.445a.828.828,0,0,0-.66-.57L22.83,148.926a31.654,31.654,0,0,0-9.973,0L.7,150.875a.829.829,0,0,0-.451,1.408l5.207,5.133v4.223s0,0,0,.007a.821.821,0,0,0,.014.141c0,.01,0,.019.005.029a.833.833,0,0,0,.032.111l.013.032,0,0c.2.481,2.3,4.933,12.325,4.933s12.128-4.452,12.325-4.933l0,0,.013-.032a.836.836,0,0,0,.032-.111c0-.009,0-.019.005-.029a.827.827,0,0,0,.014-.141s0,0,0-.007v-4.331l5.2-5.019A.83.83,0,0,0,35.652,151.445Zm-24.239.374h3.7a.827.827,0,0,1,.692.374,2.44,2.44,0,0,1,4.135-.072.823.823,0,0,1,.635-.3h3.7a.829.829,0,1,1,0,1.657H23.252c0,.011,0,.022,0,.034a.829.829,0,0,1-.829.829h-.765a.826.826,0,0,1-.822.758h-.264a.824.824,0,0,1-.635-.3,2.44,2.44,0,0,1-4.135-.072.827.827,0,0,1-.692.374H14.85a.826.826,0,0,1-.822-.758h-.765a.829.829,0,0,1-.829-.829c0-.012,0-.022,0-.034H11.413a.829.829,0,1,1,0-1.657Zm17.166,8.992H7.111v-2.97H28.578Zm-11.472-7.353a.788.788,0,1,1,.788.788A.789.789,0,0,1,17.107,153.458Z" transform="translate(0)" fill="#fff"/>
  </g>
</svg>
