<svg xmlns="http://www.w3.org/2000/svg" width="34.79" height="42.879" viewBox="0 0 34.79 42.879">
  <g id="ico-curso" transform="translate(-48.295)">
    <g id="Group_4136" data-name="Group 4136" transform="translate(48.295)">
      <g id="Group_4135" data-name="Group 4135">
        <path id="Path_8176" data-name="Path 8176" d="M81.388,0H54.4A6.116,6.116,0,0,0,48.3,6.109V36.77A6.116,6.116,0,0,0,54.4,42.879h24.89a1.7,1.7,0,0,0,1.7-1.7V34h.4a1.7,1.7,0,0,0,1.7-1.7V1.7A1.7,1.7,0,0,0,81.388,0ZM77.6,39.485H54.4A2.744,2.744,0,1,1,54.461,34H77.6ZM79.691,30.6H54.461a6.129,6.129,0,0,0-2.772.659V6.109A2.718,2.718,0,0,1,54.4,3.394H79.691V30.6Z" transform="translate(-48.295)" fill="#fff"/>
      </g>
    </g>
    <g id="Group_4138" data-name="Group 4138" transform="translate(56.102 1.697)">
      <g id="Group_4137" data-name="Group 4137" transform="translate(0)">
        <rect id="Rectangle_2957" data-name="Rectangle 2957" width="3.394" height="30.604" fill="#fff"/>
      </g>
    </g>
  </g>
</svg>
