<svg xmlns="http://www.w3.org/2000/svg" width="395" height="210" viewBox="0 0 395 210">
  <g id="ico-nro-1" transform="translate(-219 -61)">
    <g id="Group_3239" data-name="Group 3239" transform="translate(239 61)">
      <path id="Path_7490" data-name="Path 7490" d="M1281.519,700.38a105,105,0,1,1,105-105A105,105,0,0,1,1281.519,700.38Z" transform="translate(-1011.519 -490.38)" fill="#1c39aa"/>
      <path id="Path_7491" data-name="Path 7491" d="M1285.359,674.219a75,75,0,1,1,75-75A75,75,0,0,1,1285.359,674.219Z" transform="translate(-1015.359 -494.219)" fill="#fff" stroke="rgba(0,0,0,0)" stroke-width="1"/>
      <g id="Path_7492" data-name="Path 7492" transform="translate(-1018.592 -545)" fill="#1c39aa">
        <path d="M 1068.224731445312 705.6859741210938 C 1035.343017578125 705.6859741210938 1008.591796875 678.9342651367188 1008.591796875 646.052001953125 C 1008.591796875 613.1691284179688 1035.343017578125 586.4169921875 1068.224731445312 586.4169921875 C 1101.107543945312 586.4169921875 1127.859741210938 613.1691284179688 1127.859741210938 646.052001953125 C 1127.859741210938 678.9342651367188 1101.107543945312 705.6859741210938 1068.224731445312 705.6859741210938 Z" stroke="none"/>
        <path d="M 1068.224731445312 695.6859741210938 C 1095.6376953125 695.6859741210938 1117.859741210938 673.4639892578125 1117.859741210938 646.052001953125 C 1117.859741210938 618.6400146484375 1095.6376953125 596.4169921875 1068.224731445312 596.4169921875 C 1040.813720703125 596.4169921875 1018.591796875 618.6400146484375 1018.591796875 646.052001953125 C 1018.591796875 673.4639892578125 1040.813720703125 695.6859741210938 1068.224731445312 695.6859741210938 M 1068.224731445312 715.6859741210938 C 1029.828979492188 715.6859741210938 998.591796875 684.4483032226562 998.591796875 646.052001953125 C 998.591796875 607.6550903320312 1029.828979492188 576.4169921875 1068.224731445312 576.4169921875 C 1106.62158203125 576.4169921875 1137.859741210938 607.6550903320312 1137.859741210938 646.052001953125 C 1137.859741210938 684.4483032226562 1106.62158203125 715.6859741210938 1068.224731445312 715.6859741210938 Z" stroke="none" fill="#2073de"/>
      </g>
      <path id="Path_8155" data-name="Path 8155" d="M20.871,60.372a15.6,15.6,0,0,1-8.959-2.666,17.472,17.472,0,0,1-6.138-7.657A28.93,28.93,0,0,1,3.573,38.3a28.93,28.93,0,0,1,2.2-11.749,17.472,17.472,0,0,1,6.138-7.657,15.6,15.6,0,0,1,8.959-2.666,15.6,15.6,0,0,1,8.959,2.666A17.675,17.675,0,0,1,36,26.551,28.579,28.579,0,0,1,38.231,38.3,28.579,28.579,0,0,1,36,50.049a17.675,17.675,0,0,1-6.169,7.657A15.6,15.6,0,0,1,20.871,60.372Zm0-4.092a10.994,10.994,0,0,0,6.665-2.108,13.626,13.626,0,0,0,4.495-6.138A26.221,26.221,0,0,0,33.643,38.3a26.221,26.221,0,0,0-1.612-9.734,13.626,13.626,0,0,0-4.495-6.138,10.994,10.994,0,0,0-6.665-2.108,10.994,10.994,0,0,0-6.665,2.108,13.626,13.626,0,0,0-4.5,6.138A26.221,26.221,0,0,0,8.1,38.3a26.221,26.221,0,0,0,1.612,9.734,13.626,13.626,0,0,0,4.5,6.138A10.994,10.994,0,0,0,20.871,56.28ZM56.521,16.6V60H52.057V20.568H41.827V16.6Z" transform="translate(238.051 67)" fill="#09325f"/>
    </g>
    <g id="Group_4114" data-name="Group 4114" transform="translate(313.417 141.711)">
      <rect id="Rectangle_2831" data-name="Rectangle 2831" width="97.643" height="32.68" fill="#1c39aa"/>
    </g>
  </g>
</svg>
