<svg xmlns="http://www.w3.org/2000/svg" width="66" height="66" viewBox="0 0 66 66">
  <g id="ico-whatsapp-ayuda" transform="translate(-868 -8072)">
    <g id="Group_3709" data-name="Group 3709" transform="translate(868 8072)">
      <path id="Path_7935" data-name="Path 7935" d="M1209.519,556.38a32.639,32.639,0,0,1-33-32.7,33,33,0,1,1,66,0A32.64,32.64,0,0,1,1209.519,556.38Z" transform="translate(-1176.519 -490.38)" fill="#11c60a"/>
    </g>
    <path id="Path_7936" data-name="Path 7936" d="M17.34.019A16.461,16.461,0,0,0,3.481,23.928l-1.747,8.48a.64.64,0,0,0,.775.752l8.309-1.969A16.456,16.456,0,1,0,17.34.019Zm9.915,25.546A12.892,12.892,0,0,1,12.411,28l-1.157-.576L6.159,28.626l1.072-5.206L6.661,22.3A12.9,12.9,0,0,1,9.034,7.345,12.884,12.884,0,1,1,27.255,25.566Z" transform="translate(883.313 8088)" fill="#fff"/>
    <path id="Path_7937" data-name="Path 7937" d="M120.857,118.917,117.67,118a1.188,1.188,0,0,0-1.176.31l-.779.794a1.161,1.161,0,0,1-1.262.266,17.015,17.015,0,0,1-5.489-4.841,1.161,1.161,0,0,1,.092-1.287l.68-.88a1.188,1.188,0,0,0,.147-1.207l-1.341-3.033a1.189,1.189,0,0,0-1.856-.425,5.361,5.361,0,0,0-2.073,3.162c-.226,2.233.731,5.048,4.353,8.428,4.184,3.905,7.535,4.421,9.716,3.893a5.361,5.361,0,0,0,2.85-2.485A1.189,1.189,0,0,0,120.857,118.917Z" transform="translate(787.42 7989.583)" fill="#fff"/>
  </g>
</svg>
