<svg id="ico-nro-4" xmlns="http://www.w3.org/2000/svg" width="395" height="210" viewBox="0 0 395 210">
  <g id="Group_3239" data-name="Group 3239">
    <path id="Path_7490" data-name="Path 7490" d="M1281.52,700.38a105,105,0,1,0-105-105A105,105,0,0,0,1281.52,700.38Z" transform="translate(-1176.519 -490.38)" fill="#03254b"/>
    <path id="Path_7491" data-name="Path 7491" d="M1285.36,674.219a75,75,0,1,0-75-75A75,75,0,0,0,1285.36,674.219Z" transform="translate(-1180.36 -494.219)" fill="#fff" stroke="rgba(0,0,0,0)" stroke-width="1"/>
    <g id="Path_7492" data-name="Path 7492" transform="translate(-742.86 -545)" fill="#03254b">
      <path d="M 1068.226928710938 705.6859741210938 C 1035.344116210938 705.6859741210938 1008.591918945312 678.9342651367188 1008.591918945312 646.052001953125 C 1008.591918945312 613.1691284179688 1035.344116210938 586.4169921875 1068.226928710938 586.4169921875 C 1101.108642578125 586.4169921875 1127.85986328125 613.1691284179688 1127.85986328125 646.052001953125 C 1127.85986328125 678.9342651367188 1101.108642578125 705.6859741210938 1068.226928710938 705.6859741210938 Z" stroke="none"/>
      <path d="M 1068.226928710938 695.6859741210938 C 1095.637939453125 695.6859741210938 1117.85986328125 673.4639892578125 1117.85986328125 646.052001953125 C 1117.85986328125 618.6400146484375 1095.637939453125 596.4169921875 1068.226928710938 596.4169921875 C 1040.81396484375 596.4169921875 1018.591918945312 618.6400146484375 1018.591918945312 646.052001953125 C 1018.591918945312 673.4639892578125 1040.81396484375 695.6859741210938 1068.226928710938 695.6859741210938 M 1068.226928710938 715.6859741210938 C 1029.830078125 715.6859741210938 998.5919189453125 684.4483032226562 998.5919189453125 646.052001953125 C 998.5919189453125 607.6550903320312 1029.830078125 576.4169921875 1068.226928710938 576.4169921875 C 1106.622680664062 576.4169921875 1137.85986328125 607.6550903320312 1137.85986328125 646.052001953125 C 1137.85986328125 684.4483032226562 1106.622680664062 715.6859741210938 1068.226928710938 715.6859741210938 Z" stroke="none" fill="#2073de"/>
    </g>
    <path id="Path_8158" data-name="Path 8158" d="M-20.491.372A15.6,15.6,0,0,1-29.45-2.294a17.472,17.472,0,0,1-6.138-7.657,28.93,28.93,0,0,1-2.2-11.749,28.93,28.93,0,0,1,2.2-11.749,17.472,17.472,0,0,1,6.138-7.657,15.6,15.6,0,0,1,8.959-2.666,15.6,15.6,0,0,1,8.959,2.666,17.674,17.674,0,0,1,6.169,7.657A28.579,28.579,0,0,1-3.131-21.7,28.579,28.579,0,0,1-5.363-9.951a17.675,17.675,0,0,1-6.169,7.657A15.6,15.6,0,0,1-20.491.372Zm0-4.092a10.994,10.994,0,0,0,6.665-2.108,13.626,13.626,0,0,0,4.5-6.138A26.221,26.221,0,0,0-7.719-21.7a26.221,26.221,0,0,0-1.612-9.734,13.626,13.626,0,0,0-4.5-6.138,10.994,10.994,0,0,0-6.665-2.108,10.994,10.994,0,0,0-6.665,2.108,13.626,13.626,0,0,0-4.5,6.138A26.221,26.221,0,0,0-33.263-21.7a26.221,26.221,0,0,0,1.612,9.734,13.626,13.626,0,0,0,4.5,6.138A10.994,10.994,0,0,0-20.491-3.72Zm60.636-7.688h-8.68V0H27V-11.408H2.511v-3.224l23-28.768h4.96L8.277-15.376H27.125V-25.42h4.34v10.044h8.68Z" transform="translate(104.953 127)" fill="#09325f"/>
  </g>
  <g id="Group_4114" data-name="Group 4114" transform="translate(202.941 80.711)">
    <rect id="Rectangle_2831" data-name="Rectangle 2831" width="97.643" height="32.68" fill="#03254b"/>
  </g>
</svg>
