<svg xmlns="http://www.w3.org/2000/svg" width="32.001" height="32" viewBox="0 0 32.001 32">
  <g id="ico-dia" transform="translate(0 -0.003)">
    <path id="Path_7702" data-name="Path 7702" d="M103.473,183.46a1.092,1.092,0,0,0-1.092,1.092v3.1a1.092,1.092,0,0,0,2.184,0v-3.1A1.092,1.092,0,0,0,103.473,183.46Z" transform="translate(-87.474 -156.746)" fill="#00afff"/>
    <path id="Path_7703" data-name="Path 7703" d="M103.473,5.292A1.092,1.092,0,0,0,104.565,4.2V1.095a1.092,1.092,0,1,0-2.184,0V4.2A1.092,1.092,0,0,0,103.473,5.292Z" transform="translate(-87.474)" fill="#00afff"/>
    <path id="Path_7704" data-name="Path 7704" d="M32.5,160.034l-2.2,2.2a1.092,1.092,0,0,0,1.544,1.545l2.2-2.2a1.092,1.092,0,0,0-1.544-1.545Z" transform="translate(-25.621 -136.457)" fill="#00afff"/>
    <path id="Path_7705" data-name="Path 7705" d="M160.8,34.369a1.089,1.089,0,0,0,.772-.32l2.2-2.2a1.092,1.092,0,1,0-1.544-1.545l-2.2,2.2a1.092,1.092,0,0,0,.772,1.864Z" transform="translate(-136.455 -25.621)" fill="#00afff"/>
    <path id="Path_7706" data-name="Path 7706" d="M5.289,103.487A1.092,1.092,0,0,0,4.2,102.395h-3.1a1.092,1.092,0,1,0,0,2.184H4.2A1.092,1.092,0,0,0,5.289,103.487Z" transform="translate(0 -87.484)" fill="#00afff"/>
    <path id="Path_7707" data-name="Path 7707" d="M187.65,102.395h-3.106a1.092,1.092,0,1,0,0,2.184h3.106a1.092,1.092,0,1,0,0-2.184Z" transform="translate(-156.741 -87.484)" fill="#00afff"/>
    <path id="Path_7708" data-name="Path 7708" d="M32.509,34.051a1.092,1.092,0,1,0,1.544-1.544l-2.2-2.2a1.092,1.092,0,0,0-1.544,1.544Z" transform="translate(-25.627 -25.622)" fill="#00afff"/>
    <path id="Path_7709" data-name="Path 7709" d="M161.58,160.034a1.092,1.092,0,0,0-1.545,1.544l2.195,2.2a1.092,1.092,0,1,0,1.545-1.544Z" transform="translate(-136.461 -136.457)" fill="#00afff"/>
    <path id="Path_7710" data-name="Path 7710" d="M60.015,51.518a8.5,8.5,0,1,0,8.5,8.5A8.509,8.509,0,0,0,60.015,51.518Zm0,14.815a6.316,6.316,0,1,1,6.316-6.315A6.322,6.322,0,0,1,60.015,66.333Z" transform="translate(-44.015 -44.014)" fill="#00afff"/>
  </g>
</svg>
