<svg xmlns="http://www.w3.org/2000/svg" width="84.895" height="127.271" viewBox="0 0 84.895 127.271">
  <g id="ico-nro-4-mobile" transform="translate(-146.5 -361.876)">
    <g id="Group_3239" data-name="Group 3239" transform="translate(147 382.372)">
      <g id="Group_3778" data-name="Group 3778" transform="translate(0 -0.299)">
        <path id="Path_7490" data-name="Path 7490" d="M1218.466,574.275a41.947,41.947,0,1,1,41.948-41.947A41.946,41.946,0,0,1,1218.466,574.275Z" transform="translate(-1176.519 -490.38)" fill="#03254b" stroke="rgba(0,0,0,0)" stroke-width="1"/>
        <path id="Path_7491" data-name="Path 7491" d="M1243.409,590.318a33.049,33.049,0,1,1,33.05-33.049A33.049,33.049,0,0,1,1243.409,590.318Z" transform="translate(-1201.461 -515.32)" fill="#fff" stroke="rgba(0,0,0,0)" stroke-width="1"/>
      </g>
      <path id="Path_8166" data-name="Path 8166" d="M-9.915.18A7.55,7.55,0,0,1-14.25-1.11a8.454,8.454,0,0,1-2.97-3.705A14,14,0,0,1-18.285-10.5a14,14,0,0,1,1.065-5.685,8.454,8.454,0,0,1,2.97-3.7,7.551,7.551,0,0,1,4.335-1.29A7.55,7.55,0,0,1-5.58-19.89a8.552,8.552,0,0,1,2.985,3.7A13.829,13.829,0,0,1-1.515-10.5,13.829,13.829,0,0,1-2.6-4.815,8.552,8.552,0,0,1-5.58-1.11,7.55,7.55,0,0,1-9.915.18Zm0-1.98A5.32,5.32,0,0,0-6.69-2.82,6.593,6.593,0,0,0-4.515-5.79a12.688,12.688,0,0,0,.78-4.71,12.688,12.688,0,0,0-.78-4.71A6.593,6.593,0,0,0-6.69-18.18,5.32,5.32,0,0,0-9.915-19.2a5.32,5.32,0,0,0-3.225,1.02,6.593,6.593,0,0,0-2.175,2.97,12.688,12.688,0,0,0-.78,4.71,12.688,12.688,0,0,0,.78,4.71A6.593,6.593,0,0,0-13.14-2.82,5.32,5.32,0,0,0-9.915-1.8Zm29.34-3.72h-4.2V0h-2.16V-5.52H1.215V-7.08L12.345-21h2.4L4-7.44h9.12V-12.3h2.1v4.86h4.2Z" transform="translate(42 52.701)" fill="#09325f"/>
    </g>
    <path id="Path_7951" data-name="Path 7951" d="M0-.383H2.525l.017,20.588H0Z" transform="translate(187.676 362.259)" fill="#03254b"/>
    <path id="Path_7952" data-name="Path 7952" d="M0,21.34l2.533.242L2.542-1.3H0Z" transform="translate(187.676 465.672)" fill="#03254b"/>
    <rect id="Rectangle_2919" data-name="Rectangle 2919" width="25.423" height="2.542" transform="translate(176.236 486.605)" fill="#03254b"/>
  </g>
</svg>
