<svg xmlns="http://www.w3.org/2000/svg" width="84.895" height="127.271" viewBox="0 0 84.895 127.271">
  <g id="ico-nro-2-mobile" transform="translate(-980.5 -321.803)">
    <path id="Path_7490" data-name="Path 7490" d="M1218.466,574.275a41.947,41.947,0,1,1,41.948-41.947A41.946,41.946,0,0,1,1218.466,574.275Z" transform="translate(-195.519 -148.081)" fill="#4585e3" stroke="rgba(0,0,0,0)" stroke-width="1"/>
    <path id="Path_7491" data-name="Path 7491" d="M1243.409,590.318a33.049,33.049,0,1,1,33.05-33.049A33.049,33.049,0,0,1,1243.409,590.318Z" transform="translate(-220.36 -173.219)" fill="#fff" stroke="rgba(0,0,0,0)" stroke-width="1"/>
    <path id="Path_7951" data-name="Path 7951" d="M0-.383H2.525l.017,20.588H0Z" transform="translate(1021.676 322.186)" fill="#4585e3"/>
    <path id="Path_7952" data-name="Path 7952" d="M0,21.34l2.533.242L2.542-1.3H0Z" transform="translate(1021.676 425.599)" fill="#4585e3"/>
    <rect id="Rectangle_2919" data-name="Rectangle 2919" width="25.423" height="2.542" transform="translate(1010.236 446.532)" fill="#4585e3"/>
    <path id="Path_8164" data-name="Path 8164" d="M-8.49.18a7.55,7.55,0,0,1-4.335-1.29A8.454,8.454,0,0,1-15.8-4.815,14,14,0,0,1-16.86-10.5,14,14,0,0,1-15.8-16.185a8.454,8.454,0,0,1,2.97-3.7A7.551,7.551,0,0,1-8.49-21.18a7.55,7.55,0,0,1,4.335,1.29,8.552,8.552,0,0,1,2.985,3.7A13.829,13.829,0,0,1-.09-10.5,13.829,13.829,0,0,1-1.17-4.815,8.552,8.552,0,0,1-4.155-1.11,7.55,7.55,0,0,1-8.49.18Zm0-1.98A5.32,5.32,0,0,0-5.265-2.82,6.593,6.593,0,0,0-3.09-5.79a12.688,12.688,0,0,0,.78-4.71,12.688,12.688,0,0,0-.78-4.71,6.593,6.593,0,0,0-2.175-2.97A5.32,5.32,0,0,0-8.49-19.2a5.32,5.32,0,0,0-3.225,1.02,6.593,6.593,0,0,0-2.175,2.97,12.688,12.688,0,0,0-.78,4.71,12.688,12.688,0,0,0,.78,4.71,6.593,6.593,0,0,0,2.175,2.97A5.32,5.32,0,0,0-8.49-1.8Zm25.77-.12V0H2.55V-1.53l8.73-8.55a11.3,11.3,0,0,0,2.235-2.805A5.342,5.342,0,0,0,14.1-15.27a3.52,3.52,0,0,0-1.275-2.895A5.652,5.652,0,0,0,9.18-19.2a7.2,7.2,0,0,0-5.73,2.34L1.92-18.18A8.057,8.057,0,0,1,5.055-20.4a11.274,11.274,0,0,1,4.3-.78,7.862,7.862,0,0,1,5.085,1.515A5.052,5.052,0,0,1,16.32-15.51a7.127,7.127,0,0,1-.72,3.12,13.082,13.082,0,0,1-2.73,3.45L5.73-1.92Z" transform="translate(1023 395)" fill="#09325f"/>
  </g>
</svg>
