<svg id="ico-afip" xmlns="http://www.w3.org/2000/svg" width="207.812" height="56.304" viewBox="0 0 207.812 56.304">
  <path id="Path_7466" data-name="Path 7466" d="M72.455,56.9,61.837,33.4,55.571,19.029a3.672,3.672,0,0,0-3.138-2.2H40.789A3.766,3.766,0,0,0,37.341,19.2L14.449,69.426a2.8,2.8,0,0,0,.09,2.61,2.42,2.42,0,0,0,2.119,1.092H43.536a3.347,3.347,0,0,0,3.194-1.9L50,63.844l18.308-.017a4.35,4.35,0,0,0,3.7-1.911,5.383,5.383,0,0,0,.442-5.014M44.56,70.227c-.183.42-.77.462-1.024.462H16.658a.76.76,0,0,1-.115,0,.858.858,0,0,1,.071-.266L39.47,20.256a1.282,1.282,0,0,1,1.32-.819H52.434a1.117,1.117,0,0,1,.99.621l6.258,14.359.13.291a1.554,1.554,0,0,1,.144.6,1.691,1.691,0,0,1-.174.672l-.034.068c-.7,1.606-15.036,33.838-15.188,34.183m25.529-9.733a2.083,2.083,0,0,1-1.652.9h-.073l-17.277.007,10.308-23.2c2.9,6.412,8.783,19.435,8.836,19.555a4.016,4.016,0,0,1,.259,1.371,2.245,2.245,0,0,1-.4,1.359" transform="translate(-14.173 -16.824)" fill="#fff"/>
  <path id="Path_7467" data-name="Path 7467" d="M88.2,63.568H66.2c-2.128,0-3.565-2.263-3.565-4.377V21.119A4.5,4.5,0,0,1,63.7,18.049a3.676,3.676,0,0,1,2.666-1.224H88.492a3.339,3.339,0,0,1,2.39,1.112,4.6,4.6,0,0,1,1.2,3.338l-.017,38.007A4.089,4.089,0,0,1,88.2,63.568m.31-44.549v.337l-22.135.024a1.275,1.275,0,0,0-.958.342A2.18,2.18,0,0,0,65,21.258V59.192c0,1.075.65,1.943,1.195,1.943H88.2a1.7,1.7,0,0,0,1.5-1.852l.01-38.007a2.312,2.312,0,0,0-.5-1.615.93.93,0,0,0-.7-.3Z" transform="translate(55.788 -16.824)" fill="#fff"/>
  <path id="Path_7468" data-name="Path 7468" d="M131.276,18.888a4.253,4.253,0,0,0-3.5-2.062H102.061c-.032,0-.061,0-.093,0H81.182a4.424,4.424,0,0,0-4.616,4.68V59.182a4.765,4.765,0,0,0,1.215,3.284,3.588,3.588,0,0,0,2.647,1.092h21.38a4.308,4.308,0,0,0,4.186-4.281L106,50.544h1.061l7.678-.01a6.918,6.918,0,0,0,6.527-3.912l10.114-22.915a5.269,5.269,0,0,0-.105-4.819M101.807,61.106H80.437a1.312,1.312,0,0,1-.982-.367,2.306,2.306,0,0,1-.525-1.557V21.505a2.03,2.03,0,0,1,2.253-2.177l20.693.012h.007a2.74,2.74,0,0,0,.286-.012h1.474l-.01,39.95a1.949,1.949,0,0,1-1.825,1.828M129.216,22.7l-10.1,22.9a4.536,4.536,0,0,1-4.382,2.485l-8.731.02.02-28.777h21.732a1.965,1.965,0,0,1,1.513.836,2.172,2.172,0,0,1,.281,1.1,3.521,3.521,0,0,1-.33,1.427" transform="translate(75.903 -16.825)" fill="#fff"/>
  <path id="Path_7469" data-name="Path 7469" d="M90.111,18.313a3.125,3.125,0,0,0-2.637-1.488H65.958c-.039,0-.076,0-.108,0H44.527a4.066,4.066,0,0,0-4.426,4.33V59.622a3.779,3.779,0,0,0,3.57,4.022h22.01a4.087,4.087,0,0,0,3.859-4.281l.01-8.9h4.042a9.2,9.2,0,0,0,3.182-.291A2.585,2.585,0,0,0,78,48.864l4.118-9.335c.147-.406.621-1.261,1.124-2.419.315-.723.706-1.571,1.1-2.434.415-.931.816-1.869,1.266-2.822.305-.645.6-1.383.9-1.987l3.807-8.529a3.253,3.253,0,0,0-.2-3.025M67.175,59.363a1.68,1.68,0,0,1-1.493,1.828H43.671c-.682,0-1.183-.667-1.183-1.569V21.155c0-1.356.564-1.891,2.038-1.891l21.241.076c.059,0,.125-.01.191-.012v0H67.18Zm13.6-23.088c-.059.142-2.717,6.825-4.374,10.215-.782,1.6-.782,1.6-2.473,1.6H69.545l0-13.238H80.036a.833.833,0,0,1,.692.4.915.915,0,0,1,.147.516,1.5,1.5,0,0,1-.1.511M87.9,20.434,83.68,29.777c-1.149,2.737-1.371,2.688-4.066,2.688H69.553l.012-13.135h17.67a.666.666,0,0,1,.626.335.841.841,0,0,1,.105.433.831.831,0,0,1-.061.337" transform="translate(23.259 -16.824)" fill="#fff"/>
</svg>
