<svg xmlns="http://www.w3.org/2000/svg" width="129" height="110" viewBox="0 0 129 110">
  <g id="ico-medico" transform="translate(-115 -5.506)">
    <path id="Path_7479" data-name="Path 7479" d="M122.876,41.34H85.539v-8.75A10.076,10.076,0,0,0,75.493,22.506H53.508A10.076,10.076,0,0,0,43.461,32.591v8.75H6.125A6.136,6.136,0,0,0,0,47.488v78.869a6.136,6.136,0,0,0,6.125,6.148H122.875A6.137,6.137,0,0,0,129,126.358V47.488A6.135,6.135,0,0,0,122.876,41.34ZM53.816,32.9H75.184v8.44H53.816V32.9ZM64.5,124.169a37.246,37.246,0,1,1,37.1-37.246A37.175,37.175,0,0,1,64.5,124.169Z" transform="translate(115 -17)" fill="#fff"/>
    <path id="Path_7480" data-name="Path 7480" d="M137.12,131.38h-9.965v-9.965a4.877,4.877,0,0,0-4.877-4.877h-7.766a4.877,4.877,0,0,0-4.877,4.877v9.965H99.67a4.877,4.877,0,0,0-4.877,4.877v7.766A4.877,4.877,0,0,0,99.67,148.9h9.965v9.965a4.877,4.877,0,0,0,4.877,4.877h7.766a4.877,4.877,0,0,0,4.877-4.877V148.9h9.965A4.877,4.877,0,0,0,142,144.023v-7.766A4.877,4.877,0,0,0,137.12,131.38Z" transform="translate(61.104 -70.19)" fill="#f39d00"/>
  </g>
</svg>
