<svg xmlns="http://www.w3.org/2000/svg" width="45.002" height="45" viewBox="0 0 45.002 45">
  <g id="ico-simulador-2" transform="translate(0 -0.01)">
    <path id="Path_1899" data-name="Path 1899" d="M.078,4.741l2.647,9.943v5.1a14.518,14.518,0,0,0,14.5,14.5h1.318V45.01h7.91V34.287h1.318a14.563,14.563,0,0,0,14.59-14.5V14.679l2.56-9.938A3.955,3.955,0,0,0,41.046.01h-7.91a4.027,4.027,0,0,0-4.043,3.955A4.028,4.028,0,0,0,33.109,7.92l1.344,6.722v5.143a6.577,6.577,0,0,1-2.725,5.289v-.015a9.229,9.229,0,1,0-18.457,0,6.606,6.606,0,0,1-2.637-5.273V14.642L11.98,7.92A3.955,3.955,0,0,0,11.954.01h-8A3.955,3.955,0,0,0,.078,4.741ZM23.819,42.373H21.182V34.287h2.637Zm9.316-37.09a1.4,1.4,0,0,1-1.406-1.318,1.4,1.4,0,0,1,1.406-1.318h7.91a1.318,1.318,0,0,1,1.3,1.547l-2.32,9H36.853L35.8,7.92h1.556V5.283H33.135ZM31.729,28.126a9.266,9.266,0,0,0,5.361-8.34V15.83h2.637v3.955a11.892,11.892,0,0,1-8,11.2Zm-15.82-3.067a6.592,6.592,0,1,1,13.184,0v6.519a12.118,12.118,0,0,1-1.318.073H17.227a11.941,11.941,0,0,1-1.318-.074Zm-2.637,3.065v2.848a11.885,11.885,0,0,1-7.91-11.187V15.83H8v3.955A9.247,9.247,0,0,0,13.272,28.124ZM3.957,2.647h8a1.318,1.318,0,1,1,0,2.637H7.735V7.92H9.291L8.236,13.194H5.057l-2.4-9A1.318,1.318,0,0,1,3.957,2.647Z" transform="translate(0 0)" fill="#03254b"/>
    <path id="Path_1900" data-name="Path 1900" d="M215.355,248.709a4.35,4.35,0,1,0-4.35-4.35A4.355,4.355,0,0,0,215.355,248.709Zm0-5.8a1.45,1.45,0,1,1-1.45,1.45A1.452,1.452,0,0,1,215.355,242.91Z" transform="translate(-192.854 -219.355)" fill="#03254b"/>
  </g>
</svg>
