<svg id="ico-requisitos" xmlns="http://www.w3.org/2000/svg" width="41" height="41" viewBox="0 0 41 41">
  <g id="Group_3267" data-name="Group 3267">
    <g id="Group_3266" data-name="Group 3266">
      <path id="Path_7556" data-name="Path 7556" d="M5.125,0h30.75A5.131,5.131,0,0,1,41,5.125v30.75A5.131,5.131,0,0,1,35.875,41H5.125A5.131,5.131,0,0,1,0,35.875V5.125A5.131,5.131,0,0,1,5.125,0ZM3.417,35.875a1.71,1.71,0,0,0,1.708,1.708h30.75a1.71,1.71,0,0,0,1.708-1.708V5.125a1.711,1.711,0,0,0-1.708-1.708H5.125A1.711,1.711,0,0,0,3.417,5.125Z" fill="#fff"/>
    </g>
  </g>
  <g id="Group_3269" data-name="Group 3269" transform="translate(29.208 8.591)">
    <g id="Group_3268" data-name="Group 3268">
      <path id="Path_7557" data-name="Path 7557" d="M106.8,107.659a1.653,1.653,0,0,1,.336-.528l.24-.192a1.213,1.213,0,0,1,.288-.144,1.016,1.016,0,0,1,.288-.1,1.53,1.53,0,0,1,.928.1,1.848,1.848,0,0,1,.528.336,1.653,1.653,0,0,1,.336.528,1.508,1.508,0,0,1,0,1.216,1.653,1.653,0,0,1-.336.528,1.683,1.683,0,0,1-1.136.464,2.4,2.4,0,0,1-.32-.032,1.017,1.017,0,0,1-.288-.1,1.214,1.214,0,0,1-.288-.144l-.24-.192a1.683,1.683,0,0,1-.464-1.136A1.6,1.6,0,0,1,106.8,107.659Z" transform="translate(-106.667 -106.666)" fill="#fff"/>
    </g>
  </g>
  <g id="Group_3271" data-name="Group 3271" transform="translate(8.927 8.591)">
    <g id="Group_3270" data-name="Group 3270">
      <path id="Path_7558" data-name="Path 7558" d="M193.6,106.667h12.8a1.6,1.6,0,1,1,0,3.2H193.6a1.6,1.6,0,1,1,0-3.2Z" transform="translate(-192 -106.667)" fill="#fff"/>
    </g>
  </g>
  <g id="Group_3273" data-name="Group 3273" transform="translate(29.208 18.908)">
    <g id="Group_3272" data-name="Group 3272">
      <path id="Path_7559" data-name="Path 7559" d="M106.7,236.046a1.016,1.016,0,0,1,.1-.288,1.214,1.214,0,0,1,.144-.288l.192-.24a1.848,1.848,0,0,1,.528-.336,1.6,1.6,0,0,1,1.216,0,1.848,1.848,0,0,1,.528.336l.192.24a1.214,1.214,0,0,1,.144.288,1.016,1.016,0,0,1,.1.288,2.41,2.41,0,0,1,.032.32,1.6,1.6,0,1,1-3.2,0A2.437,2.437,0,0,1,106.7,236.046Z" transform="translate(-106.667 -234.773)" fill="#fff"/>
    </g>
  </g>
  <g id="Group_3275" data-name="Group 3275" transform="translate(8.927 18.9)">
    <g id="Group_3274" data-name="Group 3274">
      <path id="Path_7560" data-name="Path 7560" d="M193.6,234.667h12.8a1.6,1.6,0,0,1,0,3.2H193.6a1.6,1.6,0,0,1,0-3.2Z" transform="translate(-192 -234.667)" fill="#fff"/>
    </g>
  </g>
  <g id="Group_3277" data-name="Group 3277" transform="translate(29.208 29.221)">
    <g id="Group_3276" data-name="Group 3276">
      <path id="Path_7561" data-name="Path 7561" d="M106.8,363.807a1.55,1.55,0,0,1,2.081-.864,1.443,1.443,0,0,1,.864.864,1.6,1.6,0,1,1-3.073.608A1.344,1.344,0,0,1,106.8,363.807Z" transform="translate(-106.667 -362.827)" fill="#fff"/>
    </g>
  </g>
  <g id="Group_3279" data-name="Group 3279" transform="translate(8.927 29.208)">
    <g id="Group_3278" data-name="Group 3278">
      <path id="Path_7562" data-name="Path 7562" d="M193.6,362.667h12.8a1.6,1.6,0,1,1,0,3.2H193.6a1.6,1.6,0,1,1,0-3.2Z" transform="translate(-192 -362.667)" fill="#fff"/>
    </g>
  </g>
</svg>
