<svg xmlns="http://www.w3.org/2000/svg" width="29.605" height="29.604" viewBox="0 0 29.605 29.604">
  <g id="ico-simulador-2" transform="translate(0 -0.01)">
    <path id="Path_1899" data-name="Path 1899" d="M.052,3.122,1.793,9.663V13.02a9.551,9.551,0,0,0,9.54,9.54H12.2v7.054h5.2V22.56h.867a9.58,9.58,0,0,0,9.6-9.54V9.66l1.684-6.538A2.6,2.6,0,0,0,27,.01H21.8a2.65,2.65,0,0,0-2.66,2.6,2.65,2.65,0,0,0,2.643,2.6l.884,4.422V13.02A4.327,4.327,0,0,1,20.874,16.5v-.01a6.071,6.071,0,1,0-12.142,0A4.346,4.346,0,0,1,7,13.02V9.636l.884-4.422A2.6,2.6,0,0,0,7.864.01H2.6A2.6,2.6,0,0,0,.052,3.122ZM15.67,27.879H13.935V22.56H15.67ZM21.8,3.479a.921.921,0,0,1-.925-.867.921.921,0,0,1,.925-.867H27a.867.867,0,0,1,.854,1.018L26.331,8.683H24.244l-.694-3.469h1.024V3.479H21.8Zm-.925,15.027A6.1,6.1,0,0,0,24.4,13.02v-2.6h1.735v2.6a7.823,7.823,0,0,1-5.262,7.366ZM10.466,16.489a4.337,4.337,0,1,1,8.673,0v4.289a7.972,7.972,0,0,1-.867.048H11.333a7.855,7.855,0,0,1-.867-.048ZM8.731,18.505v1.874a7.819,7.819,0,0,1-5.2-7.359v-2.6H5.262v2.6A6.083,6.083,0,0,0,8.731,18.505ZM2.6,1.745H7.864a.867.867,0,1,1,0,1.735H5.089V5.214H6.112L5.418,8.683H3.327L1.748,2.76A.867.867,0,0,1,2.6,1.745Z" transform="translate(0 0)" fill="#fff"/>
    <path id="Path_1900" data-name="Path 1900" d="M213.037,244.074A2.032,2.032,0,1,0,211,242.042,2.034,2.034,0,0,0,213.037,244.074Zm0-2.709a.677.677,0,1,1-.677.677A.678.678,0,0,1,213.037,241.365Z" transform="translate(-198.234 -225.475)" fill="#fff"/>
  </g>
</svg>
