<svg xmlns="http://www.w3.org/2000/svg" width="51" height="43.323" viewBox="0 0 51 43.323">
  <g id="ico-medico-2" transform="translate(-115 -5.506)">
    <path id="Path_7479" data-name="Path 7479" d="M48.579,29.924H33.818V26.478a3.976,3.976,0,0,0-3.972-3.972H21.154a3.976,3.976,0,0,0-3.972,3.972v3.446H2.421A2.421,2.421,0,0,0,0,32.345V63.407a2.421,2.421,0,0,0,2.421,2.421H48.579A2.421,2.421,0,0,0,51,63.407V32.345A2.421,2.421,0,0,0,48.579,29.924ZM21.276,26.6h8.448v3.324H21.276V26.6ZM25.5,62.545A14.669,14.669,0,1,1,40.169,47.876,14.669,14.669,0,0,1,25.5,62.545Z" transform="translate(115 -17)" fill="#03254b"/>
    <path id="Path_7480" data-name="Path 7480" d="M112.9,122.887h-4.263v-4.263a2.086,2.086,0,0,0-2.086-2.086h-3.322a2.086,2.086,0,0,0-2.086,2.086v4.263H96.879a2.086,2.086,0,0,0-2.086,2.086V128.3a2.086,2.086,0,0,0,2.086,2.086h4.263v4.263a2.086,2.086,0,0,0,2.086,2.086h3.322a2.086,2.086,0,0,0,2.086-2.086v-4.263H112.9a2.086,2.086,0,0,0,2.086-2.086v-3.322A2.086,2.086,0,0,0,112.9,122.887Z" transform="translate(35.611 -95.988)" fill="#03254b"/>
  </g>
</svg>
