<svg xmlns="http://www.w3.org/2000/svg" width="84.895" height="127.271" viewBox="0 0 84.895 127.271">
  <g id="ico-nro-3-mobile" transform="translate(-146.5 -361.876)">
    <g id="Group_3239" data-name="Group 3239" transform="translate(147 382.372)">
      <g id="Group_3778" data-name="Group 3778" transform="translate(0 0)">
        <path id="Path_7490" data-name="Path 7490" d="M1218.466,574.275a41.947,41.947,0,1,1,41.948-41.947A41.946,41.946,0,0,1,1218.466,574.275Z" transform="translate(-1176.519 -490.38)" fill="#1c39aa" stroke="rgba(0,0,0,0)" stroke-width="1"/>
        <path id="Path_7491" data-name="Path 7491" d="M1243.409,590.318a33.049,33.049,0,1,1,33.05-33.049A33.049,33.049,0,0,1,1243.409,590.318Z" transform="translate(-1201.36 -515.32)" fill="#fff" stroke="rgba(0,0,0,0)" stroke-width="1"/>
        <path id="Path_8165" data-name="Path 8165" d="M-8.31.18a7.55,7.55,0,0,1-4.335-1.29,8.454,8.454,0,0,1-2.97-3.705A14,14,0,0,1-16.68-10.5a14,14,0,0,1,1.065-5.685,8.454,8.454,0,0,1,2.97-3.7A7.551,7.551,0,0,1-8.31-21.18a7.55,7.55,0,0,1,4.335,1.29,8.552,8.552,0,0,1,2.985,3.7A13.829,13.829,0,0,1,.09-10.5,13.829,13.829,0,0,1-.99-4.815,8.552,8.552,0,0,1-3.975-1.11,7.55,7.55,0,0,1-8.31.18Zm0-1.98A5.32,5.32,0,0,0-5.085-2.82,6.593,6.593,0,0,0-2.91-5.79a12.688,12.688,0,0,0,.78-4.71,12.688,12.688,0,0,0-.78-4.71,6.593,6.593,0,0,0-2.175-2.97A5.32,5.32,0,0,0-8.31-19.2a5.32,5.32,0,0,0-3.225,1.02,6.593,6.593,0,0,0-2.175,2.97,12.688,12.688,0,0,0-.78,4.71,12.688,12.688,0,0,0,.78,4.71,6.593,6.593,0,0,0,2.175,2.97A5.32,5.32,0,0,0-8.31-1.8ZM10.02-12a7.773,7.773,0,0,1,5.025,1.785A5.452,5.452,0,0,1,16.77-6.03a5.911,5.911,0,0,1-.87,3.2A5.93,5.93,0,0,1,13.32-.63,9.691,9.691,0,0,1,9.15.18a12.52,12.52,0,0,1-4.3-.735A8.738,8.738,0,0,1,1.59-2.52L2.64-4.23A7.714,7.714,0,0,0,5.43-2.475,10.2,10.2,0,0,0,9.15-1.8a6.255,6.255,0,0,0,3.99-1.125A3.753,3.753,0,0,0,14.55-6.03a3.68,3.68,0,0,0-1.41-3.06A6.82,6.82,0,0,0,8.88-10.2H7.38v-1.59l5.82-7.29H2.46V-21h13.5v1.53Z" transform="translate(42 52.701)" fill="#09325f"/>
      </g>
    </g>
    <path id="Path_7951" data-name="Path 7951" d="M0-.383H2.525l.017,20.588H0Z" transform="translate(187.676 362.259)" fill="#1c39aa"/>
    <path id="Path_7952" data-name="Path 7952" d="M0,21.34l2.533.242L2.542-1.3H0Z" transform="translate(187.676 465.672)" fill="#1c39aa"/>
    <rect id="Rectangle_2919" data-name="Rectangle 2919" width="25.423" height="2.542" transform="translate(176.236 486.605)" fill="#1c39aa"/>
  </g>
</svg>
