<svg xmlns="http://www.w3.org/2000/svg" width="395" height="210" viewBox="0 0 395 210">
  <g id="ico-nro-3" transform="translate(-23.487 -202)">
    <g id="Group_3239" data-name="Group 3239" transform="translate(43.487 202)">
      <path id="Path_7490" data-name="Path 7490" d="M1281.519,700.38a105,105,0,1,1,105-105A105,105,0,0,1,1281.519,700.38Z" transform="translate(-1011.519 -490.38)" fill="#1c39aa"/>
      <path id="Path_7491" data-name="Path 7491" d="M1285.359,674.219a75,75,0,1,1,75-75A75,75,0,0,1,1285.359,674.219Z" transform="translate(-1015.359 -494.219)" fill="#fff" stroke="rgba(0,0,0,0)" stroke-width="1"/>
      <g id="Path_7492" data-name="Path 7492" transform="translate(-1018.592 -545)" fill="#1c39aa">
        <path d="M 1068.224731445312 705.6859741210938 C 1035.343017578125 705.6859741210938 1008.591796875 678.9342651367188 1008.591796875 646.052001953125 C 1008.591796875 613.1691284179688 1035.343017578125 586.4169921875 1068.224731445312 586.4169921875 C 1101.107543945312 586.4169921875 1127.859741210938 613.1691284179688 1127.859741210938 646.052001953125 C 1127.859741210938 678.9342651367188 1101.107543945312 705.6859741210938 1068.224731445312 705.6859741210938 Z" stroke="none"/>
        <path d="M 1068.224731445312 695.6859741210938 C 1095.6376953125 695.6859741210938 1117.859741210938 673.4639892578125 1117.859741210938 646.052001953125 C 1117.859741210938 618.6400146484375 1095.6376953125 596.4169921875 1068.224731445312 596.4169921875 C 1040.813720703125 596.4169921875 1018.591796875 618.6400146484375 1018.591796875 646.052001953125 C 1018.591796875 673.4639892578125 1040.813720703125 695.6859741210938 1068.224731445312 695.6859741210938 M 1068.224731445312 715.6859741210938 C 1029.828979492188 715.6859741210938 998.591796875 684.4483032226562 998.591796875 646.052001953125 C 998.591796875 607.6550903320312 1029.828979492188 576.4169921875 1068.224731445312 576.4169921875 C 1106.62158203125 576.4169921875 1137.859741210938 607.6550903320312 1137.859741210938 646.052001953125 C 1137.859741210938 684.4483032226562 1106.62158203125 715.6859741210938 1068.224731445312 715.6859741210938 Z" stroke="none" fill="#03254b"/>
      </g>
      <path id="Path_8157" data-name="Path 8157" d="M-17.174.372a15.6,15.6,0,0,1-8.959-2.666,17.472,17.472,0,0,1-6.138-7.657,28.93,28.93,0,0,1-2.2-11.749,28.93,28.93,0,0,1,2.2-11.749,17.472,17.472,0,0,1,6.138-7.657,15.6,15.6,0,0,1,8.959-2.666,15.6,15.6,0,0,1,8.959,2.666,17.674,17.674,0,0,1,6.169,7.657A28.579,28.579,0,0,1,.186-21.7,28.579,28.579,0,0,1-2.046-9.951,17.675,17.675,0,0,1-8.215-2.294,15.6,15.6,0,0,1-17.174.372Zm0-4.092a10.994,10.994,0,0,0,6.665-2.108,13.626,13.626,0,0,0,4.5-6.138A26.221,26.221,0,0,0-4.4-21.7a26.221,26.221,0,0,0-1.612-9.734,13.626,13.626,0,0,0-4.5-6.138,10.994,10.994,0,0,0-6.665-2.108,10.994,10.994,0,0,0-6.665,2.108,13.626,13.626,0,0,0-4.5,6.138A26.221,26.221,0,0,0-29.946-21.7a26.221,26.221,0,0,0,1.612,9.734,13.626,13.626,0,0,0,4.5,6.138A10.994,10.994,0,0,0-17.174-3.72ZM20.708-24.8q6.82.372,10.385,3.689a11.268,11.268,0,0,1,3.565,8.649,12.217,12.217,0,0,1-1.8,6.6A12.256,12.256,0,0,1,27.528-1.3,20.027,20.027,0,0,1,18.91.372a25.875,25.875,0,0,1-8.9-1.519A18.059,18.059,0,0,1,3.286-5.208l2.17-3.534a15.942,15.942,0,0,0,5.766,3.627,21.07,21.07,0,0,0,7.688,1.4q5.332,0,8.246-2.325a7.757,7.757,0,0,0,2.914-6.417,7.6,7.6,0,0,0-2.914-6.324q-2.914-2.294-8.8-2.294h-3.1v-3.286L27.28-39.432H5.084V-43.4h27.9v3.162Z" transform="translate(270.048 127)" fill="#09325f"/>
    </g>
    <g id="Group_4114" data-name="Group 4114" transform="translate(117.904 282.711)">
      <rect id="Rectangle_2831" data-name="Rectangle 2831" width="97.643" height="32.68" fill="#1c39aa"/>
    </g>
  </g>
</svg>
