<svg xmlns="http://www.w3.org/2000/svg" width="48.857" height="46.637" viewBox="0 0 48.857 46.637">
  <g id="fotos" transform="translate(0 -10.667)" opacity="0.41">
    <g id="Group_3890" data-name="Group 3890" transform="translate(0 19.55)">
      <g id="Group_3889" data-name="Group 3889">
        <path id="Path_7972" data-name="Path 7972" d="M0,96v37.754H48.857V96Zm44.416,33.312H4.442v-28.87H44.416Z" transform="translate(0 -96)" fill="#fff"/>
      </g>
    </g>
    <g id="Group_3892" data-name="Group 3892" transform="translate(19.987 28.433)">
      <g id="Group_3891" data-name="Group 3891">
        <path id="Path_7973" data-name="Path 7973" d="M201.994,181.333a9.994,9.994,0,1,0,9.994,9.994A9.952,9.952,0,0,0,201.994,181.333Zm0,15.99a6,6,0,1,1,6-6A5.971,5.971,0,0,1,201.994,197.323Z" transform="translate(-192 -181.333)" fill="#fff"/>
      </g>
    </g>
    <g id="Group_3894" data-name="Group 3894" transform="translate(8.883 28.433)">
      <g id="Group_3893" data-name="Group 3893">
        <rect id="Rectangle_2923" data-name="Rectangle 2923" width="6.662" height="4.442" fill="#fff"/>
      </g>
    </g>
    <g id="Group_3896" data-name="Group 3896" transform="translate(22.208 10.667)">
      <g id="Group_3895" data-name="Group 3895">
        <rect id="Rectangle_2924" data-name="Rectangle 2924" width="17.766" height="4.442" fill="#fff"/>
      </g>
    </g>
  </g>
</svg>
