<svg xmlns="http://www.w3.org/2000/svg" width="84.895" height="127.271" viewBox="0 0 84.895 127.271">
  <g id="ico-nro-1-mobile" transform="translate(-146.5 -361.876)">
    <g id="Group_3239" data-name="Group 3239" transform="translate(147 382.372)">
      <g id="Group_3778" data-name="Group 3778" transform="translate(0 0)">
        <path id="Path_7490" data-name="Path 7490" d="M1218.466,574.275a41.947,41.947,0,1,1,41.948-41.947A41.946,41.946,0,0,1,1218.466,574.275Z" transform="translate(-1176.519 -490.38)" fill="#1c39aa" stroke="rgba(0,0,0,0)" stroke-width="1"/>
        <path id="Path_7491" data-name="Path 7491" d="M1243.409,590.318a33.049,33.049,0,1,1,33.05-33.049A33.049,33.049,0,0,1,1243.409,590.318Z" transform="translate(-1201.461 -515.32)" fill="#fff" stroke="rgba(0,0,0,0)" stroke-width="1"/>
        <path id="Path_8163" data-name="Path 8163" d="M-2.389,4.578A7.358,7.358,0,0,1-6.613,3.321,8.239,8.239,0,0,1-9.508-.29a13.642,13.642,0,0,1-1.038-5.54,13.642,13.642,0,0,1,1.038-5.54,8.239,8.239,0,0,1,2.894-3.611,7.358,7.358,0,0,1,4.225-1.257,7.358,7.358,0,0,1,4.225,1.257A8.334,8.334,0,0,1,4.745-11.37,13.477,13.477,0,0,1,5.8-5.83,13.477,13.477,0,0,1,4.745-.29,8.334,8.334,0,0,1,1.836,3.321,7.358,7.358,0,0,1-2.389,4.578Zm0-1.93A5.184,5.184,0,0,0,.754,1.654,6.426,6.426,0,0,0,2.874-1.24a12.365,12.365,0,0,0,.76-4.59,12.365,12.365,0,0,0-.76-4.59,6.426,6.426,0,0,0-2.12-2.894,5.184,5.184,0,0,0-3.143-.994,5.184,5.184,0,0,0-3.143.994,6.426,6.426,0,0,0-2.12,2.894,12.365,12.365,0,0,0-.76,4.59,12.365,12.365,0,0,0,.76,4.59,6.426,6.426,0,0,0,2.12,2.894A5.184,5.184,0,0,0-2.389,2.649ZM14.422-16.063V4.4h-2.1V-14.191H7.493v-1.871Z" transform="translate(38.511 47.693)" fill="#09325f"/>
      </g>
    </g>
    <path id="Path_7951" data-name="Path 7951" d="M0-.383H2.525l.017,20.588H0Z" transform="translate(187.676 362.259)" fill="#1c39aa"/>
    <path id="Path_7952" data-name="Path 7952" d="M0,21.34l2.533.242L2.542-1.3H0Z" transform="translate(187.676 465.672)" fill="#1c39aa"/>
    <rect id="Rectangle_2919" data-name="Rectangle 2919" width="25.423" height="2.542" transform="translate(176.236 486.605)" fill="#1c39aa"/>
  </g>
</svg>
