<svg xmlns="http://www.w3.org/2000/svg" width="48.62" height="50.435" viewBox="0 0 48.62 50.435">
  <g id="event" transform="translate(-7.804)" opacity="0.41">
    <g id="Group_4090" data-name="Group 4090" transform="translate(7.804)">
      <g id="Group_4089" data-name="Group 4089" transform="translate(0)">
        <path id="Path_8113" data-name="Path 8113" d="M52.111,5.471q-.155-.006-.309,0H47.912V2.127A2.362,2.362,0,0,0,45.3,0H41.714a2.093,2.093,0,0,0-2.309,2.127V5.469H24.822V2.127A2.093,2.093,0,0,0,22.513,0H18.928a2.362,2.362,0,0,0-2.613,2.127V5.469H12.426a4.5,4.5,0,0,0-4.62,4.37q0,.155,0,.309V45.27c0,2.674,1.944,5.165,4.618,5.165H51.8c2.674,0,4.618-2.491,4.618-5.165V10.148A4.5,4.5,0,0,0,52.111,5.471Zm-10.4-3.04h0Zm-22.787,0h0ZM53.989,45.27c0,1.337-.851,2.734-2.188,2.734H12.426c-1.337,0-2.188-1.4-2.188-2.734V19.445H53.989V45.27Zm0-28.256h0Z" transform="translate(-7.804 0)" fill="#fff"/>
        <path id="Path_8114" data-name="Path 8114" d="M122.419,207.647l-1.094,6.076A1.215,1.215,0,0,0,123.088,215l5.469-2.856L134.026,215l.547.122a1.154,1.154,0,0,0,.729-.243,1.215,1.215,0,0,0,.486-1.155l-1.094-6.076,4.436-4.253a1.336,1.336,0,0,0,.3-1.276,1.276,1.276,0,0,0-.972-.79l-6.076-.912-2.734-5.53a1.215,1.215,0,0,0-2.187,0l-2.734,5.53-6.077.912a1.276,1.276,0,0,0-.972.79,1.337,1.337,0,0,0,.3,1.276Zm3.342-4.922a1.093,1.093,0,0,0,.851-.668l1.944-3.889,1.944,3.889a1.094,1.094,0,0,0,.851.668l4.314.608-3.1,2.977a1.276,1.276,0,0,0-.365,1.094l.729,4.314-3.828-2.066-.547-.122-.547.122-3.828,2.066.729-4.314a1.276,1.276,0,0,0-.365-1.094l-3.1-2.977Z" transform="translate(-104.855 -171.614)" fill="#fff"/>
      </g>
    </g>
  </g>
</svg>
