<svg xmlns="http://www.w3.org/2000/svg" width="39.924" height="41" viewBox="0 0 39.924 41">
  <g id="ico-examen-2" transform="translate(-23.39)">
    <g id="Group_4134" data-name="Group 4134" transform="translate(26.57)">
      <g id="Group_4133" data-name="Group 4133">
        <path id="Path_8171" data-name="Path 8171" d="M127.025,201.672A1.672,1.672,0,0,0,125.353,200H108.131a1.672,1.672,0,1,0,0,3.344h17.222A1.672,1.672,0,0,0,127.025,201.672Z" transform="translate(-101.639 -184.044)" fill="#03254b"/>
        <path id="Path_8172" data-name="Path 8172" d="M108.131,280a1.672,1.672,0,1,0,0,3.344H118.59a1.672,1.672,0,1,0,0-3.344Z" transform="translate(-98.639 -257.662)" fill="#03254b"/>
        <path id="Path_8173" data-name="Path 8173" d="M38.265,37.8H29.939a3.2,3.2,0,0,1-3.185-3.2V6.406a3.2,3.2,0,0,1,3.185-3.2H52.517a3.2,3.2,0,0,1,3.185,3.2v9.85a1.592,1.592,0,1,0,3.185,0V6.406A6.4,6.4,0,0,0,52.517,0H29.939A6.4,6.4,0,0,0,23.57,6.406V34.594A6.4,6.4,0,0,0,29.939,41h8.326a1.6,1.6,0,0,0,0-3.2Z" transform="translate(-26.75)" fill="#03254b"/>
        <path id="Path_8174" data-name="Path 8174" d="M262.219,273.491a5.021,5.021,0,0,0-7.092,0l-9.18,9.159a1.672,1.672,0,0,0-.419.7l-2,6.581a1.672,1.672,0,0,0,2.046,2.1l6.749-1.869a1.672,1.672,0,0,0,.735-.428l9.16-9.143A5.022,5.022,0,0,0,262.219,273.491Zm-11.212,13.56-3.4.94.994-3.271,6.194-6.18,2.365,2.365Zm8.848-8.831-.324.323-2.365-2.365.323-.322a1.672,1.672,0,0,1,2.366,2.364Z" transform="translate(-226.941 -251.086)" fill="#03254b"/>
        <path id="Path_8175" data-name="Path 8175" d="M125.353,120H108.131a1.672,1.672,0,1,0,0,3.344h17.222a1.672,1.672,0,1,0,0-3.344Z" transform="translate(-101.639 -110.426)" fill="#03254b"/>
      </g>
    </g>
  </g>
</svg>
