<svg xmlns="http://www.w3.org/2000/svg" width="81.568" height="94" viewBox="0 0 81.568 94">
  <g id="ico-escuela-1" transform="translate(2.402 3.5)">
    <path id="Path_7890" data-name="Path 7890" d="M21.5,0h41.85a8,8,0,0,1,7.907,8.091V80.909A8,8,0,0,1,63.352,89H8A8,8,0,0,1,.1,80.909V21.9a4.1,4.1,0,0,1,1.158-2.861L18.707,1.185A3.908,3.908,0,0,1,21.5,0Zm0,0" transform="translate(0 -1)" fill="#fff" stroke="#103c6a" stroke-linecap="round" stroke-width="5"/>
    <path id="Path_7895" data-name="Path 7895" d="M136.956,263.453,117.9,284.9a2.787,2.787,0,0,0,.187,3.905,3.189,3.189,0,0,0,4.124.177l22.653-18.044Zm0,0" transform="translate(-101.278 -229.818)" fill="#103c6a"/>
    <path id="Path_7897" data-name="Path 7897" d="M205.532,126.309c-9.4-8.9-21.52-11.868-27.061-6.622s-2.41,16.718,6.994,25.622,21.52,11.869,27.061,6.622S214.936,135.212,205.532,126.309Zm0,0" transform="translate(-151.914 -102.173)" fill="#48c8ef"/>
    <path id="Path_7900" data-name="Path 7900" d="M291.229,29.273,303.089,40.5,283.321,66.7c-10.917,0-19.766-8.38-19.766-18.716Zm0,0" transform="translate(-227.876 -25.583)" fill="#48c8ef"/>
    <path id="Path_7903" data-name="Path 7903" d="M401.2,6.744c-6.679-6.324-15.1-8.6-18.812-5.089s-1.3,11.487,5.375,17.811,15.1,8.6,18.812,5.089S407.875,13.067,401.2,6.744Zm0,0" transform="translate(-329.149 -0.056)" fill="#48c8ef"/>
  </g>
</svg>
