<svg xmlns="http://www.w3.org/2000/svg" width="83.409" height="83.409" viewBox="0 0 83.409 83.409">
  <g id="ico-whatsapp" transform="translate(1 1)">
    <g id="Group_3709" data-name="Group 3709" transform="translate(0 0)">
      <path id="Path_7935" data-name="Path 7935" d="M1217.223,571.789c-22.481,0-40.7-17.648-40.7-40.333a40.706,40.706,0,1,1,81.409,0C1257.928,554.141,1239.7,571.789,1217.223,571.789Z" transform="translate(-1176.519 -490.38)" fill="none" stroke="#fff" stroke-width="2"/>
    </g>
    <path id="Path_7936" data-name="Path 7936" d="M20.9.024A20.2,20.2,0,0,0,3.888,29.366L1.744,39.773A.786.786,0,0,0,2.7,40.7l10.2-2.416A20.2,20.2,0,1,0,20.9.024ZM33.066,31.376a15.823,15.823,0,0,1-18.219,2.982l-1.42-.707L7.174,35.132,8.49,28.743l-.7-1.37A15.826,15.826,0,0,1,10.7,9.014,15.812,15.812,0,1,1,33.066,31.376Z" transform="translate(20.715 17.777)" fill="#fff"/>
    <path id="Path_7937" data-name="Path 7937" d="M124.556,121.531l-3.912-1.123a1.458,1.458,0,0,0-1.443.38l-.957.975a1.425,1.425,0,0,1-1.549.327,20.882,20.882,0,0,1-6.737-5.941,1.425,1.425,0,0,1,.113-1.579l.835-1.08a1.458,1.458,0,0,0,.18-1.481l-1.646-3.722a1.459,1.459,0,0,0-2.278-.522c-1.092.923-2.387,2.327-2.545,3.881-.278,2.741.9,6.2,5.342,10.344,5.135,4.793,9.247,5.426,11.924,4.777,1.519-.368,2.732-1.842,3.5-3.05A1.459,1.459,0,0,0,124.556,121.531Z" transform="translate(-72.156 -79.18)" fill="#fff"/>
  </g>
</svg>
