<svg xmlns="http://www.w3.org/2000/svg" width="35" height="41" viewBox="0 0 35 41">
  <path id="ico-costumbres-2" d="M33.395,31.722H28.912V1.6A1.6,1.6,0,0,0,27.307,0H1.606A1.6,1.6,0,0,0,0,1.6V33.323A7.694,7.694,0,0,0,7.693,41H27.307A7.694,7.694,0,0,0,35,33.323a1.6,1.6,0,0,0-1.606-1.6Zm-21.219,1.6a4.482,4.482,0,0,1-8.964,0V3.2H25.7V31.722H13.781a1.6,1.6,0,0,0-1.606,1.6ZM27.307,37.8H13.942a7.635,7.635,0,0,0,1.276-2.872H31.492A4.49,4.49,0,0,1,27.307,37.8ZM21.681,9.983c-3.36,0-6-2.845-6.032-2.885a1.609,1.609,0,0,0-2.389,0c-.026.029-2.68,2.881-6.029,2.881a1.6,1.6,0,0,0-1.606,1.6c0,7.2,1.525,13.484,8.141,16.619a1.608,1.608,0,0,0,1.378,0c6.625-3.139,8.141-9.432,8.141-16.619a1.6,1.6,0,0,0-1.606-1.6ZM14.456,24.956c-4.345-2.426-5.447-6.924-5.6-11.912a12.485,12.485,0,0,0,5.6-2.693,12.484,12.484,0,0,0,5.6,2.693C19.9,18.032,18.8,22.529,14.456,24.956Zm0,0" transform="translate(0)" fill="#03254b"/>
</svg>
