<svg xmlns="http://www.w3.org/2000/svg" width="47" height="41" viewBox="0 0 47 41">
  <path id="ico-licencia-2" d="M5.508,38.2h12.8a5.494,5.494,0,0,1,10.386,0h12.8A5.537,5.537,0,0,1,47,43.755V69.947A5.537,5.537,0,0,1,41.492,75.5H5.5A5.538,5.538,0,0,1,0,69.947V43.755A5.537,5.537,0,0,1,5.508,38.2Zm17.992,0a1.851,1.851,0,1,0,1.836,1.851A1.846,1.846,0,0,0,23.5,38.2ZM3.672,69.947A1.846,1.846,0,0,0,5.5,71.8H41.492a1.846,1.846,0,0,0,1.836-1.851V43.755A1.846,1.846,0,0,0,41.492,41.9h-12.8a5.492,5.492,0,0,1-10.384,0H5.508a1.846,1.846,0,0,0-1.836,1.851ZM18.084,52.455H7.252v3.7H18.084Zm0,7.5H7.252v3.7H18.084Zm7.78-1.243a5.782,5.782,0,1,1,9.355.077,9.274,9.274,0,0,1,4.438,7.922H35.984a5.508,5.508,0,1,0-11.016,0H21.3A9.274,9.274,0,0,1,25.864,58.709Zm4.7-5.513a2.129,2.129,0,1,0,2.111,2.129A2.122,2.122,0,0,0,30.568,53.2Z" transform="translate(0 -34.5)" fill="#03254b"/>
</svg>
