<svg xmlns="http://www.w3.org/2000/svg" width="233.364" height="233.364" viewBox="0 0 233.364 233.364">
  <g id="img-horas-40" transform="translate(-713.5 -4950.5)">
    <g id="Path_7701" data-name="Path 7701" transform="translate(728.5 4965.5)" fill="aqua">
      <path d="M 101.68212890625 210.8642578125 C 41.47889709472656 210.8642578125 -7.500004291534424 161.8853607177734 -7.500004291534424 101.68212890625 C -7.500004291534424 41.47889709472656 41.47889709472656 -7.500004291534424 101.68212890625 -7.500004291534424 C 161.8853607177734 -7.500004291534424 210.8642578125 41.47889709472656 210.8642578125 101.68212890625 C 210.8642578125 161.8853607177734 161.8853607177734 210.8642578125 101.68212890625 210.8642578125 Z" stroke="none"/>
      <path d="M 101.68212890625 0 C 45.52462768554688 0 0 45.52462768554688 0 101.68212890625 C 0 157.8396301269531 45.52462768554688 203.3642578125 101.68212890625 203.3642578125 C 157.8396301269531 203.3642578125 203.3642578125 157.8396301269531 203.3642578125 101.68212890625 C 203.3642578125 45.52462768554688 157.8396301269531 0 101.68212890625 0 M 101.68212890625 -15 C 166.0208740234375 -15 218.3642578125 37.3433837890625 218.3642578125 101.68212890625 C 218.3642578125 166.0208740234375 166.0208740234375 218.3642578125 101.68212890625 218.3642578125 C 37.3433837890625 218.3642578125 -15 166.0208740234375 -15 101.68212890625 C -15 37.3433837890625 37.3433837890625 -15 101.68212890625 -15 Z" stroke="none" fill="#03254b"/>
    </g>
    <path id="Path_8159" data-name="Path 8159" d="M68.008,80.824H52.72V101h-5.2V80.824H6.024V76.976L45.544,28.2h5.928L12.68,76.144H47.624V58.36h5.1V76.144H68.008Zm35.776,20.7A25.313,25.313,0,0,1,88.964,97,29.318,29.318,0,0,1,78.876,84.152,49.087,49.087,0,0,1,75.288,64.6a49.087,49.087,0,0,1,3.588-19.552A29.318,29.318,0,0,1,88.964,32.2a26.536,26.536,0,0,1,29.64,0,29.318,29.318,0,0,1,10.088,12.844A49.087,49.087,0,0,1,132.28,64.6a49.087,49.087,0,0,1-3.588,19.552A29.318,29.318,0,0,1,118.6,97,25.313,25.313,0,0,1,103.784,101.52Zm0-4.888a20.147,20.147,0,0,0,12.116-3.8,24.417,24.417,0,0,0,8.164-11.024A45.976,45.976,0,0,0,126.976,64.6a45.976,45.976,0,0,0-2.912-17.212A24.418,24.418,0,0,0,115.9,36.364a21.234,21.234,0,0,0-24.232,0A24.418,24.418,0,0,0,83.5,47.388,45.976,45.976,0,0,0,80.592,64.6,45.976,45.976,0,0,0,83.5,81.812a24.418,24.418,0,0,0,8.164,11.024A20.147,20.147,0,0,0,103.784,96.632Z" transform="translate(756 4988)" fill="#012e52"/>
    <path id="Path_8160" data-name="Path 8160" d="M29.064-29.4V0H26.922V-13.986H7.266V0H5.124V-29.4H7.266v13.524H26.922V-29.4ZM44.058.21A17.123,17.123,0,0,1,37.9-.9,11.866,11.866,0,0,1,33.348-3.78l.966-1.6a11.378,11.378,0,0,0,4.179,2.667A15,15,0,0,0,44.016-1.68q4.2,0,6.342-1.6A4.954,4.954,0,0,0,52.5-7.434a4.346,4.346,0,0,0-1.134-3.15,7.5,7.5,0,0,0-2.814-1.806,38.659,38.659,0,0,0-4.536-1.3,44.232,44.232,0,0,1-5.187-1.554,8.281,8.281,0,0,1-3.318-2.331A6.221,6.221,0,0,1,34.146-21.8a7.177,7.177,0,0,1,1.134-3.927,7.7,7.7,0,0,1,3.465-2.835,14.172,14.172,0,0,1,5.817-1.05,16.4,16.4,0,0,1,4.788.714,14.084,14.084,0,0,1,4.074,1.932l-.8,1.722a13.607,13.607,0,0,0-3.885-1.848,14.627,14.627,0,0,0-4.179-.63q-4.074,0-6.174,1.638a5.137,5.137,0,0,0-2.1,4.242,4.346,4.346,0,0,0,1.134,3.15,7.5,7.5,0,0,0,2.814,1.806,42.717,42.717,0,0,0,4.578,1.344,42.909,42.909,0,0,1,5.166,1.554,8.5,8.5,0,0,1,3.3,2.289A5.994,5.994,0,0,1,54.642-7.56a6.98,6.98,0,0,1-1.155,3.906A7.857,7.857,0,0,1,49.938-.84,14.629,14.629,0,0,1,44.058.21Z" transform="translate(797 5142)" fill="#012e52"/>
  </g>
</svg>
