<svg xmlns="http://www.w3.org/2000/svg" width="454.08" height="353.215" viewBox="0 0 454.08 353.215">
  <g id="img-graduacion-section-3" transform="translate(-1083.28 -1902.816)">
    <g id="a" transform="translate(1175 2098.137) rotate(-1)">
      <g id="Group_3203" data-name="Group 3203" transform="translate(57.61 37.57)">
        <path id="Path_7447" data-name="Path 7447" d="M509.228,207.193c0,50.127,154.627,50.127,154.627,0v-49.25c0,33.48-154.627,33.48-154.627,0Z" transform="translate(-509.228 -127.745)" fill="#31515e"/>
        <path id="Path_7448" data-name="Path 7448" d="M509.228,172.925c0,16.252,34.622,29.448,77.3,29.448,42.721,0,77.326-13.2,77.326-29.448,0-16.283-34.605-29.483-77.326-29.483C543.849,143.442,509.228,156.643,509.228,172.925Z" transform="translate(-509.228 -143.442)" fill="#29464f"/>
        <g id="Group_3202" data-name="Group 3202" transform="translate(19.519 7.449)">
          <path id="Path_7449" data-name="Path 7449" d="M517.634,169.053c0,12.151,25.872,22.014,57.782,22.014,31.935,0,57.807-9.863,57.807-22.014,0-12.185-25.872-22.035-57.807-22.035C543.506,147.019,517.634,156.869,517.634,169.053Z" transform="translate(-517.634 -147.019)" fill="#3f9dd7"/>
          <path id="Path_7450" data-name="Path 7450" d="M610.086,173.433c0-12.174-25.874-22.024-57.8-22.024a128.643,128.643,0,0,0-34.656,4.419c10.542-5.348,27.293-8.809,46.167-8.809,31.935,0,57.807,9.85,57.807,22.035,0,7.193-9.112,13.561-23.146,17.58C605.73,182.946,610.086,178.393,610.086,173.433Z" transform="translate(-506.019 -147.019)" fill="#3394c4"/>
        </g>
      </g>
      <g id="Group_3204" data-name="Group 3204">
        <path id="Path_7451" data-name="Path 7451" d="M543.162,157.033,676.6,227.749v7.578L543.162,163.442Z" transform="translate(-543.162 -91.161)" fill="#2a4249"/>
        <path id="Path_7452" data-name="Path 7452" d="M619.128,156.361,485.7,228.476v7.578l133.427-71.885Z" transform="translate(-352.26 -91.887)" fill="#2d4851"/>
        <path id="Path_7453" data-name="Path 7453" d="M752.569,189.875,619.142,261.989,485.7,191.273,619.13,125.4Z" transform="translate(-485.701 -125.401)" fill="#31515e"/>
      </g>
      <g id="Group_3205" data-name="Group 3205" transform="translate(54.016 56.572)">
        <path id="Path_7454" data-name="Path 7454" d="M616.909,154.874,542.144,191.78V237" transform="translate(-535.119 -150.07)" fill="none" stroke="#ffc000" stroke-linecap="round" stroke-linejoin="round" stroke-width="1.96"/>
        <path id="Path_7455" data-name="Path 7455" d="M537.209,157.371c0,2.653,5.638,4.8,12.6,4.8s12.6-2.147,12.6-4.8-5.643-4.8-12.6-4.8S537.209,154.716,537.209,157.371Z" transform="translate(-469.164 -152.567)" fill="#ffc000"/>
        <path id="Path_7456" data-name="Path 7456" d="M571.2,209.352V198.583c0-3.534,3.225-6.424,7.161-6.424s7.164,2.89,7.164,6.424v10.985C583.308,211.249,577.855,214.181,571.2,209.352Z" transform="translate(-571.198 -109.71)" fill="#ffc000"/>
      </g>
    </g>
    <path id="Path_8153" data-name="Path 8153" d="M55.608,14.144V37.056c0,6.528,3.008,11.328,9.792,11.328,6.912,0,9.92-4.8,9.92-11.328V14.144c0-6.528-3.008-11.328-9.92-11.328C58.616,2.816,55.608,7.616,55.608,14.144Zm2.944,23.1v-23.3c0-4.864,1.92-8.448,6.848-8.448,4.992,0,6.976,3.584,6.976,8.448v23.3c0,4.864-1.984,8.448-6.976,8.448C60.472,45.7,58.552,42.112,58.552,37.248ZM92.792,3.2H83.384V48h9.6c6.848,0,9.792-3.9,9.792-10.368v-3.9c0-5.056-1.856-8.64-6.72-9.6,4.544-.96,5.888-3.968,5.888-8.832v-2.56C101.944,6.528,99.512,3.2,92.792,3.2ZM91.32,22.976H86.328V5.888h6.4c4.8,0,6.272,2.432,6.272,7.1v2.88C99,21.568,96.568,22.976,91.32,22.976Zm1.664,22.336H86.328V25.664H91.9c5.312,0,7.936,2.048,7.936,7.872v4.032C99.832,42.56,97.912,45.312,92.984,45.312ZM118.328,48h2.944V5.888h9.152V3.2H109.24V5.888h9.088ZM140.216,3.2h-2.944V48h2.944ZM163.7,23.936H151.48V5.888H166.2V3.2H148.536V48H166.2V45.312H151.48V26.624H163.7ZM176.888,48V8.064L190.9,48h3.264V3.2H191.48V41.024L178.04,3.2H174.2V48Zm40.7-24.064H205.368V5.888h14.72V3.2H202.424V48h17.664V45.312h-14.72V26.624h12.224Zm19.84-21.12c-6.592.064-9.536,4.416-9.536,11.136,0,12.48,16.192,12.672,16.192,23.424,0,4.8-1.856,8.256-6.784,8.256s-6.784-3.456-6.784-8.256v-2.5H227.7v2.3c0,6.464,2.816,11.2,9.664,11.2s9.664-4.736,9.664-11.2c0-12.352-16.192-12.544-16.192-23.424,0-4.736,1.792-8.256,6.656-8.256s6.656,3.584,6.656,8.32v1.152h2.816v-.96C246.968,7.552,244.216,2.816,237.432,2.816ZM268.088,48h17.024V45.312h-14.08V3.2h-2.944ZM295.672,3.2h-2.944V48h2.944Zm17.792-.384c-6.848,0-9.664,4.864-9.664,11.328V37.056c0,6.464,2.816,11.328,9.664,11.328s9.664-4.864,9.664-11.328v-5.12h-2.816v5.312c0,4.8-1.856,8.384-6.784,8.384s-6.784-3.584-6.784-8.384v-23.3c0-4.8,1.856-8.448,6.784-8.448s6.784,3.648,6.784,8.448v3.9h2.816V14.144C323.128,7.68,320.312,2.816,313.464,2.816ZM346.3,23.936H334.072V5.888h14.72V3.2H331.128V48h17.664V45.312h-14.72V26.624H346.3ZM359.48,48V8.064L373.5,48h3.264V3.2h-2.688V41.024L360.632,3.2h-3.84V48ZM394.488,2.816c-6.848,0-9.664,4.864-9.664,11.328V37.056c0,6.464,2.816,11.328,9.664,11.328s9.664-4.864,9.664-11.328v-5.12h-2.816v5.312c0,4.8-1.856,8.384-6.784,8.384s-6.784-3.584-6.784-8.384v-23.3c0-4.8,1.856-8.448,6.784-8.448s6.784,3.648,6.784,8.448v3.9h2.816V14.144C404.152,7.68,401.336,2.816,394.488,2.816ZM415.1,3.2h-2.944V48H415.1ZM427.7,38.08h13.952L443.9,48h2.944L436.856,3.136h-4.288L422.776,48h2.688Zm.448-2.56,6.464-28.992,6.592,28.992ZM34.136,82.2H24.28V127h9.856c6.912,0,9.92-4.544,9.92-11.136V93.336C44.056,86.744,41.048,82.2,34.136,82.2Zm-.064,42.112H27.224V84.888h6.848c4.928,0,7.04,3.392,7.04,8.32v22.784C41.112,120.92,39.064,124.312,34.072,124.312Zm33.216-21.376H55.064V84.888h14.72V82.2H52.12V127H69.784v-2.688H55.064V105.624H67.288Zm27.9,14.144h13.952l2.24,9.92h2.944l-9.984-44.864h-4.288L90.264,127h2.688Zm.448-2.56L102.1,85.528,108.7,114.52ZM122.776,82.2h-3.008l9.856,44.8h4.352L143.7,82.2h-2.752l-9.088,41.408Zm31.552,0h-2.944V127h2.944Zm12.608,34.88h13.952l2.24,9.92h2.944l-9.984-44.864H171.8L162.008,127H164.7Zm.448-2.56,6.464-28.992,6.592,28.992Zm35.776-32.7c-6.848,0-9.664,4.864-9.664,11.328v22.912c0,6.464,2.816,11.328,9.664,11.328s9.664-4.864,9.664-11.328v-5.12h-2.816v5.312c0,4.8-1.856,8.384-6.784,8.384s-6.784-3.584-6.784-8.384v-23.3c0-4.8,1.856-8.448,6.784-8.448s6.784,3.648,6.784,8.448v3.9h2.816V93.144C212.824,86.68,210.008,81.816,203.16,81.816Zm20.608.384h-2.944V127h2.944Zm23.1-9.088H243.8l-4.544,6.08h2.24Zm-5.184,8.7c-6.784,0-9.792,4.8-9.792,11.328v22.912c0,6.528,3.008,11.328,9.792,11.328,6.912,0,9.92-4.8,9.92-11.328V93.144C251.608,86.616,248.6,81.816,241.688,81.816Zm0,2.688c4.992,0,6.976,3.584,6.976,8.448v23.3c0,4.864-1.984,8.448-6.976,8.448-4.928,0-6.848-3.584-6.848-8.448v-23.3C234.84,88.088,236.76,84.5,241.688,84.5ZM262.36,127V87.064L276.376,127h3.264V82.2h-2.688v37.824L263.512,82.2h-3.84V127ZM310.3,82.2h-9.28V127h2.944V108.568h5.568c7.1,0,10.368-3.52,10.368-10.624V93.08C319.9,86.552,317.208,82.2,310.3,82.2Zm-.768,23.68H303.96V84.888H310.3c4.992,0,6.656,3.136,6.656,8v5.248C316.952,103.576,314.712,105.88,309.528,105.88ZM336.856,82.2h-9.344V127h2.944V106.968h4.672c5.12,0,8.384,1.664,8.384,7.616v7.04c0,2.432.192,4.032.96,5.376h3.072c-.96-1.472-1.088-3.52-1.088-5.376v-6.976c0-4.864-1.856-8.128-6.464-9.152,4.416-1.024,6.464-4.032,6.464-9.28v-3.9C346.456,85.976,343.7,82.2,336.856,82.2Zm-1.664,22.08h-4.736V84.888h6.336c4.864,0,6.72,2.88,6.72,7.68v4.224C343.512,102.808,340.44,104.28,335.192,104.28ZM358.36,82.2h-2.944V127h2.944Zm10.688,0H366.04L375.9,127h4.352l9.728-44.8h-2.752l-9.088,41.408Zm31.3,34.88H414.3l2.24,9.92h2.944L409.5,82.136h-4.288L395.416,127H398.1Zm.448-2.56,6.464-28.992,6.592,28.992ZM437.016,82.2H427.16V127h9.856c6.912,0,9.92-4.544,9.92-11.136V93.336C446.936,86.744,443.928,82.2,437.016,82.2Zm-.064,42.112H430.1V84.888h6.848c4.928,0,7.04,3.392,7.04,8.32v22.784C443.992,120.92,441.944,124.312,436.952,124.312Zm22.272-7.232h13.952l2.24,9.92h2.944l-9.984-44.864h-4.288L454.3,127h2.688Zm.448-2.56,6.464-28.992,6.592,28.992Z" transform="translate(1059 1900)" fill="#fff"/>
  </g>
</svg>
