<svg xmlns="http://www.w3.org/2000/svg" width="286" height="220" viewBox="0 0 286 220">
  <g id="img-libros" transform="translate(-558.133 -3027)">
    <g id="Group_3659" data-name="Group 3659" transform="translate(727.789 3027)">
      <path id="Path_7393" data-name="Path 7393" d="M401.064,325.1l91.254,52.2V223.929l-91.254-52.2Z" transform="translate(-401.064 -157.408)" fill="#fccc39" fill-rule="evenodd"/>
      <path id="Path_7394" data-name="Path 7394" d="M409.228,249.059l67.969,38.88V224.863l-67.969-38.881Z" transform="translate(-397.583 -151.395)" fill="#fff" fill-rule="evenodd"/>
      <path id="Path_7395" data-name="Path 7395" d="M409.228,282.523,477.2,321.4V301.654l-67.969-38.878Z" transform="translate(-397.583 -118.999)" fill="#ff8b00" fill-rule="evenodd"/>
      <path id="Path_7396" data-name="Path 7396" d="M383.467,212.873l25.09-14.936V351.922l-25.09,14.319Z" transform="translate(-292.213 -146.352)" fill="#ff8b00" fill-rule="evenodd"/>
      <path id="Path_7397" data-name="Path 7397" d="M388.081,245.311l11.931-7.1v73.245l-11.931,6.812Z" transform="translate(-290.247 -129.364)" fill="#e4e8f0" fill-rule="evenodd"/>
      <path id="Path_7398" data-name="Path 7398" d="M383.467,222.047l25.09-14.934v7.4l-25.09,15.262Z" transform="translate(-292.213 -142.481)" fill="#e4e8f0" fill-rule="evenodd"/>
      <path id="Path_7399" data-name="Path 7399" d="M383.467,231.781l25.09-14.937v7.4l-25.09,15.263Z" transform="translate(-292.213 -138.376)" fill="#e4e8f0" fill-rule="evenodd"/>
      <path id="Path_7400" data-name="Path 7400" d="M383.467,175.979l5.791-2.773,84.349,49.468,16.478-9.432-85.772-49.274,4.4-2.31,91.1,51.585-25.09,14.936Z" transform="translate(-383.467 -161.657)" fill="#ffa300" fill-rule="evenodd"/>
      <path id="Path_7401" data-name="Path 7401" d="M390.288,163.282v18.069l69.294,40.637,16.478-9.432Z" transform="translate(-369.442 -160.972)" fill="#ffc000"/>
      <path id="Path_7402" data-name="Path 7402" d="M485.547,212.868l-79.479-46.5-13.8,7.624,79.622,46.7Z" transform="translate(-381.747 -159.67)" fill="#e4e8f0"/>
    </g>
    <g id="Group_3660" data-name="Group 3660" transform="translate(558.133 3097.292)">
      <g id="Group_3197" data-name="Group 3197">
        <path id="Path_7426" data-name="Path 7426" d="M375.13,351.073l128.191,74.856,78.19-45.664-128.186-74.85Z" transform="translate(-375.13 -278.975)" fill="#ffc000"/>
        <path id="Path_7427" data-name="Path 7427" d="M443.024,322.145l128.191,74.86V426.2L443.024,351.355Z" transform="translate(-443.024 -276.491)" fill="#ffa300"/>
        <path id="Path_7428" data-name="Path 7428" d="M378.773,417.6V394.564L453.32,350.9v-3.336l-78.19,45.666v29.192l78.19-45.65v-2.824Z" transform="translate(-246.938 -272.716)" fill="#ff9700"/>
        <path id="Path_7429" data-name="Path 7429" d="M375.13,328.048l128.191,74.86,78.19-45.666L453.325,282.394Z" transform="translate(-375.13 -282.394)" fill="#ffc000"/>
      </g>
      <g id="Group_3198" data-name="Group 3198" transform="translate(10.635 51.971)">
        <path id="Path_7430" data-name="Path 7430" d="M540.123,327.646l5.735,3.171v29.192l-5.735-3.158Z" transform="translate(-540.123 -327.646)" fill="#ff7900"/>
        <path id="Path_7431" data-name="Path 7431" d="M530.888,333.138l5.737,3.177v29.193l-5.737-3.163Z" transform="translate(-520.254 -326.83)" fill="#ff7900"/>
        <path id="Path_7432" data-name="Path 7432" d="M453.938,378.223l5.732,3.177v29.19l-5.732-3.159Z" transform="translate(-354.681 -320.135)" fill="#ff7900"/>
      </g>
      <path id="Path_7433" data-name="Path 7433" d="M449.1,352.633l-70.173,41.178v19.912L449.1,372.56Z" transform="translate(-247.094 -271.964)" fill="#e4e8f0"/>
      <path id="Path_7434" data-name="Path 7434" d="M415.8,386.555l13.244-7.784v12.011l-5.452.577-7.752,7.059Z" transform="translate(-269.502 -268.082)" fill="#fc7936"/>
      <path id="Path_7435" data-name="Path 7435" d="M424.267,326.647l70.541,41.259,62.1-36.268-70.532-41.253Z" transform="translate(-407.117 -281.207)" fill="#fff"/>
      <path id="Path_7436" data-name="Path 7436" d="M390.1,372.326l19.5,11.608,62.1-36.268-19.488-11.6Z" transform="translate(-282.554 -274.424)" fill="#ffa300"/>
    </g>
  </g>
</svg>
