<svg xmlns="http://www.w3.org/2000/svg" xmlns:xlink="http://www.w3.org/1999/xlink" width="667.331" height="655.082" viewBox="0 0 667.331 655.082">
  <defs>
    <clipPath id="clip-path">
      <rect id="Rectangle_2890" data-name="Rectangle 2890" width="477.961" height="323.155" transform="translate(0 58.078) rotate(-6.979)" fill="#4eaef1"/>
    </clipPath>
    <clipPath id="clip-path-2">
      <path id="Path_7805" data-name="Path 7805" d="M715.075,327.917l18.168-23.454-94.363-78.082a18.79,18.79,0,0,0-26.667,3.109h0a18.8,18.8,0,0,0,3.973,26.825Z" transform="translate(-608.277 -222.204)" fill="#4c37ae"/>
    </clipPath>
    <clipPath id="clip-path-3">
      <path id="Path_7809" data-name="Path 7809" d="M698,230.587l85.7-4.729a20.891,20.891,0,0,1,21.872,18.224l.069.548-74.234,38.1Z" transform="translate(-698.001 -225.825)" fill="#b0eeff"/>
    </clipPath>
    <clipPath id="clip-path-4">
      <path id="Path_7812" data-name="Path 7812" d="M689.249,238.824l16.863,84.16A20.881,20.881,0,0,0,729.223,339.6l.548-.068L748.1,258.123Z" transform="translate(-689.249 -238.824)" fill="#b0eeff"/>
    </clipPath>
    <clipPath id="clip-path-5">
      <path id="Path_7816" data-name="Path 7816" d="M772.5,257.51l18.164-23.457L696.3,155.975a18.793,18.793,0,0,0-26.668,3.109h0a18.8,18.8,0,0,0,3.973,26.825Z" transform="translate(-665.698 -151.799)" fill="#4c37ae"/>
    </clipPath>
    <clipPath id="clip-path-6">
      <path id="Path_7820" data-name="Path 7820" d="M628.284,240.449l255.929-94.373a69.023,69.023,0,0,1,50.839,1.221L949.2,153.3,809.843,255.656l-55.649,71.857Z" transform="translate(-628.284 -141.814)" fill="#b0eeff"/>
    </clipPath>
    <clipPath id="clip-path-7">
      <path id="Path_7823" data-name="Path 7823" d="M640.9,182.405,613.544,453.8a69,69,0,0,0,13.9,48.915l9.352,12.2,64.235-160.532,55.652-71.857Z" transform="translate(-613.196 -182.405)" fill="#b0eeff"/>
    </clipPath>
    <clipPath id="clip-path-8">
      <path id="Path_7826" data-name="Path 7826" d="M590.913,153.685c-15.157,19.567,12.321,72.152,103.173,142.516S945.077,461.517,945.077,461.517l28.145-36.341S844.569,295.35,752.317,223.9,602.82,138.309,590.913,153.685Z" transform="translate(-586.981 -148.096)" fill="#b0eeff"/>
    </clipPath>
  </defs>
  <g id="img-avion-section-4" transform="translate(-1019.371 -7456.935)">
    <g id="Group_3530" data-name="Group 3530" transform="translate(1019.371 7456.935)">
      <rect id="Rectangle_2887" data-name="Rectangle 2887" width="513.351" height="357.614" transform="matrix(0.993, -0.122, 0.122, 0.993, 0, 62.379)" fill="#e4e0db"/>
      <rect id="Rectangle_2888" data-name="Rectangle 2888" width="506.79" height="351.807" transform="translate(3.609 64.861) rotate(-6.979)" fill="#fff"/>
      <g id="Group_3529" data-name="Group 3529" transform="translate(19.658 19.252)">
        <rect id="Rectangle_2889" data-name="Rectangle 2889" width="477.961" height="323.155" transform="translate(0 58.078) rotate(-6.979)" fill="#4eaef1"/>
        <g id="Group_3528" data-name="Group 3528" transform="translate(0 0)" clip-path="url(#clip-path)">
          <path id="Path_7775" data-name="Path 7775" d="M580.621,187.632c-1.961,6.925-2.182,15.177,2.7,20.456,4.41,4.765,11.511,5.616,17.978,6.175,6.814.59,13.823,1.161,20.368-.817,6.606-2,12.177-6.419,17.385-10.951q7.113-6.185,13.775-12.873c3.309-3.323,6.612-6.859,8.255-11.252,2.134-5.707,1.186-12.047.21-18.061-.349-2.14-.763-4.421-2.259-5.988-1.939-2.032-5.057-2.245-7.861-2.282C622.273,151.639,589.958,154.687,580.621,187.632Z" transform="translate(-493.215 13.451)" fill="#7fc9ff"/>
          <path id="Path_7776" data-name="Path 7776" d="M624.733,147.608c-.744,2.35-1.291,4.892-.61,7.259.968,3.36,4.339,5.662,7.807,6.1a16.617,16.617,0,0,0,10.024-2.426,15.58,15.58,0,0,1,3.825-1.828c6.1-1.484,10.509,6.309,16.641,7.688,3.684.832,7.43-.786,10.841-2.4,8.213-3.9,16.468-8.133,22.879-14.578s10.787-15.521,9.524-24.522a11.119,11.119,0,0,0-2.066-5.469c-2.114-2.648-5.721-3.5-9.059-4.089a176.17,176.17,0,0,0-20.85-2.407c-2.063-.113-4.251-.167-6.059.84-2.188,1.22-3.3,3.681-4.45,5.911a51.719,51.719,0,0,1-10.409,13.894,3.71,3.71,0,0,1-2.4,1.3,4.522,4.522,0,0,1-2.5-1.269C636.028,122.708,627.767,138.03,624.733,147.608Z" transform="translate(-411.438 -62.155)" fill="#7fc9ff"/>
          <path id="Path_7777" data-name="Path 7777" d="M775.187,112.108A47.253,47.253,0,0,0,798.075,155c4.084,2.372,9.124,4.935,9.575,9.635.2,2.114-.641,4.172-1.47,6.127q-4.861,11.494-9.72,22.984c-1.3,3.071-2.636,6.207-4.87,8.678-4.79,5.315-12.521,6.5-19.581,7.64-18.565,3.011-37.313,8.21-52.331,19.53s-25.72,29.773-23.64,48.463c9.8-1.924,19.982,7.827,18.48,17.7a506.475,506.475,0,0,1-107.29,52.186c-6.317,2.2-12.876,4.379-17.85,8.849-10.032,9-10.742,24.21-10.724,37.693,9.147.65,15,9.6,22.014,15.5,20.311,17.09,51.389,8.727,76.661,16.86,18.089,5.826,34.745,20.45,53.455,17.1,6.079-1.084,11.638-4.041,17.084-6.959l113.967-61c10.75-5.752,23.16-14.539,21.528-26.62,3.434-3.448,7.83-6.314,12.694-6.493s10.049,3.093,10.71,7.915c.789,5.727-4.478,10.29-9.209,13.613A1119.671,1119.671,0,0,1,719.2,466.557c.911,5.877,7.765,8.536,13.6,9.694,35.2,6.993,71.637.227,106.382-8.775,27.193-7.052,54.306-15.6,78.519-29.844,10.449-6.147,20.507-13.545,27.233-23.628,6.2-9.291,9.215-20.331,11.181-31.325,8.871-49.553-1.785-100.315-13.111-149.365-8.054-34.875-16.61-70.054-32.977-101.887-7.072-13.758-16.111-27.315-29.642-34.813-9.229-5.114-19.879-7.021-30.385-8a194.658,194.658,0,0,0-58.577,3.474" transform="translate(-494.438 -104.57)" fill="#7fc9ff"/>
          <path id="Path_7778" data-name="Path 7778" d="M591.438,270.125c-12.3-6.3-20.955-19.746-20.339-33.55s11.221-26.886,24.846-29.188,28.51,7.484,30.732,21.123c7.7.375,12-8.457,17.8-13.54,11.065-9.689,29.177-5.029,39.856,5.083s16.486,24.185,24.505,36.513q-21.229,7.1-42.779,13.174" transform="translate(-508.377 114.616)" fill="#7fc9ff"/>
          <path id="Path_7779" data-name="Path 7779" d="M575.772,314.255q17.756-8.5,34.7-18.571c6.451-3.834,13.032-8.054,16.979-14.436,9.47-15.308.207-35.213,2.406-53.077.272-2.222,2.1-5.105,4-3.916A3.505,3.505,0,0,1,635,225.8q3.295,6.815,6.593,13.628c2.165,4.472,5.364,9.623,10.333,9.552,2.588-.034,4.884-1.564,7.012-3.034q13.678-9.45,27.349-18.9c5.781-4,11.752-8.2,15.239-14.3s3.7-14.681-1.442-19.474c-1.4-1.3-3.209-2.4-3.76-4.231-1.076-3.579,3.564-6.428,7.282-6.062s7.208,2.412,10.943,2.239c6.459-.3,10.56-6.692,14.857-11.519,4.663-5.239,10.574-9.172,16.028-13.577a112.038,112.038,0,0,0,29.639-36.813c1.972-3.939,3.743-8.128,3.843-12.532s-1.807-9.1-5.667-11.221c-2.7-1.487-5.937-1.549-9.024-1.575q-15.708-.128-31.413-.255c-33.048-.272-68.337.091-95.831,18.432-24.625,16.423-38.539,44.379-51.372,71.056q-18.062,37.558-36.129,75.117c-5.114,10.631-10.293,21.474-11.948,33.155a57.741,57.741,0,0,0,1.791,24.349" transform="translate(-571.043 -86.39)" fill="#7fc9ff"/>
          <path id="Path_7780" data-name="Path 7780" d="M769.584,91.066c-2.531,30.176,10.912,61.237,34.645,80.043,3.732,2.954,8.071,6.3,8.267,11.054.111,2.636-1.138,5.117-2.353,7.461l-19.343,37.3a251.959,251.959,0,0,0-64.154,17.944c-4.561,1.958-9.192,4.146-12.526,7.821-7.1,7.833-6.936,20.83-15.146,27.491-2.259,12.4,13.741,1.938,17.487,7.617s4.6,12.808,4.283,19.6c-.216,4.5-1.036,9.266-4.075,12.586-2.077,2.268-4.961,3.6-7.759,4.87L583.854,381.688c-1.83,8.664-3.641,19.7,2.035,27.15,1.677,2.2,4.316,3.408,6.876,4.45,31.45,12.8,67.23,12.9,97.783,27.718,11.774,5.71,24.693,13.747,36.944,9.135,3.848-1.45,6.757-4.629,10.39-6.561C800,410.558,867.432,383.638,869,371.262a28.942,28.942,0,0,1-.071-16.633l37.083-12.8c11.584-3.82,3.065,20.339,4.6,30.508.392,2.605.752,5.412-.477,7.739-1.087,2.06-3.207,3.329-5.222,4.492q-79.472,45.885-158.943,91.775,24.975,18.134,49.944,36.266c5.889,4.277,12.05,8.67,19.213,9.941,7.821,1.388,15.747-1.124,23.294-3.607q33.284-10.957,66.569-21.912c39.878-13.125,79.953-26.333,117.231-45.642,15.211-7.875,30.717-17.609,38.125-33.05,5.017-10.461,5.732-22.417,5.8-34.018.161-29.29-3.269-58.47-6.695-87.564-6.652-56.511-13.307-113.028-21.105-169.395-2.188-15.807-5.786-33.686-19.474-41.893-7.881-4.725-17.529-5.12-26.716-5.313a1717.882,1717.882,0,0,0-204.888,7.955" transform="translate(-488.182 -119.289)" fill="#7fc558"/>
          <path id="Path_7781" data-name="Path 7781" d="M584.347,183.841c-1.362,2.435-2.625,5.111-2.389,7.9.474,5.6,6.465,8.843,11.757,10.747,6.956,2.5,14.612,4.473,21.645,2.208,4.5-1.447,8.281-4.492,11.871-7.566q7.879-6.751,15.24-14.073c3.519-3.5,7.069-7.313,8.34-12.109,1.215-4.58.179-9.422-.857-14.048a2.758,2.758,0,0,0-3.856-2.582C621.027,158.073,597.631,160.153,584.347,183.841Z" transform="translate(-488.416 17.48)" fill="#7fc558"/>
          <path id="Path_7782" data-name="Path 7782" d="M763.353,126.548l3.831,36.711a15.05,15.05,0,0,1-.241,6.334c-.82,2.455-2.827,4.294-4.757,6.016l-45.44,40.628c-1.407,1.26-2.974,2.588-4.861,2.69s-3.561-1.033-5.148-2.035c-6.519-4.123-16.713-5.979-20.683.636-2.478,4.129-.936,9.646,2.058,13.418s7.191,6.363,10.855,9.5c1.124.959,2.276,2.126,2.37,3.6.1,1.581-1.033,2.943-2.114,4.1a180.3,180.3,0,0,1-20.615,18.9c-3.655,2.863-7.736,5.7-12.376,5.835-5.491.162-10.483-3.641-13.313-8.349s-3.908-10.231-4.935-15.628c-8.38-1.53-16.542,5.222-19.38,13.253s-1.589,16.894.173,25.229,4.024,16.781,3.1,25.252a10.027,10.027,0,0,1-.948,3.669,12.031,12.031,0,0,1-4.214,3.965,369.966,369.966,0,0,0-50.089,40.65c-1.708,1.655-3.888,3.468-6.184,2.841-1.774-.482-2.835-2.248-3.7-3.868A298.476,298.476,0,0,1,532.16,233.179c-.372-8.474-.253-17.459,4.129-24.721,3.7-6.124,9.938-10.2,15.989-14.011,78.818-49.715,162.275-93.03,251.195-120.9,1.331-.417,3.02,1.754,1.66,1.447" transform="translate(-580.134 -130.847)" fill="#7fc558"/>
          <path id="Path_7783" data-name="Path 7783" d="M559.537,120.812l44.328,5.727Z" transform="translate(-529.571 -43.885)" fill="none" stroke="#ffff9d" stroke-miterlimit="10" stroke-width="1"/>
          <path id="Path_7784" data-name="Path 7784" d="M578.8,120.812l-1.316,40.974-28.425,3.48" transform="translate(-548.833 -43.885)" fill="none" stroke="#ffff9d" stroke-miterlimit="10" stroke-width="1"/>
          <path id="Path_7785" data-name="Path 7785" d="M635.9,138.066a4.08,4.08,0,0,0-1.277,2.168c-.147,1.462,1.283,2.54,2.543,3.295q5.134,3.09,10.268,6.175c1.45.874,3.022,1.777,4.708,1.657a8.287,8.287,0,0,0,3.877-1.714q6.419-4.317,12.7-8.837c2.781-2,5.6-4.1,7.475-6.967,3.212-4.918,3.128-11.21,2.932-17.079-.119-3.567-23.705-4.112-27.156-2.015C644.788,119.106,641.661,131.729,635.9,138.066Z" transform="translate(-391.589 -57.279)" fill="#7fc558"/>
          <path id="Path_7786" data-name="Path 7786" d="M627.3,135.017c1.2.661,2.71.02,4.064.253,1.518.264,3.113,1.6,4.39.732a3.013,3.013,0,0,0,.931-1.317c1.691-3.695,6.842-17.212-2.713-14.158C630.823,121.534,623.161,132.741,627.3,135.017Z" transform="translate(-407.226 -45.228)" fill="#7fc558"/>
          <path id="Path_7787" data-name="Path 7787" d="M600.611,264.65a100.919,100.919,0,0,1-18.563-15.138c-3.3-3.425-6.561-7.659-6.121-12.4.355-3.814,3.039-6.97,4.387-10.557a32.345,32.345,0,0,0,1.51-9.161c.173-2.426.795-5.412,3.142-6.059a6.011,6.011,0,0,1,2.253-.031l14.973,1.669a11.425,11.425,0,0,1,3.261.69,7.937,7.937,0,0,1,2.977,2.4,12.759,12.759,0,0,1,2.523,5.279c.434,2,.409,4.163,1.427,5.937,1.547,2.7,5.171,3.647,8.2,2.923s5.56-2.761,7.827-4.893a67.839,67.839,0,0,0,7.7-8.585c1.433-1.9,2.926-3.993,5.188-4.734a10.916,10.916,0,0,1,3.229-.366q5.632-.077,11.264-.145a21.076,21.076,0,0,1,7.14.729c6.226,2.145,8.885,9.226,12.195,14.922,5.747,9.884,15.123,17.01,23.935,24.3,1.294,1.067,2.685,2.364,2.7,4.041.023,2.4-2.656,3.774-4.915,4.578q-36.307,12.932-73.124,24.346" transform="translate(-499.521 122.262)" fill="#7fc558"/>
          <path id="Path_7788" data-name="Path 7788" d="M717.913,153.868a18.16,18.16,0,1,1-20.229-15.821A18.157,18.157,0,0,1,717.913,153.868Z" transform="translate(-304.996 -12.46)" fill="#ffff9d"/>
          <path id="Path_7789" data-name="Path 7789" d="M671.538,188.073a11.333,11.333,0,1,1-15.909,1.95A11.333,11.333,0,0,1,671.538,188.073Z" transform="translate(-357.381 75.314)" fill="#ffff9d"/>
          <path id="Path_7790" data-name="Path 7790" d="M693.76,110.246a11.333,11.333,0,1,1-15.907,1.95A11.334,11.334,0,0,1,693.76,110.246Z" transform="translate(-316.538 -67.72)" fill="#ffff9d"/>
          <path id="Path_7791" data-name="Path 7791" d="M614,186.848a7.756,7.756,0,1,1-10.889,1.334A7.757,7.757,0,0,1,614,186.848Z" transform="translate(-452.501 74.458)" fill="#ffff9d"/>
          <path id="Path_7792" data-name="Path 7792" d="M721.209,159.4a7.756,7.756,0,1,1-10.886,1.334A7.757,7.757,0,0,1,721.209,159.4Z" transform="translate(-255.467 24.016)" fill="#ffff9d"/>
          <path id="Path_7793" data-name="Path 7793" d="M568.873,134.164a7.756,7.756,0,1,1-10.886,1.331A7.76,7.76,0,0,1,568.873,134.164Z" transform="translate(-535.447 -22.373)" fill="#ffff9d"/>
          <path id="Path_7794" data-name="Path 7794" d="M569.337,119.725a7.756,7.756,0,1,1-10.886,1.331A7.754,7.754,0,0,1,569.337,119.725Z" transform="translate(-534.595 -48.908)" fill="#ffff9d"/>
          <path id="Path_7795" data-name="Path 7795" d="M658.808,145.716a7.757,7.757,0,1,1-10.889,1.334A7.757,7.757,0,0,1,658.808,145.716Z" transform="translate(-370.155 -1.136)" fill="#ffff9d"/>
          <path id="Path_7796" data-name="Path 7796" d="M642.641,175.6a5.442,5.442,0,1,1-7.64.937A5.439,5.439,0,0,1,642.641,175.6Z" transform="translate(-392.995 54.694)" fill="#ffff9d"/>
          <path id="Path_7797" data-name="Path 7797" d="M714.4,105.059a5.484,5.484,0,1,1-7.7.942A5.482,5.482,0,0,1,714.4,105.059Z" transform="translate(-261.234 -74.977)" fill="#ffff9d"/>
          <path id="Path_7798" data-name="Path 7798" d="M721.844,194.781a7.757,7.757,0,1,1-10.886,1.334A7.76,7.76,0,0,1,721.844,194.781Z" transform="translate(-254.301 89.041)" fill="#ffff9d"/>
          <path id="Path_7799" data-name="Path 7799" d="M580.058,122.285a3.88,3.88,0,1,1-5.443.667A3.879,3.879,0,0,1,580.058,122.285Z" transform="translate(-503.374 -42.687)" fill="#ffff9d"/>
          <path id="Path_7800" data-name="Path 7800" d="M835.619,314.737,754.2,260.955,688.127,215.04l54.9-109.214" transform="translate(-293.234 -71.426)" fill="none" stroke="#ffff9d" stroke-miterlimit="10" stroke-width="1"/>
          <line id="Line_23" data-name="Line 23" x1="88.638" y2="99.443" transform="translate(281.604 51.455)" fill="none" stroke="#ffff9d" stroke-miterlimit="10" stroke-width="1"/>
          <path id="Path_7801" data-name="Path 7801" d="M842.372,215.04l-87.716,128.7-150.452-4.9,89.57-32.832,60.883,37.728-23.3-121.623,111.018-7.077L817.72,122.882l79.547-17.055,11.176,155.129L911,360.632,766.319,435.354" transform="translate(-447.479 -71.426)" fill="none" stroke="#ffff9d" stroke-miterlimit="10" stroke-width="1"/>
        </g>
      </g>
    </g>
    <g id="Group_3549" data-name="Group 3549" transform="translate(1125.833 7599.779)" >
      <g id="Group_3533" data-name="Group 3533" transform="translate(63.425 239.425)">
        <path id="Path_7802" data-name="Path 7802" d="M657.335,272.22l8.352-10.785-10.725-12.144L642.9,264.874Z" transform="translate(-539.792 -168.619)" fill="#fff"/>
        <g id="Group_3532" data-name="Group 3532" transform="translate(0)">
          <path id="Path_7803" data-name="Path 7803" d="M715.075,327.917l18.168-23.454-94.363-78.082a18.79,18.79,0,0,0-26.667,3.109h0a18.8,18.8,0,0,0,3.973,26.825Z" transform="translate(-608.277 -222.204)" fill="#ff8b00"/>
          <g id="Group_3531" data-name="Group 3531" clip-path="url(#clip-path-2)">
            <path id="Path_7804" data-name="Path 7804" d="M687.45,249.6c-2,2.317-26.554,61.242-26.554,61.242L626.9,305.009l38.607-71.636Z" transform="translate(-571.433 -200.11)" fill="#7f8ad3" opacity="0.3" style="mix-blend-mode: multiply;isolation: isolate"/>
          </g>
        </g>
      </g>
      <g id="Group_3535" data-name="Group 3535" transform="translate(330.648 250.209)">
        <path id="Path_7806" data-name="Path 7806" d="M698,230.587l85.7-4.729a20.891,20.891,0,0,1,21.872,18.224l.069.548-74.234,38.1Z" transform="translate(-698.001 -225.825)" fill="#fff"/>
        <g id="Group_3534" data-name="Group 3534" clip-path="url(#clip-path-3)">
          <path id="Path_7807" data-name="Path 7807" d="M715.037,222.123,767.812,265.2,838.5,232.544l-8.474,41.821-88.4,47.561-48.232-90.184Z" transform="translate(-707.129 -233.15)" fill="#ff8b00"/>
          <path id="Path_7808" data-name="Path 7808" d="M719.99,213.405c22.933,12.75,42.39,30.822,61.3,49.013,18.331,17.628,37.172,36.883,43.206,61.594.614,2.517.542,6.025-1.957,6.7a5.063,5.063,0,0,1-2.951-.384c-19.177-6.642-35.406-19.6-51.217-32.323-33.381-26.858-67.2-54.169-92.187-88.97" transform="translate(-741.159 -259.045)" fill="#7f8ad3" opacity="0.3" style="mix-blend-mode: multiply;isolation: isolate"/>
        </g>
      </g>
      <g id="Group_3537" data-name="Group 3537" transform="translate(304.582 288.923)">
        <path id="Path_7810" data-name="Path 7810" d="M689.249,238.824l16.863,84.16A20.881,20.881,0,0,0,729.223,339.6l.548-.068L748.1,258.123Z" transform="translate(-689.249 -238.824)" fill="#fff"/>
        <g id="Group_3536" data-name="Group 3536" transform="translate(0)" clip-path="url(#clip-path-4)">
          <path id="Path_7811" data-name="Path 7811" d="M684.781,258.242l54.909,40.322-13.936,76.6L764.125,356.5l23.937-97.488-99.384-24.137Z" transform="translate(-698.088 -246.635)" fill="#ff8b00"/>
        </g>
      </g>
      <g id="Group_3543" data-name="Group 3543" transform="translate(123.012)">
        <g id="Group_3540" data-name="Group 3540" transform="translate(111.428 29.738)">
          <path id="Path_7813" data-name="Path 7813" d="M714.756,201.812l8.353-10.785-10.726-12.142-12.066,15.579Z" transform="translate(-597.212 -98.214)" fill="#fff"/>
          <g id="Group_3539" data-name="Group 3539" transform="translate(0)">
            <path id="Path_7814" data-name="Path 7814" d="M772.5,257.51l18.164-23.457L696.3,155.975a18.793,18.793,0,0,0-26.668,3.109h0a18.8,18.8,0,0,0,3.973,26.825Z" transform="translate(-665.698 -151.799)" fill="#ff8b00"/>
            <g id="Group_3538" data-name="Group 3538" clip-path="url(#clip-path-5)">
              <path id="Path_7815" data-name="Path 7815" d="M759.949,190.248c-2.824,1.167-51.295,42.711-51.295,42.711L680.93,212.445l66.737-46.568Z" transform="translate(-635.564 -123.949)" fill="#7f8ad3" opacity="0.3" style="mix-blend-mode: multiply;isolation: isolate"/>
            </g>
          </g>
        </g>
        <g id="Group_3542" data-name="Group 3542">
          <path id="Path_7817" data-name="Path 7817" d="M628.284,240.449l255.929-94.373a69.023,69.023,0,0,1,50.839,1.221L949.2,153.3,809.843,255.656l-55.649,71.857Z" transform="translate(-628.284 -141.814)" fill="#fff"/>
          <g id="Group_3541" data-name="Group 3541" clip-path="url(#clip-path-6)">
            <path id="Path_7818" data-name="Path 7818" d="M877.9,140.9,728.433,250.018,665.31,327.66l21.628,29.975,208.168-201.24Z" transform="translate(-555.036 -143.62)" fill="#ff8b00"/>
            <path id="Path_7819" data-name="Path 7819" d="M656.655,156.8c9.477-.337,18.692,2.895,27.486,6.445a344.265,344.265,0,0,1,120.831,82.421c23.8,25.172,44.192,54.994,51.051,88.952.73,3.592,1.239,7.562-.616,10.719q-15.984-11.816-31.963-23.636c-15.541-11.49-31.093-23-47.361-33.437-56.429-36.228-120.614-59.205-176.5-96.27" transform="translate(-685.059 -112.219)" fill="#7f8ad3" opacity="0.3" style="mix-blend-mode: multiply;isolation: isolate"/>
          </g>
        </g>
      </g>
      <g id="Group_3546" data-name="Group 3546" transform="translate(78.076 120.891)">
        <g id="Group_3545" data-name="Group 3545" transform="translate(0)">
          <path id="Path_7821" data-name="Path 7821" d="M640.9,182.405,613.544,453.8a69,69,0,0,0,13.9,48.915l9.352,12.2,64.235-160.532,55.652-71.857Z" transform="translate(-613.196 -182.405)" fill="#fff"/>
          <g id="Group_3544" data-name="Group 3544" clip-path="url(#clip-path-7)">
            <path id="Path_7822" data-name="Path 7822" d="M616.666,463.628l68.258-172.009,59.385-80.539,34.431,13.443L635.971,476.413Z" transform="translate(-606.332 -125.677)" fill="#ff8b00"/>
          </g>
        </g>
      </g>
      <g id="Group_3548" data-name="Group 3548" transform="translate(0 18.711)">
        <path id="Path_7824" data-name="Path 7824" d="M590.913,153.685c-15.157,19.567,12.321,72.152,103.173,142.516S945.077,461.517,945.077,461.517l28.145-36.341S844.569,295.35,752.317,223.9,602.82,138.309,590.913,153.685Z" transform="translate(-586.981 -148.096)" fill="#fff"/>
        <g id="Group_3547" data-name="Group 3547" clip-path="url(#clip-path-8)">
          <path id="Path_7825" data-name="Path 7825" d="M609.481,151.826A1534.3,1534.3,0,0,1,955,416.83c6.153,6.3,12.273,12.676,18.254,19.177l-28.615-7.976c17.423,19.671,68.846,56.313,80.422,79.815-1.6-33.571-19.549-64.081-39.4-91.2-43.191-59-97.348-108.993-151.984-157.587-33.72-30-68.277-59.965-108.752-79.925-45.8-22.587-96.994-31.308-147.359-39.763" transform="translate(-605.612 -165.358)" fill="#7f8ad3" opacity="0.2" style="mix-blend-mode: multiply;isolation: isolate"/>
        </g>
      </g>
      <path id="Path_7827" data-name="Path 7827" d="M757.171,284.446l1.358-1.751a3.776,3.776,0,0,0-.67-5.3l-53.076-41.106-5.977,7.72,53.076,41.109A3.773,3.773,0,0,0,757.171,284.446Z" transform="translate(-365.76 45.092)" fill="#ff8b00"/>
      <path id="Path_7828" data-name="Path 7828" d="M632.129,154.267a39.564,39.564,0,0,0-25.467,14.853,37.581,37.581,0,0,0-7.69,27.96s-12.691-16.672.575-33.8S632.129,154.267,632.129,154.267Z" transform="translate(-574.088 -120.979)" fill="#ff8b00"/>
    </g>
    <path id="Path_7829" data-name="Path 7829" d="M731.578,257.693c30.709,15.722,57.153,38.345,76.354,65.3,11.147,15.66,20.112,34.488,15.3,52.65-3.255,12.273-12.41,22.51-22.269,31.352-16.767,15.049-42.508,27.859-62.716,16.893-13.352-7.249-18.918-23.361-15.547-37.216s14.23-25.408,27.019-33.458c37.553-23.636,89.1-19.156,130.9-2.508" transform="translate(805.433 7683.475)" fill="none" stroke="#fff" stroke-linecap="round" stroke-miterlimit="10" stroke-width="1" stroke-dasharray="3 3"/>
  </g>
</svg>
