<svg xmlns="http://www.w3.org/2000/svg" width="708.592" height="739.646" viewBox="0 0 708.592 739.646">
  <g id="img-back-felicitaciones" transform="translate(0)">
    <g id="Group_3997" data-name="Group 3997" transform="translate(313.002 380.512)">
      <path id="Path_8110" data-name="Path 8110" d="M535.013,571.776q-4.562,0-9.131-.06a5.747,5.747,0,0,1-5.478-5.993c.035-3.273,2.68-6.246,5.6-5.86,14.35.174,28.6-.064,44.232-.771h.237a5.728,5.728,0,0,1,5.538,5.675,5.786,5.786,0,0,1-5.3,6.178C558.189,571.5,546.506,571.776,535.013,571.776Zm-53.547-2.338a4.236,4.236,0,0,1-.488-.019c-15.263-1.4-30.285-3.492-44.639-6.223a5.908,5.908,0,0,1-4.484-6.882,5.674,5.674,0,0,1,6.433-4.8c14.018,2.671,28.708,4.718,43.648,6.087a5.822,5.822,0,0,1,5.043,6.42A5.7,5.7,0,0,1,481.466,569.438ZM394,552.326a5.023,5.023,0,0,1-1.627-.272,308.069,308.069,0,0,1-42.248-17.373,6.115,6.115,0,0,1-2.663-7.884,5.389,5.389,0,0,1,7.373-2.849,299.283,299.283,0,0,0,40.788,16.775,6,6,0,0,1,3.671,7.4A5.6,5.6,0,0,1,394,552.326Zm-80.278-40.45a5.27,5.27,0,0,1-3.069-1,297.77,297.77,0,0,1-35.664-29.971,6.218,6.218,0,0,1-.325-8.376,5.3,5.3,0,0,1,7.833-.348A286.816,286.816,0,0,0,316.8,501.014a6.2,6.2,0,0,1,1.535,8.225A5.448,5.448,0,0,1,313.721,511.876ZM248.4,447.659a5.425,5.425,0,0,1-4.343-2.228,318.468,318.468,0,0,1-25.44-40.182,6.158,6.158,0,0,1,2.076-8.089,5.383,5.383,0,0,1,7.561,2.221,306.026,306.026,0,0,0,24.485,38.653,6.236,6.236,0,0,1-.884,8.342A5.308,5.308,0,0,1,248.4,447.659Zm-43.9-82.486a5.577,5.577,0,0,1-5.188-3.84A306.9,306.9,0,0,1,186.853,314.6a5.928,5.928,0,0,1,4.374-6.961,5.535,5.535,0,0,1,6.507,4.68,294.275,294.275,0,0,0,11.953,44.824,6.065,6.065,0,0,1-3.229,7.646A5.234,5.234,0,0,1,204.5,365.172Zm-17.682-93.045a5.72,5.72,0,0,1-5.524-5.55c-.576-9.689-.863-19.892-.863-30.308v-2.4q.027-7.729.258-15.493a5.729,5.729,0,0,1,5.541-5.732h.18a5.774,5.774,0,0,1,5.357,6.118q-.228,7.587-.262,15.125v2.383c0,10.173.29,20.116.849,29.555a5.8,5.8,0,0,1-5.177,6.3C187.061,272.127,186.941,272.127,186.818,272.127Z" transform="translate(-180.431 -212.643)" fill="#f39d00"/>
    </g>
    <g id="Group_3998" data-name="Group 3998" transform="translate(0 0)">
      <path id="Path_8111" data-name="Path 8111" d="M457.913,458.032q-12.693,0-24.98-.329a5.946,5.946,0,0,1,.145-11.853h.145q21.462.579,44.278.125c3.448-.193,5.594,2.539,5.647,5.811a5.749,5.749,0,0,1-5.432,6.042Q467.691,458.032,457.913,458.032Zm64.194-1.99a5.716,5.716,0,0,1-5.524-5.6,5.8,5.8,0,0,1,5.227-6.246c14.333-.87,29.22-2.017,44.25-3.435a5.674,5.674,0,0,1,6.012,5.384,5.829,5.829,0,0,1-5.036,6.428c-15.15,1.43-30.15,2.6-44.614,3.458C522.323,456.042,522.214,456.042,522.108,456.042Zm-133.5-.753c-.145,0-.29,0-.442-.008-15.429-1.286-30.44-3.042-44.625-5.213a5.874,5.874,0,0,1-4.7-6.708,5.7,5.7,0,0,1,6.27-5.028c13.947,2.134,28.725,3.859,43.921,5.115a5.83,5.83,0,0,1,5.1,6.379A5.706,5.706,0,0,1,388.609,455.29Zm222.228-7.574a5.687,5.687,0,0,1-5.5-5.243,5.843,5.843,0,0,1,4.866-6.572q21.595-2.707,44.027-6.121a5.58,5.58,0,0,1,6.27,5.032,5.877,5.877,0,0,1-4.7,6.708q-22.587,3.445-44.317,6.155A4.707,4.707,0,0,1,610.837,447.715Zm-310.328-6.083a5.37,5.37,0,0,1-1.22-.144c-10.715-2.576-21.165-5.471-31.042-8.618q-6.307-2.015-12.405-4.181a6.019,6.019,0,0,1-3.519-7.491,5.444,5.444,0,0,1,7-3.764q5.941,2.1,12.083,4.063c9.643,3.072,19.839,5.9,30.3,8.41a5.951,5.951,0,0,1,4.2,7.082A5.654,5.654,0,0,1,300.509,441.632Zm-84.192-30.459a5.222,5.222,0,0,1-2.419-.6A266.324,266.324,0,0,1,174.769,385.9a6.205,6.205,0,0,1-1.291-8.27,5.3,5.3,0,0,1,7.734-1.381,256.277,256.277,0,0,0,37.52,23.649,6.124,6.124,0,0,1,2.571,7.922A5.519,5.519,0,0,1,216.317,411.173Zm190.815-5.3a5.747,5.747,0,0,1-5.541-5.928v-2.1c0-14.952-.559-30.141-1.669-45.161a5.835,5.835,0,0,1,5.1-6.378,5.724,5.724,0,0,1,5.962,5.452c1.117,15.318,1.687,30.83,1.687,46.088v2.1A5.746,5.746,0,0,1,407.132,405.873ZM144.653,355.586a5.374,5.374,0,0,1-4.1-1.929A206.687,206.687,0,0,1,113.916,313.9a6.164,6.164,0,0,1,2.193-8.058,5.4,5.4,0,0,1,7.532,2.346,194.536,194.536,0,0,0,25.108,37.477,6.217,6.217,0,0,1-.361,8.38A5.337,5.337,0,0,1,144.653,355.586ZM400,310.781a5.666,5.666,0,0,1-5.46-4.922,428.074,428.074,0,0,0-9.788-45.827,5.993,5.993,0,0,1,3.752-7.358,5.449,5.449,0,0,1,6.875,4.018,441.423,441.423,0,0,1,10.1,47.158,5.921,5.921,0,0,1-4.53,6.855A5.369,5.369,0,0,1,400,310.781ZM102.151,272.895a5.61,5.61,0,0,1-5.34-4.351q-1.029-4-1.931-8.058A122.475,122.475,0,0,1,91.92,234.2a107.946,107.946,0,0,1,1.064-15.209,5.61,5.61,0,0,1,6.305-4.971,5.867,5.867,0,0,1,4.647,6.745A96.045,96.045,0,0,0,103,234.2a109.824,109.824,0,0,0,2.67,23.555c.569,2.565,1.174,5.115,1.825,7.623a5.981,5.981,0,0,1-3.862,7.3A5.343,5.343,0,0,1,102.151,272.895ZM374.3,219.714a5.53,5.53,0,0,1-5-3.367A203.6,203.6,0,0,0,346.555,177.1a6.222,6.222,0,0,1,.849-8.338,5.306,5.306,0,0,1,7.8.908,216.629,216.629,0,0,1,24.1,41.54,6.119,6.119,0,0,1-2.6,7.915A5.249,5.249,0,0,1,374.3,219.714ZM115.91,182.543a5.254,5.254,0,0,1-3.356-1.207,6.211,6.211,0,0,1-1.057-8.308,128.811,128.811,0,0,1,34.709-32.808,5.356,5.356,0,0,1,7.624,1.96A6.186,6.186,0,0,1,152,150.336a117.443,117.443,0,0,0-31.678,29.873A5.405,5.405,0,0,1,115.91,182.543Zm202.326-35.26a5.25,5.25,0,0,1-3.031-.965,121.185,121.185,0,0,0-38.85-17.989,5.979,5.979,0,0,1-4.06-7.181,5.564,5.564,0,0,1,6.712-4.343A132.093,132.093,0,0,1,321.285,136.4a6.184,6.184,0,0,1,1.6,8.213A5.444,5.444,0,0,1,318.236,147.283ZM189.819,132.169a5.609,5.609,0,0,1-5.315-4.256,6,6,0,0,1,3.745-7.366,196.948,196.948,0,0,1,43.574-8.425l1.669-.057a6.1,6.1,0,0,1,5.647,5.811,5.756,5.756,0,0,1-5.432,6.042l-1.206.049a185.755,185.755,0,0,0-41.113,7.952A5.327,5.327,0,0,1,189.819,132.169Z" transform="translate(-91.92 -112.065)" fill="#f39d00"/>
    </g>
  </g>
</svg>
