<svg xmlns="http://www.w3.org/2000/svg" width="478" height="556.5" viewBox="0 0 478 556.5">
  <g id="img-felicitaciones" transform="translate(-1101 -9009.5)">
    <g id="Group_596" data-name="Group 596" transform="translate(1319.072 9010)">
      <g id="Group_480" data-name="Group 480" transform="translate(3.612 274.834)">
        <path id="Path_1905" data-name="Path 1905" d="M394.809,277.6c-1.268,5.913-5.488,16.889-4.646,25.345s1.268,27.455,5.488,25.763,6.346-31.676,9.3-29.141,4.646,10.559,5.488,6.756,2.96-21.967,2.543-23.235S394.809,277.6,394.809,277.6Z" transform="translate(-390.053 -277.6)" fill="#fdb171"/>
      </g>
      <g id="Group_482" data-name="Group 482" transform="translate(203.339 279.785)">
        <g id="Group_481" data-name="Group 481">
          <path id="Path_1906" data-name="Path 1906" d="M431.379,339.018s-13.5-56.838-14.068-59.095l6.55-1.649c.571,2.249,14.1,59.19,14.1,59.19Z" transform="translate(-417.311 -278.275)" fill="#1b1c2c"/>
        </g>
      </g>
      <g id="Group_483" data-name="Group 483" transform="translate(190.986 260.589)">
        <path id="Path_1907" data-name="Path 1907" d="M415.625,275.657C416.834,295.851,429,316.118,429,310.168c0-23.652.7,11.262,11.966,7.6,4.924-1.6,14-13.871-6.052-41.392Z" transform="translate(-415.625 -275.657)" fill="#fdb171"/>
      </g>
      <g id="Group_490" data-name="Group 490" transform="translate(44.213 282.949)">
        <g id="Group_484" data-name="Group 484" transform="translate(21.745 209.963)">
          <path id="Path_1908" data-name="Path 1908" d="M412,312.156c-8.126,15.365-17.138,26.217-11.87,33.082s30.35-.769,28.95-16.538c0,0,.33,4.975,1.825,3.92s6.148-7.218,8.492-10.2-1.913-15.072-1.913-15.072Z" transform="translate(-398.562 -307.349)" fill="#060307"/>
        </g>
        <g id="Group_485" data-name="Group 485">
          <path id="Path_1909" data-name="Path 1909" d="M395.594,294.807c.564,6.192,6.675,50.807,9.2,81.794S422.141,500.52,422.141,500.52s17.666,8.675,38.593-7.437c0,0-20.81-120.2-16.047-162.336V278.694Z" transform="translate(-395.594 -278.694)" fill="#4c86d9"/>
        </g>
        <g id="Group_486" data-name="Group 486" transform="translate(22.246)">
          <path id="Path_1910" data-name="Path 1910" d="M425.477,278.694l-26.847,8.815c2.916,33.354,13.966,166.982,21.483,215,6.177-.835,13.563-3.392,21.41-9.43,0,0-20.81-120.2-16.047-162.336Z" transform="translate(-398.63 -278.694)" fill="#3f69e6"/>
        </g>
        <g id="Group_487" data-name="Group 487" transform="translate(59.609 238.84)">
          <path id="Path_1911" data-name="Path 1911" d="M409.26,311.29c1.048,7.334-7.613,22.018-5.056,25.088s3.605,6.148,16.911,5.635,20.473-2.557,19.96-6.14-2.557-24.583-2.557-24.583Z" transform="translate(-403.729 -311.29)" fill="#060307"/>
        </g>
        <g id="Group_488" data-name="Group 488" transform="translate(49.093)">
          <path id="Path_1912" data-name="Path 1912" d="M402.294,330.747a203.671,203.671,0,0,1,6.954,60.025c-1.165,33.42,1.15,130.821,1.15,130.821s19.447,11.145,47.7,0c0,0-1.649-125.165-2.184-146.238s0-90.462,0-90.462l-53.621-6.2Z" transform="translate(-402.294 -278.694)" fill="#4c86d9"/>
        </g>
        <g id="Group_489" data-name="Group 489" transform="translate(76.811 3.217)">
          <path id="Path_1913" data-name="Path 1913" d="M434.163,518.808s-1.649-125.157-2.184-146.231,0-90.462,0-90.462l-25.785-2.982c-.755,41.223,2.4,215.715,1.48,244.592A66.783,66.783,0,0,0,434.163,518.808Z" transform="translate(-406.077 -279.133)" fill="#3f69e6"/>
        </g>
      </g>
      <path id="Path_8148" data-name="Path 8148" d="M2803.423-1640.03s1.062-31.859,2.1-42.593,5.54-77.926,4.507-92.47-6.933-61.3-6.581-64.069,33.94-12.464,33.94-12.464l23.66,4.726,23.667-4.726s33.6,9.694,33.94,12.464-5.539,49.517-6.58,64.069,1.48,82.425,2.527,93.159,2.089,42.6,2.089,42.6-14.193,2.77-55.644,3.466C2819.6-1636.564,2803.423-1640.03,2803.423-1640.03Z" transform="translate(-2764.558 1941.393)" fill="#25273b" stroke="rgba(0,0,0,0)" stroke-width="1"/>
      <g id="Group_496" data-name="Group 496" transform="translate(76.261 84.261)">
        <g id="Group_495" data-name="Group 495">
          <path id="Path_1916" data-name="Path 1916" d="M399.968,252.433l39.842-.83-15.456,66.776-12.7-2.075Z" transform="translate(-399.968 -251.603)" fill="#d8e9ed"/>
        </g>
      </g>
      <path id="Path_8141" data-name="Path 8141" d="M2820.51-1832.466h0c-7.848,0-17.087-10.391-17.087-10.391l1.392-8.771,15.695,1.612,15.7-1.612,1.385,8.771s-9.233,10.389-17.087,10.391h0Z" transform="translate(-2724.024 1923.668)" fill="#f09f5b" stroke="rgba(0,0,0,0)" stroke-width="1"/>
      <g id="Group_502" data-name="Group 502" transform="translate(72.826 80.813)">
        <g id="Group_501" data-name="Group 501">
          <path id="Path_1919" data-name="Path 1919" d="M423.159,261.527s-11.892-4.733-17.087-10.39l-6.573,8.9s9,13.5,17.659,18.347Z" transform="translate(-399.499 -251.137)" fill="#b4d1d7"/>
        </g>
      </g>
      <g id="Group_504" data-name="Group 504" transform="translate(96.486 80.813)">
        <g id="Group_503" data-name="Group 503">
          <path id="Path_1920" data-name="Path 1920" d="M402.728,261.527s11.9-4.733,17.087-10.39l6.58,8.9s-9.005,13.5-17.659,18.347Z" transform="translate(-402.728 -251.137)" fill="#b4d1d7"/>
        </g>
      </g>
      <path id="Path_8142" data-name="Path 8142" d="M2811.966-1788.366h0v0l-8.543-25.621,6.7-20.779-2.834-3.722,4.679-13.135v0h0v0l4.679,13.135-2.833,3.722,9.524,17.8-11.37,28.6v0Z" transform="translate(-2715.477 1942.868)" fill="#4c86d9" stroke="rgba(0,0,0,0)" stroke-width="1"/>
      <g id="Group_510" data-name="Group 510" transform="translate(59.545 85.094)">
        <g id="Group_509" data-name="Group 509">
          <path id="Path_1923" data-name="Path 1923" d="M414.4,251.716l28.772,70.332-8.544,15.727-33.245-51.048,5.2-7.849-8.895-13.166Z" transform="translate(-397.687 -251.716)" fill="#1b1c2c"/>
        </g>
      </g>
      <g id="Group_512" data-name="Group 512" transform="translate(84.654 84.265)">
        <g id="Group_511" data-name="Group 511">
          <path id="Path_1924" data-name="Path 1924" d="M401.113,361.1l49.659-74.282L439.5,276.132l11.077-11.084L432.562,251.6Z" transform="translate(-401.113 -251.603)" fill="#1b1c2c"/>
        </g>
      </g>
      <path id="Path_8137" data-name="Path 8137" d="M2831.363-1781.673v-69.953c19.387.345,22.854,10.046,24.582,13.856s-.687,17.314-.687,17.314a4.781,4.781,0,0,1,3.114-2.425c2.082-.352,0,9.349,0,12.47s-3.8,2.074-4.5,7.474-6.58,15.035-11.775,18.494a17.4,17.4,0,0,1-9.507,2.827A10.833,10.833,0,0,1,2831.363-1781.673Zm-10.742-2.769c-5.2-3.459-11.079-13.1-11.768-18.494s-4.505-4.36-4.505-7.474-2.082-12.822,0-12.47a4.759,4.759,0,0,1,3.114,2.425s-2.426-13.5-.7-17.314,5.2-13.512,24.6-13.856v69.953a10.873,10.873,0,0,1-1.229.058A17.415,17.415,0,0,1,2820.622-1784.443Z" transform="translate(-2735.987 1864.097)" fill="#fdb171" stroke="rgba(0,0,0,0)" stroke-width="1"/>
      <path id="Path_8138" data-name="Path 8138" d="M2843.873-1829.454l-29.089,8.075c-4.616-.689-12.024-3.356-11.313-7.848.7-4.389,10.162-22.4,40.4-22.4h0c30.247,0,39.712,18.01,40.4,22.4.718,4.492-6.69,7.159-11.314,7.848Z" transform="translate(-2747.387 1851.626)" fill="#4c86d9" stroke="rgba(0,0,0,0)" stroke-width="1"/>
      <path id="Path_8139" data-name="Path 8139" d="M2832.012-1834.575l-28.589.907v-8.075a8.146,8.146,0,0,1,4.851-5.313c4.067-1.807,7.911-4.458,23.238-4.568v0h1v0c15.336.11,19.178,2.761,23.245,4.568a8.147,8.147,0,0,1,4.843,5.313v8.075Z" transform="translate(-2736.026 1868.53)" fill="#1b1c2c" stroke="rgba(0,0,0,0)" stroke-width="1"/>
      <path id="Path_8140" data-name="Path 8140" d="M2832.012-1840.034h-.437c-6.509,0-24.207-.171-28.152-6.977,0,0,7.826-4.242,28.089-4.6v-.014l.5.006.5-.006v.014c20.27.36,28.088,4.6,28.088,4.6-3.938,6.806-21.635,6.977-28.15,6.977Z" transform="translate(-2736.026 1881.873)" fill="#25273b" stroke="rgba(0,0,0,0)" stroke-width="1"/>
      <g id="Group_530" data-name="Group 530" transform="translate(66.558 29.404)">
        <g id="Group_529" data-name="Group 529">
          <path id="Path_1933" data-name="Path 1933" d="M457.668,250.43a.839.839,0,0,1-.542-.2c-.051-.044-5.8-4.418-28.554-4.418s-28.5,4.374-28.554,4.426a.856.856,0,0,1-1.18-.117.845.845,0,0,1,.11-1.187c.235-.2,6.045-4.814,29.624-4.814s29.4,4.616,29.632,4.814a.834.834,0,0,1,.11,1.187A.825.825,0,0,1,457.668,250.43Z" transform="translate(-398.644 -244.121)" fill="#d7b469"/>
        </g>
      </g>
      <g id="Group_532" data-name="Group 532" transform="translate(66.726 16.135)">
        <g id="Group_531" data-name="Group 531">
          <path id="Path_1934" data-name="Path 1934" d="M457.7,253.235a.858.858,0,0,1-.725-.41c-.051-.088-5.81-8.829-28.488-8.829-22.656,0-28.2,8.727-28.247,8.822a.863.863,0,0,1-1.158.293.836.836,0,0,1-.293-1.158c.227-.4,5.935-9.643,29.7-9.643s29.683,9.24,29.925,9.635a.837.837,0,0,1-.278,1.158A.787.787,0,0,1,457.7,253.235Z" transform="translate(-398.666 -242.31)" fill="#d7b469"/>
        </g>
      </g>
      <g id="Group_534" data-name="Group 534" transform="translate(78.075 33.12)">
        <g id="Group_533" data-name="Group 533">
          <path id="Path_1935" data-name="Path 1935" d="M415.871,245.543c-.1-.645-1.78-.931-3.766-.638a8.288,8.288,0,0,0-2.66.813h-.007a1.471,1.471,0,0,1-.623.22c-.176-.8-.623-1.377-1.077-1.3s-.718.74-.652,1.554a1.459,1.459,0,0,1-.667-.022h.007a8.143,8.143,0,0,0-2.784-.007c-1.993.293-3.524,1.048-3.422,1.693.08.571,1.385.857,3.048.725a1.335,1.335,0,0,0-.417,1.048c.147.527,1.121.462,2.264-.11a1.317,1.317,0,0,0-.154.916c.161.418.806.234,1.48-.374a.8.8,0,0,0-.059.484c.1.286.572.139,1.033-.315a4.438,4.438,0,0,0,.344-.425,6.862,6.862,0,0,0,.835.674,6.4,6.4,0,0,0,.608-.887,4.59,4.59,0,0,0,.462.308c.571.308,1.055.308,1.077.007a.666.666,0,0,0-.2-.447c.821.381,1.495.374,1.524-.081a1.288,1.288,0,0,0-.41-.828c1.253.22,2.213,0,2.2-.55-.007-.286-.271-.594-.7-.879C414.787,246.767,415.952,246.107,415.871,245.543Z" transform="translate(-400.215 -244.628)" fill="#d7b469"/>
        </g>
      </g>
      <g id="Group_536" data-name="Group 536" transform="translate(116.899 159.894)">
        <g id="Group_535" data-name="Group 535">
          <path id="Path_1936" data-name="Path 1936" d="M424.792,264.508c0-.792-1.978-1.444-4.418-1.458a9.812,9.812,0,0,0-3.363.5v-.007a1.857,1.857,0,0,1-.791.146c-.059-.989-.5-1.766-1.055-1.766s-1,.762-1.07,1.751a1.839,1.839,0,0,1-.791-.147v.007a9.854,9.854,0,0,0-3.356-.535c-2.447-.007-4.426.623-4.433,1.421,0,.7,1.517,1.29,3.539,1.429-.454.418-.733.835-.689,1.18.073.667,1.267.777,2.74.286a1.692,1.692,0,0,0-.352,1.077c.117.535.923.432,1.854-.176a.923.923,0,0,0-.161.572c.081.359.667.278,1.3-.2a3.565,3.565,0,0,0,.491-.44,7.956,7.956,0,0,0,.887.96,6.725,6.725,0,0,0,.894-.953,3.682,3.682,0,0,0,.5.447c.63.476,1.224.572,1.3.205a.93.93,0,0,0-.154-.572c.923.616,1.729.725,1.847.2a1.6,1.6,0,0,0-.337-1.077c1.466.491,2.66.4,2.748-.264a1.635,1.635,0,0,0-.681-1.194C423.261,265.775,424.785,265.2,424.792,264.508Z" transform="translate(-405.514 -261.921)" fill="#d7b469"/>
        </g>
      </g>
      <g id="Group_538" data-name="Group 538" transform="translate(99.237 33.12)">
        <g id="Group_537" data-name="Group 537">
          <path id="Path_1937" data-name="Path 1937" d="M403.107,245.543c.1-.645,1.788-.931,3.773-.638a8.35,8.35,0,0,1,2.66.813h0a1.538,1.538,0,0,0,.63.22c.176-.8.623-1.377,1.077-1.3s.711.74.652,1.554a1.424,1.424,0,0,0,.66-.022h0a8.143,8.143,0,0,1,2.784-.007c1.986.293,3.525,1.048,3.422,1.693-.081.571-1.385.857-3.048.725a1.335,1.335,0,0,1,.417,1.048c-.147.527-1.136.462-2.264-.11a1.359,1.359,0,0,1,.154.916c-.161.418-.806.234-1.48-.374a.8.8,0,0,1,.059.484c-.1.286-.572.139-1.033-.315a3.538,3.538,0,0,1-.344-.425,6.6,6.6,0,0,1-.843.674,6.433,6.433,0,0,1-.608-.887,4.459,4.459,0,0,1-.454.308c-.579.308-1.055.308-1.077.007a.666.666,0,0,1,.2-.447c-.828.381-1.495.374-1.524-.081a1.287,1.287,0,0,1,.41-.828c-1.253.22-2.22,0-2.2-.55.007-.286.271-.594.7-.879C404.2,246.767,403.033,246.107,403.107,245.543Z" transform="translate(-403.104 -244.628)" fill="#d7b469"/>
        </g>
      </g>
      <g id="Group_565" data-name="Group 565" transform="translate(88.317 2.942)">
        <g id="Group_540" data-name="Group 540" transform="translate(5.304 3.696)">
          <g id="Group_539" data-name="Group 539">
            <path id="Path_1938" data-name="Path 1938" d="M408.389,245.256c0,2.345-1.355,4.25-3.026,4.25s-3.026-1.905-3.026-4.25,1.348-4.243,3.026-4.243S408.389,242.9,408.389,245.256Z" transform="translate(-402.337 -241.014)" fill="#d7b469"/>
          </g>
        </g>
        <g id="Group_542" data-name="Group 542" transform="translate(11.026)">
          <g id="Group_541" data-name="Group 541">
            <path id="Path_1939" data-name="Path 1939" d="M406.356,243.51c-.315.3-1.282-.11-2.147-.909s-1.311-1.685-.982-1.993,1.29.11,2.154.909S406.686,243.209,406.356,243.51Z" transform="translate(-403.118 -240.51)" fill="#d7b469"/>
          </g>
        </g>
        <g id="Group_544" data-name="Group 544" transform="translate(13.767 0.751)">
          <g id="Group_543" data-name="Group 543">
            <path id="Path_1940" data-name="Path 1940" d="M404.415,245.184c-.506,0-.923-1.018-.923-2.286s.418-2.286.923-2.286.93,1.026.93,2.286S404.928,245.184,404.415,245.184Z" transform="translate(-403.492 -240.612)" fill="#d7b469"/>
          </g>
        </g>
        <g id="Group_546" data-name="Group 546" transform="translate(12.543 3.626)">
          <g id="Group_545" data-name="Group 545">
            <path id="Path_1941" data-name="Path 1941" d="M405.75,245.17c-.462.205-1.312-.557-1.905-1.7s-.689-2.227-.234-2.433,1.319.557,1.9,1.7S406.211,244.965,405.75,245.17Z" transform="translate(-403.325 -241.004)" fill="#d7b469"/>
          </g>
        </g>
        <g id="Group_548" data-name="Group 548" transform="translate(13.05 5.993)">
          <g id="Group_547" data-name="Group 547">
            <path id="Path_1942" data-name="Path 1942" d="M403.54,244.863c-.388-.308.029-1.334.931-2.286s1.949-1.473,2.33-1.158-.037,1.334-.938,2.279S403.928,245.178,403.54,244.863Z" transform="translate(-403.394 -241.327)" fill="#d7b469"/>
          </g>
        </g>
        <g id="Group_550" data-name="Group 550" transform="translate(11.378 6.685)">
          <g id="Group_549" data-name="Group 549">
            <path id="Path_1943" data-name="Path 1943" d="M403.92,245.988c-.52-.037-.843-1.084-.733-2.345s.6-2.257,1.114-2.22.835,1.084.733,2.345S404.426,246.024,403.92,245.988Z" transform="translate(-403.166 -241.422)" fill="#d7b469"/>
          </g>
        </g>
        <g id="Group_552" data-name="Group 552" transform="translate(9.282 9.757)">
          <g id="Group_551" data-name="Group 551">
            <path id="Path_1944" data-name="Path 1944" d="M402.9,243.547c-.147-.447.791-1.106,2.11-1.473s2.491-.293,2.638.161-.791,1.114-2.11,1.48S403.042,244.009,402.9,243.547Z" transform="translate(-402.88 -241.841)" fill="#d7b469"/>
          </g>
        </g>
        <g id="Group_554" data-name="Group 554" transform="translate(2.223)">
          <g id="Group_553" data-name="Group 553">
            <path id="Path_1945" data-name="Path 1945" d="M402.022,243.51c.33.3,1.29-.11,2.162-.909s1.3-1.685.974-1.993-1.282.11-2.154.909S401.7,243.209,402.022,243.51Z" transform="translate(-401.917 -240.51)" fill="#d7b469"/>
          </g>
        </g>
        <g id="Group_556" data-name="Group 556" transform="translate(0.981 0.751)">
          <g id="Group_555" data-name="Group 555">
            <path id="Path_1946" data-name="Path 1946" d="M402.67,245.184c.513,0,.931-1.018.931-2.286s-.418-2.286-.931-2.286-.923,1.026-.923,2.286S402.164,245.184,402.67,245.184Z" transform="translate(-401.747 -240.612)" fill="#d7b469"/>
          </g>
        </g>
        <g id="Group_558" data-name="Group 558" transform="translate(1.344 3.626)">
          <g id="Group_557" data-name="Group 557">
            <path id="Path_1947" data-name="Path 1947" d="M402.085,245.17c.461.205,1.319-.557,1.905-1.7s.689-2.227.234-2.433-1.319.557-1.9,1.7S401.624,244.965,402.085,245.17Z" transform="translate(-401.797 -241.004)" fill="#d7b469"/>
          </g>
        </g>
        <g id="Group_560" data-name="Group 560" transform="translate(0 5.993)">
          <g id="Group_559" data-name="Group 559">
            <path id="Path_1948" data-name="Path 1948" d="M405.019,244.863c.388-.308-.037-1.334-.938-2.286s-1.942-1.473-2.323-1.158.029,1.334.931,2.279S404.631,245.178,405.019,244.863Z" transform="translate(-401.613 -241.327)" fill="#d7b469"/>
          </g>
        </g>
        <g id="Group_562" data-name="Group 562" transform="translate(3.336 6.685)">
          <g id="Group_561" data-name="Group 561">
            <path id="Path_1949" data-name="Path 1949" d="M403.208,245.988c.506-.037.835-1.084.725-2.345s-.6-2.257-1.114-2.22-.835,1.084-.733,2.345S402.7,246.024,403.208,245.988Z" transform="translate(-402.069 -241.422)" fill="#d7b469"/>
          </g>
        </g>
        <g id="Group_564" data-name="Group 564" transform="translate(2.54 9.757)">
          <g id="Group_563" data-name="Group 563">
            <path id="Path_1950" data-name="Path 1950" d="M406.724,243.547c.147-.447-.8-1.106-2.11-1.473s-2.491-.293-2.638.161.792,1.114,2.11,1.48S406.578,244.009,406.724,243.547Z" transform="translate(-401.96 -241.841)" fill="#d7b469"/>
          </g>
        </g>
      </g>
      <g id="Group_566" data-name="Group 566" transform="translate(62.656 218.052)">
        <path id="Path_1951" data-name="Path 1951" d="M405.8,269.853l-7.694,86.088c1.978.139,4.067.286,6.324.418Z" transform="translate(-398.111 -269.853)" fill="#1b1c2c"/>
      </g>
      <g id="Group_568" data-name="Group 568" transform="translate(113.546 199.517)">
        <g id="Group_567" data-name="Group 567">
          <path id="Path_1952" data-name="Path 1952" d="M405.061,270.613a3.115,3.115,0,1,1,3.282,2.946A3.119,3.119,0,0,1,405.061,270.613Z" transform="translate(-405.056 -267.326)" fill="#d7b469"/>
        </g>
      </g>
      <g id="Group_570" data-name="Group 570" transform="translate(113.546 230.127)">
        <g id="Group_569" data-name="Group 569">
          <path id="Path_1953" data-name="Path 1953" d="M405.061,274.79a3.115,3.115,0,1,1,3.282,2.945A3.115,3.115,0,0,1,405.061,274.79Z" transform="translate(-405.056 -271.502)" fill="#d7b469"/>
        </g>
      </g>
      <g id="Group_572" data-name="Group 572" transform="translate(113.546 260.738)">
        <g id="Group_571" data-name="Group 571">
          <path id="Path_1954" data-name="Path 1954" d="M405.061,278.959a3.115,3.115,0,1,1,3.282,2.946A3.108,3.108,0,0,1,405.061,278.959Z" transform="translate(-405.056 -275.678)" fill="#d7b469"/>
        </g>
      </g>
      <g id="Group_574" data-name="Group 574" transform="translate(89.453 200.029)">
        <g id="Group_573" data-name="Group 573">
          <path id="Path_1955" data-name="Path 1955" d="M401.774,270.684a3.112,3.112,0,1,1,3.275,2.938A3.1,3.1,0,0,1,401.774,270.684Z" transform="translate(-401.768 -267.396)" fill="#d7b469"/>
        </g>
      </g>
      <g id="Group_576" data-name="Group 576" transform="translate(89.453 230.634)">
        <g id="Group_575" data-name="Group 575">
          <path id="Path_1956" data-name="Path 1956" d="M401.774,274.858a3.111,3.111,0,1,1,3.275,2.945A3.105,3.105,0,0,1,401.774,274.858Z" transform="translate(-401.768 -271.571)" fill="#d7b469"/>
        </g>
      </g>
      <g id="Group_578" data-name="Group 578" transform="translate(89.453 261.244)">
        <g id="Group_577" data-name="Group 577">
          <path id="Path_1957" data-name="Path 1957" d="M401.774,279.028a3.111,3.111,0,1,1,3.275,2.945A3.1,3.1,0,0,1,401.774,279.028Z" transform="translate(-401.768 -275.747)" fill="#d7b469"/>
        </g>
      </g>
      <g id="Group_580" data-name="Group 580" transform="translate(140.361 102.231)">
        <g id="Group_579" data-name="Group 579">
          <path id="Path_1958" data-name="Path 1958" d="M422.447,254.052c13,12.215,40.447,86.469,44.565,99.5s22.8,65.044,22.8,65.044-21.117,3.385-32.943,11.826c0,0-19.813-65.433-21.191-70.224S408.716,297.8,408.716,297.8Z" transform="translate(-408.716 -254.052)" fill="#25273b"/>
        </g>
      </g>
      <g id="Group_581" data-name="Group 581" transform="translate(175.635 226.908)">
        <path id="Path_1959" data-name="Path 1959" d="M414.592,283.71c6.17-3.488,18.421-9.159,31.822-9.1-.417-1.187-.835-2.367-1.245-3.546-13.336.249-25.169,5.532-31.639,9.145C413.882,281.38,414.226,282.53,414.592,283.71Z" transform="translate(-413.53 -271.063)" fill="#d7b469"/>
      </g>
      <g id="Group_582" data-name="Group 582" transform="translate(178.038 234.436)">
        <path id="Path_1960" data-name="Path 1960" d="M414.92,285.191c5.752-3.363,18.216-9.46,32.079-9.562q-.627-1.759-1.253-3.539c-13.695.4-25.712,6.038-31.888,9.584C414.217,282.861,414.569,284.019,414.92,285.191Z" transform="translate(-413.858 -272.09)" fill="#d7b469"/>
      </g>
      <g id="Group_583" data-name="Group 583" transform="translate(180.449 241.964)">
        <path id="Path_1961" data-name="Path 1961" d="M415.257,286.672c5.239-3.165,17.974-9.745,32.328-10.009-.411-1.165-.828-2.352-1.26-3.546-14.1.557-26.32,6.6-32.137,10.038C414.553,284.35,414.9,285.508,415.257,286.672Z" transform="translate(-414.187 -273.117)" fill="#d7b469"/>
      </g>
      <g id="Group_584" data-name="Group 584" transform="translate(0 102.233)">
        <path id="Path_1962" data-name="Path 1962" d="M428.446,254.052c-14.889,12.874-15.512,15.915-24.8,61.307S389.56,437.886,389.56,437.886s2.293-3.136,18.714-1.158c12.837,1.546,13.38,5.026,13.38,5.026s6.477-108.371,24.224-126.125S428.446,254.052,428.446,254.052Z" transform="translate(-389.56 -254.052)" fill="#25273b"/>
      </g>
      <g id="Group_585" data-name="Group 585" transform="translate(3.429 235.079)">
        <path id="Path_1963" data-name="Path 1963" d="M423.1,278.715c-6.814-1.964-20.04-4.653-33.068-1.5.132-1.26.264-2.506.4-3.744,13.021-2.829,25.763-.418,32.892,1.6C423.235,276.282,423.169,277.484,423.1,278.715Z" transform="translate(-390.028 -272.178)" fill="#d7b469"/>
      </g>
      <g id="Group_586" data-name="Group 586" transform="translate(2.579 243.136)">
        <path id="Path_1964" data-name="Path 1964" d="M423.324,280.084c-6.375-1.949-19.9-5-33.412-1.9.132-1.238.264-2.484.4-3.73,13.416-2.77,26.4-.059,33.229,1.964C423.471,277.651,423.4,278.861,423.324,280.084Z" transform="translate(-389.912 -273.277)" fill="#d7b469"/>
      </g>
      <g id="Group_587" data-name="Group 587" transform="translate(1.715 251.179)">
        <path id="Path_1965" data-name="Path 1965" d="M423.565,281.465c-5.825-1.868-19.74-5.342-33.771-2.279.132-1.223.271-2.477.41-3.737,13.848-2.718,27.133.337,33.588,2.345C423.712,279.047,423.639,280.249,423.565,281.465Z" transform="translate(-389.794 -274.374)" fill="#d7b469"/>
      </g>
      <g id="Group_589" data-name="Group 589" transform="translate(185.255 301.627)">
        <g id="Group_588" data-name="Group 588" transform="translate(0 0)">
          <rect id="Rectangle_2466" data-name="Rectangle 2466" width="61.043" height="76.923" rx="12" transform="translate(0 11.717) rotate(-11.067)" fill="#2a2c44"/>
        </g>
      </g>
    </g>
    <g id="Group_648" data-name="Group 648" transform="translate(1101 9013.348)">
      <g id="Group_597" data-name="Group 597" transform="translate(82.394 33.941)">
        <path id="Path_1967" data-name="Path 1967" d="M371.142,249.746s-3.033,35.288,36.1,40.242,43.37,8.771,47.6,14.684c0,0,4.22-6.133,0-15.952S435.014,265.9,433,252.018,371.142,249.746,371.142,249.746Z" transform="translate(-371.087 -245.197)" fill="#713c1f"/>
      </g>
      <g id="Group_598" data-name="Group 598" transform="translate(134.317 23.71)">
        <path id="Path_1968" data-name="Path 1968" d="M380.014,243.8c5.8,5.891,6.785,14.435,12.676,20.421s14.984,12.537,21.322,12.537c0,0-17.322,3.195-28.936-15.094S380.014,243.8,380.014,243.8Z" transform="translate(-378.174 -243.801)" fill="#713c1f"/>
      </g>
      <g id="Group_599" data-name="Group 599" transform="translate(136.158 23.711)">
        <path id="Path_1969" data-name="Path 1969" d="M378.425,243.8c0,2.3,10.881,21.359,24.407,20.311,0,0-10.353,3.356-21.762-4.543Z" transform="translate(-378.425 -243.801)" fill="#713c1f"/>
      </g>
      <g id="Group_600" data-name="Group 600" transform="translate(137.1 38.49)">
        <path id="Path_1970" data-name="Path 1970" d="M378.7,245.818c6.236,9.027,10.178,6.771,18.619,14.655s14.083,12.053,21.124,10.537c0,0-8.587,4.338-17.388,0s-13.094-11.225-18.377-11.628S378.7,245.818,378.7,245.818Z" transform="translate(-378.553 -245.818)" fill="#713c1f"/>
      </g>
      <g id="Group_601" data-name="Group 601" transform="translate(132.889 15.387)">
        <path id="Path_1971" data-name="Path 1971" d="M379.409,242.665c6.338,3.9,6.865,8.148,10.91,14.325s6.895,9.614,11.489,9.731a13.346,13.346,0,0,1-10.771-2.63c-4.806-4.03-8.419-3.393-11.628-4.448S379.409,242.665,379.409,242.665Z" transform="translate(-377.979 -242.665)" fill="#713c1f"/>
      </g>
      <g id="Group_602" data-name="Group 602" transform="translate(126.281 72.895)">
        <path id="Path_1972" data-name="Path 1972" d="M377.077,255.244c7.335,2.271,19.586,3.458,24.444,13.1,0,0,.212-12.427-7.6-16.589S377.077,255.244,377.077,255.244Z" transform="translate(-377.077 -250.513)" fill="#713c1f"/>
      </g>
      <path id="Path_8145" data-name="Path 8145" d="M3135.083-1744.193c0-7.855,0-28.283-1.561-33.522s-5.239-17.813-5.239-17.813l-36.094-6.8v-19.058l26.357-33.588c6.587,3.406,31.207,12.317,32.255,19.644s3.143,59.189,4.719,64.428c1.561,5.239,7.854,18.333,7.334,33.515s-1.729,27.309-1.729,27.309l-17.659,4.118S3135.083-1736.331,3135.083-1744.193Zm-111.455,38.234s-1.575-16.238-2.1-31.427,5.766-28.276,7.334-33.515,3.664-57.094,4.719-64.428,25.661-16.238,32.254-19.644l26.356,33.588v19.058l-36.094,6.8s-3.664,12.574-5.239,17.813-1.569,25.667-1.569,33.522-8.382,38.234-8.382,38.234Z" transform="translate(-2978.694 1945.75)" fill="#4c86d9" stroke="rgba(0,0,0,0)" stroke-width="1"/>
      <g id="Group_604" data-name="Group 604" transform="translate(99.189 487.446)">
        <path id="Path_1974" data-name="Path 1974" d="M385.479,319.612c-7.261,10.229-14.149,27.235-11.533,33.8s12.229,7.76,24.766-4.47,8.17-14.508,13.871-18.509,4.132-15.783-7-23.374Z" transform="translate(-373.38 -307.06)" fill="#11101c"/>
      </g>
      <g id="Group_606" data-name="Group 606" transform="translate(84.127 352.046)">
        <path id="Path_1976" data-name="Path 1976" d="M371.324,288.581c3.143,9.43,6.287,14.669,6.287,23.052s-2.1,21.469,0,30.9,8.9,32.995,13.614,46.616,10.478,26.188,9.95,34.043-7.723,28.129-4.763,33,21.726,6.807,22.143-9.43-3.759-40.329-4.286-55.519-1.436-43.473-2.55-56.567-3.209-46.1-3.209-46.1Z" transform="translate(-371.324 -288.581)" fill="#f09c56"/>
      </g>
      <g id="Group_607" data-name="Group 607" transform="translate(111.286 506.014)">
        <path id="Path_1977" data-name="Path 1977" d="M400.356,309.594h-19.08s-19.117,45.591,9.54,46.638C419.481,355.185,400.356,309.594,400.356,309.594Z" transform="translate(-375.031 -309.594)" fill="#25273b"/>
      </g>
      <g id="Group_608" data-name="Group 608" transform="translate(108.422 352.046)">
        <path id="Path_1978" data-name="Path 1978" d="M377.58,291.512c1.576,8.6,1.576,18.018,0,24.832s-4.294,23.052-2.147,46.609,7.386,43.48,7.906,55.526-2.293,40.762,0,47.664c3.143,9.43,15.71,6.624,18.333,2.1,5.166-8.9-2.748-40.593-1.971-47.664s7.862-54.214,7.078-78.563-1.451-44,.059-53.43Z" transform="translate(-374.64 -288.581)" fill="#fdb171"/>
      </g>
      <path id="Path_8144" data-name="Path 8144" d="M3053.415-1845.807l9.389-9.167,17.673,10.018,4.859,14.375H3076.6l4.973,8.673-28.157,18.854Zm-28.157,23.9,4.973-8.673h-8.736l4.858-14.375,17.674-10.018,9.388,9.167v42.754Z" transform="translate(-2939.212 1935.685)" fill="#b4d1d7" stroke="rgba(0,0,0,0)" stroke-width="1"/>
      <path id="Path_8146" data-name="Path 8146" d="M3034.579-1636.556s-8.543-51.855-12.214-92.184,5.239-52.9,8.206-60.758,9.086-23.044,4.008-34.042-4.88-18.34-8.023-31.433l39.238,6.294,39.23-6.294c-3.136,13.093-2.953,20.428-8.023,31.433s1.049,26.188,4.016,34.042,11.87,20.429,8.2,60.758S3097-1636.556,3097-1636.556s-15.973,4.184-31.207,4.184S3034.579-1636.556,3034.579-1636.556Z" transform="translate(-2952.299 1992.144)" fill="#4c86d9" stroke="rgba(0,0,0,0)" stroke-width="1"/>
      <g id="Group_626" data-name="Group 626" transform="translate(82.283 10.487)">
        <g id="Group_625" data-name="Group 625">
          <g id="Group_616" data-name="Group 616" transform="translate(19.949 58.367)">
            <path id="Path_8147" data-name="Path 8147" d="M2919.262-1906.792a27.52,27.52,0,0,0,1.07-17.036l10.947,9.775,10.975-9.775a27.449,27.449,0,0,0,1.056,17.036l-12.031,9.371Z" transform="translate(-2919.261 1923.829)" fill="#fdb171" stroke="rgba(0,0,0,0)" stroke-width="1"/>
          </g>
          <g id="Group_620" data-name="Group 620" transform="translate(4.855 5.655)">
            <g id="Group_619" data-name="Group 619">
              <path id="Path_1985" data-name="Path 1985" d="M420.534,278.269s3.341-14.215-.535-22.114c-4.184-8.514-10.463-13.387-21.9-13.387-11.489,0-17.732,4.873-21.9,13.387-3.891,7.9-.549,22.114-.549,22.114-5.217-1.041-4.242,4.653-2.616,7.232a15.1,15.1,0,0,1,2.2,4.711c1.158,3.392,3.869,1.063,3.869,1.063,1.561,4.33,2.66,5.378,8.9,11.1,5.444,5.026,7.349,4.96,10.1,4.96s4.579.066,10.06-4.96c6.272-5.7,7.349-6.77,8.925-11.1,0,0,2.7,2.33,3.869-1.063a15.546,15.546,0,0,1,2.176-4.711C424.777,282.922,425.751,277.228,420.534,278.269Z" transform="translate(-371.735 -242.768)" fill="#fdb171"/>
            </g>
          </g>
          <g id="Group_622" data-name="Group 622">
            <g id="Group_621" data-name="Group 621">
              <path id="Path_1986" data-name="Path 1986" d="M408.775,262.9s0,7.452-16.164,12.669c0,0,2.594-1.9,2.938-3.634,0,0-26.151,14.186-.864,37.2,0,0-11.636-.872-19.564-15.871-5.136-9.686-7.093-32.57,4.616-43.949,13.2-12.859,29.038-4.858,29.038-4.858Z" transform="translate(-371.072 -241.996)" fill="#713c1f"/>
            </g>
          </g>
          <g id="Group_624" data-name="Group 624" transform="translate(37.703 1.51)">
            <g id="Group_623" data-name="Group 623">
              <path id="Path_1987" data-name="Path 1987" d="M376.218,261.6s17.652,19.578,8.485,39.772c0,0,19.168-8.331,15.834-30.4-3.085-20.421-10.075-32.321-24.319-27.814Z" transform="translate(-376.218 -242.202)" fill="#713c1f"/>
            </g>
          </g>
        </g>
      </g>
      <path id="Path_8143" data-name="Path 8143" d="M3040.274-1850.988l11.965-3.986s10.719,6.17,5.253,15.46c-5.847,9.943-17.219,22.964-17.219,22.964Zm-17.227,11.474c-5.467-9.291,5.254-15.46,5.254-15.46l11.973,3.986v34.438S3028.9-1829.57,3023.047-1839.514Z" transform="translate(-2926.068 1940.901)" fill="#fdb171" stroke="rgba(0,0,0,0)" stroke-width="1"/>
      <g id="Group_630" data-name="Group 630" transform="translate(164.771 235.73)">
        <path id="Path_1991" data-name="Path 1991" d="M382.33,276.84c2.2,11,7.437,28.811,7.957,34.57s0,17.813,5.759,24.092,12.574,8.382,12.574-.52a68.427,68.427,0,0,0-4.191-24.187c-2.623-6.719-4.44-38.073-4.44-38.073Z" transform="translate(-382.33 -272.722)" fill="#b4d1d7"/>
      </g>
      <g id="Group_632" data-name="Group 632" transform="translate(24.063 276.229)">
        <g id="Group_631" data-name="Group 631">
          <path id="Path_1992" data-name="Path 1992" d="M393.28,307.755h-.1l-27.008-.843a3.137,3.137,0,0,1-3.041-3.239l.7-22.385a3.123,3.123,0,0,1,.982-2.191,3.714,3.714,0,0,1,2.249-.85l27.023.843a3.15,3.15,0,0,1,3.041,3.246l-.7,22.377a3.119,3.119,0,0,1-.989,2.191A3.166,3.166,0,0,1,393.28,307.755Zm-23.77-7.034,20.729.652.5-16.091-20.729-.652Z" transform="translate(-363.127 -278.248)" fill="#1b1c2c"/>
        </g>
      </g>
      <g id="Group_633" data-name="Group 633" transform="translate(30.372 239.845)">
        <path id="Path_1993" data-name="Path 1993" d="M378.549,273.284c-.527,13.094,1.041,15.189-5.239,23.052s-11.526,18.853-8.383,22.517,18.333,3.671,18.333,0,.52-7.979,5.239-13.673,7.327-19.842,7.327-31.9Z" transform="translate(-363.988 -273.284)" fill="#b4d1d7"/>
      </g>
      <g id="Group_634" data-name="Group 634" transform="translate(0 289.912)">
        <path id="Path_1994" data-name="Path 1994" d="M421.687,354.082l-48.851-1.524c-8.207-.249-14.266-7.1-12.764-14.42l9.885-48.177c1.2-5.869,6.939-10.046,13.519-9.84l32.108,1c6.587.205,12.053,4.733,12.881,10.661l6.858,48.7C436.371,347.883,429.894,354.338,421.687,354.082Z" transform="translate(-359.843 -280.113)" fill="#4c86d9"/>
      </g>
      <g id="Group_635" data-name="Group 635" transform="translate(0 345.901)">
        <path id="Path_1995" data-name="Path 1995" d="M435.038,290.076c-1.744,4.968-6.932,8.595-13.123,8.4l-48.851-1.524c-6.184-.2-11.145-4.14-12.566-9.2l-.425,2.044c-1.5,7.32,4.558,14.171,12.764,14.42l48.851,1.524c8.207.257,14.684-6.2,13.636-13.592Z" transform="translate(-359.843 -287.753)" fill="#3456bc"/>
      </g>
      <g id="Group_636" data-name="Group 636" transform="translate(69.195 180.555)">
        <path id="Path_1996" data-name="Path 1996" d="M445.139,440.241s8.59-51.855,12.271-92.184-5.263-52.9-8.237-60.758c-1.988-5.246-5.322-13.753-5.845-22.106h-.037c-33.47,9.943-59,0-59,0l-.044.036c-.53,8.346-3.85,16.831-5.837,22.07-2.981,7.855-11.925,20.428-8.244,60.758s12.271,92.184,12.271,92.184,16.047,4.184,31.358,4.184S445.139,440.241,445.139,440.241Z" transform="translate(-369.286 -265.192)" fill="#25273b"/>
      </g>
      <g id="Group_637" data-name="Group 637" transform="translate(69.195 180.555)">
        <path id="Path_1997" data-name="Path 1997" d="M444.792,440.241s.506-3.078,1.311-8.236c-32.079,5.4-50.588-1.5-50.588-1.5s-9.122-64.634-13.145-92.133,7.173-49.5,13.145-70.276l-.007-.015a67.56,67.56,0,0,1-11.291-2.887l-.044.036c-.527,8.346-3.832,16.831-5.81,22.07-2.968,7.855-11.87,20.428-8.206,60.758s12.215,92.184,12.215,92.184,15.974,4.184,31.214,4.184S444.792,440.241,444.792,440.241Z" transform="translate(-369.286 -265.192)" fill="#1b1c2c" stroke="#1b1c2c" stroke-width="1"/>
      </g>
      <g id="Group_641" data-name="Group 641" transform="translate(94.048)">
        <g id="Group_638" data-name="Group 638" transform="translate(7.664)">
          <path id="Path_1998" data-name="Path 1998" d="M393.83,240.565s-1.656,1.715-7.745,1.715c-5.576,0-7.4-1.715-7.4-1.715-2.865,2.11-4.96,8.17-4.96,8.17a21.961,21.961,0,0,0,25.066,0S396.7,242.675,393.83,240.565Z" transform="translate(-373.724 -240.565)" fill="#1b1c2c"/>
        </g>
        <g id="Group_639" data-name="Group 639" transform="translate(0 6.067)">
          <path id="Path_1999" data-name="Path 1999" d="M405.087,241.393s-2.675,2.762-12.493,2.762c-8.976,0-11.922-2.762-11.922-2.762-4.631,3.407-7.994,13.167-7.994,13.167a35.352,35.352,0,0,0,40.4,0S409.71,244.8,405.087,241.393Z" transform="translate(-372.678 -241.393)" fill="#25273b"/>
        </g>
        <g id="Group_640" data-name="Group 640" transform="translate(10.903 12.346)">
          <path id="Path_2000" data-name="Path 2000" d="M392.748,244.492c-.015-.769-1.942-1.341-4.3-1.29a9.469,9.469,0,0,0-3.217.564h0a1.681,1.681,0,0,1-.769.154c-.081-.938-.52-1.685-1.055-1.671s-.945.769-.989,1.722a1.774,1.774,0,0,1-.769-.125v.007a9.6,9.6,0,0,0-3.246-.418c-2.359.051-4.257.718-4.235,1.48.015.674,1.495,1.2,3.451,1.282-.432.418-.681.828-.63,1.158.081.645,1.246.718,2.645.212a1.541,1.541,0,0,0-.308,1.041c.132.513.9.388,1.781-.212a.86.86,0,0,0-.139.55c.081.344.645.242,1.253-.227a2.932,2.932,0,0,0,.462-.44,7.257,7.257,0,0,0,.879.909,7,7,0,0,0,.835-.953,3.473,3.473,0,0,0,.491.425c.63.44,1.194.513,1.26.161a.863.863,0,0,0-.168-.542c.9.564,1.685.652,1.788.132a1.535,1.535,0,0,0-.352-1.026c1.422.44,2.572.315,2.638-.33a1.569,1.569,0,0,0-.689-1.129C391.312,245.753,392.77,245.159,392.748,244.492Z" transform="translate(-374.166 -242.25)" fill="#d7b469"/>
        </g>
      </g>
      <g id="Group_642" data-name="Group 642" transform="translate(123.591 135.675)">
        <path id="Path_2001" data-name="Path 2001" d="M383.283,262.357a3.286,3.286,0,1,1-3.29-3.283A3.291,3.291,0,0,1,383.283,262.357Z" transform="translate(-376.71 -259.074)" fill="#d7b469"/>
      </g>
      <g id="Group_643" data-name="Group 643" transform="translate(123.591 151.178)">
        <path id="Path_2002" data-name="Path 2002" d="M383.283,264.479a3.286,3.286,0,1,1-3.29-3.29A3.288,3.288,0,0,1,383.283,264.479Z" transform="translate(-376.71 -261.189)" fill="#d7b469"/>
      </g>
      <g id="Group_644" data-name="Group 644" transform="translate(123.591 166.682)">
        <path id="Path_2003" data-name="Path 2003" d="M383.283,266.587a3.286,3.286,0,1,1-3.29-3.283A3.283,3.283,0,0,1,383.283,266.587Z" transform="translate(-376.71 -263.304)" fill="#d7b469"/>
      </g>
      <g id="Group_645" data-name="Group 645" transform="translate(98.247 135.675)">
        <path id="Path_2004" data-name="Path 2004" d="M373.251,262.357a3.283,3.283,0,1,0,3.283-3.283A3.285,3.285,0,0,0,373.251,262.357Z" transform="translate(-373.251 -259.074)" fill="#d7b469"/>
      </g>
      <g id="Group_646" data-name="Group 646" transform="translate(98.247 151.178)">
        <path id="Path_2005" data-name="Path 2005" d="M373.251,264.479a3.283,3.283,0,1,0,3.283-3.29A3.282,3.282,0,0,0,373.251,264.479Z" transform="translate(-373.251 -261.189)" fill="#d7b469"/>
      </g>
      <g id="Group_647" data-name="Group 647" transform="translate(98.247 166.682)">
        <path id="Path_2006" data-name="Path 2006" d="M373.251,266.587a3.283,3.283,0,1,0,3.283-3.283A3.277,3.277,0,0,0,373.251,266.587Z" transform="translate(-373.251 -263.304)" fill="#d7b469"/>
      </g>
    </g>
  </g>
</svg>
