<svg xmlns="http://www.w3.org/2000/svg" width="622.795" height="537.58" viewBox="0 0 622.795 537.58">
  <g id="img-avion-section-3" transform="translate(-937.864 -4400)">
    <g id="Group_3495" data-name="Group 3495" transform="translate(937.864 4587.011)">
      <line id="Line_9" data-name="Line 9" x1="189.59" transform="translate(409.696 30.33)" fill="none" stroke="#fff" stroke-miterlimit="10" stroke-width="1"/>
      <line id="Line_10" data-name="Line 10" x1="110.272" transform="translate(489.014 64.324)" fill="none" stroke="#fff" stroke-miterlimit="10" stroke-width="1"/>
      <line id="Line_11" data-name="Line 11" x1="64.949" transform="translate(534.337 102.093)" fill="none" stroke="#fff" stroke-miterlimit="10" stroke-width="1"/>
      <line id="Line_12" data-name="Line 12" x1="189.59" transform="translate(409.696 200.295)" fill="none" stroke="#fff" stroke-miterlimit="10" stroke-width="1"/>
      <g id="Group_3263" data-name="Group 3263" transform="translate(0 0)">
        <path id="Path_7532" data-name="Path 7532" d="M750.672,85.319c0,30.546-3.232,55.308-7.227,55.308s-7.227-24.761-7.227-55.308,3.235-55.3,7.227-55.3S750.672,54.775,750.672,85.319Z" transform="translate(-145.143 -0.791)" fill="#213a50"/>
        <path id="Path_7533" data-name="Path 7533" d="M750.672,125.523c0,30.543-3.232,55.3-7.227,55.3s-7.227-24.761-7.227-55.3,3.235-55.3,7.227-55.3S750.672,94.979,750.672,125.523Z" transform="translate(-145.143 77.786)" fill="#213a50"/>
        <line id="Line_13" data-name="Line 13" y2="32.681" transform="translate(99.148 135.519)" fill="none" stroke="#c6c5c3" stroke-miterlimit="10" stroke-width="4"/>
        <path id="Path_7534" data-name="Path 7534" d="M768.935,77.562c0,7.108-16.273,12.867-31.7,12.867l-1.525.062,1.525-25.8C752.662,64.692,768.935,70.453,768.935,77.562Z" transform="translate(-146.139 66.986)" fill="#707070"/>
        <line id="Line_14" data-name="Line 14" y2="32.681" transform="translate(522.777 203.309)" fill="none" stroke="#c6c5c3" stroke-miterlimit="10" stroke-width="4"/>
        <path id="Path_7535" data-name="Path 7535" d="M1035.845,136.334l-20.956-52.852L896.046,76.846l-48.929,45.088h-170.5L582.35,20.123H536.157l34.561,111.534a40.4,40.4,0,0,0,29.725,27.456l282.2,63.415A282.669,282.669,0,0,0,944.6,229.4H1053.7a77.3,77.3,0,0,0,77.3-77.3Z" transform="translate(-536.157 -20.123)" fill="#fff"/>
        <path id="Path_7537" data-name="Path 7537" d="M568.218,72.014,681.049,97.366,1094.4,90.5a76.471,76.471,0,0,0,4.376-25.5l-2.269-.313H552.645A40.329,40.329,0,0,0,568.218,72.014Z" transform="translate(-503.931 66.976)" fill="#707070" stroke="#707070" stroke-width="1"/>
        <path id="Path_7541" data-name="Path 7541" d="M600,91.451a18.226,18.226,0,1,1-18.226-18.226A18.228,18.228,0,0,1,600,91.451Z" transform="translate(-482.624 83.663)" fill="#213a50"/>
        <path id="Path_7542" data-name="Path 7542" d="M583.967,85.068a8.577,8.577,0,1,1-8.577-8.577A8.576,8.576,0,0,1,583.967,85.068Z" transform="translate(-476.241 90.047)" fill="#fff"/>
        <path id="Path_7543" data-name="Path 7543" d="M743.382,114.4a18.225,18.225,0,1,1-18.223-18.226A18.224,18.224,0,0,1,743.382,114.4Z" transform="translate(-202.381 128.507)" fill="#213a50"/>
        <path id="Path_7544" data-name="Path 7544" d="M727.353,108.012a8.577,8.577,0,1,1-8.577-8.577A8.578,8.578,0,0,1,727.353,108.012Z" transform="translate(-195.998 134.89)" fill="#fff"/>
      </g>
      <path id="Path_7545" data-name="Path 7545" d="M650.252,75.914l31.4-31.94,114.029,1.847,17.435,43.972Z" transform="translate(-312.608 26.179)" fill="#213a50"/>
      <path id="Path_7548" data-name="Path 7548" d="M0-.51,138.31-3.621l-4.375,18.058H0Z" transform="translate(243.526 65.036)" fill="#fff"/>
      <path id="Path_7546" data-name="Path 7546" d="M772.283,58.006H663.707V43.06l102.059-1.491Z" transform="translate(-286.245 21.466)" fill="#fff"/>
      <path id="Path_7547" data-name="Path 7547" d="M618.448,47.461,735.4,39.322l119.04,6.648L752.383,47.461Z" transform="translate(-374.922 17.065)" fill="#fff"/>
    </g>
    <g id="Group_3522" data-name="Group 3522" transform="translate(1321.843 4470.656)" opacity="0.1">
      <path id="Path_7736" data-name="Path 7736" d="M512.943,208.265H345.675A31.271,31.271,0,0,1,384.739,178a53.869,53.869,0,0,1,89.135,0A31.275,31.275,0,0,1,512.943,208.265Z" transform="translate(-345.675 -154.389)" fill="#fff" stroke="rgba(0,0,0,0)" stroke-width="1"/>
    </g>
    <g id="Group_3523" data-name="Group 3523" transform="translate(1040 4400)" opacity="0.1">
      <path id="Path_7736-2" data-name="Path 7736" d="M549.2,219.944H345.675a38.049,38.049,0,0,1,47.532-36.827,65.546,65.546,0,0,1,108.456,0A38.054,38.054,0,0,1,549.2,219.944Z" transform="translate(-345.675 -154.389)" fill="#fff"/>
      <path id="Path_7737" data-name="Path 7737" d="M502.376,261.263a29.3,29.3,0,0,0-36.6-28.355,50.47,50.47,0,0,0-83.5,0,29.3,29.3,0,0,0-36.6,28.355Z" transform="translate(-236.419 276.317)" fill="#fff"/>
    </g>
  </g>
</svg>
