<svg xmlns="http://www.w3.org/2000/svg" width="239.364" height="239.364" viewBox="0 0 239.364 239.364">
  <g id="img-horas-200" transform="translate(-711.136 -4947.5)">
    <path id="Path_7913" data-name="Path 7913" d="M119.682,0A119.682,119.682,0,1,1,0,119.682,119.682,119.682,0,0,1,119.682,0Z" transform="translate(711.136 4947.5)" fill="#2073de"/>
    <path id="Path_7701" data-name="Path 7701" d="M101.682,0A101.682,101.682,0,1,1,0,101.682,101.682,101.682,0,0,1,101.682,0Z" transform="translate(728.5 4965.5)" fill="aqua"/>
    <path id="Path_8161" data-name="Path 8161" d="M72.777,79.044V83H31.411V79.9L56.867,54.62a35.417,35.417,0,0,0,6.751-8.557,16.419,16.419,0,0,0,1.763-7.353,11.128,11.128,0,0,0-3.913-9.03q-3.913-3.268-11.309-3.268a26.4,26.4,0,0,0-9.933,1.72,19.29,19.29,0,0,0-7.353,5.246l-3.1-2.752a22.647,22.647,0,0,1,8.729-6.106,31.627,31.627,0,0,1,12-2.15q8.858,0,14.1,4.3a14.227,14.227,0,0,1,5.246,11.61,19.887,19.887,0,0,1-2.064,8.858q-2.064,4.214-7.74,9.8l-22.188,22.1Zm28.466,4.386a20.932,20.932,0,0,1-12.255-3.741,24.244,24.244,0,0,1-8.342-10.621A40.591,40.591,0,0,1,77.679,52.9a40.591,40.591,0,0,1,2.967-16.168,24.244,24.244,0,0,1,8.342-10.621,21.943,21.943,0,0,1,24.51,0,24.244,24.244,0,0,1,8.342,10.621A40.591,40.591,0,0,1,124.807,52.9a40.591,40.591,0,0,1-2.967,16.168A24.244,24.244,0,0,1,113.5,79.689,20.932,20.932,0,0,1,101.243,83.43Zm0-4.042a16.66,16.66,0,0,0,10.019-3.139,20.191,20.191,0,0,0,6.751-9.116A38.018,38.018,0,0,0,120.421,52.9a38.018,38.018,0,0,0-2.408-14.233,20.191,20.191,0,0,0-6.751-9.116,17.559,17.559,0,0,0-20.038,0,20.191,20.191,0,0,0-6.751,9.116A38.018,38.018,0,0,0,82.065,52.9a38.018,38.018,0,0,0,2.408,14.233,20.191,20.191,0,0,0,6.751,9.116A16.66,16.66,0,0,0,101.243,79.388Zm53.578,4.042a20.932,20.932,0,0,1-12.255-3.741,24.244,24.244,0,0,1-8.342-10.621A40.591,40.591,0,0,1,131.257,52.9a40.591,40.591,0,0,1,2.967-16.168,24.244,24.244,0,0,1,8.342-10.621,21.943,21.943,0,0,1,24.51,0,24.244,24.244,0,0,1,8.342,10.621A40.591,40.591,0,0,1,178.385,52.9a40.591,40.591,0,0,1-2.967,16.168,24.244,24.244,0,0,1-8.342,10.621A20.932,20.932,0,0,1,154.821,83.43Zm0-4.042a16.66,16.66,0,0,0,10.019-3.139,20.191,20.191,0,0,0,6.751-9.116A38.018,38.018,0,0,0,174,52.9a38.018,38.018,0,0,0-2.408-14.233,20.191,20.191,0,0,0-6.751-9.116,17.559,17.559,0,0,0-20.038,0,20.191,20.191,0,0,0-6.751,9.116A38.018,38.018,0,0,0,135.643,52.9a38.018,38.018,0,0,0,2.408,14.233,20.191,20.191,0,0,0,6.751,9.116A16.66,16.66,0,0,0,154.821,79.388Z" transform="translate(728.5 5005)" fill="#012e52"/>
    <path id="Path_8162" data-name="Path 8162" d="M29.064-29.4V0H26.922V-13.986H7.266V0H5.124V-29.4H7.266v13.524H26.922V-29.4ZM44.058.21A17.123,17.123,0,0,1,37.9-.9,11.866,11.866,0,0,1,33.348-3.78l.966-1.6a11.378,11.378,0,0,0,4.179,2.667A15,15,0,0,0,44.016-1.68q4.2,0,6.342-1.6A4.954,4.954,0,0,0,52.5-7.434a4.346,4.346,0,0,0-1.134-3.15,7.5,7.5,0,0,0-2.814-1.806,38.659,38.659,0,0,0-4.536-1.3,44.232,44.232,0,0,1-5.187-1.554,8.281,8.281,0,0,1-3.318-2.331A6.221,6.221,0,0,1,34.146-21.8a7.177,7.177,0,0,1,1.134-3.927,7.7,7.7,0,0,1,3.465-2.835,14.172,14.172,0,0,1,5.817-1.05,16.4,16.4,0,0,1,4.788.714,14.084,14.084,0,0,1,4.074,1.932l-.8,1.722a13.607,13.607,0,0,0-3.885-1.848,14.627,14.627,0,0,0-4.179-.63q-4.074,0-6.174,1.638a5.137,5.137,0,0,0-2.1,4.242,4.346,4.346,0,0,0,1.134,3.15,7.5,7.5,0,0,0,2.814,1.806,42.717,42.717,0,0,0,4.578,1.344,42.909,42.909,0,0,1,5.166,1.554,8.5,8.5,0,0,1,3.3,2.289A5.994,5.994,0,0,1,54.642-7.56a6.98,6.98,0,0,1-1.155,3.906A7.857,7.857,0,0,1,49.938-.84,14.629,14.629,0,0,1,44.058.21Z" transform="translate(797 5138)" fill="#012e52"/>
  </g>
</svg>
