<svg xmlns="http://www.w3.org/2000/svg" width="914.001" height="804.156" viewBox="0 0 914.001 804.156">
  <g id="img-escuela" transform="translate(-5 -1198.844)">
    <path id="Path_8136" data-name="Path 8136" d="M14505,2500h-914V1995.66c22.714-2.615,45.908-4.663,68.939-6.089,27.567-1.705,55.681-2.57,83.559-2.57,26.045,0,52.311.753,78.066,2.239,25.427,1.471,50.932,3.684,75.8,6.578,24.594,2.862,49.211,6.46,73.17,10.7,23.718,4.193,47.318,9.1,70.147,14.6,22.572,5.421,45.028,11.569,66.745,18.274,21.49,6.636,42.669,13.949,62.947,21.736,20.234,7.769,40.008,16.175,58.772,24.983,34.5,15.563,71.46,39.652,109.859,71.6,16.548,13.761,33.489,29.105,50.353,45.605,15.109,14.79,30.257,30.6,45.02,46.981a1025.826,1025.826,0,0,1,67.225,82.594c1.03,1.425,2.14,2.976,3.394,4.74Z" transform="translate(-13586 -497)" fill="#fff" opacity="0.117"/>
    <path id="Path_8151" data-name="Path 8151" d="M74.508,47.872,85.516,5.312V48h1.408V3.2H84.748L73.74,45.7,62.732,3.2H60.556V48h1.28V5.312l11.072,42.56ZM95.18,14.208V36.992c0,7.424,3.264,11.328,9.472,11.328,6.336,0,9.6-3.9,9.6-11.328V14.208c0-7.424-3.264-11.328-9.6-11.328C98.444,2.88,95.18,6.784,95.18,14.208Zm1.408,22.848V14.144c0-6.592,2.752-9.984,8.064-9.984,5.376,0,8.192,3.392,8.192,9.984V37.056c0,6.592-2.816,9.984-8.192,9.984C99.34,47.04,96.588,43.648,96.588,37.056ZM131.4,3.2h-8.9V48h1.408V27.328h5.5c5.824,0,9.792,1.728,9.792,8.32v7.04A10.16,10.16,0,0,0,140.3,48h1.536c-1.024-1.408-1.216-3.584-1.216-5.312v-7.04c0-4.928-2.112-8.192-7.1-8.96,4.928-.9,7.1-3.9,7.1-9.408V13.248C140.62,7.1,138.06,3.2,131.4,3.2ZM129.42,25.984h-5.5V4.544h7.424c5.76,0,7.872,3.392,7.872,8.832v4.1C139.212,24.384,135.628,25.984,129.42,25.984Zm34.3-31.68h-1.6L157.516,0h1.28ZM159.436,2.88c-6.784,0-9.472,5.056-9.472,11.328V36.992c0,6.272,2.688,11.328,9.472,11.328,6.912,0,9.6-5.056,9.6-11.328V14.208C169.036,7.936,166.348,2.88,159.436,2.88Zm0,1.28c6.016,0,8.192,4.48,8.192,9.984V37.056c0,5.5-2.176,9.984-8.192,9.984-5.952,0-8.064-4.48-8.064-9.984V14.144C151.372,8.64,153.484,4.16,159.436,4.16ZM178.636,48V5.248l16,42.752h1.728V3.2H195.02V45.12L179.276,3.2h-1.984V48Zm26.88,0-.7,4.288h.7l1.408-4.352v-5.12h-1.408ZM237.324,3.2h-8.96V48h9.024c6.784,0,9.472-3.968,9.472-10.3V33.728c0-5.184-1.984-8.832-7.3-9.6,5.056-.768,6.4-3.776,6.4-8.768V12.48C245.964,6.464,243.852,3.2,237.324,3.2ZM235.6,23.552h-5.824V4.544h7.552c5.632,0,7.232,2.752,7.232,8v3.008C244.556,22.08,241.8,23.552,235.6,23.552Zm1.792,23.1h-7.616V24.832h6.464c6.144,0,9.216,2.368,9.216,8.832V37.7C245.452,43.328,243.276,46.656,237.388,46.656ZM256.4,36.992V3.2h-1.408V36.928c0,6.144,2.432,11.392,9.28,11.392,6.784,0,9.216-5.248,9.216-11.392V3.2H272.14V36.992c0,5.376-1.92,10.048-7.872,10.048S256.4,42.368,256.4,36.992ZM296.332,24.64H283.148V4.544h15.68V3.2H281.74V48h17.088V46.656h-15.68V25.92h13.184ZM308.364,48V5.248l16,42.752h1.728V3.2h-1.344V45.12L309,3.2H307.02V48Zm25.984-33.792V36.992c0,7.424,3.264,11.328,9.472,11.328,6.336,0,9.6-3.9,9.6-11.328V14.208c0-7.424-3.264-11.328-9.6-11.328C337.612,2.88,334.348,6.784,334.348,14.208Zm1.408,22.848V14.144c0-6.592,2.752-9.984,8.064-9.984,5.376,0,8.192,3.392,8.192,9.984V37.056c0,6.592-2.816,9.984-8.192,9.984C338.508,47.04,335.756,43.648,335.756,37.056Zm35.2-34.176c-6.464.064-9.216,4.544-9.216,11.072,0,12.352,17.152,11.968,17.152,23.3,0,5.44-2.112,9.728-8,9.728s-8-4.288-8-9.728v-2.24h-1.344v2.176c0,6.208,2.56,11.136,9.344,11.136,6.848,0,9.408-4.928,9.408-11.136,0-12.16-17.152-11.84-17.152-23.3,0-5.312,1.984-9.728,7.872-9.728,5.824,0,7.808,4.48,7.808,9.792v.9h1.408v-.832C380.236,7.872,377.74,2.88,370.956,2.88Zm34.368,34.56H421.26L423.884,48h1.408L414.22,3.136h-1.984L401.42,48h1.28Zm.256-1.28L413.2,4.8,421,36.16ZM434.828,3.2H433.42V48h1.408Zm17.216,0h-8.9V48h1.408V27.328h5.5c5.824,0,9.792,1.728,9.792,8.32v7.04A10.16,10.16,0,0,0,460.94,48h1.536c-1.024-1.408-1.216-3.584-1.216-5.312v-7.04c0-4.928-2.112-8.192-7.1-8.96,4.928-.9,7.1-3.9,7.1-9.408V13.248C461.26,7.1,458.7,3.2,452.044,3.2ZM450.06,25.984h-5.5V4.544h7.424c5.76,0,7.872,3.392,7.872,8.832v4.1C459.852,24.384,456.268,25.984,450.06,25.984Zm35.2-1.344H472.076V4.544h15.68V3.2H470.668V48h17.088V46.656h-15.68V25.92H485.26ZM505.228,2.88c-6.464.064-9.216,4.544-9.216,11.072,0,12.352,17.152,11.968,17.152,23.3,0,5.44-2.112,9.728-8,9.728s-8-4.288-8-9.728v-2.24H495.82v2.176c0,6.208,2.56,11.136,9.344,11.136,6.848,0,9.408-4.928,9.408-11.136,0-12.16-17.152-11.84-17.152-23.3,0-5.312,1.984-9.728,7.872-9.728,5.824,0,7.808,4.48,7.808,9.792v.9h1.408v-.832C514.508,7.872,512.012,2.88,505.228,2.88Z" transform="translate(5 1700)" fill="#103c6a"/>
    <path id="Path_8152" data-name="Path 8152" d="M177.868,37.44H193.8L196.428,48h1.408L186.764,3.136H184.78L173.964,48h1.28Zm.256-1.28L185.74,4.8l7.808,31.36ZM214.86,3.2h-8.9V48h1.408V27.328h5.5c5.824,0,9.792,1.728,9.792,8.32v7.04A10.16,10.16,0,0,0,223.756,48h1.536c-1.024-1.408-1.216-3.584-1.216-5.312v-7.04c0-4.928-2.112-8.192-7.1-8.96,4.928-.9,7.1-3.9,7.1-9.408V13.248C224.076,7.1,221.516,3.2,214.86,3.2Zm-1.984,22.784h-5.5V4.544H214.8c5.76,0,7.872,3.392,7.872,8.832v4.1C222.668,24.384,219.084,25.984,212.876,25.984Zm29.888-23.1c-6.784,0-9.344,5.12-9.344,11.328V36.992c0,6.208,2.56,11.328,9.344,11.328,6.848,0,9.408-5.12,9.408-11.328V25.6h-8.384v1.28h6.976V37.056c0,5.44-2.048,9.92-7.936,9.92-5.952,0-8-4.48-8-9.92V14.144c0-5.44,2.048-9.984,8-9.984,5.888,0,7.936,4.544,7.936,9.984v3.008h1.408V14.208C252.172,8,249.612,2.88,242.764,2.88ZM275.02,24.64H261.836V4.544h15.68V3.2H260.428V48h17.088V46.656h-15.68V25.92H275.02ZM287.052,48V5.248l16,42.752h1.728V3.2h-1.344V45.12L287.692,3.2h-1.984V48Zm34.688,0h1.408V4.544h9.792V3.2H311.948V4.544h9.792Zm19.9-44.8h-1.408V48h1.408ZM351.308,48V5.248l16,42.752h1.728V3.2h-1.344V45.12L351.948,3.2h-1.984V48Zm29.76-10.56H397L399.628,48h1.408L389.964,3.136H387.98L377.164,48h1.28Zm.256-1.28L388.94,4.8l7.808,31.36Z" transform="translate(5 1777)" fill="#103c6a"/>
    <g id="Group_4117" data-name="Group 4117" transform="translate(38 1198.844)">
      <g id="Group_3247" data-name="Group 3247" transform="translate(0)">
        <g id="Group_3195" data-name="Group 3195">
          <g id="Group_3190" data-name="Group 3190" transform="translate(5.071 85.189)">
            <g id="Group_3183" data-name="Group 3183" transform="translate(0)">
              <path id="Path_7403" data-name="Path 7403" d="M698.1,190.477,458.982,322.738V510.581L698.1,380.977Z" transform="translate(-333.517 -190.477)" fill="#3f9dd7"/>
              <path id="Path_7404" data-name="Path 7404" d="M564.525,218.918l125.465,71.4V478.166L564.525,410.791Z" transform="translate(-564.525 -158.061)" fill="#3394c4"/>
            </g>
            <g id="Group_3186" data-name="Group 3186" transform="translate(0 23.694)">
              <g id="Group_3184" data-name="Group 3184" transform="translate(125.465)">
                <path id="Path_7405" data-name="Path 7405" d="M698.1,221.145,458.982,350.379v17.833L698.1,237.619Z" transform="translate(-458.982 -179.217)" fill="#7ba2b7"/>
                <path id="Path_7406" data-name="Path 7406" d="M698.1,201.55,458.982,330.79v17.833L698.1,218.022Z" transform="translate(-458.982 -201.55)" fill="#7ba2b7"/>
              </g>
              <g id="Group_3185" data-name="Group 3185" transform="translate(0 62.247)">
                <path id="Path_7407" data-name="Path 7407" d="M564.525,250.229l125.465,67v17.833L564.525,266.706Z" transform="translate(-564.525 -208.315)" fill="#7ba2b7"/>
                <path id="Path_7408" data-name="Path 7408" d="M564.525,230.641l125.465,66.993v17.833L564.525,247.1Z" transform="translate(-564.525 -230.641)" fill="#7ba2b7"/>
              </g>
            </g>
            <g id="Group_3187" data-name="Group 3187" transform="translate(167.049 17.915)">
              <path id="Path_7409" data-name="Path 7409" d="M553.778,237.907l-13.62,7.606V359.659l13.62-7.094Z" transform="translate(-540.158 -154.334)" fill="#f9f9f9"/>
              <path id="Path_7410" data-name="Path 7410" d="M531.539,224.814l-13.614,7.6V347.529l13.614-7.312Z" transform="translate(-467.549 -169.256)" fill="#f9f9f9"/>
              <path id="Path_7411" data-name="Path 7411" d="M509.262,211.941l-13.62,7.6V333.7l13.62-7.094Z" transform="translate(-394.784 -183.929)" fill="#f9f9f9"/>
              <path id="Path_7412" data-name="Path 7412" d="M487.026,198.85l-13.613,7.6V321.565l13.613-7.307Z" transform="translate(-322.188 -198.85)" fill="#f9f9f9"/>
            </g>
            <g id="Group_3188" data-name="Group 3188" transform="translate(20.231 72.653)">
              <path id="Path_7413" data-name="Path 7413" d="M582.734,237.521l13.62,7.6V359.274l-13.62-7.092Z" transform="translate(-532.378 -209.512)" fill="#c6e5fa"/>
              <path id="Path_7414" data-name="Path 7414" d="M604.967,224.431l13.607,7.6V347.145l-13.607-7.314Z" transform="translate(-604.967 -224.431)" fill="#c6e5fa"/>
            </g>
            <g id="Group_3189" data-name="Group 3189" transform="translate(0 109.608)">
              <path id="Path_7415" data-name="Path 7415" d="M698.1,241.7,458.982,373.973V452.2L698.1,322.594Z" transform="translate(-333.517 -241.702)" fill="#f9f9f9"/>
              <path id="Path_7416" data-name="Path 7416" d="M564.525,270.144l125.465,71.412v78.225L564.525,352.407Z" transform="translate(-564.525 -209.285)" fill="#c6e5fa"/>
            </g>
          </g>
          <g id="Group_3193" data-name="Group 3193" transform="translate(0)">
            <g id="Group_3191" data-name="Group 3191">
              <path id="Path_7417" data-name="Path 7417" d="M456.746,285.083l130.536,72.191L831.466,222.845,700.932,150.664Z" transform="translate(-456.746 -150.664)" fill="#ccc"/>
              <path id="Path_7418" data-name="Path 7418" d="M564.524,213.484v8.7L695.06,296.516V285.675Z" transform="translate(-564.524 -79.066)" fill="#c6e5fa"/>
              <path id="Path_7419" data-name="Path 7419" d="M456.746,318.826,700.93,184.4v10.177L456.746,329.667Z" transform="translate(-326.21 -112.216)" fill="#f9f9f9"/>
            </g>
            <g id="Group_3192" data-name="Group 3192" transform="translate(31.214 15.828)">
              <path id="Path_7420" data-name="Path 7420" d="M468.235,276.657l101.909,56.355,215.567-118.6L683.8,158.061Z" transform="translate(-468.235 -158.061)" fill="#b9c1b9"/>
              <path id="Path_7421" data-name="Path 7421" d="M683.8,158.061l-215.563,118.6,6.186,3.416h0L683.8,163.979l95.724,53.862,6.188-3.427Z" transform="translate(-468.235 -158.061)" fill="#aab2aa"/>
            </g>
          </g>
          <g id="Group_3194" data-name="Group 3194">
            <path id="Path_7422" data-name="Path 7422" d="M456.746,247.788l163.093-89.727,127.943,56.353L503.6,348.843Z" transform="translate(-373.062 -142.233)" fill="#2b5781"/>
            <path id="Path_7423" data-name="Path 7423" d="M564.524,228.859,648.208,200,695.06,301.05Z" transform="translate(-564.524 -94.44)" fill="#2b5781"/>
            <path id="Path_7424" data-name="Path 7424" d="M456.746,150.664l2.591,15.828L587.28,222.845Z" transform="translate(-212.56 -150.664)" fill="#2b5781"/>
            <path id="Path_7425" data-name="Path 7425" d="M513.218,285.083,757.4,150.664l2.591,15.828L596.9,256.219Z" transform="translate(-513.218 -150.664)" fill="#2b5781"/>
          </g>
        </g>
      </g>
      <g id="Group_3558" data-name="Group 3558" transform="translate(207.684 108.372)">
        <g id="Group_3195-2" data-name="Group 3195">
          <g id="Group_3190-2" data-name="Group 3190" transform="translate(4.497 75.006)">
            <g id="Group_3183-2" data-name="Group 3183" transform="translate(0)">
              <path id="Path_7403-2" data-name="Path 7403" d="M671.04,190.477,458.982,306.928V472.317L671.04,358.205Z" transform="translate(-347.715 -190.477)" fill="#3f9dd7"/>
              <path id="Path_7404-2" data-name="Path 7404" d="M564.524,218.918l111.267,62.869V447.176L564.524,387.856Z" transform="translate(-564.524 -165.336)" fill="#3394c4"/>
            </g>
            <g id="Group_3186-2" data-name="Group 3186" transform="translate(0 20.861)">
              <g id="Group_3184-2" data-name="Group 3184" transform="translate(111.267)">
                <path id="Path_7405-2" data-name="Path 7405" d="M671.04,221.145,458.982,334.93v15.7L671.04,235.65Z" transform="translate(-458.982 -184.229)" fill="#7ba2b7"/>
                <path id="Path_7406-2" data-name="Path 7406" d="M671.04,201.55,458.982,315.341v15.7L671.04,216.053Z" transform="translate(-458.982 -201.55)" fill="#7ba2b7"/>
              </g>
              <g id="Group_3185-2" data-name="Group 3185" transform="translate(0 54.806)">
                <path id="Path_7407-2" data-name="Path 7407" d="M564.524,250.229l111.267,58.991v15.7L564.524,264.736Z" transform="translate(-564.524 -213.326)" fill="#7ba2b7"/>
                <path id="Path_7408-2" data-name="Path 7408" d="M564.524,230.641l111.267,58.985v15.7l-111.267-60.19Z" transform="translate(-564.524 -230.641)" fill="#7ba2b7"/>
              </g>
            </g>
            <g id="Group_3187-2" data-name="Group 3187" transform="translate(148.145 15.773)">
              <path id="Path_7409-2" data-name="Path 7409" d="M552.237,237.907l-12.079,6.7v100.5l12.079-6.246Z" transform="translate(-540.158 -164.324)" fill="#f9f9f9"/>
              <path id="Path_7410-2" data-name="Path 7410" d="M530,224.814l-12.073,6.693V332.86L530,326.423Z" transform="translate(-473.25 -175.898)" fill="#f9f9f9"/>
              <path id="Path_7411-2" data-name="Path 7411" d="M507.72,211.941l-12.079,6.694V319.142L507.72,312.9Z" transform="translate(-406.197 -187.277)" fill="#f9f9f9"/>
              <path id="Path_7412-2" data-name="Path 7412" d="M485.486,198.85l-12.073,6.689V306.9l12.073-6.434Z" transform="translate(-339.301 -198.85)" fill="#f9f9f9"/>
            </g>
            <g id="Group_3188-2" data-name="Group 3188" transform="translate(17.942 63.968)">
              <path id="Path_7413-2" data-name="Path 7413" d="M582.734,237.521l12.079,6.69V344.72l-12.079-6.244Z" transform="translate(-538.076 -212.86)" fill="#c6e5fa"/>
              <path id="Path_7414-2" data-name="Path 7414" d="M604.967,224.431l12.067,6.688V332.477l-12.067-6.439Z" transform="translate(-604.967 -224.431)" fill="#c6e5fa"/>
            </g>
            <g id="Group_3189-2" data-name="Group 3189" transform="translate(0 96.506)">
              <path id="Path_7415-2" data-name="Path 7415" d="M671.04,241.7,458.982,358.162v68.875L671.04,312.924Z" transform="translate(-347.715 -241.702)" fill="#f9f9f9"/>
              <path id="Path_7416-2" data-name="Path 7416" d="M564.524,270.144,675.791,333.02v68.875L564.524,342.574Z" transform="translate(-564.524 -216.56)" fill="#c6e5fa"/>
            </g>
          </g>
          <g id="Group_3193-2" data-name="Group 3193" transform="translate(0)">
            <g id="Group_3191-2" data-name="Group 3191">
              <path id="Path_7417-2" data-name="Path 7417" d="M456.746,269.015,572.51,332.577,789.061,214.217,673.3,150.664Z" transform="translate(-456.746 -150.664)" fill="#ccc"/>
              <path id="Path_7418-2" data-name="Path 7418" d="M564.524,213.484v7.663l115.764,65.444v-9.545Z" transform="translate(-564.524 -95.133)" fill="#c6e5fa"/>
              <path id="Path_7419-2" data-name="Path 7419" d="M456.746,302.757,673.3,184.4v8.961L456.746,312.3Z" transform="translate(-340.982 -120.845)" fill="#f9f9f9"/>
            </g>
            <g id="Group_3192-2" data-name="Group 3192" transform="translate(27.682 13.936)">
              <path id="Path_7420-2" data-name="Path 7420" d="M468.235,262.48,558.612,312.1,749.784,207.678,659.4,158.061Z" transform="translate(-468.235 -158.061)" fill="#b9c1b9"/>
              <path id="Path_7421-2" data-name="Path 7421" d="M659.4,158.061,468.235,262.48l5.486,3.008h0L659.4,163.272,744.3,210.7l5.488-3.017Z" transform="translate(-468.235 -158.061)" fill="#aab2aa"/>
            </g>
          </g>
          <g id="Group_3194-2" data-name="Group 3194">
            <path id="Path_7422-2" data-name="Path 7422" d="M456.746,237.063l144.637-79,113.465,49.617L498.3,326.038Z" transform="translate(-382.532 -144.125)" fill="#2b5781"/>
            <path id="Path_7423-2" data-name="Path 7423" d="M564.524,225.408,638.738,200l41.55,88.975Z" transform="translate(-564.524 -107.057)" fill="#2b5781"/>
            <path id="Path_7424-2" data-name="Path 7424" d="M456.746,150.664l2.3,13.936,113.465,49.617Z" transform="translate(-240.192 -150.664)" fill="#2b5781"/>
            <path id="Path_7425-2" data-name="Path 7425" d="M513.218,269.015,729.771,150.664l2.3,13.936-144.637,79Z" transform="translate(-513.218 -150.664)" fill="#2b5781"/>
          </g>
        </g>
      </g>
      <g id="flag" transform="translate(40.933 15.481)">
        <g id="Group_3250" data-name="Group 3250" transform="translate(41.982 51.354)">
          <path id="Path_7499" data-name="Path 7499" d="M207.755,54.01a1.509,1.509,0,0,1,.213,1.321.947.947,0,0,1-.837.757H178.209V33.133h28.923a.947.947,0,0,1,.837.757,1.509,1.509,0,0,1-.213,1.321l-7.375,7.648a3.008,3.008,0,0,0,0,3.5Z" transform="translate(-175.497 -29.508)" fill="#3f9dd7"/>
          <path id="Path_7501" data-name="Path 7501" d="M153.965,7.533h0a1.381,1.381,0,0,1,1.356,1.4V46.161h-2.711V8.938A1.381,1.381,0,0,1,153.965,7.533Z" transform="translate(-152.609 -7.533)" fill="#346a9e"/>
        </g>
        <g id="Group_3251" data-name="Group 3251">
          <path id="Path_7506" data-name="Path 7506" d="M163.408,15.957c.065-.05.126-.1.185-.16a4.9,4.9,0,0,0-3.372-8.45H86.757a7.347,7.347,0,1,0-14.694,0v115.1h-9.8A7.355,7.355,0,0,0,54.92,129.8v2.449h-4.9a7.355,7.355,0,0,0-7.347,7.347v4.9a2.449,2.449,0,0,0,2.449,2.449H113.7a2.449,2.449,0,0,0,2.449-2.449v-4.9a7.355,7.355,0,0,0-7.347-7.347h-4.9V129.8a7.355,7.355,0,0,0-7.347-7.347h-9.8V58.775h73.465a4.9,4.9,0,0,0,3.372-8.45c-.06-.056-.121-.11-.185-.16l-19.871-15.4a2.449,2.449,0,0,1,0-3.408ZM111.247,139.592v2.449H47.573v-2.449a2.452,2.452,0,0,1,2.449-2.449H108.8A2.452,2.452,0,0,1,111.247,139.592ZM99,129.8v2.449H59.818V129.8a2.452,2.452,0,0,1,2.449-2.449H96.553A2.452,2.452,0,0,1,99,129.8Zm-22.041-7.347V7.347a2.449,2.449,0,0,1,4.9,0v115.1Zm63.275-84.061c.06.056.122.11.187.16l19.823,15.328H86.757V12.245H160.2L140.423,27.574c-.065.05-.127.1-.187.16a7.349,7.349,0,0,0,0,10.654Z" transform="translate(-42.675)" fill="none"/>
        </g>
        <g id="Group_3252" data-name="Group 3252" transform="translate(238.25 146.864)">
          <path id="Path_7499-2" data-name="Path 7499" d="M207.755,54.01a1.509,1.509,0,0,1,.213,1.321.947.947,0,0,1-.837.757H178.209V33.133h28.923a.947.947,0,0,1,.837.757,1.509,1.509,0,0,1-.213,1.321l-7.375,7.648a3.008,3.008,0,0,0,0,3.5Z" transform="translate(-175.497 -29.508)" fill="#7ba2b7"/>
          <path id="Path_7501-2" data-name="Path 7501" d="M153.965,7.533h0a1.381,1.381,0,0,1,1.356,1.4V46.161h-2.711V8.938A1.381,1.381,0,0,1,153.965,7.533Z" transform="translate(-152.609 -7.533)" fill="#346a9e"/>
        </g>
      </g>
    </g>
  </g>
</svg>
