<svg xmlns="http://www.w3.org/2000/svg" width="589.54" height="516.311" viewBox="0 0 589.54 516.311">
  <g id="img-licencia-comercial-mobile" transform="translate(-483 -5880.58)">
    <g id="Group_4118" data-name="Group 4118" transform="translate(159 2129)">
      <g id="Group_4104" data-name="Group 4104" transform="translate(-741 -5430)">
        <g id="Group_4101" data-name="Group 4101" transform="translate(299 38.246)">
          <g id="Group_4097" data-name="Group 4097" transform="translate(899 9336.5)">
            <path id="Path_7913" data-name="Path 7913" d="M161.573,0A161.573,161.573,0,1,1,0,161.573,161.573,161.573,0,0,1,161.573,0Z" transform="translate(0 0)" fill="#03254b"/>
            <path id="Path_7701" data-name="Path 7701" d="M135.551,0A135.551,135.551,0,1,1,0,135.551,135.551,135.551,0,0,1,135.551,0Z" transform="translate(25.65 25.841)" fill="#fff"/>
          </g>
          <g id="Group_4098" data-name="Group 4098" transform="translate(964.437 9442.942) rotate(-1)">
            <g id="Group_3203" data-name="Group 3203" transform="translate(40.941 26.699)">
              <path id="Path_7447" data-name="Path 7447" d="M0,35c0,35.623,109.888,35.623,109.888,0V0C109.888,23.793,0,23.793,0,0Z" transform="translate(0 21.46)" fill="#31515e"/>
              <path id="Path_7448" data-name="Path 7448" d="M0,20.953C0,32.5,24.6,41.88,54.935,41.88c30.36,0,54.953-9.378,54.953-20.928C109.888,9.381,85.295,0,54.935,0,24.6,0,0,9.381,0,20.953Z" transform="translate(0 0)" fill="#29464f"/>
              <g id="Group_3202" data-name="Group 3202" transform="translate(13.871 5.294)">
                <path id="Path_7449" data-name="Path 7449" d="M0,15.659C0,24.294,18.387,31.3,41.063,31.3c22.695,0,41.081-7.009,41.081-15.644C82.145,7,63.758,0,41.063,0,18.387,0,0,7,0,15.659Z" transform="translate(0 0)" fill="#3f9dd7"/>
                <path id="Path_7450" data-name="Path 7450" d="M65.7,18.771C65.7,10.12,47.314,3.12,24.629,3.12A91.422,91.422,0,0,0,0,6.26C7.492,2.46,19.4,0,32.809,0,55.5,0,73.891,7,73.891,15.659c0,5.112-6.475,9.637-16.449,12.494C62.607,25.532,65.7,22.3,65.7,18.771Z" transform="translate(8.254 0)" fill="#3394c4"/>
              </g>
            </g>
            <g id="Group_3204" data-name="Group 3204" transform="translate(0 0)">
              <path id="Path_7451" data-name="Path 7451" d="M0,0,94.831,50.255v5.386L0,4.555Z" transform="translate(0 46.813)" fill="#2a4249"/>
              <path id="Path_7452" data-name="Path 7452" d="M94.822,0,0,51.249v5.386L94.822,5.548Z" transform="translate(94.831 45.819)" fill="#2d4851"/>
              <path id="Path_7453" data-name="Path 7453" d="M189.653,45.819,94.831,97.068,0,46.813,94.823,0Z" fill="#31515e"/>
            </g>
            <g id="Group_3205" data-name="Group 3205" transform="translate(38.387 40.204)">
              <path id="Path_7454" data-name="Path 7454" d="M53.133,0,0,26.228V58.362" transform="translate(4.992 3.413)" fill="none" stroke="#ffc000" stroke-linecap="round" stroke-linejoin="round" stroke-width="1.96"/>
              <path id="Path_7455" data-name="Path 7455" d="M0,3.414C0,5.3,4.006,6.825,8.955,6.825S17.911,5.3,17.911,3.414,13.9,0,8.955,0,0,1.527,0,3.414Z" transform="translate(48.357 0)" fill="#ffc000"/>
              <path id="Path_7456" data-name="Path 7456" d="M0,12.218V4.566A4.864,4.864,0,0,1,5.089,0,4.862,4.862,0,0,1,10.18,4.566v7.807C8.606,13.566,4.731,15.65,0,12.218Z" transform="translate(0 58.593)" fill="#ffc000"/>
            </g>
          </g>
        </g>
      </g>
    </g>
    <path id="Path_8170" data-name="Path 8170" d="M273.4,15.97V41.03c0,7.14,3.29,12.39,10.71,12.39,7.56,0,10.85-5.25,10.85-12.39V15.97c0-7.14-3.29-12.39-10.85-12.39C276.7,3.58,273.4,8.83,273.4,15.97Zm3.22,25.27V15.76c0-5.32,2.1-9.24,7.49-9.24,5.46,0,7.63,3.92,7.63,9.24V41.24c0,5.32-2.17,9.24-7.63,9.24C278.725,50.48,276.625,46.56,276.625,41.24ZM315.055,4h-10.29V53h10.5c7.49,0,10.71-4.27,10.71-11.34V37.39c0-5.53-2.03-9.45-7.35-10.5,4.97-1.05,6.44-4.34,6.44-9.66v-2.8C325.065,7.64,322.4,4,315.055,4Zm-1.61,21.63h-5.46V6.94h7c5.25,0,6.86,2.66,6.86,7.77v3.15C321.845,24.09,319.185,25.63,313.445,25.63Zm1.82,24.43h-7.28V28.57h6.09c5.81,0,8.68,2.24,8.68,8.61v4.41C322.755,47.05,320.655,50.06,315.265,50.06Zm28.7,2.94h3.22V6.94H357.2V4h-23.17V6.94h9.94Zm24.92-49h-3.22V53h3.22Zm26.67,22.68h-13.37V6.94h16.1V4h-19.32V53h19.32V50.06h-16.1V29.62h13.37ZM410.955,53V9.32L426.285,53h3.57V4h-2.94V45.37L412.215,4h-4.2V53Zm45.5-26.32h-13.37V6.94h16.1V4h-19.32V53h19.32V50.06h-16.1V29.62h13.37Zm22.68-23.1c-7.21.07-10.43,4.83-10.43,12.18,0,13.65,17.71,13.86,17.71,25.62,0,5.25-2.03,9.03-7.42,9.03s-7.42-3.78-7.42-9.03V38.65h-3.08v2.52c0,7.07,3.08,12.25,10.57,12.25s10.57-5.18,10.57-12.25c0-13.51-17.71-13.72-17.71-25.62,0-5.18,1.96-9.03,7.28-9.03s7.28,3.92,7.28,9.1v1.26h3.08V15.83C489.565,8.76,486.555,3.58,479.135,3.58ZM522.885,53h3.22V6.94h10.01V4h-23.17V6.94h9.94Zm24.78-11.83V4h-3.22V41.03c0,7,3.01,12.39,10.5,12.39s10.43-5.39,10.43-12.39V4h-3.01V41.17c0,5.25-1.96,9.31-7.35,9.31S547.665,46.42,547.665,41.17ZM590.715,53h18.62V50.06h-15.4V4h-3.22Zm31.15-49h-3.22V53h3.22Zm20.44-.42c-7.49,0-10.57,5.32-10.57,12.39V41.03c0,7.07,3.08,12.39,10.57,12.39s10.57-5.32,10.57-12.39v-5.6H649.8v5.81c0,5.25-2.03,9.17-7.42,9.17s-7.42-3.92-7.42-9.17V15.76c0-5.25,2.03-9.24,7.42-9.24s7.42,3.99,7.42,9.24v4.27h3.08V15.97C652.875,8.9,649.8,3.58,642.3,3.58Zm36.89,23.1h-13.37V6.94h16.1V4H662.6V53h19.32V50.06h-16.1V29.62H679.2ZM694.595,53V9.32L709.925,53h3.57V4h-2.94V45.37L695.855,4h-4.2V53Zm39.27-49.42c-7.49,0-10.57,5.32-10.57,12.39V41.03c0,7.07,3.08,12.39,10.57,12.39s10.57-5.32,10.57-12.39v-5.6h-3.08v5.81c0,5.25-2.03,9.17-7.42,9.17s-7.42-3.92-7.42-9.17V15.76c0-5.25,2.03-9.24,7.42-9.24s7.42,3.99,7.42,9.24v4.27h3.08V15.97C744.435,8.9,741.355,3.58,733.865,3.58Zm23.52.42h-3.22V53h3.22Zm14.77,38.15h15.26L789.865,53h3.22L782.165,3.93h-4.69L766.765,53h2.94Zm.49-2.8,7.07-31.71,7.21,31.71ZM249.4,80h-10.78v49H249.4c7.56,0,10.85-4.97,10.85-12.18V92.18C260.245,84.97,256.955,80,249.4,80Zm-.07,46.06h-7.49V82.94h7.49c5.39,0,7.7,3.71,7.7,9.1v24.92C257.025,122.35,254.785,126.06,249.325,126.06Zm37.31-23.38h-13.37V82.94h16.1V80h-19.32v49h19.32v-2.94h-16.1V105.62h13.37Zm47.81,15.47h15.26l2.45,10.85h3.22l-10.92-49.07h-4.69L329.055,129H332Zm.49-2.8,7.07-31.71,7.21,31.71ZM365.6,80h-3.29l10.78,49h4.76l10.64-49h-3.01l-9.94,45.29Zm35.49,0h-3.22v49h3.22Zm14.77,38.15h15.26l2.45,10.85h3.22l-10.92-49.07h-4.69L410.465,129h2.94Zm.49-2.8,7.07-31.71,7.21,31.71Zm40.11-35.77c-7.49,0-10.57,5.32-10.57,12.39v25.06c0,7.07,3.08,12.39,10.57,12.39s10.57-5.32,10.57-12.39v-5.6h-3.08v5.81c0,5.25-2.03,9.17-7.42,9.17s-7.42-3.92-7.42-9.17V91.76c0-5.25,2.03-9.24,7.42-9.24s7.42,3.99,7.42,9.24v4.27h3.08V91.97C467.025,84.9,463.945,79.58,456.455,79.58Zm23.52.42h-3.22v49h3.22Zm26.25-9.94h-3.36l-4.97,6.65h2.45Zm-5.67,9.52c-7.42,0-10.71,5.25-10.71,12.39v25.06c0,7.14,3.29,12.39,10.71,12.39,7.56,0,10.85-5.25,10.85-12.39V91.97C511.4,84.83,508.115,79.58,500.555,79.58Zm0,2.94c5.46,0,7.63,3.92,7.63,9.24v25.48c0,5.32-2.17,9.24-7.63,9.24-5.39,0-7.49-3.92-7.49-9.24V91.76C493.065,86.44,495.165,82.52,500.555,82.52ZM524.145,129V85.32L539.475,129h3.57V80h-2.94v41.37L525.405,80h-4.2v49Zm54.6-49.42c-7.49,0-10.57,5.32-10.57,12.39v25.06c0,7.07,3.08,12.39,10.57,12.39s10.57-5.32,10.57-12.39v-5.6h-3.08v5.81c0,5.25-2.03,9.17-7.42,9.17s-7.42-3.92-7.42-9.17V91.76c0-5.25,2.03-9.24,7.42-9.24s7.42,3.99,7.42,9.24v4.27h3.08V91.97C589.315,84.9,586.235,79.58,578.745,79.58Zm20.09,12.39v25.06c0,7.14,3.29,12.39,10.71,12.39,7.56,0,10.85-5.25,10.85-12.39V91.97c0-7.14-3.29-12.39-10.85-12.39C602.125,79.58,598.835,84.83,598.835,91.97Zm3.22,25.27V91.76c0-5.32,2.1-9.24,7.49-9.24,5.46,0,7.63,3.92,7.63,9.24v25.48c0,5.32-2.17,9.24-7.63,9.24C604.155,126.48,602.055,122.56,602.055,117.24Zm44.59,11.69,10.22-43.47V129h3.08V80h-4.62l-10.22,43.33L634.815,80H630.2v49h2.87V85.6l10.36,43.33Zm39.97-26.25h-13.37V82.94h16.1V80h-19.32v49h19.32v-2.94h-16.1V105.62h13.37ZM709.3,80h-10.22v49h3.22V107.09h5.11c5.6,0,9.17,1.82,9.17,8.33v7.7c0,2.66.21,4.41,1.05,5.88h3.36c-1.05-1.61-1.19-3.85-1.19-5.88v-7.63c0-5.32-2.03-8.89-7.07-10.01,4.83-1.12,7.07-4.41,7.07-10.15V91.06C719.8,84.13,716.785,80,709.3,80Zm-1.82,24.15H702.3V82.94h6.93c5.32,0,7.35,3.15,7.35,8.4v4.62C716.575,102.54,713.215,104.15,707.475,104.15Zm33.46-24.57c-7.49,0-10.57,5.32-10.57,12.39v25.06c0,7.07,3.08,12.39,10.57,12.39s10.57-5.32,10.57-12.39v-5.6h-3.08v5.81c0,5.25-2.03,9.17-7.42,9.17s-7.42-3.92-7.42-9.17V91.76c0-5.25,2.03-9.24,7.42-9.24s7.42,3.99,7.42,9.24v4.27h3.08V91.97C751.505,84.9,748.425,79.58,740.935,79.58Zm23.52.42h-3.22v49h3.22Zm14.77,38.15h15.26l2.45,10.85h3.22l-10.92-49.07h-4.69L773.835,129h2.94Zm.49-2.8,7.07-31.71,7.21,31.71ZM809.535,129h18.62v-2.94h-15.4V80h-3.22Z" transform="translate(244.385 5877)" fill="#fff"/>
  </g>
</svg>
