<svg xmlns="http://www.w3.org/2000/svg" width="158" height="158" viewBox="0 0 158 158">
  <g id="img-whatsapp-ayuda" transform="translate(-49.667 -49.667)">
    <circle id="Ellipse_67" data-name="Ellipse 67" cx="79" cy="79" r="79" transform="translate(49.667 49.667)" fill="#fff"/>
    <ellipse id="Ellipse_68" data-name="Ellipse 68" cx="26.047" cy="28.393" rx="26.047" ry="28.393" transform="translate(102.62 69.562)" fill="#ffe2b0"/>
    <path id="Path_9438" data-name="Path 9438" d="M246.919,251.245l-5.651,5.259-5.848-5.259V237.08h11.5Z" transform="translate(-112.503 -113.508)" fill="#f5d9a9"/>
    <path id="Path_9439" data-name="Path 9439" d="M235.622,114.3l-21.216,11.773c3.2,14.859,24.754,19.542,24.754,19.542-4.469,9.545-13.944,15.932-23.005,15.932a24.546,24.546,0,0,1-15.522-5.593,25.1,25.1,0,0,0,19.468,9.538c14.385,0,26.047-12.712,26.047-28.393A29.251,29.251,0,0,0,235.622,114.3Z" transform="translate(-91.433 -39.145)" fill="#f5d9a9"/>
    <rect id="Rectangle_4660" data-name="Rectangle 4660" width="120.575" height="5.961" rx="2.981" transform="translate(68.379 192.504)" fill="#835f5c"/>
    <path id="Path_9440" data-name="Path 9440" d="M228.8,106.4c-6.963-7.619-16.559-8.12-23.422-6.987-7.04,1.163-19.849,7.118-21.673,24.077,0,0,12.224.343,20.448-6.712C208.833,125.1,218,133.807,235.9,133.807,235.9,133.807,239.524,118.132,228.8,106.4Z" transform="translate(-81.182 -29.852)" fill="#835f5c"/>
    <path id="Path_9441" data-name="Path 9441" d="M214.316,266.97c-6.752-1.612-22.876-6.97-22.876-6.97l-5.248,9.859L181.339,260s-18.409,5.451-24.91,7.887c-5.886,2.205-9.489,29.5-11.625,42.9-.6,3.761,7.419,9.189,7.419,9.189H219s9.07-6.611,8.475-9.887C225.032,296.638,223.057,269.057,214.316,266.97Z" transform="translate(-57.601 -127.39)" fill="#03254b"/>
    <g id="Group_5358" data-name="Group 5358" transform="translate(98.76 66.558)">
      <path id="Path_9444" data-name="Path 9444" d="M174.164,122.553c-.016-.547-.3-13.51,8.251-22.312C187.4,95.1,194.363,92.5,203.1,92.5c15.939,0,23.491,8.181,27.019,15.043a36.073,36.073,0,0,1,3.85,14.993h-1.183a35.552,35.552,0,0,0-3.739-14.489C224.134,98.516,215.4,93.683,203.1,93.683c-8.408,0-15.083,2.484-19.839,7.382-8.2,8.447-7.921,21.324-7.917,21.453Z" transform="translate(-174.159 -92.5)" fill="#0d297a"/>
    </g>
    <g id="Group_5364" data-name="Group 5364" transform="translate(91.387 144.819)">
      <path id="Rectangle_4661" data-name="Rectangle 4661" d="M7.09,0H67.47a7.09,7.09,0,0,1,7.09,7.09V36.247a7.091,7.091,0,0,1-7.091,7.091H7.09A7.09,7.09,0,0,1,0,36.248V7.09A7.09,7.09,0,0,1,7.09,0Z" transform="translate(0)" fill="#367dd8"/>
      <path id="Path_9445" data-name="Path 9445" d="M227.227,290.96h-2.663s-6.217,40.542-69.1,40.542h0a2.8,2.8,0,0,0,2.8,2.8h68.969a2.8,2.8,0,0,0,2.8-2.8V293.756A2.8,2.8,0,0,0,227.227,290.96Z" transform="translate(-155.462 -290.96)" fill="#6798d6"/>
      <g id="Group_5363" data-name="Group 5363" transform="translate(0 41.741)">
        <g id="Group_5362" data-name="Group 5362" transform="translate(6.781)">
          <path id="Path_9452" data-name="Path 9452" d="M186.038,399.491c0,2.5-.581.713-1.3.713H173.957c-.717,0-1.3,1.407-1.3-.713v-1.383a1.3,1.3,0,0,1,1.3-1.3H184.74a1.3,1.3,0,0,1,1.3,1.3Z" transform="translate(-172.658 -396.809)" fill="#fff"/>
          <path id="Path_9453" data-name="Path 9453" d="M306.793,400.254c0,.717-.581.567-1.3.567H294.711c-.717,0-1.3.2-1.3-.517v-2.2a1.3,1.3,0,0,1,1.3-1.3h10.783a1.3,1.3,0,0,1,1.3,1.3Z" transform="translate(-245.794 -396.809)" fill="#fff"/>
        </g>
        <path id="Path_9454" data-name="Path 9454" d="M230.023,405.24a1.631,1.631,0,0,1-1.631,1.631h-71.3a1.631,1.631,0,0,1-1.631-1.631h0a1.631,1.631,0,0,1,1.631-1.631h71.3a1.631,1.631,0,0,1,1.631,1.631Z" transform="translate(-155.462 -400.927)" fill="#4383d4"/>
      </g>
    </g>
    <g id="Group_5365" data-name="Group 5365" transform="translate(98.641 103.859)">
      <path id="Path_9455" data-name="Path 9455" d="M196.278,205.941c-8.73,0-15.053-2.234-18.794-6.641a16.152,16.152,0,0,1-3.5-12.209l1.168.192a15.224,15.224,0,0,0,3.242,11.264c3.507,4.122,9.524,6.211,17.882,6.211Z" transform="translate(-173.859 -187.091)" fill="#0d297a"/>
    </g>
    <g id="Group_5368" data-name="Group 5368" transform="translate(94.582 87.752)">
      <g id="Group_5366" data-name="Group 5366">
        <path id="Path_9456" data-name="Path 9456" d="M171.377,167.7h0a7.812,7.812,0,0,1-7.811-7.812v-.879a7.811,7.811,0,0,1,7.811-7.811h0" transform="translate(-163.566 -149.242)" fill="#ff8e1c"/>
        <path id="Path_9457" data-name="Path 9457" d="M181.987,164.955a1.7,1.7,0,0,1-1.7,1.695h0a1.7,1.7,0,0,1-1.695-1.695V147.939a1.7,1.7,0,0,1,1.695-1.695h0a1.7,1.7,0,0,1,1.7,1.695Z" transform="translate(-172.67 -146.244)" fill="#0d297a"/>
      </g>
      <g id="Group_5367" data-name="Group 5367" transform="translate(58.851)">
        <path id="Path_9458" data-name="Path 9458" d="M316.625,151.194h0a7.812,7.812,0,0,1,7.812,7.811v.879a7.812,7.812,0,0,1-7.812,7.812h0" transform="translate(-315.119 -149.242)" fill="#ff8e1c"/>
        <path id="Path_9459" data-name="Path 9459" d="M320.333,153.566a7.777,7.777,0,0,1,1.735,4.9v.879a7.813,7.813,0,0,1-5.443,7.443v2.341a7.812,7.812,0,0,0,7.812-7.812v-.879A7.81,7.81,0,0,0,320.333,153.566Z" transform="translate(-315.119 -150.679)" fill="#ed841a"/>
        <path id="Path_9460" data-name="Path 9460" d="M312.8,147.939a1.7,1.7,0,0,1,1.695-1.695h0a1.7,1.7,0,0,1,1.7,1.695v17.016a1.7,1.7,0,0,1-1.7,1.695h0a1.7,1.7,0,0,1-1.695-1.695Z" transform="translate(-312.805 -146.244)" fill="#0d297a"/>
      </g>
    </g>
    <path id="Path_9461" data-name="Path 9461" d="M232.928,228.584a3.131,3.131,0,1,1-3.131-3.131A3.131,3.131,0,0,1,232.928,228.584Z" transform="translate(-107.201 -106.466)" fill="#0d297a"/>
  </g>
</svg>
