<svg xmlns="http://www.w3.org/2000/svg" width="340.222" height="111" viewBox="0 0 340.222 111">
  <g id="logo-anac3" transform="translate(-143.493 -6454)">
    <g id="Group_4142" data-name="Group 4142" transform="translate(143.493 6454)">
      <path id="Path_8194" data-name="Path 8194" d="M126.652,293.1c-4.085-2.149-8.452-3.646-12.709-5.387-2.021-.826-2.63-1.724-1.733-3.839,4.26-10.045,8.4-20.138,12.606-30.207.35-.84.637-1.892,1.907-1.669,1.343.235,1.352,1.307,1.352,2.355q0,18.13.011,36.261a2.7,2.7,0,0,1-.965,2.486Z" transform="translate(-73.632 -182.1)" fill="#005c98"/>
      <path id="Path_8195" data-name="Path 8195" d="M151.748,293.051a5.3,5.3,0,0,1-.5-2.949q0-17.663,0-35.326a3.583,3.583,0,0,1,.312-2.271c.849-1.157,2.128-.687,2.888,1.127q4.338,10.35,8.624,20.721c1.286,3.094,2.587,6.182,3.859,9.282,1.152,2.809,1.115,2.84-1.767,4.073-4.158,1.779-8.458,3.231-12.474,5.342Z" transform="translate(-94.503 -182.051)" fill="#005c98"/>
      <path id="Path_8196" data-name="Path 8196" d="M167.276,246.106a2.856,2.856,0,0,1,2.1,1.135q12.683,12.641,25.351,25.3c1.719,1.722,1.592,2.468-.571,3.4-3.942,1.7-7.947,3.253-11.875,4.98-2.362,1.038-3.083-.477-3.772-2.143q-5.051-12.2-10.077-24.406c-.832-2.016-1.679-4.025-2.476-6.054C165.421,246.954,165.991,246.236,167.276,246.106Z" transform="translate(-102.205 -178.996)" fill="#00b7e9"/>
      <path id="Path_8197" data-name="Path 8197" d="M200.7,223.129q8.675,0,17.348,0c2.846.006,3.206.543,2.129,3.173-1.564,3.818-3.184,7.614-4.713,11.445-.665,1.665-1.478,2.277-3.356,1.484-10.134-4.279-20.318-8.44-30.474-12.67-.868-.362-2.138-.514-1.8-1.988.32-1.4,1.449-1.443,2.581-1.443Q191.554,223.132,200.7,223.129Z" transform="translate(-109.631 -166.824)" fill="#005c98"/>
      <path id="Path_8198" data-name="Path 8198" d="M81.887,170.276c-2.122-.829-4.464-1.7-6.768-2.652q-11.908-4.939-23.8-9.931c-2.809-1.176-2.946-1.521-1.766-4.389,1.513-3.677,2.983-7.374,4.594-11.008.964-2.174,1.791-2.3,3.469-.639q12.725,12.624,25.392,25.307c.714.714,1.48,1.5.924,2.658C83.566,170.4,82.839,170.391,81.887,170.276Z" transform="translate(-40.292 -123.074)" fill="#00b7e9"/>
      <path id="Path_8199" data-name="Path 8199" d="M97.988,247.482c-.976,2.492-1.9,4.976-2.917,7.423-3.312,7.994-6.7,15.957-9.957,23.974-.833,2.053-1.732,2.852-4.012,1.8-3.758-1.729-7.667-3.126-11.474-4.752-2.222-.949-2.353-1.7-.659-3.393Q81.64,259.86,94.352,247.225a2.99,2.99,0,0,1,1.965-1.165C97.312,246.025,98,246.364,97.988,247.482Z" transform="translate(-50.333 -178.97)" fill="#00b7e9"/>
      <path id="Path_8200" data-name="Path 8200" d="M181.432,121.708c2.146.847,4.618,1.809,7.079,2.8,1.884.758,3.764,1.529,5.627,2.338,2.038.885,2.193,1.607.573,3.235q-8.341,8.387-16.742,16.715-4.23,4.217-8.463,8.431c-.9.89-1.865,1.989-3.217,1.132-1.4-.887-.4-2.128.006-3.128q5.988-14.605,12.064-29.175C178.86,122.857,179.282,121.451,181.432,121.708Z" transform="translate(-102.106 -113.094)" fill="#00b7e9"/>
      <path id="Path_8201" data-name="Path 8201" d="M51.194,223.12q8.788,0,17.577,0c1.209,0,2.485-.043,2.813,1.453.339,1.548-1.08,1.712-2.012,2.1-10.082,4.192-20.19,8.32-30.26,12.54-1.657.694-2.565.474-3.249-1.257-1.6-4.052-3.354-8.046-5-12.081-.846-2.071-.444-2.7,1.852-2.719,6.093-.048,12.187-.016,18.281-.016Z" transform="translate(-30.651 -166.819)" fill="#005c98"/>
      <path id="Path_8202" data-name="Path 8202" d="M82.118,238.163c1.653-.007,2.348,1.1,1.612,2.365a8.281,8.281,0,0,1-1.37,1.59q-12.109,12.089-24.233,24.161c-2.424,2.413-3.029,2.324-4.392-.813-1.616-3.718-3.1-7.494-4.692-11.221-.681-1.592-.14-2.451,1.381-3.071,6.731-2.744,13.441-5.539,20.158-8.317q4.982-2.06,9.965-4.121C81.121,238.5,81.715,238.308,82.118,238.163Z" transform="translate(-40.236 -174.789)" fill="#00b7e9"/>
      <path id="Path_8203" data-name="Path 8203" d="M209.009,155.211a1.982,1.982,0,0,1-1.483,2.089q-15.485,6.373-30.973,12.74c-.9.369-1.86.624-2.55-.328-.807-1.113,0-1.888.727-2.617q12.76-12.732,25.538-25.444c1.74-1.725,2.643-1.465,3.558.775,1.472,3.606,2.981,7.2,4.461,10.8C208.582,153.942,208.818,154.683,209.009,155.211Z" transform="translate(-106.395 -123.077)" fill="#00b7e9"/>
      <path id="Path_8204" data-name="Path 8204" d="M175.634,238.122c.264.086.719.2,1.148.378,10.019,4.135,20.022,8.31,30.064,12.392,2.029.825,2.583,1.883,1.675,3.926-1.643,3.7-3.076,7.486-4.7,11.192-1.011,2.31-1.847,2.467-3.595.732q-12.769-12.672-25.486-25.4c-.665-.664-1.393-1.341-.855-2.427A1.58,1.58,0,0,1,175.634,238.122Z" transform="translate(-106.413 -174.762)" fill="#00b7e9"/>
      <path id="Path_8205" data-name="Path 8205" d="M97.889,154.822c.073.842-.135,1.41-.807,1.673a1.949,1.949,0,0,1-2.154-.51c-2.084-1.992-4.177-3.975-6.216-6.012q-9.752-9.748-19.464-19.537c-2.073-2.089-2-2.523.714-3.691,3.727-1.6,7.509-3.078,11.235-4.683,1.93-.832,2.983-.311,3.785,1.636,4.093,9.928,8.286,19.816,12.437,29.721C97.629,153.919,97.766,154.45,97.889,154.822Z" transform="translate(-50.323 -113.095)" fill="#00b7e9"/>
      <path id="Path_8206" data-name="Path 8206" d="M200.3,200.4q-8.793,0-17.585-.009c-1.153,0-2.506.2-2.818-1.391-.3-1.538,1.1-1.736,2.024-2.121q14.805-6.158,29.647-12.228c2.674-1.1,3.029-.934,4.169,1.8q2.291,5.5,4.53,11.017c.993,2.439.691,2.916-1.913,2.924C212.338,200.418,206.32,200.4,200.3,200.4Z" transform="translate(-109.674 -146.112)" fill="#005c98"/>
      <path id="Path_8207" data-name="Path 8207" d="M51.044,200.428c-5.941,0-11.882.016-17.823-.01-2.771-.012-3.067-.475-2.006-3.058,1.6-3.889,3.3-7.739,4.827-11.655.639-1.636,1.6-1.959,3.091-1.344q15.58,6.44,31.155,12.891c.827.343,1.585.767,1.264,1.893-.325,1.142-1.223,1.287-2.215,1.286Q60.191,200.429,51.044,200.428Z" transform="translate(-30.647 -146.139)" fill="#005c98"/>
      <path id="Path_8208" data-name="Path 8208" d="M128.07,123.913q0,8.776-.005,17.551c0,1.074.209,2.34-1.246,2.675-1.541.355-1.75-.989-2.151-1.95-4.146-9.925-8.238-19.873-12.432-29.778-.846-2-.6-3.091,1.584-3.89,3.885-1.423,7.665-3.13,11.514-4.657,2.14-.849,2.715-.467,2.727,1.8C128.092,111.744,128.071,117.829,128.07,123.913Z" transform="translate(-73.621 -103.439)" fill="#005c98"/>
      <path id="Path_8209" data-name="Path 8209" d="M151.277,123.649c0-6.006-.019-12.011.008-18.016.01-2.265.566-2.639,2.706-1.779,4.06,1.631,8.075,3.374,12.145,4.98,1.536.606,1.771,1.423,1.159,2.885C162.99,122,158.738,132.3,154.466,142.6c-.368.885-.763,1.8-2,1.527s-1.187-1.277-1.187-2.226Q151.277,132.774,151.277,123.649Z" transform="translate(-94.533 -103.428)" fill="#005c98"/>
      <path id="Path_8210" data-name="Path 8210" d="M138.576,219.916a8.914,8.914,0,1,1,9.111-8.971A8.988,8.988,0,0,1,138.576,219.916Z" transform="translate(-83.012 -155.687)" fill="#fecd2c"/>
    </g>
    <g id="Group_4144" data-name="Group 4144" transform="translate(275.115 6465.949)">
      <text id="de_Aviación_Civil" data-name="de Aviación Civil" transform="translate(0.276 93.051)" font-size="17" font-family="SegoeUI, Segoe UI"><tspan x="0" y="0">de Aviación Civil</tspan></text>
      <text id="Administración_Nacional" data-name="Administración Nacional" transform="translate(0.276 72.051)" font-size="17" font-family="SegoeUI, Segoe UI"><tspan x="0" y="0">Administración Nacional</tspan></text>
      <g id="Group_4143" data-name="Group 4143" transform="translate(1.873 0)">
        <path id="Path_8211" data-name="Path 8211" d="M432.023,474.692c0-8.011,0-15.3,0-22.594,0-3.984.006-3.985,3.986-3.988,2.535,0,5.071.047,7.6-.016,1.546-.039,2.33.423,2.326,2.135q-.053,22.718.009,45.437c0,1.608-.752,2.009-2.153,2-3.711-.028-7.432.126-11.13-.1a4.629,4.629,0,0,1-2.931-1.86c-5.653-7.771-11.19-15.625-16.875-23.613v25.531c-4.151,0-8.1.1-12.035-.121-.508-.028-1.314-1.691-1.324-2.6-.1-9.465-.073-18.931-.076-28.4,0-5.228.071-10.459-.028-15.686-.04-2.119.72-2.853,2.849-2.744,3.7.19,8.03-1.015,10.945.525,3.009,1.589,4.7,5.714,6.869,8.8C423.933,462.911,427.731,468.478,432.023,474.692Z" transform="translate(-341.336 -447.169)"/>
        <path id="Path_8212" data-name="Path 8212" d="M343.275,497.788c-4.872,0-9.552.061-14.225-.081-.551-.017-1.3-1.066-1.563-1.78-2.334-6.384-2.308-6.393-9.18-6.393-.362,0-.723,0-1.086,0-2.441.02-5.426-.8-7.168.307-1.646,1.049-1.934,4.154-2.931,6.3-.3.641-.959,1.568-1.477,1.584-4.206.129-8.418.072-13.14.072,1.711-5.344,3.243-10.187,4.812-15.018,3.415-10.51,6.906-21,10.232-31.534.711-2.253,1.753-3.119,4.2-3,4.6.218,9.228-.026,13.835.144a3.327,3.327,0,0,1,2.5,1.7c5.143,15.433,10.157,30.91,15.185,46.381A6.391,6.391,0,0,1,343.275,497.788Zm-20.587-18.823-5.175-17.311-.509.028c-1.635,5.694-3.27,11.388-4.962,17.283Z" transform="translate(-292.505 -447.367)"/>
        <path id="Path_8213" data-name="Path 8213" d="M548.892,497.828c-5.031,0-9.631.076-14.222-.089-.622-.022-1.476-1.148-1.757-1.93-2.249-6.25-2.214-6.262-8.959-6.262-.634,0-1.268-.016-1.9,0-2.34.068-5.2-.639-6.863.456-1.5.987-1.6,3.986-2.485,6.028-.305.706-1.08,1.7-1.67,1.717-4.127.149-8.261.079-12.911.079.65-2.25,1.109-4.038,1.68-5.79,4.464-13.678,9-27.333,13.371-41.042.677-2.124,1.648-2.8,3.824-2.728,4.612.162,9.235.111,13.851.016a2.555,2.555,0,0,1,2.945,2.034c4.821,14.98,9.712,29.938,14.567,44.907C548.576,495.889,548.646,496.6,548.892,497.828Zm-26.123-37.136c-1.853,6.5-3.51,12.316-5.211,18.284h10.6C526.383,472.964,524.67,467.149,522.768,460.692Z" transform="translate(-386.439 -447.381)"/>
        <path id="Path_8214" data-name="Path 8214" d="M634.523,460.191c-7.785-2.892-15.178-4.087-20.4,3.988-3.434,5.313-3.005,13.467.767,18.108,5.454,6.709,12.374,5.293,19.806,3.084,1.189,2.908,2.463,5.846,3.534,8.856.14.393-.636,1.486-1.2,1.7-10.441,3.88-20.74,4.261-30.278-2.331-6.315-4.365-8.951-10.975-9.353-18.4-.528-9.739,2.36-18.168,10.6-24.1,5.563-4.005,12.006-4.876,18.625-4.284a82.722,82.722,0,0,1,10.322,2c1.558.344,1.9,1.294,1.186,2.823C636.862,454.381,635.764,457.223,634.523,460.191Z" transform="translate(-431.767 -446.637)"/>
      </g>
    </g>
  </g>
</svg>
