<svg xmlns="http://www.w3.org/2000/svg" width="472" height="111" viewBox="0 0 472 111">
  <g id="logo-anac" transform="translate(-431 -6736)">
    <rect id="Rectangle_2970" data-name="Rectangle 2970" width="472" height="111" transform="translate(431 6736)" fill="#fff"/>
    <g id="Group_4141" data-name="Group 4141" transform="translate(678.437 6775)">
      <g id="Group_4140" data-name="Group 4140" transform="translate(0)">
        <path id="Path_8187" data-name="Path 8187" d="M63.9,14.693h3.726L75.052,32.76H71.234l-1.509-3.722H61.853L60.279,32.76H56.461Zm1.889,4.79-2.572,6.2h5.13Zm10.641-4.79h3.779l4.855,12.835,4.92-12.835h3.779L86.808,32.76H83.266Zm20.022,0H100.1V32.76H96.452Zm13.658,0h3.726l7.426,18.067h-3.818l-1.509-3.722h-7.872l-1.574,3.722h-3.818ZM112,19.483l-2.572,6.2h5.13Zm29.849-1.609-2.572,2.3a8.205,8.205,0,0,0-5.9-2.592,6.581,6.581,0,0,0-4.664,1.769,5.727,5.727,0,0,0-1.9,4.36,6.111,6.111,0,0,0,.84,3.206,5.842,5.842,0,0,0,2.375,2.2,7.281,7.281,0,0,0,3.411.8,7.456,7.456,0,0,0,2.926-.559,10.473,10.473,0,0,0,2.913-2.033l2.493,2.432a13.707,13.707,0,0,1-4.041,2.708,11.7,11.7,0,0,1-4.343.755,10.376,10.376,0,0,1-7.367-2.671,8.943,8.943,0,0,1-2.867-6.847,8.908,8.908,0,0,1,1.305-4.8,9.451,9.451,0,0,1,3.739-3.378,11.112,11.112,0,0,1,5.242-1.277,11.576,11.576,0,0,1,4.6.946A10.962,10.962,0,0,1,141.849,17.874Zm2.952-3.181h3.647V32.76H144.8Zm16.9-.454a9.907,9.907,0,0,1,7.039,2.776,8.947,8.947,0,0,1,2.946,6.768,8.847,8.847,0,0,1-2.906,6.694A10.556,10.556,0,0,1,154.51,30.4a9.034,9.034,0,0,1-2.873-6.682,8.917,8.917,0,0,1,1.338-4.766,9.615,9.615,0,0,1,3.68-3.445A10.411,10.411,0,0,1,161.7,14.238ZM161.66,17.6a6.261,6.261,0,0,0-4.5,1.744,5.87,5.87,0,0,0-1.824,4.434,5.637,5.637,0,0,0,2.3,4.741,6.56,6.56,0,0,0,4.094,1.363,6.178,6.178,0,0,0,4.448-1.769,6.086,6.086,0,0,0-.013-8.727A6.237,6.237,0,0,0,161.66,17.6Zm13.5-2.911h3.516l8.279,11.889V14.693h3.674V32.76H187.1l-8.266-11.853V32.76h-3.674Z" transform="translate(-56.461 -14.238)" fill="#64b4ec"/>
        <path id="Path_8188" data-name="Path 8188" d="M148.856,66.79l-2.572,2.3a8.205,8.205,0,0,0-5.9-2.592,6.581,6.581,0,0,0-4.664,1.769,5.727,5.727,0,0,0-1.9,4.36,6.111,6.111,0,0,0,.84,3.206,5.842,5.842,0,0,0,2.375,2.2,7.281,7.281,0,0,0,3.411.8,7.456,7.456,0,0,0,2.926-.559,10.474,10.474,0,0,0,2.913-2.033l2.493,2.432a13.708,13.708,0,0,1-4.041,2.708,11.7,11.7,0,0,1-4.343.755,10.376,10.376,0,0,1-7.367-2.671,9.562,9.562,0,0,1-1.561-11.65,9.45,9.45,0,0,1,3.739-3.378,11.112,11.112,0,0,1,5.242-1.277,11.576,11.576,0,0,1,4.6.946A10.963,10.963,0,0,1,148.856,66.79Zm2.952-3.181h3.647V81.677h-3.647Zm6.311,0H161.9l4.855,12.835,4.92-12.835h3.779L168.5,81.677h-3.542Zm20.022,0h3.647V81.677h-3.647Zm7.78,0h3.674V78.4h5.353v3.279h-9.027Zm-51.76,23.3Z" transform="translate(11.426 -63.155)" fill="#64b4ec"/>
      </g>
      <path id="Path_8189" data-name="Path 8189" d="M50.068,112.526h3.726l7.426,18.067H57.4l-1.509-3.722H48.021l-1.574,3.722H42.629Zm1.889,4.79-2.572,6.2h5.13Zm12.359-4.79h3.9a13.715,13.715,0,0,1,4.559.534,4.6,4.6,0,0,1,2.185,1.775,5.17,5.17,0,0,1,.827,2.935,4.773,4.773,0,0,1-.912,2.978,5.54,5.54,0,0,1-2.749,1.812l4.566,8.033H72.675l-4.343-7.652h-.341v7.652H64.317Zm3.674,7.062h1.155a4.8,4.8,0,0,0,2.421-.43,1.569,1.569,0,0,0,.663-1.425,1.658,1.658,0,0,0-.328-1.026,1.808,1.808,0,0,0-.879-.626,7.144,7.144,0,0,0-2.021-.19h-1.01Zm29.482-4.115-2.585,2.4a7.875,7.875,0,0,0-5.72-2.432,6.778,6.778,0,0,0-4.769,1.769,5.626,5.626,0,0,0-1.922,4.3,5.774,5.774,0,0,0,1.994,4.434,7.033,7.033,0,0,0,4.92,1.818,6.355,6.355,0,0,0,3.208-.749,5.381,5.381,0,0,0,2.106-2.346H89.115v-3.23h9.709l.026.762a8.419,8.419,0,0,1-1.312,4.5,8.889,8.889,0,0,1-3.4,3.243,10.214,10.214,0,0,1-4.894,1.118,11.466,11.466,0,0,1-5.36-1.222,9.44,9.44,0,0,1-5.1-8.358,8.742,8.742,0,0,1,2.532-6.239,10.306,10.306,0,0,1,7.82-3.157,12.62,12.62,0,0,1,4.71.872A10.785,10.785,0,0,1,97.472,115.474Zm4.763-2.948h10.536v3.365h-6.888v3.267h6.888v3.3h-6.888v4.753h6.888v3.378H102.235Zm13.973,0h3.516L128,124.415V112.526h3.674v18.067h-3.529l-8.266-11.853v11.853h-3.674Zm17.962,0h10.667v3.39h-3.516v14.677h-3.726V115.916H134.17Zm12.924,0h3.647v18.067h-3.647Zm7.794,0H158.4l8.279,11.889V112.526h3.674v18.067h-3.529l-8.266-11.853v11.853h-3.674Zm25.742,0h3.726l7.426,18.067h-3.818l-1.509-3.722h-7.872l-1.574,3.722H173.19Zm1.889,4.79-2.572,6.2h5.13Z" transform="translate(-42.629 -88.291)" fill="#64b4ec"/>
    </g>
    <path id="Path_8191" data-name="Path 8191" d="M20.85,31.373h9.113L48.125,75.338H38.787L35.1,66.282H15.844l-3.851,9.056H2.656Zm4.621,11.656L19.181,58.123H31.728ZM55.12,31.373h8.6L83.968,60.3V31.373h8.985V75.338H84.321L64.1,46.5V75.338H55.12Zm62.957,0h9.113l18.162,43.964h-9.338l-3.69-9.056H113.072l-3.851,9.056H99.883ZM122.7,43.029l-6.289,15.093h12.547Zm73-3.915L189.41,44.7Q182.992,38.4,174.97,38.4a16.142,16.142,0,0,0-11.407,4.3,13.9,13.9,0,0,0-4.637,10.61,14.813,14.813,0,0,0,2.054,7.8,14.26,14.26,0,0,0,5.808,5.35A17.881,17.881,0,0,0,175.13,68.4a18.316,18.316,0,0,0,7.156-1.36A25.618,25.618,0,0,0,189.41,62.1l6.1,5.918a33.538,33.538,0,0,1-9.883,6.59A28.737,28.737,0,0,1,175,76.443q-11.006,0-18.018-6.5a21.708,21.708,0,0,1-7.011-16.662,21.593,21.593,0,0,1,3.193-11.686,23.072,23.072,0,0,1,9.145-8.219,27.286,27.286,0,0,1,12.819-3.108,28.435,28.435,0,0,1,11.247,2.3A26.811,26.811,0,0,1,195.7,39.114Z" transform="translate(443.344 6742.732)" fill="#233d65"/>
    <rect id="Rectangle_2969" data-name="Rectangle 2969" width="58" height="4" transform="translate(663.5 6767) rotate(90)" fill="#64b4ec"/>
  </g>
</svg>
