<svg xmlns="http://www.w3.org/2000/svg" width="33.961" height="33.961" viewBox="0 0 33.961 33.961">
  <path id="ico-guardar" d="M32.3,4.271,29.69,1.659a5.653,5.653,0,0,0-4-1.659H3.891A3.891,3.891,0,0,0,0,3.891V30.069a3.891,3.891,0,0,0,3.891,3.891H30.069a3.891,3.891,0,0,0,3.891-3.891V8.272A5.653,5.653,0,0,0,32.3,4.271ZM5.66,8.844V5.306A1.062,1.062,0,0,1,6.721,4.245H21.579a1.062,1.062,0,0,1,1.061,1.061V8.844a1.062,1.062,0,0,1-1.061,1.061H6.721A1.062,1.062,0,0,1,5.66,8.844ZM16.98,28.3a6.368,6.368,0,1,1,6.368-6.368A6.368,6.368,0,0,1,16.98,28.3Zm0,0" fill="#fff"/>
</svg>
