<svg xmlns="http://www.w3.org/2000/svg" width="31.004" height="31.269" viewBox="0 0 31.004 31.269">
  <g id="ico-share" transform="translate(-2.006)">
    <g id="Group_4277" data-name="Group 4277" transform="translate(2.006)">
      <path id="Path_9272" data-name="Path 9272" d="M27.309,19.873a5.66,5.66,0,0,0-4.45,2.183l-9.676-4.948a5.661,5.661,0,0,0,.218-1.474,5.614,5.614,0,0,0-.259-1.6L22.774,9.11A5.673,5.673,0,1,0,21.615,5.7a5.636,5.636,0,0,0,.219,1.479l-9.675,4.948a5.693,5.693,0,1,0,.084,6.921l9.629,4.926a5.628,5.628,0,0,0-.26,1.6,5.7,5.7,0,1,0,5.7-5.7Z" transform="translate(-2.006)" fill="#fff"/>
    </g>
  </g>
</svg>
