<svg xmlns="http://www.w3.org/2000/svg" width="30" height="30" viewBox="0 0 30 30">
  <g id="ico-web" transform="translate(-0.197 -0.083)">
    <rect id="Rectangle_3030" data-name="Rectangle 3030" width="30" height="30" rx="15" transform="translate(0.197 0.083)" fill="#f0efef"/>
    <path id="www" d="M15.073,2.587a8.829,8.829,0,1,0,0,12.486A8.824,8.824,0,0,0,15.073,2.587ZM14.7,13.814a8.849,8.849,0,0,0-1.319-.977,14.278,14.278,0,0,0,.533-3.445h2.6A7.634,7.634,0,0,1,14.7,13.814ZM1.148,9.393h2.6a14.278,14.278,0,0,0,.533,3.445,8.849,8.849,0,0,0-1.319.977A7.634,7.634,0,0,1,1.148,9.393ZM2.957,3.846a8.85,8.85,0,0,0,1.319.977,14.278,14.278,0,0,0-.533,3.445h-2.6A7.634,7.634,0,0,1,2.957,3.846ZM8.268,4.939a7.644,7.644,0,0,1-2.622-.664C6.123,3.046,7,1.573,8.268,1.208Zm0,1.127v2.2h-3.4A13.256,13.256,0,0,1,5.3,5.351,8.77,8.77,0,0,0,8.268,6.066Zm0,3.327v2.2A8.77,8.77,0,0,0,5.3,12.31a13.256,13.256,0,0,1-.427-2.917Zm0,3.329v3.731C7,16.088,6.123,14.614,5.646,13.386A7.644,7.644,0,0,1,8.268,12.721Zm1.125,0a7.644,7.644,0,0,1,2.622.664c-.477,1.228-1.356,2.7-2.622,3.067Zm0-1.127v-2.2h3.4a13.256,13.256,0,0,1-.427,2.917,8.77,8.77,0,0,0-2.973-.715Zm0-3.327v-2.2a8.769,8.769,0,0,0,2.973-.715,13.256,13.256,0,0,1,.427,2.917Zm0-3.329V1.208c1.266.365,2.145,1.838,2.622,3.067A7.644,7.644,0,0,1,9.393,4.939ZM11.92,1.769a7.67,7.67,0,0,1,1.994,1.274,7.733,7.733,0,0,1-.905.687A8.471,8.471,0,0,0,11.92,1.769ZM4.652,3.73a7.736,7.736,0,0,1-.905-.687A7.67,7.67,0,0,1,5.741,1.769,8.473,8.473,0,0,0,4.652,3.73Zm0,10.2a8.471,8.471,0,0,0,1.089,1.961,7.67,7.67,0,0,1-1.994-1.274A7.733,7.733,0,0,1,4.652,13.93Zm8.358,0a7.736,7.736,0,0,1,.905.687,7.67,7.67,0,0,1-1.994,1.274,8.47,8.47,0,0,0,1.089-1.96Zm.909-5.663a14.278,14.278,0,0,0-.533-3.445A8.851,8.851,0,0,0,14.7,3.846a7.634,7.634,0,0,1,1.809,4.422Z" transform="translate(6.197 6.084)" fill="#606060"/>
  </g>
</svg>
