<svg id="ico-pdf" xmlns="http://www.w3.org/2000/svg" width="37.601" height="37.601" viewBox="0 0 37.601 37.601">
  <path id="Path_9273" data-name="Path 9273" d="M119.009,0H93.3A3.309,3.309,0,0,0,90,3.3V6.683h25.26a4.856,4.856,0,0,1,4.851,4.851V26.068a4.856,4.856,0,0,1-4.851,4.851H90V34.3a3.309,3.309,0,0,0,3.3,3.3h25.7a3.309,3.309,0,0,0,3.3-3.3V3.3A3.309,3.309,0,0,0,119.009,0Zm0,0" transform="translate(-84.712)" fill="#fff"/>
  <path id="Path_9274" data-name="Path 9274" d="M269.484,263.75h-.734v6.61h.734a1.838,1.838,0,0,0,1.836-1.836v-2.938A1.838,1.838,0,0,0,269.484,263.75Zm0,0" transform="translate(-252.96 -248.254)" fill="#fff"/>
  <path id="Path_9275" data-name="Path 9275" d="M113.6,263.75h-1.1v2.938h1.1a1.469,1.469,0,1,0,0-2.938Zm0,0" transform="translate(-105.89 -248.254)" fill="#fff"/>
  <path id="Path_9276" data-name="Path 9276" d="M33.195,168.431V153.9a2.65,2.65,0,0,0-2.648-2.648H2.648A2.65,2.65,0,0,0,0,153.9v14.534a2.65,2.65,0,0,0,2.648,2.648h27.9A2.65,2.65,0,0,0,33.195,168.431ZM7.711,163H6.61v2.57a1.1,1.1,0,1,1-2.2,0v-8.813a1.1,1.1,0,0,1,1.1-1.1h2.2a3.672,3.672,0,0,1,0,7.344Zm12.852-.367a4.044,4.044,0,0,1-4.039,4.039H14.688a1.1,1.1,0,0,1-1.1-1.1v-8.813a1.1,1.1,0,0,1,1.1-1.1h1.836a4.044,4.044,0,0,1,4.039,4.039Zm7.124-4.774H24.97v2.2h2.2a1.1,1.1,0,1,1,0,2.2h-2.2v3.3a1.1,1.1,0,1,1-2.2,0v-8.813a1.1,1.1,0,0,1,1.1-1.1h3.819a1.1,1.1,0,1,1,0,2.2Zm0,0" transform="translate(0 -142.364)" fill="#fff"/>
</svg>
