<svg xmlns="http://www.w3.org/2000/svg" width="49.533" height="51.033" viewBox="0 0 49.533 51.033">
  <g id="ico-instagram" transform="translate(0.5 0.5)">
    <g id="Group_3696" data-name="Group 3696">
      <g id="Group_3695" data-name="Group 3695">
        <path id="Path_7915" data-name="Path 7915" d="M34.435,0H14.1A14.337,14.337,0,0,0,0,14.534V35.5A14.337,14.337,0,0,0,14.1,50.033H34.435A14.337,14.337,0,0,0,48.533,35.5V14.534A14.337,14.337,0,0,0,34.435,0ZM44.741,35.5A10.481,10.481,0,0,1,34.435,46.124H14.1A10.481,10.481,0,0,1,3.792,35.5V14.534A10.481,10.481,0,0,1,14.1,3.909H34.435A10.481,10.481,0,0,1,44.741,14.534Z" fill="#fff" stroke="#e4e8f0" stroke-width="1"/>
      </g>
    </g>
    <g id="Group_3698" data-name="Group 3698" transform="translate(11.185 11.531)">
      <g id="Group_3697" data-name="Group 3697">
        <path id="Path_7916" data-name="Path 7916" d="M131.081,118a13.492,13.492,0,1,0,13.081,13.486A13.3,13.3,0,0,0,131.081,118Zm0,23.062a9.581,9.581,0,1,1,9.29-9.577A9.447,9.447,0,0,1,131.081,141.062Z" transform="translate(-118 -118)" fill="#fff" stroke="#e4e8f0" stroke-width="1"/>
      </g>
    </g>
    <g id="Group_3700" data-name="Group 3700" transform="translate(34.881 8.69)">
      <g id="Group_3699" data-name="Group 3699" transform="translate(0 0)">
        <ellipse id="Ellipse_52" data-name="Ellipse 52" cx="2.18" cy="2.247" rx="2.18" ry="2.247" fill="#fff" stroke="#e4e8f0" stroke-width="1"/>
      </g>
    </g>
  </g>
</svg>
