<svg xmlns="http://www.w3.org/2000/svg" width="90.572" height="24.56" viewBox="0 0 90.572 24.56">
  <g id="ico-alta" transform="translate(-384.965 -759.5)">
    <g id="Group_6387" data-name="Group 6387" transform="translate(0 80)">
      <path id="Path_9436" data-name="Path 9436" d="M-11975.835,350.125l-4.662-3.394h0l-4.661,3.4a2,2,0,0,1-2.379,0,1.987,1.987,0,0,1-.737-2.253l1.792-5.484-4.67-3.363a1.98,1.98,0,0,1-.739-2.253,1.989,1.989,0,0,1,1.924-1.4h5.791l1.756-5.462a1.993,1.993,0,0,1,1.917-1.4h.01a1.988,1.988,0,0,1,1.919,1.384l1.812,5.477h5.742a1.989,1.989,0,0,1,1.921,1.39,1.975,1.975,0,0,1-.729,2.252l-4.649,3.383h-.023l1.786,5.47a1.985,1.985,0,0,1-.739,2.253,2.012,2.012,0,0,1-1.185.391A2.018,2.018,0,0,1-11975.835,350.125Z" transform="translate(12377.997 352.48)" fill="#ff9721" stroke="#ff9721" stroke-width="2"/>
      <path id="Path_9436-2" data-name="Path 9436" d="M-11975.834,350.125l-4.662-3.394h0l-4.66,3.4a2,2,0,0,1-2.38,0,1.987,1.987,0,0,1-.737-2.253l1.792-5.484-4.67-3.363a1.98,1.98,0,0,1-.739-2.253,1.99,1.99,0,0,1,1.925-1.4h5.791l1.756-5.462a1.991,1.991,0,0,1,1.917-1.4h.01a1.987,1.987,0,0,1,1.918,1.384l1.813,5.477h5.741a1.989,1.989,0,0,1,1.922,1.39,1.977,1.977,0,0,1-.729,2.252l-5.249,3.594,2.363,5.259a1.987,1.987,0,0,1-.74,2.253,2.01,2.01,0,0,1-1.185.391A2.016,2.016,0,0,1-11975.834,350.125Z" transform="translate(12410.497 351.98)" fill="#ff9721" stroke="#ff9721" stroke-width="2"/>
      <path id="Path_9601" data-name="Path 9601" d="M-11975.834,350.125l-4.662-3.394h0l-4.66,3.4a2,2,0,0,1-2.38,0,1.987,1.987,0,0,1-.737-2.253l1.792-5.484-4.67-3.363a1.98,1.98,0,0,1-.739-2.253,1.99,1.99,0,0,1,1.925-1.4h5.791l1.756-5.462a1.991,1.991,0,0,1,1.917-1.4h.01a1.987,1.987,0,0,1,1.918,1.384l1.813,5.477h5.741a1.989,1.989,0,0,1,1.922,1.39,1.977,1.977,0,0,1-.729,2.252l-5.249,3.594,2.363,5.259a1.987,1.987,0,0,1-.74,2.253,2.01,2.01,0,0,1-1.185.391A2.016,2.016,0,0,1-11975.834,350.125Z" transform="translate(12443.498 351.98)" fill="#ff9721" stroke="#ff9721" stroke-width="2"/>
    </g>
  </g>
</svg>
