<svg id="ico-instagram" xmlns="http://www.w3.org/2000/svg" xmlns:xlink="http://www.w3.org/1999/xlink" width="30" height="30" viewBox="0 0 30 30">
  <defs>
    <linearGradient id="linear-gradient" x1="0.084" y1="0.916" x2="0.916" y2="0.084" gradientUnits="objectBoundingBox">
      <stop offset="0" stop-color="#ffd600"/>
      <stop offset="0.5" stop-color="#ff0100"/>
      <stop offset="1" stop-color="#d800b9"/>
    </linearGradient>
    <linearGradient id="linear-gradient-2" x1="0.146" y1="0.854" x2="0.854" y2="0.146" gradientUnits="objectBoundingBox">
      <stop offset="0" stop-color="#ff6400"/>
      <stop offset="0.5" stop-color="#ff0100"/>
      <stop offset="1" stop-color="#fd0056"/>
    </linearGradient>
    <linearGradient id="linear-gradient-3" x1="0.146" y1="0.854" x2="0.854" y2="0.146" gradientUnits="objectBoundingBox">
      <stop offset="0" stop-color="#f30072"/>
      <stop offset="1" stop-color="#e50097"/>
    </linearGradient>
  </defs>
  <rect id="Rectangle_3019" data-name="Rectangle 3019" width="30" height="30" rx="15" transform="translate(0 0)" fill="#f0efef"/>
  <g id="instagram" transform="translate(6.6 6.6)">
    <path id="Path_9168" data-name="Path 9168" d="M17.233,5.079a6.345,6.345,0,0,0-.4-2.1,4.236,4.236,0,0,0-1-1.531,4.237,4.237,0,0,0-1.531-1,6.344,6.344,0,0,0-2.1-.4C11.284.01,10.99,0,8.642,0S6,.01,5.079.052a6.346,6.346,0,0,0-2.1.4,4.236,4.236,0,0,0-1.531,1,4.236,4.236,0,0,0-1,1.531,6.344,6.344,0,0,0-.4,2.1C.01,6,0,6.3,0,8.642s.01,2.642.052,3.563a6.343,6.343,0,0,0,.4,2.1,4.235,4.235,0,0,0,1,1.531,4.235,4.235,0,0,0,1.531,1,6.342,6.342,0,0,0,2.1.4c.922.042,1.216.052,3.563.052s2.642-.01,3.563-.052a6.342,6.342,0,0,0,2.1-.4A4.418,4.418,0,0,0,16.831,14.3a6.343,6.343,0,0,0,.4-2.1c.042-.922.052-1.216.052-3.563S17.275,6,17.233,5.079Zm-1.556,7.056a4.782,4.782,0,0,1-.3,1.6,2.862,2.862,0,0,1-1.64,1.64,4.782,4.782,0,0,1-1.6.3c-.911.042-1.184.05-3.492.05s-2.581-.009-3.492-.05a4.783,4.783,0,0,1-1.6-.3,2.678,2.678,0,0,1-.994-.647,2.677,2.677,0,0,1-.647-.994,4.782,4.782,0,0,1-.3-1.6c-.042-.911-.05-1.185-.05-3.492s.009-2.581.05-3.492a4.785,4.785,0,0,1,.3-1.6,2.679,2.679,0,0,1,.647-.994,2.676,2.676,0,0,1,.994-.646,4.781,4.781,0,0,1,1.6-.3c.911-.042,1.185-.05,3.492-.05h0c2.308,0,2.581.009,3.492.051a4.783,4.783,0,0,1,1.6.3,2.68,2.68,0,0,1,.994.646,2.676,2.676,0,0,1,.646.994,4.777,4.777,0,0,1,.3,1.6c.042.911.05,1.185.05,3.492S15.719,11.223,15.677,12.135Zm0,0" fill="url(#linear-gradient)"/>
    <path id="Path_9169" data-name="Path 9169" d="M128.977,124.539a4.438,4.438,0,1,0,4.438,4.438A4.438,4.438,0,0,0,128.977,124.539Zm0,7.319a2.881,2.881,0,1,1,2.881-2.881A2.881,2.881,0,0,1,128.977,131.858Zm0,0" transform="translate(-120.335 -120.335)" fill="url(#linear-gradient-2)"/>
    <path id="Path_9170" data-name="Path 9170" d="M364,89.662a1.037,1.037,0,1,1-1.037-1.037A1.037,1.037,0,0,1,364,89.662Zm0,0" transform="translate(-349.711 -85.633)" fill="url(#linear-gradient-3)"/>
  </g>
</svg>
