<svg id="ico-twitter" xmlns="http://www.w3.org/2000/svg" width="30" height="30" viewBox="0 0 30 30">
  <rect id="Rectangle_3018" data-name="Rectangle 3018" width="30" height="30" rx="15" transform="translate(0 0)" fill="#f0efef"/>
  <path id="twitter" d="M15.844,49.527a6.763,6.763,0,0,1-1.872.514,3.235,3.235,0,0,0,1.429-1.8,6.485,6.485,0,0,1-2.06.788,3.247,3.247,0,0,0-5.619,2.225A3.356,3.356,0,0,0,7.8,52a9.189,9.189,0,0,1-6.7-3.4,3.258,3.258,0,0,0,1,4.349,3.2,3.2,0,0,1-1.468-.4v.036a3.267,3.267,0,0,0,2.6,3.2,3.237,3.237,0,0,1-.852.107,2.867,2.867,0,0,1-.615-.056A3.28,3.28,0,0,0,4.8,58.092,6.519,6.519,0,0,1,.777,59.48,6.073,6.073,0,0,1,0,59.435,9.133,9.133,0,0,0,4.983,60.9a9.19,9.19,0,0,0,9.245-9.259c0-.144,0-.283-.012-.421A6.486,6.486,0,0,0,15.844,49.527Z" transform="translate(7.207 -39.606)" fill="#03a9f4"/>
</svg>
