<svg xmlns="http://www.w3.org/2000/svg" width="91" height="91.003" viewBox="0 0 91 91.003">
  <g id="ico-ground" transform="translate(-23089 -2311.761)">
    <g id="Group_6466" data-name="Group 6466" transform="translate(23089 2311.761)">
      <g id="Group_6424" data-name="Group 6424" transform="translate(0 0)">
        <g id="Group_6363" data-name="Group 6363">
          <ellipse id="Ellipse_69" data-name="Ellipse 69" cx="45.5" cy="45.5" rx="45.5" ry="45.5" fill="#95be27"/>
        </g>
      </g>
    </g>
    <path id="Intersection_5" data-name="Intersection 5" d="M3.08,80.831a37.061,37.061,0,0,0,.393-5.095c.013-5-1.05-9.972-1.636-14.9C1.217,55.632.675,50.41.337,45.166a144.2,144.2,0,0,1-.2-15.946c.208-4.514,1.284-8.782,2.178-13.144a44.644,44.644,0,0,0,.881-6.3,45.507,45.507,0,0,1,60.112,3.317c-.068,3.146.036,6.3.179,9.415.138,3.027.343,6.051.518,9.076.165,2.83.213,5.646.266,8.481.091,4.9.439,9.82-.056,14.709-.483,4.773-1.644,9.337-1.067,14.191.293,2.46.677,4.9.923,7.367q.023.231.045.462A45.506,45.506,0,0,1,3.08,80.831Z" transform="translate(23103.096 2312.072)" fill="#95be13" opacity="0.5" style="mix-blend-mode: multiply;isolation: isolate"/>
    <g id="Group_6469" data-name="Group 6469" transform="translate(23117.658 2311.966)">
      <path id="Intersection_3" data-name="Intersection 3" d="M0,87.4V3.194A45.387,45.387,0,0,1,12.971,0h8.695A45.374,45.374,0,0,1,36.514,4.014V86.578A45.81,45.81,0,0,1,0,87.4Z" transform="translate(0 0)" fill="#333"/>
      <g id="Group_6427" data-name="Group 6427" transform="translate(0 0.918)">
        <g id="g3606" transform="translate(0 81.757) rotate(-90)">
          <path id="rect3339" d="M0,0H72.327V36.514H0Z" transform="translate(0)" fill="#333"/>
        </g>
        <g id="Group_6413" data-name="Group 6413" transform="translate(15.112 42.104)">
          <g id="Group_6405" data-name="Group 6405" transform="translate(2.623 5.152)">
            <rect id="Rectangle_6276" data-name="Rectangle 6276" width="0.99" height="11.461" transform="translate(0 0)" fill="#fff"/>
          </g>
          <g id="multimedia-option" transform="translate(0 0)">
            <g id="Group_6408" data-name="Group 6408" transform="translate(0 0)">
              <path id="Path_9611" data-name="Path 9611" d="M5.569,53.985l-2.412-3.14L.744,53.985,0,53.016l3.157-4.109,3.157,4.109Z" transform="translate(0 -48.907)" fill="#fff"/>
            </g>
          </g>
        </g>
        <g id="multimedia-option-2" data-name="multimedia-option" transform="translate(5.738 29.481)">
          <g id="Group_6408-2" data-name="Group 6408" transform="translate(0 0)">
            <path id="Path_9611-2" data-name="Path 9611" d="M4.635,52.591,2.628,50.313.62,52.591l-.62-.7,2.628-2.981,2.628,2.981Z" transform="translate(0 -48.907)" fill="#fff"/>
          </g>
        </g>
        <g id="multimedia-option-3" data-name="multimedia-option" transform="translate(15.649 29.481)">
          <g id="Group_6408-3" data-name="Group 6408" transform="translate(0 0)">
            <path id="Path_9611-3" data-name="Path 9611" d="M4.635,52.591,2.628,50.313.62,52.591l-.62-.7,2.628-2.981,2.628,2.981Z" transform="translate(0 -48.907)" fill="#fff"/>
          </g>
        </g>
        <g id="multimedia-option-4" data-name="multimedia-option" transform="translate(25.56 29.481)">
          <g id="Group_6408-4" data-name="Group 6408" transform="translate(0 0)">
            <path id="Path_9611-4" data-name="Path 9611" d="M4.635,52.591,2.628,50.313.62,52.591l-.62-.7,2.628-2.981,2.628,2.981Z" transform="translate(0 -48.907)" fill="#fff"/>
          </g>
        </g>
        <path id="rect3429" d="M0,0H15.665V1.262H0Z" transform="translate(6.281 22.451) rotate(-90)" fill="#fff"/>
        <path id="rect3431" d="M0,0H15.665V1.262H0Z" transform="translate(9.16 22.451) rotate(-90)" fill="#fff"/>
        <path id="rect3433" d="M0,0H15.665V1.262H0Z" transform="translate(12.039 22.451) rotate(-90)" fill="#fff"/>
        <path id="rect3435" d="M0,0H15.665V1.262H0Z" transform="translate(14.439 22.451) rotate(-90)" fill="#fff"/>
        <rect id="Rectangle_6277" data-name="Rectangle 6277" width="2" height="88.82" transform="translate(2.135 0)" fill="#fff"/>
        <path id="Path_9612" data-name="Path 9612" d="M0,0H1.043V88.66H0Z" transform="translate(32.862 0.009)" fill="#fff"/>
        <rect id="Rectangle_6280" data-name="Rectangle 6280" width="26" height="2" transform="translate(5.135 24.948)" fill="#fff"/>
        <path id="rect3429-2" data-name="rect3429" d="M0,0H15.665V1.262H0Z" transform="translate(21.157 22.451) rotate(-90)" fill="#fff"/>
        <path id="rect3431-2" data-name="rect3431" d="M0,0H15.665V1.262H0Z" transform="translate(24.037 22.451) rotate(-90)" fill="#fff"/>
        <path id="rect3433-2" data-name="rect3433" d="M0,0H15.665V1.262H0Z" transform="translate(26.916 22.451) rotate(-90)" fill="#fff"/>
        <path id="rect3435-2" data-name="rect3435" d="M0,0H15.665V1.262H0Z" transform="translate(29.795 22.451) rotate(-90)" fill="#fff"/>
        <g id="Group_6422" data-name="Group 6422" transform="translate(15.112 67.067)">
          <g id="Group_6405-2" data-name="Group 6405" transform="translate(2.623 5.152)">
            <rect id="Rectangle_6276-2" data-name="Rectangle 6276" width="0.99" height="11.461" transform="translate(0 0)" fill="#fff"/>
          </g>
          <g id="multimedia-option-5" data-name="multimedia-option" transform="translate(0 0)">
            <g id="Group_6408-5" data-name="Group 6408" transform="translate(0 0)">
              <path id="Path_9611-5" data-name="Path 9611" d="M5.569,53.985l-2.412-3.14L.744,53.985,0,53.016l3.157-4.109,3.157,4.109Z" transform="translate(0 -48.907)" fill="#fff"/>
            </g>
          </g>
        </g>
      </g>
    </g>
    <ellipse id="Ellipse_89" data-name="Ellipse 89" cx="1" cy="1.5" rx="1" ry="1.5" transform="translate(23111.84 2322.884)" fill="#fdb300"/>
    <circle id="Ellipse_90" data-name="Ellipse 90" cx="1" cy="1" r="1" transform="translate(23111.84 2333.84)" fill="#fdb300"/>
    <ellipse id="Ellipse_91" data-name="Ellipse 91" cx="1" cy="1.5" rx="1" ry="1.5" transform="translate(23111.84 2344.817)" fill="#fdb300"/>
    <circle id="Ellipse_92" data-name="Ellipse 92" cx="1" cy="1" r="1" transform="translate(23111.84 2356.793)" fill="#fdb300"/>
    <ellipse id="Ellipse_93" data-name="Ellipse 93" cx="1" cy="1.5" rx="1" ry="1.5" transform="translate(23111.84 2366.772)" fill="#fdb300"/>
    <circle id="Ellipse_94" data-name="Ellipse 94" cx="1" cy="1" r="1" transform="translate(23111.84 2378.749)" fill="#fdb300"/>
    <ellipse id="Ellipse_95" data-name="Ellipse 95" cx="1" cy="1.5" rx="1" ry="1.5" transform="translate(23111.84 2388.705)" fill="#fdb300"/>
    <ellipse id="Ellipse_96" data-name="Ellipse 96" cx="1.5" cy="2" rx="1.5" ry="2" transform="translate(23156.748 2322.884)" fill="#fdb300"/>
    <circle id="Ellipse_97" data-name="Ellipse 97" cx="1.5" cy="1.5" r="1.5" transform="translate(23156.748 2333.839)" fill="#fdb300"/>
    <ellipse id="Ellipse_98" data-name="Ellipse 98" cx="1.5" cy="2" rx="1.5" ry="2" transform="translate(23156.748 2344.816)" fill="#fdb300"/>
    <circle id="Ellipse_99" data-name="Ellipse 99" cx="1.5" cy="1.5" r="1.5" transform="translate(23156.748 2356.792)" fill="#fdb300"/>
    <ellipse id="Ellipse_100" data-name="Ellipse 100" cx="1.5" cy="2" rx="1.5" ry="2" transform="translate(23156.748 2366.771)" fill="#fdb300"/>
    <circle id="Ellipse_101" data-name="Ellipse 101" cx="1.5" cy="1.5" r="1.5" transform="translate(23156.748 2378.748)" fill="#fdb300"/>
    <ellipse id="Ellipse_102" data-name="Ellipse 102" cx="1.5" cy="2" rx="1.5" ry="2" transform="translate(23156.748 2388.705)" fill="#fdb300"/>
  </g>
</svg>
