<svg xmlns="http://www.w3.org/2000/svg" width="91" height="91" viewBox="0 0 91 91">
  <g id="ico-manuever" transform="translate(-733 -632.761)">
    <g id="Group_6396" data-name="Group 6396" transform="translate(733 632.761)">
      <g id="Group_6363" data-name="Group 6363">
        <circle id="Ellipse_69" data-name="Ellipse 69" cx="45.5" cy="45.5" r="45.5" fill="#f2ebee"/>
      </g>
    </g>
    <g id="steering" transform="translate(745.78 657.767)">
      <path id="Path_9602" data-name="Path 9602" d="M3.66,17.827.07,4.237A3.544,3.544,0,0,1,3.543,0H14.285a3.542,3.542,0,0,1,.022,7.084l-1.442.009L10.744,17.827,7.5,21.369Z" transform="translate(0)" fill="#48c8ef"/>
      <path id="Path_9603" data-name="Path 9603" d="M375.167,17.827l3.59-13.59a3.519,3.519,0,0,0-.733-2.938A3.766,3.766,0,0,0,375.167,0H364.542a3.542,3.542,0,0,0-.022,7.084l1.442.009,2.122,10.735,3.542,3.542Z" transform="translate(-318.38)" fill="#48c8ef"/>
      <path id="Path_9604" data-name="Path 9604" d="M38.084,165.167V151H31v14.167a14.167,14.167,0,0,0,14.167,14.167l3.542-3.542-3.542-3.542A7.084,7.084,0,0,1,38.084,165.167Z" transform="translate(-27.34 -133.173)" fill="#3e5959"/>
      <path id="Path_9605" data-name="Path 9605" d="M341.625,151v14.167a7.084,7.084,0,0,1-7.084,7.084L331,175.793l3.542,3.542a14.167,14.167,0,0,0,14.167-14.167V151Z" transform="translate(-291.922 -133.173)" fill="#293939"/>
      <rect id="Rectangle_6274" data-name="Rectangle 6274" width="6.822" height="17.542" transform="translate(27.176 43.37)" fill="#3e5959"/>
      <rect id="Rectangle_6275" data-name="Rectangle 6275" width="3.898" height="17.542" transform="translate(30.1 43.37)" fill="#293939"/>
      <path id="Path_9606" data-name="Path 9606" d="M175.793,193.4v12.4H151V193.4A12.41,12.41,0,0,1,163.4,181a12.456,12.456,0,0,1,12.4,12.4Z" transform="translate(-133.173 -159.631)" fill="#537983"/>
      <path id="Path_9607" data-name="Path 9607" d="M268.4,193.4v12.4H256V181a12.456,12.456,0,0,1,12.4,12.4Z" transform="translate(-225.777 -159.631)" fill="#3e5959"/>
      <path id="Path_9608" data-name="Path 9608" d="M216.313,241a5.313,5.313,0,1,0,5.313,5.313A5.305,5.305,0,0,0,216.313,241Z" transform="translate(-186.089 -212.548)" fill="#95e6fe"/>
      <path id="Path_9609" data-name="Path 9609" d="M261.313,246.313A5.306,5.306,0,0,1,256,251.625V241A5.305,5.305,0,0,1,261.313,246.313Z" transform="translate(-225.777 -212.548)" fill="#48c8ef"/>
    </g>
    <path id="Intersection_1" data-name="Intersection 1" d="M6.23,41.71A43.453,43.453,0,0,1,0,35.408c1.745-4.122,4.1-9.547,5.078-11.987.841-2.083,1.831-3.315,1.284-4.957-1.385-4.178-1.836-8.615-2.4-13.088A8.828,8.828,0,0,1,3.942,1.65C4.261.726,5.269-.272,6.235.068,7.38.461,7.992,2.369,11.9,10.662l.606,1.083V5.906a2.659,2.659,0,1,1,5.318-.021l.021,12.228c-.308,2.244-1.621,2.839-2.325,3.8-2.033,2.82-5.978,15.163-7.139,19.043a1.069,1.069,0,0,1-1.019.754Z" transform="translate(742.523 670.211)" fill="#ffcf9a"/>
    <path id="Intersection_2" data-name="Intersection 2" d="M3.942,40.061a8.828,8.828,0,0,1,.021-3.726c.564-4.473,1.015-8.911,2.4-13.089.547-1.642-.443-2.873-1.284-4.957C4.1,15.85,1.745,10.425,0,6.3A43.454,43.454,0,0,1,6.23,0H7.366A1.069,1.069,0,0,1,8.385.754c1.16,3.88,5.105,16.224,7.139,19.043.7.962,2.017,1.557,2.325,3.8l-.021,12.229a2.659,2.659,0,1,1-5.318-.021V29.966L11.9,31.049C7.992,39.342,7.38,41.25,6.235,41.642a1.189,1.189,0,0,1-.4.068A2.355,2.355,0,0,1,3.942,40.061Z" transform="translate(814.535 711.921) rotate(180)" fill="#ffcf9a"/>
    <path id="Shape" d="M11,28.05V38.612a1.062,1.062,0,1,0,2.123,0V30.651A2.654,2.654,0,0,0,11,28.05Z" transform="translate(788.576 645.217)" fill="#fac087"/>
    <path id="Shape-2" data-name="Shape" d="M13.123,28.05V38.612a1.061,1.061,0,1,1-2.123,0V30.651A2.654,2.654,0,0,1,13.123,28.05Z" transform="translate(744.375 645.217)" fill="#fac087"/>
  </g>
</svg>
