<svg id="ico-motor" xmlns="http://www.w3.org/2000/svg" width="91" height="91" viewBox="0 0 91 91">
  <g id="Group_6364" data-name="Group 6364" transform="translate(0 0)">
    <g id="Group_6363" data-name="Group 6363">
      <circle id="Ellipse_69" data-name="Ellipse 69" cx="45.5" cy="45.5" r="45.5" fill="#f2ebee"/>
    </g>
    <path id="Path_9595" data-name="Path 9595" d="M101.46,94.321a26.417,26.417,0,0,0,24.951-1.3l-2.753-4.56a21.114,21.114,0,0,1-21.849.018,26.416,26.416,0,0,0,20.962-13.6L118.108,72.3A21.131,21.131,0,0,1,99.2,83.242a26.418,26.418,0,0,0,11.346-22.26l-5.325.1a21.114,21.114,0,0,1-10.9,18.928,26.418,26.418,0,0,0-1.3-24.951l-4.56,2.753a21.114,21.114,0,0,1,.022,21.843A26.418,26.418,0,0,0,74.874,58.7L72.3,63.366A21.114,21.114,0,0,1,83.242,82.272a26.415,26.415,0,0,0-22.26-11.347l.1,5.325a21.128,21.128,0,0,1,18.928,10.9,26.418,26.418,0,0,0-24.951,1.3l2.753,4.56A21.114,21.114,0,0,1,79.658,93,26.42,26.42,0,0,0,58.7,106.6l4.664,2.573A21.115,21.115,0,0,1,82.271,98.232a26.418,26.418,0,0,0-11.347,22.26l5.325-.1a21.114,21.114,0,0,1,10.9-18.928,26.418,26.418,0,0,0,1.3,24.951l4.56-2.753a21.114,21.114,0,0,1-.022-21.843,26.418,26.418,0,0,0,13.6,20.957l2.573-4.664A21.114,21.114,0,0,1,98.231,99.2a26.414,26.414,0,0,0,21.735,11.353q.262,0,.525-.005l-.1-5.325a21.121,21.121,0,0,1-18.928-10.9Zm-4.685,2.535a26.758,26.758,0,0,0,1.426,2.3l-5.294-.1a26.747,26.747,0,0,0,.085,2.708l-4.534-2.737a26.771,26.771,0,0,0-1.281,2.387l-2.558-4.638a26.741,26.741,0,0,0-2.3,1.427l.1-5.3a26.8,26.8,0,0,0-2.708.085l2.737-4.534a26.77,26.77,0,0,0-2.387-1.281L84.7,84.619a26.716,26.716,0,0,0-1.427-2.3l5.3.1a26.74,26.74,0,0,0-.085-2.708l4.534,2.737A26.773,26.773,0,0,0,94.3,80.062L96.855,84.7a26.738,26.738,0,0,0,2.3-1.427l-.1,5.3c.176,0,.35.005.525.005.734,0,1.462-.034,2.184-.093l-2.739,4.537a26.775,26.775,0,0,0,2.387,1.281Z" transform="translate(-45.312 -45.313)" fill="#48c8ef"/>
  </g>
  <g id="Group_6365" data-name="Group 6365" transform="translate(43.062 9.75)">
    <path id="Path_9596" data-name="Path 9596" d="M258.288,417.005a21.313,21.313,0,0,1-2.288-5.3v6.677Z" transform="translate(-253.762 -348.419)" fill="#48c8ef"/>
    <path id="Path_9597" data-name="Path 9597" d="M265.565,94.313a26.595,26.595,0,0,0,25.039-1.3l-2.762-4.559a21.255,21.255,0,0,1-21.926.018,26.516,26.516,0,0,0,21.036-13.6l-4.68-2.572A21.219,21.219,0,0,1,263.3,83.237a26.383,26.383,0,0,0,11.386-22.256l-5.344.1A21.1,21.1,0,0,1,258.4,80.01a26.329,26.329,0,0,0-1.308-24.947l-4.525,2.722,2.238,5.306a21,21,0,0,1,0,11.321l-2.238,5.645,4.525,2.387a26.74,26.74,0,0,0,1.285-2.387l2.567,4.637a26.839,26.839,0,0,0,2.311-1.427l-.1,5.294c.176,0,.351.005.527.005.736,0,1.467-.034,2.192-.093l-2.749,4.537a26.894,26.894,0,0,0,2.4,1.28l-4.654,2.558a26.73,26.73,0,0,0,1.431,2.3l-5.313-.1a26.624,26.624,0,0,0,.085,2.707l-2.262-1.361,1.571,2.015c.507-1.813-.309,1.063.7-.6a26.407,26.407,0,0,0,13.652,20.953L273.3,118.1a21.1,21.1,0,0,1-10.979-18.9,26.535,26.535,0,0,0,21.811,11.351q.263,0,.527-.005l-.1-5.324A21.209,21.209,0,0,1,265.565,94.313Z" transform="translate(-252.567 -55.063)" fill="#367dd8"/>
  </g>
  <g id="Group_6366" data-name="Group 6366" transform="translate(33.479 33.479)">
    <ellipse id="Ellipse_70" data-name="Ellipse 70" cx="11.946" cy="11.946" rx="11.946" ry="11.946" fill="#95e6ff"/>
  </g>
  <path id="Path_9598" data-name="Path 9598" d="M256,188.951v23.891a11.946,11.946,0,0,0,0-23.891Z" transform="translate(-210.594 -155.472)" fill="#48c8ef"/>
</svg>
