<svg xmlns="http://www.w3.org/2000/svg" width="61.064" height="17.045" viewBox="0 0 61.064 17.045">
  <g id="ico-alta-small" transform="translate(-729.967 -703)">
    <g id="signs" transform="translate(730.999 704)">
      <path id="Path_9436" data-name="Path 9436" d="M-11980.337,343.251l-3.363-2.314h0l-3.363,2.315a1.509,1.509,0,0,1-1.717,0,1.312,1.312,0,0,1-.531-1.536l1.292-3.739-3.368-2.293a1.31,1.31,0,0,1-.534-1.536,1.429,1.429,0,0,1,1.388-.951h4.178l1.267-3.724a1.433,1.433,0,0,1,1.384-.954h.008a1.429,1.429,0,0,1,1.384.944l1.307,3.734h4.144a1.433,1.433,0,0,1,1.387.948,1.308,1.308,0,0,1-.526,1.535l-3.354,2.307h-.018l1.289,3.73a1.314,1.314,0,0,1-.533,1.536,1.511,1.511,0,0,1-.855.266A1.507,1.507,0,0,1-11980.337,343.251Z" transform="translate(11991.998 -328.52)" fill="#ff9721" stroke="#ff9721" stroke-width="2"/>
    </g>
    <g id="signs-2" data-name="signs" transform="translate(752.203 704)">
      <path id="Path_9436-2" data-name="Path 9436" d="M-11980.337,343.251l-3.363-2.314h0l-3.363,2.315a1.509,1.509,0,0,1-1.717,0,1.312,1.312,0,0,1-.531-1.536l1.292-3.739-3.368-2.293a1.31,1.31,0,0,1-.534-1.536,1.429,1.429,0,0,1,1.388-.951h4.178l1.267-3.724a1.433,1.433,0,0,1,1.384-.954h.008a1.429,1.429,0,0,1,1.384.944l1.307,3.734h4.144a1.433,1.433,0,0,1,1.387.948,1.308,1.308,0,0,1-.526,1.535l-3.354,2.307h-.018l1.289,3.73a1.314,1.314,0,0,1-.533,1.536,1.511,1.511,0,0,1-.855.266A1.507,1.507,0,0,1-11980.337,343.251Z" transform="translate(11991.998 -328.52)" fill="#ff9721" stroke="#ff9721" stroke-width="2"/>
    </g>
    <g id="signs-3" data-name="signs" transform="translate(773.405 704)">
      <path id="Path_9436-3" data-name="Path 9436" d="M-11980.337,343.251l-3.363-2.314h0l-3.363,2.315a1.509,1.509,0,0,1-1.717,0,1.312,1.312,0,0,1-.531-1.536l1.292-3.739-3.368-2.293a1.31,1.31,0,0,1-.534-1.536,1.429,1.429,0,0,1,1.388-.951h4.178l1.267-3.724a1.433,1.433,0,0,1,1.384-.954h.008a1.429,1.429,0,0,1,1.384.944l1.307,3.734h4.144a1.433,1.433,0,0,1,1.387.948,1.308,1.308,0,0,1-.526,1.535l-3.354,2.307h-.018l1.289,3.73a1.314,1.314,0,0,1-.533,1.536,1.511,1.511,0,0,1-.855.266A1.507,1.507,0,0,1-11980.337,343.251Z" transform="translate(11991.998 -328.52)" fill="#ff9721" stroke="#ff9721" stroke-width="2"/>
    </g>
  </g>
</svg>
